<svg version="1.1" xmlns="http://www.w3.org/2000/svg" viewBox="-43.0583892496034 -59.92622419756886 86.31066272048656 146.80636722821976" fill="none" stroke="black" stroke-width="0.6%" vector-effect="non-scaling-stroke">
    <path d="M -41.63323 -33.0382 L -10.40543 -35.90612 A 1 0.16663 157.25556 0 0 -9.88638 -36.03917" />
    <path d="M -41.91914 -33.72021 L -10.69134 -36.58813 A 1 0.16663 157.25556 0 0 -10.1723 -36.72118 L -9.88638 -36.03917" />
    <path d="M -41.77023 -33.06521 A 1 0.16663 157.25556 0 0 -41.63323 -33.0382 L -41.91914 -33.72021" />
    <path d="M -41.71641 -34.03754 A 1 0.16663 157.25556 0 0 -42.05614 -33.74721 A 1 0.16663 157.25556 0 0 -41.91914 -33.72021" />
    <path d="M 31.79454 -57.92447 A 1 0.16663 157.25556 0 0 32.13428 -58.21479" />
    <path d="M 31.69997 -57.87298 L 31.79454 -57.92447 L 31.50863 -58.60648 A 1 0.16663 157.25556 0 0 31.84837 -58.8968 A 1 0.16663 157.25556 0 0 31.71136 -58.9238 L 0.48357 -56.05588 A 1 0.16663 157.25556 0 0 -0.73933 -55.62351 L -0.7896 -55.59745 L -41.62184 -34.08902 L -41.71641 -34.03754" />
    <path d="M -8.83165 -36.52291 L 31.69997 -57.87298 L 31.41406 -58.55499 L 31.50863 -58.60648" />
    <path d="M -9.41817 -37.04657 L 31.41406 -58.55499" />
    <path d="M -9.46844 -37.02051 L -9.41817 -37.04657" />
    <path d="M -9.85139 -36.84402 A 1 0.16663 157.25556 0 0 -9.46844 -37.02051" />
    <path d="M -9.85139 -36.84402 L -9.47715 -37.04115 A 1 0.46078 62.22193 0 0 -9.52965 -37.03881 L -9.72859 -37.01806 L -10.31752 -36.70784" />
    <path d="M -10.1723 -36.72118 L -10.31752 -36.70784" />
    <path d="M -40.06456 23.3113 L -40.05968 23.40871 A 1 0.46078 62.22193 0 0 -39.44536 24.58 L -0.61483 57.47425" />
    <path d="M 19.9976 16.89089 L 20.21301 17.07338 L -9.32919 -36.05989 A 1 0.46078 62.22193 0 0 -10.11858 -36.72859 L -10.31752 -36.70784" />
    <path d="M -40.06456 -33.18227 L -40.06456 23.3113" />
    <path d="M -38.98097 -32.81928 L -39.44536 -33.21268 A 1 0.58434 310.26871 0 0 -39.64012 -32.6646 L -39.64167 -32.61706 L -39.17728 -32.22365 L -39.17728 24.33265 L -39.17108 24.42265 A 1 0.58434 310.26871 0 0 -39.03841 24.68204 L -39.50281 24.28864" />
    <path d="M -38.98097 24.72146 L -38.98097 -32.81928 A 1 0.58434 310.26871 0 0 -39.17573 -32.2712 L -39.17728 -32.22365" />
    <path d="M -0.01385 27.38842 L -0.0008 27.44297" />
    <path d="M 0.02695 27.42298 L -0.01385 27.38842" />
    <path d="M -0.79631 28.32727 C -0.79 28.33 -0.78 28.34 -0.77305 28.34641 C -0.77 28.35 -0.76 28.36 -0.75004 28.36417 C -0.74 28.37 -0.73 28.38 -0.72731 28.38055 C -0.72 28.39 -0.71 28.39 -0.70486 28.3955 C -0.7 28.4 -0.69 28.4 -0.68271 28.40901 C -0.68 28.41 -0.67 28.42 -0.66089 28.42106 C -0.65 28.42 -0.65 28.43 -0.63941 28.43164 C -0.63 28.43 -0.63 28.44 -0.61828 28.44072 C -0.62 28.44 -0.61 28.44 -0.61312 28.44273" />
    <path d="M -1.11377 27.92681 C -1.11 27.94 -1.1 27.96 -1.0883 27.97336 C -1.08 27.99 -1.07 28 -1.06141 28.01852 C -1.05 28.03 -1.04 28.05 -1.03273 28.06281 C -1.02 28.08 -1.01 28.09 -1.00266 28.10554 C -0.99 28.12 -0.98 28.13 -0.97125 28.14667 C -0.96 28.16 -0.95 28.17 -0.93857 28.18616 C -0.93 28.2 -0.92 28.21 -0.90467 28.22398 C -0.89 28.24 -0.88 28.25 -0.86961 28.26011 C -0.86 28.27 -0.85 28.28 -0.83347 28.29454 C -0.82 28.31 -0.81 28.32 -0.79631 28.32727" />
    <path d="M -1.23773 27.48823 C -1.24 27.5 -1.24 27.51 -1.23722 27.51454 C -1.24 27.52 -1.24 27.53 -1.23565 27.54125 C -1.23 27.55 -1.23 27.56 -1.23302 27.56837 C -1.23 27.58 -1.23 27.59 -1.22932 27.59587 C -1.23 27.61 -1.23 27.61 -1.22454 27.62375 C -1.22 27.63 -1.22 27.64 -1.21868 27.65198 C -1.22 27.66 -1.21 27.67 -1.21173 27.68055 C -1.21 27.69 -1.21 27.7 -1.2037 27.70943 C -1.2 27.72 -1.2 27.73 -1.19548 27.7359 C -1.19 27.74 -1.19 27.75 -1.18638 27.76261 C -1.18 27.77 -1.18 27.78 -1.1764 27.78953 C -1.17 27.8 -1.17 27.81 -1.16556 27.81665 C -1.16 27.83 -1.16 27.83 -1.15386 27.84395 C -1.15 27.85 -1.15 27.86 -1.14132 27.87142 C -1.14 27.88 -1.13 27.89 -1.12795 27.89905 C -1.12 27.91 -1.12 27.92 -1.11377 27.92681" />
    <path d="M -1.08233 27.23835 C -1.09 27.24 -1.09 27.24 -1.1003 27.23971 C -1.11 27.24 -1.11 27.24 -1.11725 27.24281 C -1.12 27.24 -1.13 27.25 -1.13316 27.24767 C -1.14 27.25 -1.14 27.25 -1.148 27.2543 C -1.15 27.26 -1.16 27.26 -1.15862 27.2606 C -1.16 27.26 -1.17 27.27 -1.16859 27.26794 C -1.17 27.27 -1.17 27.27 -1.17789 27.27633 C -1.18 27.28 -1.18 27.28 -1.18653 27.28578 C -1.19 27.29 -1.19 27.3 -1.19869 27.30263 C -1.2 27.31 -1.21 27.32 -1.20918 27.32201 C -1.21 27.33 -1.22 27.34 -1.21802 27.34387 C -1.22 27.35 -1.22 27.36 -1.2252 27.36816 C -1.23 27.38 -1.23 27.39 -1.23073 27.39482 C -1.23 27.4 -1.23 27.41 -1.23465 27.42378 C -1.24 27.43 -1.24 27.44 -1.23697 27.45494 C -1.24 27.47 -1.24 27.48 -1.23773 27.48823" />
    <path d="M -0.64514 27.4728 C -0.66 27.46 -0.67 27.45 -0.67852 27.44502 C -0.69 27.44 -0.7 27.43 -0.71137 27.41868 C -0.72 27.41 -0.73 27.4 -0.74366 27.39386 C -0.75 27.39 -0.76 27.38 -0.77535 27.37062 C -0.8 27.36 -0.82 27.34 -0.83678 27.32916 C -0.85 27.32 -0.86 27.32 -0.86644 27.31107 C -0.88 27.31 -0.89 27.3 -0.89533 27.29484 C -0.9 27.29 -0.91 27.29 -0.92152 27.28144 C -0.93 27.28 -0.94 27.27 -0.94698 27.26977 C -0.96 27.27 -0.96 27.26 -0.97166 27.25986 C -0.98 27.26 -0.99 27.25 -0.99554 27.25177 C -1 27.25 -1.01 27.25 -1.01858 27.24554 C -1.03 27.24 -1.03 27.24 -1.04075 27.2412 C -1.05 27.24 -1.06 27.24 -1.06201 27.23879 C -1.07 27.24 -1.08 27.24 -1.08233 27.23835" />
    <path d="M -0.42746 27.65721 L -0.64514 27.4728" />
    <path d="M -0.42746 27.53367 L -0.42746 27.65721" />
    <path d="M -0.4976 27.24969 C -0.49 27.26 -0.49 27.27 -0.4829 27.2814 C -0.48 27.29 -0.47 27.3 -0.46991 27.31308 C -0.47 27.32 -0.46 27.33 -0.4599 27.34098 C -0.46 27.35 -0.45 27.36 -0.45124 27.36881 C -0.45 27.38 -0.45 27.39 -0.44392 27.39657 C -0.44 27.41 -0.44 27.42 -0.43796 27.42424 C -0.44 27.43 -0.43 27.44 -0.43335 27.4518 C -0.43 27.46 -0.43 27.47 -0.43006 27.47924 C -0.43 27.49 -0.43 27.5 -0.42811 27.50653 C -0.43 27.52 -0.43 27.52 -0.42746 27.53367" />
    <path d="M -0.7044 26.99093 C -0.69 27 -0.68 27.01 -0.67199 27.01964 C -0.66 27.03 -0.65 27.04 -0.6413 27.04943 C -0.63 27.06 -0.62 27.07 -0.61243 27.08028 C -0.6 27.09 -0.59 27.1 -0.58544 27.11217 C -0.58 27.12 -0.57 27.13 -0.56041 27.1451 C -0.55 27.16 -0.54 27.17 -0.53739 27.17902 C -0.53 27.19 -0.52 27.2 -0.51644 27.2139 C -0.51 27.23 -0.5 27.24 -0.4976 27.24969" />
    <path d="M -0.90516 26.89354 C -0.9 26.89 -0.89 26.89 -0.88823 26.89381 C -0.88 26.89 -0.88 26.9 -0.86853 26.89668 C -0.86 26.9 -0.85 26.9 -0.84786 26.90223 C -0.84 26.9 -0.83 26.91 -0.82624 26.91046 C -0.82 26.91 -0.81 26.92 -0.80367 26.92135 C -0.8 26.93 -0.79 26.93 -0.78018 26.93487 C -0.77 26.94 -0.76 26.95 -0.75579 26.951 C -0.75 26.96 -0.74 26.96 -0.73052 26.9697 C -0.72 26.98 -0.71 26.98 -0.7044 26.99093" />
    <path d="M -0.98619 27.00077 C -0.99 27 -0.99 26.99 -0.98572 26.98572 C -0.99 26.98 -0.98 26.98 -0.98433 26.97179 C -0.98 26.97 -0.98 26.96 -0.982 26.959 C -0.98 26.95 -0.98 26.95 -0.97875 26.94733 C -0.98 26.94 -0.97 26.94 -0.97261 26.9329 C -0.97 26.93 -0.97 26.92 -0.96465 26.92071 C -0.96 26.92 -0.96 26.91 -0.95487 26.91078 C -0.95 26.91 -0.95 26.91 -0.9433 26.9031 C -0.94 26.9 -0.94 26.9 -0.93486 26.89932 C -0.93 26.9 -0.93 26.9 -0.92568 26.89647 C -0.92 26.9 -0.92 26.9 -0.91578 26.89454 C -0.91 26.89 -0.91 26.89 -0.90516 26.89354" />
    <path d="M -1.21113 26.81021 L -0.98619 27.00077" />
    <path d="M -1.14159 26.64166 C -1.15 26.65 -1.15 26.65 -1.15572 26.65334 C -1.16 26.66 -1.16 26.66 -1.16829 26.66662 C -1.17 26.67 -1.18 26.68 -1.17928 26.6815 C -1.18 26.69 -1.19 26.69 -1.18866 26.698 C -1.19 26.7 -1.19 26.71 -1.19643 26.7161 C -1.2 26.72 -1.2 26.73 -1.20257 26.73582 C -1.2 26.74 -1.21 26.75 -1.20706 26.75715 C -1.21 26.76 -1.21 26.77 -1.2099 26.78008 C -1.21 26.79 -1.21 26.8 -1.21113 26.81021" />
    <path d="M -0.95293 26.62779 C -0.96 26.63 -0.97 26.62 -0.97818 26.6208 C -0.99 26.62 -0.99 26.62 -1.00235 26.61587 C -1.01 26.61 -1.02 26.61 -1.02541 26.61301 C -1.03 26.61 -1.04 26.61 -1.04734 26.61225 C -1.05 26.61 -1.06 26.61 -1.06813 26.61359 C -1.07 26.61 -1.08 26.62 -1.08776 26.61705 C -1.09 26.62 -1.1 26.62 -1.10621 26.62263 C -1.11 26.62 -1.12 26.63 -1.12348 26.63035 C -1.13 26.63 -1.14 26.64 -1.14159 26.64166" />
    <path d="M -0.6911 26.78564 C -0.7 26.78 -0.71 26.77 -0.72613 26.75695 C -0.74 26.75 -0.75 26.74 -0.76054 26.73076 C -0.77 26.72 -0.78 26.71 -0.79431 26.70711 C -0.81 26.7 -0.82 26.69 -0.82743 26.68602 C -0.84 26.68 -0.85 26.67 -0.85987 26.66753 C -0.87 26.66 -0.88 26.66 -0.89161 26.65165 C -0.9 26.65 -0.91 26.64 -0.92263 26.6384 C -0.93 26.63 -0.94 26.63 -0.95293 26.62779" />
    <path d="M -0.33675 27.22171 C -0.34 27.21 -0.35 27.2 -0.35348 27.19078 C -0.36 27.18 -0.37 27.17 -0.37099 27.16029 C -0.38 27.15 -0.38 27.14 -0.38928 27.13028 C -0.4 27.12 -0.4 27.11 -0.40831 27.10075 C -0.41 27.09 -0.42 27.08 -0.42808 27.07173 C -0.43 27.06 -0.44 27.05 -0.44856 27.04322 C -0.46 27.03 -0.46 27.02 -0.46973 27.01525 C -0.48 27.01 -0.48 27 -0.49157 26.98783 C -0.5 26.98 -0.51 26.97 -0.51445 26.96049 C -0.52 26.95 -0.53 26.94 -0.53798 26.93374 C -0.55 26.92 -0.55 26.92 -0.56212 26.90757 C -0.57 26.9 -0.58 26.89 -0.58684 26.882 C -0.6 26.87 -0.6 26.87 -0.61213 26.85702 C -0.62 26.85 -0.63 26.84 -0.63796 26.83264 C -0.65 26.82 -0.66 26.82 -0.66429 26.80884 C -0.67 26.8 -0.68 26.79 -0.6911 26.78564" />
    <path d="M -0.20883 27.62719 C -0.21 27.62 -0.21 27.6 -0.21292 27.59381 C -0.21 27.58 -0.22 27.57 -0.21821 27.56021 C -0.22 27.55 -0.22 27.54 -0.22472 27.52642 C -0.23 27.52 -0.23 27.5 -0.23246 27.49247 C -0.24 27.48 -0.24 27.47 -0.24143 27.45837 C -0.24 27.45 -0.25 27.44 -0.25164 27.42417 C -0.26 27.41 -0.26 27.4 -0.26309 27.38988 C -0.27 27.38 -0.27 27.37 -0.27577 27.35554 C -0.28 27.34 -0.28 27.33 -0.28931 27.32204 C -0.29 27.31 -0.3 27.3 -0.304 27.28855 C -0.31 27.28 -0.31 27.27 -0.31982 27.2551 C -0.33 27.24 -0.33 27.23 -0.33675 27.22171" />
    <path d="M -3.0276 24.29181 L -3.32753 24.03774 L -3.32753 26.15395 L -3.09533 26.35065 L -3.09533 25.52655 L -3.11831 24.62194 L -2.54144 26.81987 L -2.36366 26.97047 L -1.78558 25.74656 L -1.80735 26.61763 L -1.80735 27.44173 L -1.57515 27.63843 L -1.57515 25.52222 L -1.87628 25.26712 L -2.45194 26.50616 L -3.0276 24.29181 Z" />
    <path d="M -9.41174 -37.03122 L -9.41817 -37.04657" />
    <path d="M 20.80194 16.76316 L -8.74027 -36.37011 L -9.32919 -36.05989" />
    <path d="M -8.74027 -36.37011 A 1 0.46078 62.22193 0 0 -9.41174 -37.03122" />
    <path d="M -9.46216 -37.00552 L -9.45856 -37.00735 L -9.45495 -37.00919 L -9.45135 -37.01103 L -9.44775 -37.01286 L -9.44415 -37.0147 L -9.44055 -37.01653 L -9.43695 -37.01837 L -9.43334 -37.02021 L -9.42974 -37.02204 L -9.42614 -37.02388 L -9.42254 -37.02571 L -9.41894 -37.02755 L -9.41534 -37.02938 L -9.41174 -37.03122" />
    <path d="M -9.46216 -37.00552 L -9.46844 -37.02051" />
    <path d="M -9.85139 -36.84402 C -9.83 -36.85 -9.82 -36.86 -9.7996 -36.86349 C -9.78 -36.87 -9.77 -36.88 -9.74803 -36.8831 C -9.74 -36.89 -9.72 -36.89 -9.71063 -36.8976 C -9.7 -36.9 -9.69 -36.91 -9.67354 -36.91228 C -9.66 -36.92 -9.65 -36.92 -9.63685 -36.92718 C -9.62 -36.93 -9.61 -36.94 -9.60065 -36.94231 C -9.59 -36.95 -9.58 -36.95 -9.56501 -36.9577 C -9.55 -36.96 -9.54 -36.97 -9.53 -36.97336 C -9.52 -36.98 -9.51 -36.98 -9.4957 -36.9893 C -9.48 -36.99 -9.47 -37 -9.46216 -37.00552" />
    <path d="M -9.52965 -37.03881 L -10.11858 -36.72859" />
    <path d="M 0.6348 85.77292 L 41.46704 64.26449 A 1 0.58434 310.26871 0 0 42.25072 63.15425 L 42.25227 63.10671 L 42.25227 6.55041 L 42.24608 6.4604 A 1 0.58434 310.26871 0 0 42.11341 6.20101 L 41.64901 5.80761 A 1 0.58434 310.26871 0 0 41.00264 5.82647 L 41.46704 6.21987 L 0.6348 27.72829 A 1 0.58434 310.26871 0 0 -0.14888 28.83853 L -0.15043 28.88608 L -0.15043 85.44238 L -0.14424 85.53238 A 1 0.58434 310.26871 0 0 -0.01157 85.79178 L -0.47597 85.39837" />
    <path d="M -0.60864 85.13898 A 1 0.58434 310.26871 0 0 -0.47597 85.39837" />
    <path d="M -0.61483 85.04898 L -0.60864 85.13898 L -0.14424 85.53238" />
    <path d="M -0.61483 28.49267 L -0.61483 85.04898 L -0.15043 85.44238" />
    <path d="M -0.61328 28.44513 L -0.61483 28.49267 L -0.15043 28.88608" />
    <path d="M 0.1704 27.33489 A 1 0.58434 310.26871 0 0 -0.61328 28.44513 L -0.14888 28.83853" />
    <path d="M 19.9976 16.89089 L 0.1704 27.33489 L 0.6348 27.72829" />
    <path d="M 41.00264 5.82647 L 20.67466 16.53425" />
    <path d="M 20.80194 16.76316 L 20.21301 17.07338" />
    <path d="M -39.64012 -32.6646 L -39.17573 -32.2712" />
    <path d="M -39.03841 24.68204 A 1 0.58434 310.26871 0 0 -38.98097 24.72146" />
    <path d="M -39.63548 24.02925 A 1 0.58434 310.26871 0 0 -39.50281 24.28864" />
    <path d="M -39.63548 24.02925 L -39.17108 24.42265" />
    <path d="M -39.64167 23.93924 L -39.63548 24.02925" />
    <path d="M -39.64167 -32.61706 L -39.64167 23.93924 L -39.17728 24.33265" />
    <path d="M -0.92464 27.49496 Q -0.94 27.54 -0.94327 27.33312 L -1.23773 27.48823" />
    <path d="M -0.94327 27.33312 Q -0.94 27.09 -0.94057 27.27257" />
    <path d="M -0.2204 27.54814 L -0.42746 27.65721" />
    <path d="M -0.74637 26.79937 L -0.91667 26.6551 Q -0.92 26.54 -0.9164 26.64087" />
    <path d="M -0.91667 26.6551 L -1.21113 26.81021" />
    <path d="M -2.15748 26.35105 L -2.45194 26.50616" />
    <path d="M -2.15748 26.35105 L -1.71669 25.40232" />
    <path d="M -1.57515 27.31942 L -1.80735 27.44173" />
    <path d="M -1.57515 26.49532 L -1.80735 26.61763" />
    <path d="M -1.57515 25.63572 L -1.78558 25.74656" />
    <path d="M -2.22718 26.68152 L -2.24697 26.66476 L -2.30844 26.43057" />
    <path d="M -2.24697 26.66476 L -2.54144 26.81987" />
    <path d="M -2.96304 24.54016 L -3.11831 24.62194" />
    <path d="M -3.09533 26.03164 L -3.32753 26.15395" />
    <path d="M -3.03306 24.57704 L -3.03306 24.28719" />
    <path d="M 3.22543 -14.84915 L 3.22543 -42.87399" />
    <path d="M -0.01157 85.79178 A 1 0.58434 310.26871 0 0 0.6348 85.77292" />
    <path d="M 42.11341 6.20101 A 1 0.58434 310.26871 0 0 41.46704 6.21987" />
    <path d="M 20.46529 75.07524 L 21.05092 74.76676 A 1 0.46078 62.22193 0 0 21.05257 74.7659 A 1 0.46078 62.22193 0 0 21.2045 74.45137 L 21.20572 74.40568 L 20.61679 74.71589 L 20.61679 18.15959 L 20.61191 18.06219 A 1 0.46078 62.22193 0 0 20.46199 17.53624 L 21.05092 17.22602" />
    <path d="M 20.46199 75.07698 L 20.46199 17.53624" />
    <path d="M -0.20939 27.62778 L -0.27158 27.5751" />
    <path d="M 21.2045 74.45137 L 20.61557 74.76159 L 20.61679 74.71589" />
    <path d="M 20.46199 75.07698 A 1 0.46078 62.22193 0 0 20.46364 75.07612 L 21.05257 74.7659" />
    <path d="M 20.46364 75.07612 A 1 0.46078 62.22193 0 0 20.61557 74.76159" />
    <path d="M 21.20084 17.75197 A 1 0.46078 62.22193 0 0 21.05092 17.22602" />
    <path d="M 21.20572 17.84938 L 21.20084 17.75197 L 20.61191 18.06219" />
    <path d="M 21.20572 74.40568 L 21.20572 17.84938 L 20.61679 18.15959" />
    <path d="M -0.5707 28.22346 C -0.58 28.22 -0.59 28.22 -0.59892 28.21678 C -0.61 28.21 -0.62 28.21 -0.62766 28.20682 C -0.64 28.2 -0.65 28.2 -0.65693 28.19357 C -0.67 28.19 -0.68 28.18 -0.68669 28.17704 C -0.7 28.17 -0.71 28.16 -0.72481 28.15156 C -0.74 28.14 -0.75 28.13 -0.76366 28.12093 C -0.77 28.11 -0.78 28.11 -0.78667 28.10063 C -0.79 28.09 -0.8 28.09 -0.80885 28.0794 C -0.82 28.07 -0.82 28.06 -0.83019 28.05724 C -0.84 28.05 -0.84 28.04 -0.85066 28.03415 C -0.86 28.03 -0.86 28.02 -0.87025 28.01013 C -0.88 28 -0.88 27.99 -0.88895 27.98521 C -0.9 27.98 -0.9 27.97 -0.90673 27.95938 C -0.91 27.95 -0.92 27.94 -0.92359 27.93265 C -0.93 27.92 -0.94 27.91 -0.94386 27.89706 C -0.95 27.89 -0.95 27.88 -0.95436 27.87673 C -0.96 27.87 -0.96 27.86 -0.96402 27.85644 C -0.97 27.85 -0.97 27.84 -0.97284 27.83617 C -0.98 27.83 -0.98 27.82 -0.9808 27.81595 C -0.98 27.81 -0.99 27.8 -0.98862 27.79362 C -0.99 27.79 -0.99 27.78 -0.99539 27.77136 C -1 27.76 -1 27.76 -1.0011 27.74919 C -1 27.74 -1 27.73 -1.00577 27.72711 C -1.01 27.72 -1.01 27.71 -1.00938 27.70515 C -1.01 27.7 -1.01 27.69 -1.01195 27.68329 C -1.01 27.68 -1.01 27.67 -1.01349 27.66156 C -1.01 27.65 -1.01 27.65 -1.014 27.63997 C -1.01 27.63 -1.01 27.63 -1.01361 27.62265 C -1.01 27.62 -1.01 27.61 -1.0124 27.60638 C -1.01 27.6 -1.01 27.6 -1.01037 27.59124 C -1.01 27.59 -1.01 27.58 -1.00749 27.57726 C -1.01 27.57 -1.01 27.57 -1.00374 27.56451 C -1 27.56 -1 27.56 -0.99912 27.55301 C -1 27.55 -1 27.55 -0.99363 27.5428 C -0.99 27.54 -0.99 27.54 -0.98726 27.53392 C -0.99 27.53 -0.98 27.53 -0.98269 27.52889 C -0.98 27.53 -0.98 27.53 -0.97776 27.52443 C -0.98 27.52 -0.97 27.52 -0.97248 27.52053 C -0.97 27.52 -0.97 27.52 -0.96685 27.51719 C -0.96 27.52 -0.96 27.51 -0.95955 27.51389 C -0.96 27.51 -0.95 27.51 -0.95176 27.51142 C -0.95 27.51 -0.95 27.51 -0.94349 27.50975 C -0.94 27.51 -0.94 27.51 -0.93476 27.50889 C -0.93 27.51 -0.92 27.51 -0.91835 27.50928 C -0.91 27.51 -0.91 27.51 -0.90067 27.512 C -0.9 27.51 -0.89 27.51 -0.88418 27.51623 C -0.88 27.52 -0.87 27.52 -0.86685 27.52208 C -0.86 27.52 -0.85 27.53 -0.84876 27.52947 C -0.84 27.53 -0.84 27.54 -0.82997 27.53832 C -0.82 27.54 -0.81 27.55 -0.80432 27.552 C -0.8 27.56 -0.79 27.56 -0.77769 27.56785 C -0.77 27.57 -0.76 27.58 -0.75019 27.58567 C -0.74 27.59 -0.73 27.6 -0.72192 27.60531 C -0.71 27.61 -0.7 27.62 -0.69298 27.6266 C -0.68 27.63 -0.67 27.64 -0.66343 27.64941 C -0.65 27.66 -0.64 27.67 -0.63336 27.6736 C -0.62 27.68 -0.61 27.69 -0.60282 27.69906 L -0.42746 27.84761 L -0.42746 27.91153" />
    <path d="M -0.36272 27.81351 L -0.42746 27.84761" />
    <path d="M -10.40543 -35.90612 L -10.69134 -36.58813" />
    <path d="M -0.59081 28.21902 L -0.79631 28.32727" />
    <path d="M -0.96711 27.84955 L -1.11377 27.92681" />
    <path d="M -0.24715 27.43869 L -0.42746 27.53367" />
    <path d="M -0.36088 27.17768 L -0.4976 27.24969" />
    <path d="M -0.55683 26.9132 L -0.7044 26.99093" />
    <path d="M -0.69464 26.78265 L -0.90516 26.89354" />
    <path d="M -1.10384 26.62177 L -1.14159 26.64166" />
    <path d="M -0.46423 27.62606 L -0.60282 27.69906" />
    <path d="M -42.05614 -33.74721 L -41.77023 -33.06521" />
    <path d="M 31.84837 -58.8968 L 32.13428 -58.21479" />
    <path d="M -0.70237 26.77619 L -0.9433 26.9031" />
    <path d="M -0.73916 27.39726 L -0.96685 27.51719" />
</svg>