<svg version="1.1" xmlns="http://www.w3.org/2000/svg" viewBox="-23.858863839412987 -27.721106700003126 48.083321553246805 68.37337318412439" fill="none" stroke="black" stroke-width="0.6%" vector-effect="non-scaling-stroke">
    <path d="M -10.13072 -13.76015 L -6.41662 -3.50496 L -0.25707 12.42593 A 2 1.8872 238.12051 0 0 2.12877 13.68162 L 2.33964 13.55047 L 2.45278 13.5138 L 22.02484 6.44711 L 22.24217 6.35191 A 2 1.8872 238.12051 0 0 22.3614 6.28398 A 2 1.8872 238.12051 0 0 23.08441 3.94323 L 13.00843 -22.11701 A 2 1.8872 238.12051 0 0 10.62258 -23.3727 L 10.50944 -23.33603 L -9.06262 -16.26933 L -9.27995 -16.17414 A 2 1.8872 238.12051 0 0 -9.39918 -16.10621 A 2 1.8872 238.12051 0 0 -10.12219 -13.76546 L -0.04621 12.29479 A 2 1.8872 238.12051 0 0 2.33964 13.55047" />
    <path d="M -0.58109 12.60781 L -1.24832 12.84872 L -11.58632 -15.69603 A 1 0.3246 70.14735 0 0 -12.21153 -16.55277 L -22.55039 -16.34022 A 2 0.6492 70.14735 0 0 -22.62474 -16.32735 A 2 0.6492 70.14735 0 0 -22.85706 -15.78453 L -22.85886 -15.69774 L -22.85886 8.46956 L -22.85166 8.6576 A 2 0.6492 70.14735 0 0 -21.94553 11.14269 L -1.85231 38.67633 A 2 0.6492 70.14735 0 0 -1.17311 39.13586 A 2 0.6492 70.14735 0 0 -0.94079 38.59305 L -0.93899 38.50626 L -0.93899 14.33896 L -0.94619 14.15092 A 2 0.6492 70.14735 0 0 -1.24832 12.84872" />
    <path d="M -10.91909 -15.93695 L -11.58632 -15.69603" />
    <path d="M -10.91909 -15.93695 L -10.13072 -13.76015 L -10.12219 -13.76546" />
    <path d="M -6.41662 -3.50496 L -0.58109 12.60781" />
    <path d="M -9.61004 -15.97506 A 2 1.8872 238.12051 0 0 -10.45421 -14.65336" />
    <path d="M 2.12877 13.68162 L 2.24192 13.64495 L 21.81398 6.57825 L 22.03131 6.48306 A 2 1.8872 238.12051 0 0 22.15054 6.41513" />
    <path d="M -0.27896 13.91001 L -0.94619 14.15092" />
    <path d="M -0.27896 13.91001 A 2 0.6492 70.14735 0 0 -0.58109 12.60781" />
    <path d="M -11.5443 -16.79368 L -12.21153 -16.55277" />
    <path d="M -10.91909 -15.93695 A 1 0.3246 70.14735 0 0 -11.5443 -16.79368" />
    <path d="M -21.88316 -16.58113 L -16.04681 -16.70111 L -12.33267 -16.77747 L -12.3412 -16.80617 A 2 0.32992 163.43782 0 0 -9.95536 -17.29749 L -9.84221 -17.33761 L 9.72985 -24.4043 L 9.94718 -24.4857 A 2 0.32992 163.43782 0 0 10.92716 -25.08541 L 11.13802 -24.37637" />
    <path d="M -12.33267 -16.77747 L -11.5443 -16.79368" />
    <path d="M -0.27176 14.09805 L -0.27896 13.91001" />
    <path d="M -0.27176 38.26535 L -0.27176 14.09805 L 0.07074 14.56737 L 0.07074 38.73467 L 0.08477 38.90778 A 2 1.26472 323.87916 0 0 0.23447 39.27122 L -0.10803 38.8019" />
    <path d="M -0.27356 38.35214 L -0.27176 38.26535 L 0.07074 38.73467" />
    <path d="M -0.50588 38.89495 A 2 0.6492 70.14735 0 0 -0.27356 38.35214 L -0.94079 38.59305" />
    <path d="M -21.88316 -16.58113 A 2 0.6492 70.14735 0 0 -21.95751 -16.56826" />
    <path d="M 2.24192 13.64495 L 2.45278 13.5138" />
    <path d="M 21.81398 6.57825 L 22.02484 6.44711" />
    <path d="M 22.03131 6.48306 L 22.24217 6.35191" />
    <path d="M 23.18733 6.04271 A 2 1.26472 323.87916 0 0 23.03763 5.67927 L 22.99108 5.61548" />
    <path d="M 23.03763 5.67927 A 2 1.26472 323.87916 0 0 22.9891 5.61909" />
    <path d="M 0.1261 13.05844 A 2 1.26472 323.87916 0 0 -0.26825 14.00752 L -0.27176 14.09805 L -0.93899 14.33896" />
    <path d="M -0.26825 14.00752 L 0.07425 14.47684 L 0.07074 14.56737" />
    <path d="M 0.54815 13.42597 A 2 1.26472 323.87916 0 0 0.07425 14.47684" />
    <path d="M 0.23447 39.27122 A 2 1.26472 323.87916 0 0 1.85002 39.51385 L 21.42208 32.44715 A 2 1.26472 323.87916 0 0 23.19785 30.47365 L 23.20136 30.38312 L 23.20136 6.21582 L 23.18733 6.04271" />
    <path d="M -0.27176 38.26535 L -0.93899 38.50626" />
    <path d="M -21.88316 -16.58113 L -22.55039 -16.34022" />
    <path d="M -21.28081 -17.50827 A 2 1.26472 323.87916 0 0 -22.05565 -16.53282" />
    <path d="M -22.20632 -17.651 L -16.04681 -16.70111" />
    <path d="M -11.03579 -16.22078 A 2 0.32992 163.43782 0 0 -9.74449 -16.58845 L -9.95536 -17.29749" />
    <path d="M -9.74449 -16.58845 L -9.63135 -16.62857 L -9.84221 -17.33761" />
    <path d="M -9.63135 -16.62857 L 9.94071 -23.69527 L 9.72985 -24.4043" />
    <path d="M 9.94071 -23.69527 L 10.15804 -23.77666 L 9.94718 -24.4857" />
    <path d="M 10.15804 -23.77666 A 2 0.32992 163.43782 0 0 11.13802 -24.37637" />
    <path d="M -22.34406 -17.72332 A 2 0.32992 163.43782 0 0 -22.20632 -17.651 L -22.41718 -18.36004 L -12.3412 -16.80617" />
    <path d="M -3.83753 3.6163 L -3.68459 3.56108" />
    <path d="M 1.28148 -20.00418 L 1.28148 -20.56876" />
    <path d="M -20.42533 -17.37635 A 2 1.26472 323.87916 0 0 -21.38751 -16.59132" />
    <path d="M -0.27176 38.26535 L -0.25773 38.43845 L 0.08477 38.90778" />
    <path d="M -0.25773 38.43845 A 2 1.26472 323.87916 0 0 -0.10803 38.8019" />
    <path d="M 10.92716 -25.08541 A 2 0.32992 163.43782 0 0 10.78942 -25.15772 L 0.71344 -26.71159 A 2 0.32992 163.43782 0 0 -1.67241 -26.22027 L -1.78555 -26.18015 L -21.35761 -19.11345 L -21.57494 -19.03206 A 2 0.32992 163.43782 0 0 -22.55492 -18.43235 L -22.34406 -17.72332" />
    <path d="M -22.55492 -18.43235 A 2 0.32992 163.43782 0 0 -22.41718 -18.36004" />
    <path d="M -0.25707 12.42593 L -0.04621 12.29479" />
    <path d="M -9.39918 -16.10621 L -9.61004 -15.97506" />
    <path d="M 22.3614 6.28398 L 22.15054 6.41513" />
    <path d="M -1.17311 39.13586 L -0.50588 38.89495" />
    <path d="M -22.62474 -16.32735 L -21.95751 -16.56826" />
</svg>