<svg version="1.1" xmlns="http://www.w3.org/2000/svg" viewBox="-48.72841359831706 -54.65468442261992 97.45682719663414 135.78059559755334" fill="none" stroke="black" stroke-width="0.6%" vector-effect="non-scaling-stroke">
    <path d="M -23.64755 -31.34042 L -0.5657 28.1912 A 1 0.9427 237.62247 0 0 0.62754 28.81899 L 0.68408 28.80069 L 0.89541 28.66669 L 47.12959 11.99086 L 47.23818 11.94333 A 1 0.9427 237.62247 0 0 47.30443 11.90521 A 1 0.9427 237.62247 0 0 47.65805 10.73999 L 24.5762 -48.79163 A 1 0.9427 237.62247 0 0 23.38297 -49.41942 L 23.32643 -49.40112 L -22.90775 -32.72529 L -23.01635 -32.67776 A 1 0.9427 237.62247 0 0 -23.08259 -32.63964 A 1 0.9427 237.62247 0 0 -23.43622 -31.47441 L -0.35437 28.0572 A 1 0.9427 237.62247 0 0 0.83887 28.68499 L 0.89541 28.66669" />
    <path d="M -23.29392 -32.50564 A 1 0.9427 237.62247 0 0 -23.64755 -31.34042 L -23.43622 -31.47441" />
    <path d="M 0.62754 28.81899 L 0.83887 28.68499" />
    <path d="M 47.02685 12.07733 A 1 0.9427 237.62247 0 0 47.0931 12.03921" />
    <path d="M 46.91826 12.12486 L 47.02685 12.07733 L 47.23818 11.94333" />
    <path d="M 0.68408 28.80069 L 46.91826 12.12486 L 47.12959 11.99086" />
    <path d="M -47.51597 -35.65916 A 1 0.1616 163.40967 0 0 -47.44672 -35.624 L -24.36487 -32.31685 A 1 0.1616 163.40967 0 0 -23.23104 -32.54552" />
    <path d="M 23.55768 -49.45155 A 1 0.1616 163.40967 0 0 23.7168 -49.5989" />
    <path d="M 23.21067 -49.35937 L 23.01635 -50.01163 A 1 0.1616 163.40967 0 0 23.50547 -50.30823 L 23.7168 -49.5989" />
    <path d="M 22.90775 -49.97103 L 23.01635 -50.01163" />
    <path d="M 23.10169 -49.32006 L 22.90775 -49.97103" />
    <path d="M -2.03073 79.28402 A 1 0.63436 323.69761 0 0 -1.95453 79.46848" />
    <path d="M -2.03774 79.19713 L -2.03073 79.28402 L -1.68747 79.75127 A 1 0.63436 323.69761 0 0 -1.61127 79.93573 A 1 0.63436 323.69761 0 0 -0.80537 80.05715 L 45.42881 63.38132 A 1 0.63436 323.69761 0 0 46.31618 62.39259 L 46.31793 62.34716 L 46.31793 12.34138" />
    <path d="M -2.03774 24.9737 L -2.03774 79.19713 L -1.69448 79.66437 L -1.68747 79.75127" />
    <path d="M -2.03599 24.92827 L -2.03774 24.9737 L -1.69448 25.44095 L -1.69448 79.66437" />
    <path d="M -1.94736 24.62768 A 1 0.63436 323.69761 0 0 -2.03599 24.92827 L -1.69273 25.39552 L -1.69448 25.44095" />
    <path d="M -1.68131 25.31385 A 1 0.63436 323.69761 0 0 -1.69273 25.39552" />
    <path d="M -23.12341 -32.61376 L -23.32643 -33.29519 L 22.90775 -49.97103" />
    <path d="M -23.38297 -33.27516 L -23.32643 -33.29519" />
    <path d="M -23.17599 -32.58043 L -23.38297 -33.27516" />
    <path d="M -24.5762 -33.02618 A 1 0.1616 163.40967 0 0 -23.38297 -33.27516" />
    <path d="M -47.23818 -36.6651 A 1 0.1616 163.40967 0 0 -47.7273 -36.3685 L -47.51597 -35.65916" />
    <path d="M -47.7273 -36.3685 A 1 0.1616 163.40967 0 0 -47.65805 -36.33333 L -24.5762 -33.02618" />
    <path d="M -47.12959 -36.7057 L -47.23818 -36.6651" />
    <path d="M -0.89541 -53.38153 L -47.12959 -36.7057" />
    <path d="M -0.83887 -53.40157 L -0.89541 -53.38153" />
    <path d="M 0.35437 -53.65055 A 1 0.1616 163.40967 0 0 -0.83887 -53.40157" />
    <path d="M 23.43622 -50.34339 L 0.35437 -53.65055" />
    <path d="M 23.50547 -50.30823 A 1 0.1616 163.40967 0 0 23.43622 -50.34339" />
    <path d="M -45.96766 19.47636 A 1 0.63436 323.69761 0 0 -45.89146 19.66083" />
    <path d="M -45.97468 19.38947 L -45.96766 19.47636 L -45.62441 19.94361 A 1 0.63436 323.69761 0 0 -45.5482 20.12807 L -45.89146 19.66083" />
    <path d="M -45.97468 -34.83396 L -45.97468 19.38947 L -45.63142 19.85672 L -45.62441 19.94361" />
    <path d="M -45.97292 -34.87939 L -45.97468 -34.83396 L -45.63142 -34.36671 L -45.63142 19.85672" />
    <path d="M -45.75578 -35.38173 A 1 0.63436 323.69761 0 0 -45.97292 -34.87939 L -45.62966 -34.41214 L -45.63142 -34.36671" />
    <path d="M -45.00514 -35.27417 A 1 0.63436 323.69761 0 0 -45.62966 -34.41214" />
    <path d="M -45.5482 20.12807 A 1 0.63436 323.69761 0 0 -44.7423 20.24949 L -34.76816 16.652" />
    <path d="M -17.12745 10.28931 L -8.68704 7.24501" />
    <path d="M -33.85281 21.95135 L -13.71505 49.36319 A 2 0.65307 70.16654 0 0 -13.03647 49.81762 L -12.36963 49.57711 A 2 0.65307 70.16654 0 0 -12.13466 49.02887 L -12.13286 48.94174 L -12.7997 49.18225 L -12.7997 24.9244 L -12.80691 24.73574 A 2 0.65307 70.16654 0 0 -13.10971 23.43204 L -23.47063 -5.10392 A 1 0.32654 70.16654 0 0 -24.09723 -5.95686 L -34.45901 -5.62777 A 2 0.65307 70.16654 0 0 -34.53138 -5.6148 L -33.86455 -5.85532" />
    <path d="M -34.76094 19.46709 A 2 0.65307 70.16654 0 0 -33.85281 21.95135" />
    <path d="M -12.13466 49.02887 L -12.8015 49.26939 L -12.7997 49.18225" />
    <path d="M -13.03647 49.81762 A 2 0.65307 70.16654 0 0 -12.8015 49.26939" />
    <path d="M -12.13286 48.94174 L -12.13286 24.68389 L -12.7997 24.9244" />
    <path d="M -12.13286 24.68389 L -12.14007 24.49522 L -12.80691 24.73574" />
    <path d="M -12.14007 24.49522 A 2 0.65307 70.16654 0 0 -12.44288 23.19153 L -13.10971 23.43204" />
    <path d="M -12.44288 23.19153 L -22.80379 -5.34444 L -23.47063 -5.10392" />
    <path d="M -22.80379 -5.34444 A 1 0.32654 70.16654 0 0 -23.43039 -6.19738 L -24.09723 -5.95686" />
    <path d="M -23.43039 -6.19738 L -33.79217 -5.86828 L -34.45901 -5.62777" />
    <path d="M -33.79217 -5.86828 A 2 0.65307 70.16654 0 0 -33.86455 -5.85532" />
    <path d="M -34.53138 -5.6148 A 2 0.65307 70.16654 0 0 -34.76636 -5.06656 L -34.76816 -4.97943 L -34.76816 19.27842 L -34.76094 19.46709" />
    <path d="M -0.5657 28.1912 L -0.35437 28.0572" />
    <path d="M -24.36487 -32.31685 L -24.5762 -33.02618" />
    <path d="M -47.44672 -35.624 L -47.65805 -36.33333" />
    <path d="M -23.08259 -32.63964 L -23.29392 -32.50564" />
    <path d="M 47.30443 11.90521 L 47.0931 12.03921" />
    <path d="M -1.61127 79.93573 L -1.95453 79.46848" />
</svg>