<svg version="1.1" xmlns="http://www.w3.org/2000/svg" viewBox="-48.728392277666686 -54.169626080300766 97.45678455533334 119.48437720260154" fill="none" stroke="black" stroke-width="0.6%" vector-effect="non-scaling-stroke">
    <path d="M -23.64756 -31.19439 L -0.56573 28.3177 A 1 0.94192 237.03457 0 0 0.6275 28.94652 L 0.68404 28.9283 L 0.89537 28.79125 L 47.12956 12.18911 L 47.23816 12.14176 A 1 0.94192 237.03457 0 0 47.31304 12.09823 A 1 0.94192 237.03457 0 0 47.65803 10.93996 L 24.57621 -48.57212 A 1 0.94192 237.03457 0 0 23.38297 -49.20094 L 23.32643 -49.18273 L -22.90776 -32.58059 L -23.01635 -32.53325 A 1 0.94192 237.03457 0 0 -23.09124 -32.48972 A 1 0.94192 237.03457 0 0 -23.43623 -31.33145 L -0.3544 28.18064 A 1 0.94192 237.03457 0 0 0.83883 28.80946 L 0.89537 28.79125" />
    <path d="M -23.30257 -32.35266 A 1 0.94192 237.03457 0 0 -23.64756 -31.19439 L -23.43623 -31.33145" />
    <path d="M 0.6275 28.94652 L 0.83883 28.80946" />
    <path d="M 47.02683 12.27882 A 1 0.94192 237.03457 0 0 47.10171 12.23529" />
    <path d="M 46.91823 12.32617 L 47.02683 12.27882 L 47.23816 12.14176" />
    <path d="M 0.68404 28.9283 L 46.91823 12.32617 L 47.12956 12.18911" />
    <path d="M -47.51601 -35.2495 A 1 0.15751 163.42113 0 0 -47.4467 -35.21556 L -24.36488 -32.1665 A 1 0.15751 163.42113 0 0 -23.23457 -32.39676" />
    <path d="M 23.56655 -49.23351 A 1 0.15751 163.42113 0 0 23.71687 -49.37325" />
    <path d="M 23.20977 -49.14084 L 23.01635 -49.79051 A 1 0.15751 163.42113 0 0 23.50553 -50.08309 L 23.71687 -49.37325" />
    <path d="M 22.90776 -49.75012 L 23.01635 -49.79051" />
    <path d="M 23.1008 -49.10171 L 22.90776 -49.75012" />
    <path d="M -23.12411 -32.4684 L -23.32643 -33.14798 L 22.90776 -49.75012" />
    <path d="M -23.38297 -33.12803 L -23.32643 -33.14798" />
    <path d="M -23.17648 -32.43443 L -23.38297 -33.12803" />
    <path d="M -24.57621 -32.87635 A 1 0.15751 163.42113 0 0 -23.38297 -33.12803" />
    <path d="M -47.23816 -36.25193 A 1 0.15751 163.42113 0 0 -47.72734 -35.95935 A 1 0.15751 163.42113 0 0 -47.65803 -35.92541 L -24.57621 -32.87635" />
    <path d="M -47.12956 -36.29232 L -47.23816 -36.25193" />
    <path d="M -0.89537 -52.89446 L -47.12956 -36.29232" />
    <path d="M -0.83883 -52.91441 L -0.89537 -52.89446" />
    <path d="M 0.3544 -53.16609 A 1 0.15751 163.42113 0 0 -0.83883 -52.91441" />
    <path d="M 23.43623 -50.11703 L 0.3544 -53.16609" />
    <path d="M 23.50553 -50.08309 A 1 0.15751 163.42113 0 0 23.43623 -50.11703" />
    <path d="M -33.85281 36.06051 L -13.71507 63.35125 A 2 0.65584 70.24741 0 0 -13.03915 63.80058 L -12.37231 63.56113 A 2 0.65584 70.24741 0 0 -12.13468 63.00682 L -12.13288 62.91929 L -12.11886 63.09386 A 2 1.2741 323.57652 0 0 -11.96394 63.46825" />
    <path d="M -34.76094 33.57642 A 2 0.65584 70.24741 0 0 -33.85281 36.06051" />
    <path d="M -12.13468 63.00682 L -12.80152 63.24628 L -12.79972 63.15875 L -12.79972 38.79797 L -12.80693 38.60859 A 2 0.65584 70.24741 0 0 -13.10974 37.30293 L -23.47064 8.76804 A 1 0.32792 70.24741 0 0 -24.09724 7.91886 L -34.459 8.37152 A 2 0.65584 70.24741 0 0 -34.52872 8.38442 L -33.86188 8.14497" />
    <path d="M -13.03915 63.80058 A 2 0.65584 70.24741 0 0 -12.80152 63.24628" />
    <path d="M -33.79216 8.13207 A 2 0.65584 70.24741 0 0 -33.86188 8.14497" />
    <path d="M -23.4304 7.67941 L -33.79216 8.13207 L -34.459 8.37152" />
    <path d="M -22.8038 8.52858 A 1 0.32792 70.24741 0 0 -23.4304 7.67941 L -24.09724 7.91886" />
    <path d="M -12.4429 37.06348 L -22.8038 8.52858 L -23.47064 8.76804" />
    <path d="M -12.1401 38.36913 A 2 0.65584 70.24741 0 0 -12.4429 37.06348 L -13.10974 37.30293" />
    <path d="M -12.13288 38.55852 L -12.1401 38.36913 L -12.80693 38.60859" />
    <path d="M -12.13288 62.91929 L -12.13288 38.55852 L -11.78962 39.0237 L -11.78962 63.38448 L -11.7756 63.55904 A 2 1.2741 323.57652 0 0 -11.62068 63.93343 L -11.96394 63.46825" />
    <path d="M -34.52872 8.38442 A 2 0.65584 70.24741 0 0 -34.76635 8.93873 L -34.76816 9.02626 L -34.76816 33.38703 L -34.76094 33.57642" />
    <path d="M -12.13288 62.91929 L -12.79972 63.15875" />
    <path d="M -15.5496 28.50731 L -12.4192 27.38323 A 2 1.2741 323.57652 0 0 -10.64447 25.40293 L -10.64096 25.3117 L -10.64096 2.34064" />
    <path d="M -11.53777 0.02839 A 2 1.2741 323.57652 0 0 -12.4192 0.15648 L -31.97982 7.18046 A 2 1.2741 323.57652 0 0 -33.28588 8.10995" />
    <path d="M -12.13288 38.55852 L -12.79972 38.79797" />
    <path d="M -11.70703 -0.408 A 2 1.2741 323.57652 0 0 -12.76246 -0.30871 L -12.4192 0.15648" />
    <path d="M -12.76246 -0.30871 L -32.32308 6.71527 L -31.97982 7.18046" />
    <path d="M -32.32308 6.71527 A 2 1.2741 323.57652 0 0 -33.96208 8.18095" />
    <path d="M -12.13288 62.91929 L -11.78962 63.38448" />
    <path d="M -12.12937 38.46728 L -11.78611 38.93246 L -11.78962 39.0237" />
    <path d="M -12.12937 38.46728 L -12.13288 38.55852" />
    <path d="M -12.11886 63.09386 L -11.7756 63.55904" />
    <path d="M 10.81528 29.70849 A 2 1.2741 323.57652 0 0 9.20598 29.46301 L 9.54924 29.92819 L -10.01138 36.95217 A 2 1.2741 323.57652 0 0 -11.78611 38.93246" />
    <path d="M 9.20598 29.46301 L -10.35464 36.48699 L -10.01138 36.95217" />
    <path d="M -10.35464 36.48699 A 2 1.2741 323.57652 0 0 -12.12937 38.46728" />
    <path d="M -10.01138 64.17892 L 9.54924 57.15494 A 2 1.2741 323.57652 0 0 11.32397 55.17465 L 11.32748 55.08341 L 11.32748 30.72263 L 11.31345 30.54807 A 2 1.2741 323.57652 0 0 11.15854 30.17368 L 10.81528 29.70849" />
    <path d="M 11.15854 30.17368 A 2 1.2741 323.57652 0 0 9.54924 29.92819" />
    <path d="M -11.62068 63.93343 A 2 1.2741 323.57652 0 0 -10.01138 64.17892" />
    <path d="M -0.56573 28.3177 L -0.3544 28.18064" />
    <path d="M -24.36488 -32.1665 L -24.57621 -32.87635" />
    <path d="M -47.4467 -35.21556 L -47.65803 -35.92541" />
    <path d="M -23.09124 -32.48972 L -23.30257 -32.35266" />
    <path d="M 47.31304 12.09823 L 47.10171 12.23529" />
    <path d="M -47.72734 -35.95935 L -47.51601 -35.2495" />
</svg>