<svg version="1.1" xmlns="http://www.w3.org/2000/svg" viewBox="-23.709087660387176 -26.39182593588205 48.08822551615332 66.34219735847903" fill="none" stroke="black" stroke-width="0.6%" vector-effect="non-scaling-stroke">
    <path d="M -22.36123 -14.56291 L -22.28225 -14.57708" />
    <path d="M -22.16575 -15.35093 L -22.59949 -15.27308" />
    <path d="M -22.47057 -14.55963 A 2 0.09917 161.45392 0 0 -22.36123 -14.56291 L -22.59949 -15.27308" />
    <path d="M -11.12322 -16.64415 A 2 0.09917 161.45392 0 0 -10.0901 -16.97296 L -10.06412 -16.99227 L -10.038 -17.01118 L -10.01176 -17.02969 L -9.98539 -17.04778 L -9.9589 -17.06546 L -9.93231 -17.08271 L -9.90561 -17.09955 L -9.87881 -17.11595 L -9.85192 -17.13193 L -9.82494 -17.14746 L -9.79789 -17.16256 L -9.77077 -17.17722 L -9.74357 -17.19143 L -9.71632 -17.20519 L -9.50966 -17.24228 A 2 1.89297 259.82542 0 0 -10.44217 -14.80987 L -10.47044 -14.8048 L -10.97164 -16.2836 A 1 0.31892 70.49672 0 0 -11.58672 -17.1451 L -12.08792 -17.07027 L -12.11618 -17.15453 L -15.04856 -16.62825 L -21.34822 -15.68773 L -22.01827 -15.45041 A 2 0.63784 70.49672 0 0 -22.05144 -15.44171 A 2 0.63784 70.49672 0 0 -22.28047 -14.90162 L -22.28225 -14.81495 L -22.28225 9.32081 L -22.27516 9.50867 A 2 0.63784 70.49672 0 0 -21.38372 11.99905 L -2.51474 38.42739 A 2 0.63784 70.49672 0 0 -1.84701 38.89289 A 2 0.63784 70.49672 0 0 -1.61798 38.3528 L -1.61621 38.26613 L -1.61621 14.13037 L -1.6233 13.94251 A 2 0.63784 70.49672 0 0 -1.88258 12.74833 L -11.64169 -16.04628 A 1 0.31892 70.49672 0 0 -12.25677 -16.90778 L -22.01827 -15.45041" />
    <path d="M 10.86584 -24.39824 A 2 0.09917 161.45392 0 0 11.45982 -24.67474" />
    <path d="M -21.34822 -15.68773 A 2 0.63784 70.49672 0 0 -21.38139 -15.67903" />
    <path d="M -12.11618 -17.15453 A 2 0.09917 161.45392 0 0 -9.80748 -17.86145 L -9.69403 -17.90141 L 9.96077 -24.86281 L 10.17971 -24.94123 A 2 0.09917 161.45392 0 0 11.22156 -25.38491 A 2 0.09917 161.45392 0 0 11.11222 -25.38163 L 0.62892 -23.50019 A 2 0.09917 161.45392 0 0 -1.67979 -22.79327 L -1.79323 -22.75331 L -21.44804 -15.79191 L -21.66698 -15.71349 A 2 0.09917 161.45392 0 0 -22.70882 -15.2698 A 2 0.09917 161.45392 0 0 -22.59949 -15.27308" />
    <path d="M -0.94616 15.3128 L -0.94616 14.24799 L -0.19713 16.48065 A 2 1.89297 259.82542 0 0 1.94297 17.81635" />
    <path d="M -0.94793 38.11548 L -0.94616 38.02881 L -1.61621 38.26613" />
    <path d="M -1.17696 38.65557 A 2 0.63784 70.49672 0 0 -0.94793 38.11548 L -1.61798 38.3528" />
    <path d="M -18.91663 1.50096 L -12.84775 10.00116" />
    <path d="M -19.36234 0.25577 A 1 0.31892 70.49672 0 0 -18.91663 1.50096 L -19.58668 1.73828 L -13.29701 10.54773 A 1 0.31892 70.49672 0 0 -12.96315 10.78047 A 1 0.31892 70.49672 0 0 -12.84864 10.51043 L -12.84775 10.4671 L -12.84775 0.52884 L -12.85129 0.43491 A 1 0.31892 70.49672 0 0 -13.29701 -0.81028 L -19.58668 -9.61973 A 1 0.31892 70.49672 0 0 -19.92054 -9.85247 A 1 0.31892 70.49672 0 0 -20.03505 -9.58243 L -20.03594 -9.5391 L -20.03594 0.39916 L -20.03239 0.49309 A 1 0.31892 70.49672 0 0 -19.58668 1.73828" />
    <path d="M -19.36589 0.16184 L -19.36234 0.25577 L -20.03239 0.49309" />
    <path d="M -19.36589 -9.31049 L -19.36589 0.16184 L -20.03594 0.39916" />
    <path d="M -16.22106 -9.63095 L -6.66841 3.74872" />
    <path d="M -16.6507 -11.15007 A 1 0.31892 70.49672 0 0 -16.22106 -9.63095 L -16.89111 -9.39363 A 1 0.31892 250.49672 0 1 -17.22497 -11.04612 A 1 0.31892 250.49672 0 1 -17.2186 -11.04815 L -12.25677 -11.93865 A 1 0.31892 250.49672 0 1 -11.64169 -11.07715 L -6.67985 3.71267 A 1 0.31892 250.49672 0 1 -6.67349 4.68254 A 1 0.31892 250.49672 0 1 -7.00735 4.44979 L -16.89111 -9.39363" />
    <path d="M -9.60332 -17.25289 L -9.61132 -17.24949 L -9.61934 -17.24609 L -9.62737 -17.24269 L -9.63541 -17.23928 L -9.64346 -17.23588 L -9.65152 -17.23247 L -9.65959 -17.22906 L -9.66767 -17.22565 L -9.67575 -17.22224 L -9.68385 -17.21883 L -9.69196 -17.21542 L -9.70007 -17.21201 L -9.70819 -17.2086 L -9.71632 -17.20519" />
    <path d="M -9.60332 -17.25289 L -9.80748 -17.86145" />
    <path d="M -10.0901 -16.97296 A 2 1.89297 259.82542 0 0 -10.77367 -15.69949" />
    <path d="M 10.38637 -24.32522 L 10.38999 -24.32598 L 10.39361 -24.32674 L 10.39723 -24.32749 L 10.40084 -24.32822 L 10.40446 -24.32895 L 10.40807 -24.32967 L 10.41168 -24.33039 L 10.41529 -24.33109 L 10.4189 -24.33178 L 10.42251 -24.33247 L 10.42612 -24.33315 L 10.42973 -24.33382 L 10.43334 -24.33448 L 10.43694 -24.33513" />
    <path d="M 10.38637 -24.32522 L 10.17971 -24.94123" />
    <path d="M -11.58672 -17.1451 L -12.25677 -16.90778" />
    <path d="M -12.08792 -17.07027 L -15.04856 -16.62825" />
    <path d="M -9.60332 -17.25289 L -9.49238 -17.30034 L -9.29072 -17.33653 L -9.50966 -17.24228" />
    <path d="M -9.49238 -17.30034 L -9.69403 -17.90141" />
    <path d="M -9.49238 -17.30034 L 10.16243 -24.26174 L 10.36408 -24.29793 L -9.29072 -17.33653" />
    <path d="M 10.16243 -24.26174 L 9.96077 -24.86281" />
    <path d="M 10.16243 -24.26174 L 10.27337 -24.29729 L 10.47753 -24.33393 L 10.36408 -24.29793" />
    <path d="M 10.27337 -24.29729 L 10.28137 -24.29954 L 10.28939 -24.30175 L 10.29742 -24.30392 L 10.30546 -24.30605 L 10.31351 -24.30814 L 10.32157 -24.3102 L 10.32964 -24.31221 L 10.33772 -24.31419 L 10.3458 -24.31613 L 10.3539 -24.31802 L 10.36201 -24.31988 L 10.37012 -24.3217 L 10.37824 -24.32348 L 10.38637 -24.32522" />
    <path d="M -10.97164 -16.2836 L -11.64169 -16.04628" />
    <path d="M -1.21253 12.51101 L -1.88258 12.74833" />
    <path d="M -1.21253 12.51101 L -7.51037 -6.07098 L -10.44217 -14.80987" />
    <path d="M -7.51037 -6.07098 L -10.47044 -14.8048" />
    <path d="M -0.94616 13.89305 L -1.61621 14.13037" />
    <path d="M -0.94616 14.24799 L -0.94616 13.89305 L -0.95325 13.70518 L -1.6233 13.94251" />
    <path d="M -0.94264 15.22241 L -0.94616 15.3128" />
    <path d="M -0.7971 14.6923 A 2 1.26841 324.47438 0 0 -0.94264 15.22241" />
    <path d="M 22.28225 29.80171 L 22.28225 10.66678" />
    <path d="M 22.27872 29.8921 L 22.28225 29.80171" />
    <path d="M 20.49544 31.85431 A 2 1.26841 324.47438 0 0 22.27872 29.8921" />
    <path d="M 0.84064 38.81571 L 20.49544 31.85431" />
    <path d="M -0.93207 38.20176 A 2 1.26841 324.47438 0 0 -0.78707 38.55809 L -0.96734 38.3056" />
    <path d="M -0.78707 38.55809 A 2 1.26841 324.47438 0 0 0.84064 38.81571" />
    <path d="M -0.94616 38.02881 L -0.93207 38.20176" />
    <path d="M -0.94616 15.21747 L -0.94264 15.22241" />
    <path d="M -0.95141 38.17468 L -0.93207 38.20176" />
    <path d="M -13.76904 8.71078 L -12.84775 8.38448" />
    <path d="M -19.63362 -9.68159 L -20.03594 -9.5391" />
    <path d="M -19.66158 -9.71471 L -20.03505 -9.58243" />
    <path d="M -6.56055 4.29154 L -7.00735 4.44979" />
    <path d="M 0.04113 16.43789 L -0.99964 13.33564 A 2 0.63784 70.49672 0 0 -1.21253 12.51101" />
    <path d="M -0.95325 13.70518 A 2 0.63784 70.49672 0 0 -0.99964 13.33564" />
    <path d="M 12.78623 -23.03698 A 2 1.89297 259.82542 0 0 10.64614 -24.37267 L 10.43694 -24.33513" />
    <path d="M 10.64614 -24.37267 A 2 1.89297 259.82542 0 0 10.47753 -24.33393" />
    <path d="M 0.04113 16.43789 A 2 1.89297 259.82542 0 0 2.18123 17.77359 L 1.94297 17.81635" />
    <path d="M 2.18123 17.77359 A 2 1.89297 259.82542 0 0 2.34984 17.73484 L 2.46328 17.69884 L 22.11809 10.73745 L 22.33703 10.64319 A 2 1.89297 259.82542 0 0 23.26954 8.21079 L 12.78623 -23.03698" />
    <path d="M -12.84775 10.38861 L -13.29701 10.54773" />
    <path d="M -0.19713 16.48065 L 0.04113 16.43789" />
    <path d="M -22.05144 -15.44171 L -21.38139 -15.67903" />
    <path d="M -22.70882 -15.2698 L -22.47057 -14.55963" />
    <path d="M 11.22156 -25.38491 L 11.45982 -24.67474" />
    <path d="M -1.84701 38.89289 L -1.17696 38.65557" />
</svg>