<svg version="1.1" xmlns="http://www.w3.org/2000/svg" viewBox="-23.557228320748113 -27.721106700003126 47.78168603458193 68.37337318412439" fill="none" stroke="black" stroke-width="0.6%" vector-effect="non-scaling-stroke">
    <path d="M -10.1454 -13.75102 L -7.62612 -6.63318 L -0.25707 12.42593 A 2 1.8872 238.12051 0 0 2.12877 13.68162 L 2.33964 13.55047 L 2.45278 13.5138 L 22.02484 6.44711 L 22.24217 6.35191 A 2 1.8872 238.12051 0 0 22.3614 6.28398 A 2 1.8872 238.12051 0 0 23.08441 3.94323 L 13.00843 -22.11701 A 2 1.8872 238.12051 0 0 10.62258 -23.3727 L 10.50944 -23.33603 L -9.06262 -16.26933 L -9.27995 -16.17414 A 2 1.8872 238.12051 0 0 -9.39918 -16.10621 A 2 1.8872 238.12051 0 0 -10.12219 -13.76546 L -0.04621 12.29479 A 2 1.8872 238.12051 0 0 2.33964 13.55047" />
    <path d="M -1.68544 12.27735 L -11.58632 -15.69603 A 1 0.3246 70.14735 0 0 -12.21153 -16.55277 L -22.11409 -15.71348 A 2 0.6492 70.14735 0 0 -22.16808 -15.70158 A 2 0.6492 70.14735 0 0 -22.4004 -15.15877 L -22.4022 -15.07197 L -22.4022 9.09532 L -22.395 9.28337 A 2 0.6492 70.14735 0 0 -21.48887 11.76846 L -2.30898 38.05057 A 2 0.6492 70.14735 0 0 -1.62977 38.5101 A 2 0.6492 70.14735 0 0 -1.39745 37.96728 L -1.39565 37.88049 L -1.39565 13.7132 L -1.40285 13.52515 A 2 0.6492 70.14735 0 0 -1.68544 12.27735 Z" />
    <path d="M -10.91909 -15.93695 L -11.58632 -15.69603" />
    <path d="M -10.91909 -15.93695 L -10.1454 -13.75102 L -10.12219 -13.76546" />
    <path d="M -7.62612 -6.63318 L -1.01821 12.03644 L -1.68544 12.27735" />
    <path d="M -9.61004 -15.97506 A 2 1.8872 238.12051 0 0 -10.4571 -14.63169" />
    <path d="M 2.12877 13.68162 L 2.24192 13.64495 L 21.81398 6.57825 L 22.03131 6.48306 A 2 1.8872 238.12051 0 0 22.15054 6.41513" />
    <path d="M -0.73562 13.28424 L -1.40285 13.52515" />
    <path d="M -0.73562 13.28424 A 2 0.6492 70.14735 0 0 -1.01821 12.03644" />
    <path d="M -11.5443 -16.79368 L -12.21153 -16.55277" />
    <path d="M -10.91909 -15.93695 A 1 0.3246 70.14735 0 0 -11.5443 -16.79368" />
    <path d="M -21.44686 -15.95439 A 2 0.6492 70.14735 0 0 -21.50085 -15.94249" />
    <path d="M -21.44686 -15.95439 L -14.83726 -16.51458 L -12.31799 -16.7281 L -12.3412 -16.80617 A 2 0.32992 163.43782 0 0 -9.95536 -17.29749 L -9.84221 -17.33761 L 9.72985 -24.4043 L 9.94718 -24.4857 A 2 0.32992 163.43782 0 0 10.92716 -25.08541 L 11.13802 -24.37637" />
    <path d="M -12.31799 -16.7281 L -11.5443 -16.79368" />
    <path d="M -0.72842 13.47228 L -0.73562 13.28424" />
    <path d="M -0.72842 37.63958 L -0.72842 13.47228 L -1.39565 13.7132" />
    <path d="M -0.73022 37.72637 L -0.72842 37.63958 L -1.39565 37.88049" />
    <path d="M -0.96254 38.26919 A 2 0.6492 70.14735 0 0 -0.73022 37.72637 L -1.39745 37.96728" />
    <path d="M 2.24192 13.64495 L 2.45278 13.5138" />
    <path d="M 21.81398 6.57825 L 22.02484 6.44711" />
    <path d="M 22.03131 6.48306 L 22.24217 6.35191" />
    <path d="M 23.18733 6.04271 A 2 1.26472 323.87916 0 0 23.03763 5.67927 L 22.99108 5.61548" />
    <path d="M 23.03763 5.67927 A 2 1.26472 323.87916 0 0 22.9891 5.61909" />
    <path d="M 0.1261 13.05844 A 2 1.26472 323.87916 0 0 -0.26825 14.00752 L -0.27176 14.09805 L 0.07074 14.56737 L 0.07074 38.73467 L 0.08477 38.90778 A 2 1.26472 323.87916 0 0 0.23447 39.27122 L -0.10803 38.8019" />
    <path d="M -0.26825 14.00752 L 0.07425 14.47684 L 0.07074 14.56737" />
    <path d="M 0.54815 13.42597 A 2 1.26472 323.87916 0 0 0.07425 14.47684" />
    <path d="M 0.23447 39.27122 A 2 1.26472 323.87916 0 0 1.85002 39.51385 L 21.42208 32.44715 A 2 1.26472 323.87916 0 0 23.19785 30.47365 L 23.20136 30.38312 L 23.20136 6.21582 L 23.18733 6.04271" />
    <path d="M -21.44686 -15.95439 L -22.11409 -15.71348" />
    <path d="M -22.20632 -17.651 L -14.83726 -16.51458" />
    <path d="M -11.03579 -16.22078 A 2 0.32992 163.43782 0 0 -9.74449 -16.58845 L -9.95536 -17.29749" />
    <path d="M -9.74449 -16.58845 L -9.63135 -16.62857 L -9.84221 -17.33761" />
    <path d="M -9.63135 -16.62857 L 9.94071 -23.69527 L 9.72985 -24.4043" />
    <path d="M 9.94071 -23.69527 L 10.15804 -23.77666 L 9.94718 -24.4857" />
    <path d="M 10.15804 -23.77666 A 2 0.32992 163.43782 0 0 11.13802 -24.37637" />
    <path d="M -22.34406 -17.72332 A 2 0.32992 163.43782 0 0 -22.20632 -17.651 L -22.41718 -18.36004 L -12.3412 -16.80617" />
    <path d="M -0.27176 14.09805 L -0.27176 38.26535 L 0.07074 38.73467" />
    <path d="M -0.27176 38.26535 L -0.25773 38.43845 L 0.08477 38.90778" />
    <path d="M -0.25773 38.43845 A 2 1.26472 323.87916 0 0 -0.10803 38.8019" />
    <path d="M 10.92716 -25.08541 A 2 0.32992 163.43782 0 0 10.78942 -25.15772 L 0.71344 -26.71159 A 2 0.32992 163.43782 0 0 -1.67241 -26.22027 L -1.78555 -26.18015 L -21.35761 -19.11345 L -21.57494 -19.03206 A 2 0.32992 163.43782 0 0 -22.55492 -18.43235 L -22.34406 -17.72332" />
    <path d="M -22.55492 -18.43235 A 2 0.32992 163.43782 0 0 -22.41718 -18.36004" />
    <path d="M -3.98019 3.66781 L -3.68459 3.56108" />
    <path d="M 1.28148 -20.00418 L 1.28148 -20.56876" />
    <path d="M -22.18812 -16.02918 L -21.99473 -15.76417" />
    <path d="M -21.28081 -17.50827 A 2 1.26472 323.87916 0 0 -22.18812 -16.02918 L -22.19163 -15.93865 L -22.0498 -15.74429" />
    <path d="M -20.42533 -17.37635 A 2 1.26472 323.87916 0 0 -21.79519 -15.83622" />
    <path d="M -22.19163 -15.93865 L -22.19163 -15.69142" />
    <path d="M -0.25707 12.42593 L -0.04621 12.29479" />
    <path d="M -9.39918 -16.10621 L -9.61004 -15.97506" />
    <path d="M 22.3614 6.28398 L 22.15054 6.41513" />
    <path d="M -1.62977 38.5101 L -0.96254 38.26919" />
    <path d="M -22.16808 -15.70158 L -21.50085 -15.94249" />
</svg>