<svg version="1.1" xmlns="http://www.w3.org/2000/svg" viewBox="-23.73646219888044 -26.10749862798774 47.69652058475958 66.12733907351058" fill="none" stroke="black" stroke-width="0.6%" vector-effect="non-scaling-stroke">
    <path d="M -1.22734 14.84048 L -0.48158 17.07265 A 2 1.89524 261.9876 0 0 1.58597 18.41504" />
    <path d="M -0.4025 17.06152 L -1.22734 14.59267 L -1.22734 14.49003 L -1.23439 14.30428 L -1.45799 14.38404 A 2 0.62702 70.36783 0 0 -1.71614 13.19536 L -11.4326 -15.59659 A 1 0.31351 70.36783 0 0 -12.045 -16.46998 L -21.76385 -15.39275 A 2 0.62702 70.36783 0 0 -21.80403 -15.38299 L -21.58043 -15.46275" />
    <path d="M -1.22734 14.84048 L -1.22734 14.59267" />
    <path d="M -9.98208 -16.60483 A 2 1.89524 261.9876 0 0 -11.01192 -15.09234" />
    <path d="M -9.76288 -16.69973 L -9.98208 -16.60483 L -9.90301 -16.61596 A 2 1.89524 261.9876 0 0 -10.94783 -14.90243" />
    <path d="M 9.91359 -23.71866 L -9.76288 -16.69973 L -9.68381 -16.71086 L -9.90301 -16.61596" />
    <path d="M 10.02715 -23.75499 L 9.91359 -23.71866 L 9.99266 -23.72979 L -9.68381 -16.71086" />
    <path d="M 10.26739 -23.80574 A 2 1.89524 261.9876 0 0 10.02715 -23.75499 L 10.10622 -23.76612 L 9.99266 -23.72979" />
    <path d="M -0.4025 17.06152 A 2 1.89524 261.9876 0 0 1.66504 18.40391 A 2 1.89524 261.9876 0 0 1.90528 18.35316 L 2.01884 18.31683 L 21.69531 11.2979 L 21.91451 11.203 A 2 1.89524 261.9876 0 0 22.8515 8.76643 L 12.414 -22.47448 A 2 1.89524 261.9876 0 0 10.34646 -23.81687 A 2 1.89524 261.9876 0 0 10.10622 -23.76612" />
    <path d="M -1.22734 38.32046 L -1.45093 38.40022 L -1.45093 14.56979 L -1.45799 14.38404" />
    <path d="M -1.22734 14.49003 L -1.45093 14.56979" />
    <path d="M -1.22734 38.32046 L -1.22734 14.84048" />
    <path d="M -11.8214 -16.54974 L -13.84721 -16.3252 L -12.11134 -16.56955 L -12.19041 -16.80622 A 2 0.12218 161.52568 0 0 -9.88263 -17.49311 L -9.76906 -17.53335 L 9.9074 -24.55227 L 10.12661 -24.63154 A 2 0.12218 161.52568 0 0 11.17176 -25.09699 L 11.25083 -24.86032" />
    <path d="M -11.20901 -15.67635 A 1 0.31351 70.36783 0 0 -11.8214 -16.54974 L -12.045 -16.46998" />
    <path d="M -1.49255 13.1156 L -11.20901 -15.67635 L -11.4326 -15.59659" />
    <path d="M -1.23439 14.30428 A 2 0.62702 70.36783 0 0 -1.49255 13.1156 L -1.71614 13.19536" />
    <path d="M -1.2291 38.40596 L -1.22734 38.32046" />
    <path d="M -1.44997 38.92834 A 2 0.62702 70.36783 0 0 -1.2291 38.40596 L -1.4527 38.48573 L -1.45093 38.40022" />
    <path d="M -19.11928 1.58883 L -12.8571 10.51989 A 1 0.31351 70.36783 0 0 -12.65793 10.73063" />
    <path d="M -19.56305 0.34288 A 1 0.31351 70.36783 0 0 -19.11928 1.58883 L -19.34287 1.66859 L -13.0807 10.59965 A 1 0.31351 70.36783 0 0 -12.74471 10.84062 A 1 0.31351 70.36783 0 0 -12.63428 10.57944 L -12.6334 10.53669 L -12.6334 0.72416 L -12.63692 0.63128 A 1 0.31351 70.36783 0 0 -13.0807 -0.61467 L -19.34287 -9.54573 A 1 0.31351 70.36783 0 0 -19.67885 -9.7867 A 1 0.31351 70.36783 0 0 -19.78929 -9.52552 L -19.79017 -9.48277 L -19.79017 0.32976 L -19.78665 0.42264 A 1 0.31351 70.36783 0 0 -19.34287 1.66859" />
    <path d="M -19.56658 0.25 L -19.56305 0.34288 L -19.78665 0.42264" />
    <path d="M -19.56658 -9.56253 L -19.56658 0.25 L -19.79017 0.32976" />
    <path d="M -19.56569 -9.60528 L -19.56658 -9.56253 L -19.79017 -9.48277" />
    <path d="M -19.54204 -9.75647 A 1 0.31351 70.36783 0 0 -19.56569 -9.60528 L -19.78929 -9.52552" />
    <path d="M -16.43549 -10.70416 L -6.59492 3.33036 L -6.81852 3.41012 L -16.65908 -10.6244 A 1 0.31351 250.36783 0 1 -16.99506 -12.26716 A 1 0.31351 250.36783 0 1 -16.98515 -12.27012 L -12.045 -12.96551 A 1 0.31351 250.36783 0 1 -11.4326 -12.09212 L -6.49245 2.69446 A 1 0.31351 250.36783 0 1 -6.48254 3.65109 A 1 0.31351 250.36783 0 1 -6.81852 3.41012" />
    <path d="M -16.83421 -12.29137 A 1 0.31351 70.36783 0 0 -16.43549 -10.70416 L -16.65908 -10.6244" />
    <path d="M -6.59492 3.33036 A 1 0.31351 70.36783 0 0 -6.39575 3.5411" />
    <path d="M -21.13207 11.73297 L -2.34553 38.52615 A 2 0.62702 70.36783 0 0 -1.67357 39.0081 L -1.44997 38.92834" />
    <path d="M -1.67357 39.0081 A 2 0.62702 70.36783 0 0 -1.4527 38.48573" />
    <path d="M -21.80403 -15.38299 A 2 0.62702 70.36783 0 0 -22.0249 -14.86062 L -22.02666 -14.77512 L -22.02666 9.05532 L -22.01961 9.24107 A 2 0.62702 70.36783 0 0 -21.13207 11.73297" />
    <path d="M -21.54025 -15.47251 L -21.76385 -15.39275" />
    <path d="M -21.54025 -15.47251 A 2 0.62702 70.36783 0 0 -21.58043 -15.46275" />
    <path d="M -22.54883 -15.10035 L -21.9713 -15.18164" />
    <path d="M -12.11134 -16.56955 A 2 0.12218 161.52568 0 0 -9.80356 -17.25643 L -9.88263 -17.49311" />
    <path d="M -9.80356 -17.25643 L -9.68999 -17.29667 L -9.76906 -17.53335" />
    <path d="M -9.68999 -17.29667 L 9.98647 -24.3156 L 9.9074 -24.55227" />
    <path d="M 9.98647 -24.3156 L 10.20568 -24.39487 L 10.12661 -24.63154" />
    <path d="M 10.20568 -24.39487 A 2 0.12218 161.52568 0 0 11.25083 -24.86032" />
    <path d="M -22.65699 -15.10467 A 2 0.12218 161.52568 0 0 -22.54883 -15.10035 L -22.6279 -15.33702 L -12.19041 -16.80622" />
    <path d="M -13.84721 -16.3252 L -21.54025 -15.47251" />
    <path d="M -14.39145 8.33162 L -12.6334 7.70449" />
    <path d="M 1.78641 -20.81956 L 1.78641 -21.26973 L 1.77671 -21.38704" />
    <path d="M 0.33778 38.7652 L 20.01425 31.74628 A 2 1.25374 324.96306 0 0 21.79949 29.79568 L 21.80302 29.7064 L 21.80302 11.25127" />
    <path d="M -1.24618 38.57976 A 2 1.25374 324.96306 0 0 0.33778 38.7652" />
    <path d="M 11.17176 -25.09699 A 2 0.12218 161.52568 0 0 11.0636 -25.10131 L 0.6261 -23.63212 A 2 0.12218 161.52568 0 0 -1.68168 -22.94523 L -1.79525 -22.90499 L -21.47171 -15.88607 L -21.69091 -15.80679 A 2 0.12218 161.52568 0 0 -22.73607 -15.34135 L -22.65699 -15.10467" />
    <path d="M -22.73607 -15.34135 A 2 0.12218 161.52568 0 0 -22.6279 -15.33702" />
    <path d="M -0.48158 17.07265 L -0.4025 17.06152" />
    <path d="M -12.8571 10.51989 L -13.0807 10.59965" />
    <path d="M 1.66504 18.40391 L 1.58597 18.41504" />
    <path d="M 10.34646 -23.81687 L 10.26739 -23.80574" />
</svg>