<svg version="1.1" xmlns="http://www.w3.org/2000/svg" viewBox="-23.68381132680791 -26.625575115349598 47.694930701690296 66.13266177527622" fill="none" stroke="black" stroke-width="0.6%" vector-effect="non-scaling-stroke">
    <path d="M -9.62658 -12.16745 L -2.44305 7.26238 L -0.50657 12.50011 A 2 0.66161 248.88879 0 1 -0.26205 13.37053 L -0.00172 14.09962 A 2 1.88181 262.01228 0 0 2.03692 15.40041 A 2 1.88181 262.01228 0 0 2.31789 15.33736 L 2.42977 15.29838 L 21.79772 7.82056 L 22.01311 7.72054 A 2 1.88181 262.01228 0 0 22.88768 5.26219 L 13.49695 -21.03773 A 2 1.88181 262.01228 0 0 11.45831 -22.33853 A 2 1.88181 262.01228 0 0 11.17734 -22.27547 L 11.06546 -22.2365 L -8.30249 -14.75867 L -8.51788 -14.65866 A 2 1.88181 262.01228 0 0 -9.39245 -12.2003 L -2.44305 7.26238" />
    <path d="M -1.16684 12.75503 L -11.45015 -15.05899 A 1 0.3308 68.88879 0 0 -12.09952 -15.92275 L -22.38457 -15.46538 A 2 0.66161 68.88879 0 0 -22.45556 -15.45055 A 2 0.66161 68.88879 0 0 -22.68194 -14.93168 L -22.68381 -14.84658 L -22.68381 8.86675 L -22.67633 9.05153 A 2 0.66161 68.88879 0 0 -21.7352 11.52345 L -1.81447 38.02107 A 2 0.66161 68.88879 0 0 -1.09411 38.49193 A 2 0.66161 68.88879 0 0 -0.86773 37.97305 L -0.86586 37.88795 L -0.86586 14.17462 L -0.87334 13.98984 A 2 0.66161 68.88879 0 0 -1.16684 12.75503 Z" />
    <path d="M -10.78988 -15.31392 L -11.45015 -15.05899" />
    <path d="M -10.78988 -15.31392 L -9.62658 -12.16745 L -9.39245 -12.2003" />
    <path d="M -8.76942 -14.62336 L -8.51788 -14.65866" />
    <path d="M -8.76942 -14.62336 A 2 1.88181 262.01228 0 0 -9.71329 -12.402" />
    <path d="M -0.21307 13.73492 L -0.87334 13.98984" />
    <path d="M -0.26205 13.37053 A 2 0.66161 248.88879 0 1 -0.21307 13.73492" />
    <path d="M -11.43925 -16.17767 L -12.09952 -15.92275" />
    <path d="M -10.78988 -15.31392 A 1 0.3308 68.88879 0 0 -11.43925 -16.17767" />
    <path d="M -12.60255 -16.12594 L -11.43925 -16.17767" />
    <path d="M -0.20559 14.12823 L -0.20559 15.3146" />
    <path d="M -0.20746 37.71813 L -0.20559 37.63303 L -0.19171 37.8025 A 2 1.22802 323.06439 0 0 -0.04349 38.15506 L -0.22876 37.90862" />
    <path d="M -0.43384 38.237 A 2 0.66161 68.88879 0 0 -0.20746 37.71813 L -0.86773 37.97305" />
    <path d="M -0.20559 13.91969 L -0.21307 13.73492" />
    <path d="M -0.20559 13.91969 L -0.20559 14.12823 L -0.00172 14.09962" />
    <path d="M -0.20559 14.25639 A 2 1.88181 262.01228 0 0 1.78539 15.43571" />
    <path d="M 10.92581 -22.24018 L 11.17734 -22.27547" />
    <path d="M 11.20677 -22.30323 A 2 1.88181 262.01228 0 0 10.92581 -22.24018 L 10.81393 -22.2012 L -8.55403 -14.72338 L -8.30249 -14.75867" />
    <path d="M 10.81393 -22.2012 L 11.06546 -22.2365" />
    <path d="M -8.55403 -14.72338 L -8.76942 -14.62336" />
    <path d="M -0.20559 13.91969 L -0.86586 14.17462" />
    <path d="M -0.20559 37.63303 L -0.86586 37.88795" />
    <path d="M -0.20212 15.22567 L -0.20559 15.3146" />
    <path d="M -0.01355 14.60697 A 2 1.22802 323.06439 0 0 -0.20212 15.22567" />
    <path d="M 22.68381 28.7956 L 22.68381 7.09478" />
    <path d="M 22.68034 28.88453 L 22.68381 28.7956" />
    <path d="M 20.92309 30.8703 A 2 1.22802 323.06439 0 0 22.68034 28.88453" />
    <path d="M 1.55513 38.34813 L 20.92309 30.8703" />
    <path d="M -0.04349 38.15506 A 2 1.22802 323.06439 0 0 1.55513 38.34813" />
    <path d="M -21.7243 -15.72031 L -22.38457 -15.46538" />
    <path d="M -21.7243 -15.72031 L -19.78612 -15.8065 L -12.83668 -16.78166 A 2 0.14513 160.35024 0 0 -10.51707 -17.51271 L -10.40519 -17.55559 L 8.96276 -25.03341 L 9.17815 -25.11787 A 2 0.14513 160.35024 0 0 10.17553 -25.61183 L 10.42706 -24.90736" />
    <path d="M -19.78612 -15.8065 L -12.60255 -16.12594 L -12.83668 -16.78166" />
    <path d="M -21.79529 -15.70548 A 2 0.66161 248.88879 0 1 -21.7243 -15.72031" />
    <path d="M -21.35284 -15.96515 A 2 0.14513 160.35024 0 0 -22.3402 -15.4951" />
    <path d="M -12.29068 -16.13981 A 2 0.14513 160.35024 0 0 -10.26554 -16.80825 L -10.51707 -17.51271" />
    <path d="M -10.26554 -16.80825 L -10.15365 -16.85112 L -10.40519 -17.55559" />
    <path d="M -10.15365 -16.85112 L 9.2143 -24.32895 L 8.96276 -25.03341" />
    <path d="M 9.2143 -24.32895 L 9.42969 -24.41341 L 9.17815 -25.11787" />
    <path d="M 9.42969 -24.41341 A 2 0.14513 160.35024 0 0 10.42706 -24.90736" />
    <path d="M -0.20559 15.22105 L -0.20212 15.22567" />
    <path d="M -0.21116 37.77661 L -0.19171 37.8025" />
    <path d="M 1.45874 -18.58923 L 1.45874 -21.33458" />
    <path d="M -21.13745 -16.04961 L -21.35284 -15.96515" />
    <path d="M 10.17553 -25.61183 A 2 0.14513 160.35024 0 0 10.05272 -25.61909 L 0.66199 -24.30136 A 2 0.14513 160.35024 0 0 -1.65762 -23.57031 L -1.7695 -23.52743 L -21.13745 -16.04961" />
    <path d="M -0.50657 12.50011 L -1.16684 12.75503" />
    <path d="M 2.03692 15.40041 L 1.78539 15.43571" />
    <path d="M 11.45831 -22.33853 L 11.20677 -22.30323" />
    <path d="M -1.09411 38.49193 L -0.43384 38.237" />
    <path d="M -22.45556 -15.45055 L -21.79529 -15.70548" />
</svg>