<svg version="1.1" xmlns="http://www.w3.org/2000/svg" viewBox="-48.73224570298543 -54.653450470419244 97.46449140597088 135.77949697299107" fill="none" stroke="black" stroke-width="0.6%" vector-effect="non-scaling-stroke">
    <path d="M -23.64607 -31.34066 L -0.55915 28.18894 A 1 0.94267 237.61904 0 0 0.63411 28.81665 L 0.69065 28.79835 L 0.90203 28.6643 L 47.13352 11.98553 L 47.2421 11.938 A 1 0.94267 237.61904 0 0 47.30833 11.89989 A 1 0.94267 237.61904 0 0 47.66185 10.73464 L 24.57493 -48.79496 A 1 0.94267 237.61904 0 0 23.38166 -49.42267 L 23.32513 -49.40437 L -22.90636 -32.7256 L -23.01495 -32.67806 A 1 0.94267 237.61904 0 0 -23.08117 -32.63995 A 1 0.94267 237.61904 0 0 -23.43469 -31.4747 L -0.34777 28.0549 A 1 0.94267 237.61904 0 0 0.84549 28.68261 L 0.90203 28.6643" />
    <path d="M -23.29255 -32.50591 A 1 0.94267 237.61904 0 0 -23.64607 -31.34066 L -23.43469 -31.4747" />
    <path d="M 0.63411 28.81665 L 0.84549 28.68261" />
    <path d="M 47.03072 12.07204 A 1 0.94267 237.61904 0 0 47.09695 12.03393" />
    <path d="M 46.92214 12.11958 L 47.03072 12.07204 L 47.2421 11.938" />
    <path d="M 0.69065 28.79835 L 46.92214 12.11958 L 47.13352 11.98553" />
    <path d="M -47.51976 -35.6549 A 1 0.16158 163.40597 0 0 -47.45047 -35.61975 L -24.36355 -32.31699 A 1 0.16158 163.40597 0 0 -23.22968 -32.54578" />
    <path d="M 23.55636 -49.45481 A 1 0.16158 163.40597 0 0 23.71536 -49.60209" />
    <path d="M 23.20931 -49.36258 L 23.01495 -50.01482 A 1 0.16158 163.40597 0 0 23.50398 -50.31141 A 1 0.16158 163.40597 0 0 23.43469 -50.34656 L 0.34777 -53.64932 A 1 0.16158 163.40597 0 0 -0.84549 -53.40022 L -0.90203 -53.38018 L -47.13352 -36.70142 L -47.2421 -36.66081 A 1 0.16158 163.40597 0 0 -47.73113 -36.36422 A 1 0.16158 163.40597 0 0 -47.66185 -36.32907 L -24.57493 -33.02631 A 1 0.16158 163.40597 0 0 -23.38166 -33.27541 L -23.32513 -33.29545 L 22.90636 -49.97421 L 23.01495 -50.01482" />
    <path d="M 23.10034 -49.32327 L 22.90636 -49.97421" />
    <path d="M -2.02451 79.28421 A 1 0.63435 323.68881 0 0 -1.94826 79.46874" />
    <path d="M -2.03152 79.19732 L -2.02451 79.28421 L -1.68117 79.75141 A 1 0.63435 323.68881 0 0 -1.60493 79.93594 A 1 0.63435 323.68881 0 0 -0.79912 80.05727 L 45.43237 63.3785 A 1 0.63435 323.68881 0 0 46.31968 62.38969 L 46.32144 62.34426 L 46.32144 12.33629" />
    <path d="M -2.03152 24.9716 L -2.03152 79.19732 L -1.68819 79.66452 L -1.68117 79.75141" />
    <path d="M -2.02976 24.92617 L -2.03152 24.9716 L -1.68819 25.4388 L -1.68819 79.66452" />
    <path d="M -1.94112 24.62553 A 1 0.63435 323.68881 0 0 -2.02976 24.92617 L -1.68643 25.39336 L -1.68819 25.4388" />
    <path d="M -1.67501 25.31169 A 1 0.63435 323.68881 0 0 -1.68643 25.39336" />
    <path d="M -23.12206 -32.61402 L -23.32513 -33.29545" />
    <path d="M -23.17464 -32.58068 L -23.38166 -33.27541" />
    <path d="M -45.97109 19.48266 A 1 0.63435 323.68881 0 0 -45.89485 19.66719" />
    <path d="M -45.9781 19.39576 L -45.97109 19.48266 L -45.62776 19.94986 A 1 0.63435 323.68881 0 0 -45.55152 20.13439 A 1 0.63435 323.68881 0 0 -44.7457 20.25571 L -34.76919 16.65652" />
    <path d="M -45.9781 -34.82996 L -45.9781 19.39576 L -45.63477 19.86296 L -45.62776 19.94986" />
    <path d="M -45.97635 -34.87539 L -45.9781 -34.82996 L -45.63477 -34.36276 L -45.63477 19.86296" />
    <path d="M -45.75919 -35.3778 A 1 0.63435 323.68881 0 0 -45.97635 -34.87539 L -45.63302 -34.40819 L -45.63477 -34.36276" />
    <path d="M -45.00837 -35.27039 A 1 0.63435 323.68881 0 0 -45.63302 -34.40819" />
    <path d="M -17.12436 10.29086 L -8.68168 7.24502" />
    <path d="M -33.85364 21.9554 L -15.92023 46.35879 L -15.92023 48.73117 L -15.91662 48.82551 A 1 0.32662 70.16226 0 0 -15.46245 50.0676 L -8.29824 59.8165 A 1 0.32662 70.16226 0 0 -7.95888 60.04366 L -7.29208 59.8031 A 1 0.32662 70.16226 0 0 -7.17457 59.52895 L -7.84137 59.76951 L -7.84046 59.72593 L -7.84046 44.99224 L -7.84407 44.8979 A 1 0.32662 70.16226 0 0 -8.29824 43.65581 L -11.59151 39.17439" />
    <path d="M -7.17457 59.52895 L -7.17366 59.48538 L -7.84046 59.72593" />
    <path d="M -7.17366 59.48538 L -7.17366 44.75168 L -7.84046 44.99224" />
    <path d="M -7.17366 44.75168 L -7.17727 44.65734 L -7.84407 44.8979" />
    <path d="M -7.17727 44.65734 A 1 0.32662 70.16226 0 0 -7.63144 43.41525 L -8.29824 43.65581" />
    <path d="M -7.63144 43.41525 L -12.1291 37.29493 L -12.7959 37.53549 L -12.7959 24.92445 L -12.80312 24.73577 A 2 0.65324 70.16226 0 0 -13.10599 23.43208 L -23.46917 -5.10305 A 1 0.32662 70.16226 0 0 -24.09591 -5.95591 L -34.45997 -5.62476 A 2 0.65324 70.16226 0 0 -34.53235 -5.61178 L -33.86555 -5.85234" />
    <path d="M -12.1291 37.29493 L -12.1291 24.68389 L -12.7959 24.92445" />
    <path d="M -12.1291 24.68389 L -12.13632 24.49521 L -12.80312 24.73577" />
    <path d="M -12.13632 24.49521 A 2 0.65324 70.16226 0 0 -12.43918 23.19152 L -13.10599 23.43208" />
    <path d="M -12.43918 23.19152 L -22.80237 -5.34361 L -23.46917 -5.10305" />
    <path d="M -22.80237 -5.34361 A 1 0.32662 70.16226 0 0 -23.42911 -6.19647 L -24.09591 -5.95591" />
    <path d="M -23.42911 -6.19647 L -33.79317 -5.86532 L -34.45997 -5.62476" />
    <path d="M -33.79317 -5.86532 A 2 0.65324 70.16226 0 0 -33.86555 -5.85234" />
    <path d="M -34.00742 -5.80116 L -36.39128 -9.04505 L -37.05808 -8.80449 A 1 0.32662 70.16226 0 0 -37.39743 -9.03165 L -36.73063 -9.27221" />
    <path d="M -36.39128 -9.04505 A 1 0.32662 70.16226 0 0 -36.73063 -9.27221" />
    <path d="M -34.76919 19.28254 L -34.76197 19.47121 A 2 0.65324 70.16226 0 0 -33.85364 21.9554" />
    <path d="M -7.95888 60.04366 A 1 0.32662 70.16226 0 0 -7.84137 59.76951" />
    <path d="M -11.6139 39.24412 L -11.59151 39.17439" />
    <path d="M -11.6481 39.32927 C -11.65 39.32 -11.64 39.32 -11.63914 39.30891 C -11.64 39.3 -11.63 39.3 -11.63045 39.28791 C -11.63 39.28 -11.62 39.27 -11.62204 39.26631 C -11.62 39.26 -11.62 39.25 -11.6139 39.24412" />
    <path d="M -12.33142 39.20839 C -12.32 39.22 -12.32 39.23 -12.30782 39.23994 C -12.3 39.25 -12.29 39.26 -12.28431 39.27028 C -12.28 39.28 -12.27 39.29 -12.26089 39.29933 C -12.25 39.31 -12.25 39.32 -12.23759 39.32704 C -12.23 39.34 -12.22 39.34 -12.21455 39.35321 C -12.21 39.36 -12.2 39.37 -12.19168 39.37793 C -12.18 39.39 -12.18 39.39 -12.16901 39.40116 C -12.16 39.41 -12.15 39.42 -12.14656 39.42283 C -12.14 39.43 -12.13 39.44 -12.12435 39.44291 C -12.12 39.45 -12.11 39.46 -12.10242 39.46136 C -12.1 39.47 -12.09 39.47 -12.08079 39.47813 C -12.07 39.48 -12.07 39.49 -12.05948 39.49321 C -12.05 39.5 -12.04 39.5 -12.03431 39.50908 C -12.03 39.51 -12.02 39.52 -12.0097 39.52244 C -12 39.53 -11.99 39.53 -11.98566 39.5333 C -11.98 39.54 -11.97 39.54 -11.96224 39.54166 C -11.95 39.54 -11.95 39.55 -11.93945 39.54756 C -11.93 39.55 -11.92 39.55 -11.91733 39.55104 C -11.91 39.55 -11.9 39.55 -11.89587 39.55215 C -11.89 39.55 -11.88 39.55 -11.87511 39.55096 C -11.87 39.55 -11.86 39.55 -11.85394 39.54728 C -11.85 39.55 -11.84 39.54 -11.83355 39.54122 C -11.83 39.54 -11.82 39.54 -11.8126 39.53222 C -11.81 39.53 -11.8 39.52 -11.7925 39.52074 C -11.79 39.52 -11.78 39.51 -11.77118 39.50524 C -11.76 39.5 -11.76 39.49 -11.75086 39.48702 C -11.74 39.48 -11.74 39.47 -11.73151 39.46623 C -11.73 39.46 -11.72 39.45 -11.7131 39.44304 C -11.71 39.43 -11.7 39.43 -11.69559 39.41761 C -11.69 39.41 -11.68 39.4 -11.67895 39.39008 C -11.67 39.38 -11.67 39.37 -11.66313 39.36059 C -11.66 39.35 -11.65 39.34 -11.6481 39.32927" />
    <path d="M -12.40965 39.09148 L -12.33142 39.20839" />
    <path d="M -12.56388 38.83632 L -12.40965 39.09148" />
    <path d="M -12.56388 38.31374 L -12.56388 38.83632" />
    <path d="M -12.45212 38.47975 L -12.56388 38.31374" />
    <path d="M -12.12466 38.79297 C -12.13 38.79 -12.13 38.79 -12.14005 38.78842 C -12.15 38.79 -12.15 38.78 -12.15614 38.78178 C -12.16 38.78 -12.17 38.78 -12.17289 38.77309 C -12.18 38.77 -12.18 38.77 -12.1903 38.76239 C -12.2 38.76 -12.2 38.75 -12.20832 38.74972 C -12.21 38.75 -12.22 38.74 -12.22694 38.73512 C -12.23 38.73 -12.24 38.72 -12.24612 38.71866 C -12.25 38.71 -12.26 38.71 -12.26585 38.70039 C -12.28 38.69 -12.29 38.67 -12.30953 38.65572 C -12.32 38.64 -12.34 38.62 -12.35528 38.60367 C -12.36 38.59 -12.37 38.58 -12.37887 38.57506 C -12.39 38.57 -12.39 38.56 -12.40289 38.54483 C -12.41 38.53 -12.42 38.52 -12.42731 38.51303 C -12.44 38.5 -12.44 38.49 -12.45212 38.47975" />
    <path d="M -12.05125 38.78068 C -12.05 38.78 -12.06 38.78 -12.0609 38.78602 C -12.06 38.79 -12.07 38.79 -12.0708 38.79023 C -12.08 38.79 -12.08 38.79 -12.08366 38.79385 C -12.09 38.79 -12.09 38.8 -12.09693 38.79554 C -12.1 38.8 -12.11 38.8 -12.11059 38.79527 C -12.12 38.79 -12.12 38.79 -12.12466 38.79297" />
    <path d="M -11.96563 38.6653 C -11.97 38.67 -11.97 38.68 -11.97497 38.68509 C -11.98 38.69 -11.98 38.7 -11.98468 38.70348 C -11.99 38.71 -11.99 38.72 -11.99477 38.7204 C -12 38.73 -12 38.73 -12.00525 38.73579 C -12.01 38.75 -12.02 38.75 -12.02743 38.76171 C -12.03 38.77 -12.04 38.77 -12.03913 38.7721 C -12.04 38.78 -12.05 38.78 -12.05125 38.78068 L -11.71785 38.6604 Q -11.67 38.7 -11.63223 38.54502 L -11.25811 39.05411 L -11.59151 39.17439" />
    <path d="M -11.96563 38.6653 L -12.7959 37.53549" />
    <path d="M -34.53235 -5.61178 A 2 0.65324 70.16226 0 0 -34.64653 -5.52291 L -37.05808 -8.80449" />
    <path d="M -37.39743 -9.03165 A 1 0.32662 70.16226 0 0 -37.51495 -8.7575 L -37.51585 -8.71393 L -37.51585 4.129 L -37.51224 4.22334 A 1 0.32662 70.16226 0 0 -37.05808 5.46543 L -34.76919 8.5801 L -34.76919 19.28254" />
    <path d="M -13.40209 36.22898 L -12.96846 36.81907 L -12.96846 36.76332 C -12.97 36.74 -12.98 36.73 -12.9793 36.70718 C -12.98 36.69 -12.99 36.67 -12.98927 36.65099 C -12.99 36.63 -13 36.61 -12.99839 36.59479 C -13 36.58 -13 36.56 -13.00669 36.53863 C -13.01 36.52 -13.01 36.5 -13.01421 36.48254 C -13.02 36.46 -13.02 36.45 -13.02097 36.42656 C -13.02 36.41 -13.03 36.39 -13.027 36.37072 C -13.03 36.35 -13.03 36.33 -13.03233 36.31504 C -13.03 36.29 -13.04 36.27 -13.03755 36.25242 C -13.04 36.23 -13.04 36.21 -13.04195 36.19006 C -13.04 36.17 -13.04 36.15 -13.04559 36.12797 C -13.05 36.11 -13.05 36.09 -13.04848 36.06617 C -13.05 36.05 -13.05 36.03 -13.05068 36.00468 C -13.05 35.98 -13.05 35.96 -13.05221 35.94349 C -13.05 35.92 -13.05 35.9 -13.05311 35.88262 C -13.05 35.86 -13.05 35.84 -13.0534 35.82206 L -13.0534 34.0871 C -13.05 34.07 -13.05 34.05 -13.05487 34.02838 C -13.06 34.01 -13.06 33.99 -13.05753 33.96848 C -13.06 33.95 -13.06 33.93 -13.06144 33.90739 C -13.06 33.89 -13.06 33.87 -13.06664 33.84514 C -13.07 33.83 -13.07 33.81 -13.07254 33.78744 C -13.07 33.77 -13.08 33.75 -13.07958 33.72881 C -13.08 33.71 -13.08 33.69 -13.08779 33.66929 C -13.09 33.65 -13.09 33.63 -13.0972 33.6089 C -13.1 33.59 -13.1 33.57 -13.10782 33.54771 C -13.11 33.53 -13.12 33.51 -13.11967 33.48577 C -13.12 33.46 -13.13 33.44 -13.13275 33.42313 C -13.14 33.4 -13.14 33.38 -13.14708 33.35987 C -13.15 33.34 -13.16 33.32 -13.16221 33.29778 C -13.17 33.28 -13.17 33.26 -13.1785 33.23525 C -13.18 33.21 -13.19 33.19 -13.19594 33.17236 C -13.2 33.15 -13.21 33.13 -13.21449 33.1092 C -13.22 33.09 -13.23 33.07 -13.23414 33.04584 C -13.24 33.02 -13.25 33 -13.25484 32.98237 C -13.26 32.96 -13.27 32.94 -13.27657 32.91887 C -13.28 32.9 -13.29 32.88 -13.29927 32.85542 C -13.31 32.84 -13.31 32.82 -13.31829 32.80429 C -13.32 32.79 -13.33 32.77 -13.33787 32.75343 C -13.34 32.74 -13.35 32.72 -13.35798 32.7029 C -13.36 32.69 -13.37 32.67 -13.37861 32.65271 C -13.39 32.64 -13.39 32.62 -13.39974 32.60292 C -13.41 32.59 -13.41 32.57 -13.42135 32.55355 C -13.43 32.54 -13.44 32.52 -13.44342 32.50463 C -13.45 32.49 -13.46 32.47 -13.46592 32.4562 C -13.47 32.44 -13.48 32.42 -13.4891 32.40773 C -13.5 32.39 -13.5 32.38 -13.51268 32.3598 C -13.52 32.34 -13.53 32.33 -13.53664 32.31243 C -13.54 32.3 -13.55 32.28 -13.56095 32.26565 C -13.57 32.25 -13.58 32.23 -13.58559 32.21947 C -13.59 32.2 -13.6 32.19 -13.61054 32.17389 C -13.62 32.16 -13.63 32.14 -13.63577 32.12894 C -13.64 32.11 -13.65 32.1 -13.66127 32.08461 C -13.67 32.06 -13.68 32.04 -13.69672 32.02471 C -13.71 32 -13.72 31.99 -13.73258 31.96602 C -13.74 31.95 -13.76 31.93 -13.76881 31.90851 C -13.78 31.89 -13.79 31.87 -13.80537 31.85219 C -13.82 31.83 -13.83 31.82 -13.84223 31.79705 C -13.85 31.78 -13.87 31.76 -13.87934 31.74306 C -13.89 31.73 -13.9 31.71 -13.91667 31.69021 C -13.93 31.67 -13.94 31.66 -13.9542 31.63847 C -13.98 31.61 -14 31.58 -14.01828 31.55358 C -14.04 31.53 -14.06 31.5 -14.08169 31.47431 C -14.09 31.46 -14.1 31.45 -14.11312 31.43686 C -14.12 31.42 -14.13 31.41 -14.14434 31.40093 C -14.15 31.39 -14.17 31.38 -14.17533 31.36654 C -14.19 31.36 -14.2 31.34 -14.20609 31.33371 C -14.22 31.32 -14.23 31.31 -14.23609 31.303 C -14.25 31.29 -14.26 31.28 -14.26583 31.27387 C -14.28 31.26 -14.29 31.26 -14.2953 31.24632 C -14.31 31.24 -14.31 31.23 -14.32449 31.2204 C -14.33 31.21 -14.34 31.2 -14.35338 31.19612 C -14.36 31.19 -14.37 31.18 -14.38195 31.17348 C -14.39 31.17 -14.4 31.16 -14.41021 31.15252 C -14.42 31.15 -14.43 31.14 -14.43813 31.13324 C -14.46 31.12 -14.47 31.11 -14.49037 31.10109 C -14.5 31.1 -14.51 31.09 -14.51573 31.08749 C -14.52 31.08 -14.53 31.08 -14.54055 31.0756 C -14.55 31.07 -14.56 31.07 -14.5648 31.06545 C -14.57 31.06 -14.58 31.06 -14.58847 31.05707 C -14.6 31.05 -14.6 31.05 -14.61154 31.0505 C -14.62 31.05 -14.63 31.05 -14.63399 31.04577 C -14.64 31.04 -14.65 31.04 -14.66351 31.04233 C -14.67 31.04 -14.68 31.04 -14.69179 31.04241 C -14.7 31.04 -14.71 31.04 -14.71878 31.04604 C -14.73 31.05 -14.74 31.05 -14.74446 31.05325 C -14.75 31.06 -14.76 31.06 -14.76619 31.06272 C -14.77 31.07 -14.78 31.07 -14.78683 31.07506 C -14.79 31.08 -14.8 31.08 -14.79983 31.08474 C -14.8 31.09 -14.81 31.09 -14.81223 31.09555 C -14.82 31.1 -14.82 31.1 -14.82401 31.10751 C -14.83 31.11 -14.83 31.12 -14.83514 31.12064 C -14.84 31.13 -14.84 31.13 -14.84562 31.13495 C -14.85 31.14 -14.85 31.15 -14.85541 31.15047 C -14.86 31.16 -14.86 31.16 -14.86452 31.1672 C -14.87 31.17 -14.87 31.18 -14.87291 31.18516 C -14.88 31.19 -14.88 31.2 -14.88058 31.20434 C -14.88 31.21 -14.89 31.22 -14.88752 31.22477 C -14.89 31.23 -14.89 31.24 -14.8937 31.24643 C -14.9 31.25 -14.9 31.26 -14.89912 31.26934 C -14.9 31.28 -14.9 31.29 -14.90377 31.29348 C -14.91 31.3 -14.91 31.31 -14.90765 31.31885 C -14.91 31.33 -14.91 31.34 -14.91074 31.34545 C -14.91 31.35 -14.91 31.36 -14.91304 31.37325 C -14.91 31.38 -14.91 31.4 -14.91478 31.40846 C -14.92 31.42 -14.92 31.43 -14.91535 31.44539 L -14.4996 32.01114 C -14.5 32 -14.5 32 -14.49939 31.993 C -14.5 31.99 -14.5 31.98 -14.49875 31.97559 C -14.5 31.97 -14.5 31.96 -14.4977 31.95891 C -14.5 31.95 -14.5 31.95 -14.49621 31.94298 C -14.5 31.94 -14.5 31.93 -14.49429 31.92782 C -14.49 31.92 -14.49 31.92 -14.49194 31.91343 C -14.49 31.91 -14.49 31.9 -14.48915 31.89982 C -14.49 31.9 -14.49 31.89 -14.48594 31.887 C -14.48 31.88 -14.48 31.88 -14.48038 31.86946 C -14.48 31.86 -14.48 31.86 -14.47387 31.85368 C -14.47 31.85 -14.47 31.84 -14.46644 31.83968 C -14.46 31.84 -14.46 31.83 -14.45809 31.82746 C -14.46 31.82 -14.45 31.82 -14.44885 31.81701 C -14.45 31.81 -14.44 31.81 -14.43873 31.80831 C -14.44 31.81 -14.43 31.8 -14.42775 31.80136 C -14.42 31.8 -14.42 31.8 -14.41595 31.79611 C -14.41 31.79 -14.41 31.79 -14.40098 31.79207 C -14.4 31.79 -14.39 31.79 -14.38493 31.79031 C -14.38 31.79 -14.37 31.79 -14.36787 31.79078 C -14.36 31.79 -14.36 31.79 -14.34984 31.79338 C -14.34 31.79 -14.34 31.8 -14.33438 31.79711 C -14.33 31.8 -14.32 31.8 -14.31854 31.80225 C -14.31 31.8 -14.31 31.81 -14.30021 31.80975 C -14.29 31.81 -14.29 31.82 -14.28141 31.81905 C -14.28 31.82 -14.27 31.83 -14.26217 31.83013 C -14.26 31.83 -14.25 31.84 -14.24249 31.84298 C -14.24 31.85 -14.23 31.85 -14.22239 31.85758 C -14.22 31.86 -14.21 31.87 -14.2019 31.8739 C -14.2 31.88 -14.19 31.89 -14.18102 31.89191 C -14.17 31.9 -14.17 31.9 -14.15978 31.91158 C -14.15 31.92 -14.15 31.93 -14.13819 31.93288 C -14.13 31.94 -14.12 31.95 -14.11627 31.95577 C -14.11 31.96 -14.1 31.97 -14.09403 31.98021 C -14.09 31.99 -14.08 32 -14.0715 32.00615 C -14.06 32.02 -14.06 32.02 -14.04869 32.03356 C -14.04 32.04 -14.03 32.05 -14.02563 32.06239 C -14.01 32.08 -13.99 32.1 -13.97879 32.12411 C -13.97 32.14 -13.96 32.15 -13.94968 32.1644 C -13.94 32.18 -13.93 32.19 -13.92098 32.20555 C -13.91 32.22 -13.9 32.23 -13.89274 32.24755 C -13.88 32.26 -13.87 32.28 -13.86499 32.29042 C -13.86 32.3 -13.85 32.32 -13.83779 32.33414 C -13.83 32.35 -13.82 32.36 -13.8112 32.3787 C -13.8 32.39 -13.79 32.41 -13.78525 32.4241 C -13.78 32.44 -13.77 32.45 -13.76 32.47031 C -13.75 32.49 -13.74 32.5 -13.73665 32.51509 C -13.73 32.53 -13.72 32.55 -13.71403 32.56054 C -13.71 32.58 -13.7 32.59 -13.69221 32.60663 C -13.69 32.62 -13.68 32.64 -13.67123 32.65329 C -13.66 32.67 -13.66 32.68 -13.65114 32.70048 C -13.64 32.72 -13.64 32.73 -13.63197 32.74813 C -13.63 32.76 -13.62 32.78 -13.61376 32.79618 C -13.61 32.81 -13.6 32.83 -13.59656 32.84455 C -13.59 32.86 -13.59 32.87 -13.58261 32.88612 C -13.58 32.9 -13.57 32.91 -13.56942 32.92756 C -13.57 32.94 -13.56 32.96 -13.55701 32.96884 C -13.55 32.98 -13.55 33 -13.54539 33.00991 C -13.54 33.02 -13.54 33.03 -13.53562 33.04664 C -13.53 33.06 -13.53 33.07 -13.52651 33.08314 C -13.52 33.1 -13.52 33.11 -13.51806 33.1194 C -13.52 33.13 -13.51 33.14 -13.51027 33.15539 C -13.51 33.17 -13.51 33.18 -13.50315 33.19108 C -13.5 33.2 -13.5 33.21 -13.49668 33.22645 C -13.49 33.24 -13.49 33.25 -13.49088 33.26149 C -13.49 33.27 -13.49 33.28 -13.48572 33.29617 C -13.48 33.31 -13.48 33.32 -13.48122 33.33048 C -13.48 33.34 -13.48 33.35 -13.47735 33.36441 C -13.48 33.38 -13.48 33.39 -13.4741 33.39794 C -13.47 33.41 -13.47 33.42 -13.47148 33.43105 C -13.47 33.44 -13.47 33.45 -13.46946 33.46375 C -13.47 33.47 -13.47 33.49 -13.46804 33.49601 C -13.47 33.51 -13.47 33.52 -13.46719 33.52784 C -13.47 33.54 -13.47 33.55 -13.46692 33.55923 L -13.46692 33.85536 L -13.86926 33.30786 C -13.88 33.29 -13.89 33.28 -13.89941 33.26711 C -13.91 33.25 -13.92 33.24 -13.92949 33.22702 C -13.94 33.21 -13.95 33.2 -13.95949 33.18762 C -13.97 33.17 -13.98 33.16 -13.98941 33.14894 C -14 33.14 -14.01 33.12 -14.01923 33.11101 C -14.03 33.1 -14.04 33.09 -14.04895 33.07386 C -14.06 33.06 -14.07 33.05 -14.07857 33.03753 C -14.09 33.03 -14.1 33.01 -14.10806 33.00205 C -14.12 32.99 -14.13 32.98 -14.13742 32.96747 C -14.15 32.96 -14.16 32.94 -14.16663 32.93381 C -14.18 32.92 -14.19 32.91 -14.19569 32.90113 C -14.21 32.89 -14.21 32.88 -14.22458 32.86947 C -14.23 32.86 -14.24 32.85 -14.25328 32.83886 C -14.26 32.83 -14.27 32.82 -14.28179 32.80937 C -14.29 32.8 -14.3 32.79 -14.31007 32.78103 C -14.32 32.77 -14.33 32.76 -14.33812 32.7539 C -14.35 32.74 -14.37 32.72 -14.38544 32.71049 C -14.4 32.7 -14.42 32.68 -14.43191 32.67103 C -14.45 32.66 -14.46 32.65 -14.47742 32.63578 C -14.49 32.62 -14.51 32.61 -14.52185 32.60502 C -14.54 32.6 -14.55 32.59 -14.56262 32.58039 C -14.58 32.57 -14.59 32.57 -14.60219 32.56021 C -14.61 32.56 -14.62 32.55 -14.6215 32.55186 C -14.63 32.55 -14.63 32.55 -14.64046 32.5447 C -14.65 32.54 -14.65 32.54 -14.65907 32.53875 C -14.67 32.54 -14.67 32.54 -14.6773 32.53404 C -14.68 32.53 -14.69 32.53 -14.69641 32.53038 C -14.7 32.53 -14.71 32.53 -14.71501 32.52821 C -14.72 32.53 -14.73 32.53 -14.73309 32.52756 C -14.74 32.53 -14.74 32.53 -14.75061 32.52847 C -14.76 32.53 -14.76 32.53 -14.77126 32.53175 C -14.78 32.53 -14.78 32.54 -14.79101 32.53747 C -14.79 32.54 -14.8 32.54 -14.80208 32.54195 C -14.81 32.54 -14.81 32.55 -14.81282 32.54728 C -14.82 32.55 -14.82 32.55 -14.82322 32.55345 C -14.83 32.56 -14.83 32.56 -14.83327 32.56049 C -14.84 32.56 -14.84 32.57 -14.84297 32.56839 C -14.85 32.57 -14.85 32.57 -14.85231 32.57714 C -14.86 32.58 -14.86 32.58 -14.86129 32.58676 C -14.86 32.59 -14.87 32.59 -14.86989 32.59723 C -14.87 32.6 -14.88 32.6 -14.87764 32.60785 C -14.88 32.61 -14.88 32.62 -14.88506 32.61923 C -14.89 32.63 -14.89 32.64 -14.89889 32.64421 C -14.9 32.65 -14.91 32.66 -14.91135 32.6721 C -14.92 32.68 -14.92 32.69 -14.92246 32.70282 C -14.93 32.71 -14.93 32.72 -14.93221 32.73628 C -14.94 32.75 -14.94 32.76 -14.94062 32.77238 C -14.94 32.78 -14.95 32.8 -14.9477 32.811 C -14.95 32.82 -14.95 32.84 -14.95349 32.85202 C -14.96 32.87 -14.96 32.88 -14.95841 32.89973 C -14.96 32.92 -14.96 32.93 -14.96185 32.95003 C -14.96 32.97 -14.96 32.98 -14.96387 33.00274 C -14.96 33.02 -14.96 33.04 -14.96453 33.0577 C -14.96 33.07 -14.96 33.08 -14.96413 33.09835 C -14.96 33.11 -14.96 33.13 -14.96292 33.13986 C -14.96 33.15 -14.96 33.17 -14.96088 33.18224 C -14.96 33.2 -14.96 33.21 -14.95798 33.22546 C -14.96 33.24 -14.96 33.26 -14.95417 33.27012 C -14.95 33.29 -14.95 33.3 -14.94944 33.31561 C -14.95 33.33 -14.95 33.35 -14.9438 33.36191 C -14.94 33.38 -14.94 33.39 -14.93723 33.409 C -14.93 33.42 -14.93 33.44 -14.92973 33.45683 C -14.93 33.47 -14.92 33.49 -14.92129 33.50537 C -14.92 33.52 -14.92 33.54 -14.91192 33.55458 C -14.91 33.57 -14.91 33.59 -14.90162 33.60441 C -14.9 33.63 -14.89 33.65 -14.88645 33.67174 C -14.88 33.69 -14.88 33.72 -14.86968 33.73997 C -14.86 33.76 -14.86 33.79 -14.85134 33.80897 C -14.84 33.83 -14.84 33.86 -14.83149 33.87863 C -14.82 33.9 -14.82 33.93 -14.80959 33.95071 C -14.8 33.97 -14.79 34 -14.78623 34.02322 C -14.78 34.05 -14.77 34.07 -14.76148 34.09602 C -14.75 34.12 -14.74 34.14 -14.73541 34.16902 C -14.73 34.19 -14.72 34.21 -14.71226 34.23116 C -14.7 34.25 -14.7 34.27 -14.6884 34.29278 C -14.68 34.31 -14.67 34.33 -14.66385 34.35383 C -14.66 34.37 -14.65 34.39 -14.63863 34.41423 C -14.63 34.43 -14.63 34.44 -14.61935 34.45891 C -14.61 34.47 -14.61 34.49 -14.59973 34.50318 C -14.59 34.52 -14.59 34.53 -14.57977 34.547 C -14.57 34.56 -14.57 34.58 -14.55948 34.59036 C -14.55 34.6 -14.55 34.62 -14.53888 34.63324 C -14.53 34.65 -14.52 34.66 -14.51798 34.6756 C -14.51 34.69 -14.5 34.7 -14.4968 34.71745 C -14.49 34.73 -14.48 34.75 -14.47534 34.75875 C -14.46 34.78 -14.45 34.81 -14.43655 34.83084 C -14.42 34.85 -14.41 34.88 -14.39703 34.90111 C -14.38 34.92 -14.37 34.95 -14.35685 34.96951 C -14.34 34.99 -14.33 35.01 -14.3161 35.036 C -14.3 35.06 -14.29 35.08 -14.27484 35.10057 C -14.26 35.12 -14.25 35.14 -14.23313 35.16321 C -14.22 35.18 -14.21 35.2 -14.19106 35.22393 C -14.18 35.24 -14.16 35.26 -14.14866 35.28274 C -14.13 35.3 -14.12 35.32 -14.10631 35.33905 C -14.09 35.36 -14.08 35.38 -14.06417 35.39235 C -14.05 35.41 -14.04 35.43 -14.02231 35.4425 C -14.01 35.46 -13.99 35.47 -13.9808 35.48933 C -13.97 35.5 -13.95 35.52 -13.9397 35.5327 C -13.93 35.55 -13.91 35.56 -13.89909 35.5725 C -13.89 35.59 -13.87 35.6 -13.85904 35.60861 C -13.85 35.61 -13.85 35.62 -13.83924 35.62526 C -13.83 35.63 -13.83 35.64 -13.81961 35.64095 C -13.81 35.65 -13.8 35.66 -13.78636 35.66563 C -13.78 35.67 -13.76 35.68 -13.75366 35.68746 C -13.74 35.69 -13.73 35.7 -13.72155 35.70644 C -13.71 35.71 -13.7 35.72 -13.69005 35.72256 C -13.68 35.73 -13.67 35.73 -13.6592 35.73586 C -13.65 35.74 -13.64 35.74 -13.62901 35.74636 C -13.62 35.75 -13.61 35.75 -13.59951 35.75409 C -13.59 35.76 -13.58 35.76 -13.57072 35.75911 C -13.56 35.76 -13.55 35.76 -13.54195 35.7615 C -13.53 35.76 -13.52 35.76 -13.51394 35.76119 C -13.5 35.76 -13.5 35.76 -13.48669 35.75824 C -13.48 35.76 -13.47 35.75 -13.46021 35.75274 C -13.46 35.76 -13.46 35.78 -13.45763 35.78809 C -13.46 35.8 -13.46 35.81 -13.45493 35.82289 C -13.45 35.83 -13.45 35.85 -13.4521 35.85711 C -13.45 35.87 -13.45 35.88 -13.44915 35.8907 C -13.45 35.9 -13.45 35.91 -13.44605 35.92363 C -13.45 35.93 -13.44 35.95 -13.44282 35.95585 C -13.44 35.97 -13.44 35.98 -13.43945 35.98733 C -13.44 36 -13.44 36.01 -13.43593 36.01802 C -13.43 36.03 -13.43 36.04 -13.43226 36.04787 C -13.43 36.06 -13.43 36.07 -13.42843 36.07683 C -13.43 36.1 -13.42 36.11 -13.42031 36.13187 C -13.42 36.15 -13.41 36.17 -13.41154 36.18274 C -13.41 36.2 -13.41 36.21 -13.40209 36.22898 Z" />
    <path d="M -18.27268 24.52868 L -18.82702 23.77435 L -18.82702 28.84686 L -18.39785 29.43086 L -18.39785 27.45551 L -18.44032 25.27604 L -17.37411 30.82395 L -17.04553 31.27107 L -15.97709 28.6175 L -16.01732 30.69488 L -16.01732 32.67024 L -15.58816 33.25424 L -15.58816 28.18172 L -16.14473 27.42435 L -17.20871 30.11535 L -18.27268 24.52868 Z" />
    <path d="M -11.96563 38.6653 L -11.63223 38.54502" />
    <path d="M -11.68374 39.39836 Q -11.51 39.76 -11.99802 39.08811 L -12.07625 38.9712 L -12.21162 38.74724" />
    <path d="M -11.99802 39.08811 L -12.33142 39.20839" />
    <path d="M -12.07625 38.9712 L -12.40965 39.09148" />
    <path d="M -12.24371 38.72081 L -12.56388 38.83632" />
    <path d="M -11.75766 38.67476 Q -11.67 38.7 -11.7374 38.66995 L -12.0708 38.79023" />
    <path d="M -11.7374 38.66995 Q -11.67 38.7 -11.71785 38.6604" />
    <path d="M -13.04488 36.14111 L -13.06869 36.1087 Q -13.1 35.95 -13.12681 35.63246 Q -13.42 35.71 -13.81526 35.16246 L -14.14866 35.28274" />
    <path d="M -13.06869 36.1087 L -13.40209 36.22898" />
    <path d="M -13.12681 35.63246 L -13.46021 35.75274" />
    <path d="M -13.81526 35.16246 Q -14.17 34.68 -13.94089 34.98112" />
    <path d="M -14.55065 33.56157 Q -14.63 33.42 -14.63113 32.93742 L -14.96453 33.0577" />
    <path d="M -14.63113 32.93742 Q -14.63 32.35 -14.58438 32.5688" />
    <path d="M -13.13352 33.73508 L -13.46692 33.85536" />
    <path d="M -13.13352 33.73508 L -13.13352 33.43895 L -13.46692 33.55923" />
    <path d="M -13.13352 33.43895 Q -13.13 33.1 -13.13363 33.41912" />
    <path d="M -13.87658 31.74702 Q -13.87 31.7 -14.01644 31.6731 L -14.34984 31.79338" />
    <path d="M -14.01644 31.6731 Q -14.17 31.64 -14.08255 31.67583 L -14.41595 31.79611" />
    <path d="M -14.27358 31.74474 L -14.58195 31.32511 Q -14.58 31.04 -14.54344 31.07431" />
    <path d="M -14.58195 31.32511 L -14.91535 31.44539" />
    <path d="M -16.87531 29.99507 L -17.20871 30.11535" />
    <path d="M -16.87531 29.99507 L -15.95888 27.67725" />
    <path d="M -15.58816 32.68027 L -15.68392 32.54996 L -15.68392 30.5746 L -15.64369 28.49722 L -15.97709 28.6175" />
    <path d="M -15.68392 32.54996 L -16.01732 32.67024" />
    <path d="M -15.68392 30.5746 L -16.01732 30.69488" />
    <path d="M -16.89623 30.90027 L -17.04071 30.70367 L -17.15734 30.09682" />
    <path d="M -17.04071 30.70367 L -17.37411 30.82395" />
    <path d="M -18.15028 25.1714 L -18.44032 25.27604" />
    <path d="M -18.39785 28.8569 L -18.49362 28.72658 L -18.49362 24.22803" />
    <path d="M -18.49362 28.72658 L -18.82702 28.84686" />
    <path d="M -13.2228 35.04908 Q -13.21 35.11 -13.13352 34.96488 L -13.46692 35.08516 C -13.47 35.09 -13.48 35.1 -13.4809 35.10807 C -13.49 35.12 -13.49 35.12 -13.49629 35.12775 C -13.5 35.13 -13.51 35.14 -13.50991 35.14143 C -13.51 35.15 -13.52 35.15 -13.52444 35.15292 C -13.53 35.16 -13.53 35.16 -13.53987 35.16223 C -13.55 35.16 -13.55 35.17 -13.5562 35.16936 C -13.56 35.17 -13.57 35.17 -13.57371 35.1744 C -13.58 35.18 -13.59 35.18 -13.5921 35.17721 C -13.6 35.18 -13.6 35.18 -13.61135 35.17782 C -13.62 35.18 -13.62 35.18 -13.63143 35.17625 C -13.64 35.18 -13.65 35.17 -13.65231 35.17256 C -13.66 35.17 -13.67 35.17 -13.67397 35.16676 C -13.68 35.16 -13.69 35.16 -13.69637 35.15892 C -13.7 35.16 -13.71 35.15 -13.7195 35.14907 C -13.73 35.14 -13.74 35.14 -13.74665 35.13548 C -13.76 35.13 -13.76 35.13 -13.77418 35.1196 C -13.78 35.11 -13.79 35.11 -13.80208 35.1014 C -13.81 35.09 -13.82 35.09 -13.83032 35.08087 C -13.84 35.07 -13.85 35.07 -13.85889 35.058 C -13.87 35.05 -13.88 35.04 -13.88778 35.03279 C -13.9 35.02 -13.91 35.01 -13.91696 35.00524 C -13.93 35 -13.94 34.99 -13.94641 34.97536 C -13.96 34.96 -13.97 34.95 -13.98146 34.93719 C -13.99 34.92 -14 34.91 -14.01681 34.89586 C -14.03 34.88 -14.04 34.87 -14.05244 34.85143 C -14.06 34.84 -14.08 34.82 -14.08831 34.80397 C -14.1 34.79 -14.12 34.77 -14.12953 34.74607 C -14.14 34.74 -14.14 34.73 -14.14977 34.71621 C -14.16 34.71 -14.16 34.7 -14.16976 34.68574 C -14.18 34.68 -14.18 34.67 -14.18947 34.65468 C -14.2 34.64 -14.2 34.63 -14.20889 34.62302 C -14.22 34.61 -14.22 34.6 -14.22801 34.59077 C -14.23 34.58 -14.24 34.57 -14.24679 34.55793 C -14.25 34.55 -14.26 34.54 -14.26524 34.52453 C -14.27 34.51 -14.28 34.5 -14.28333 34.49056 C -14.29 34.48 -14.3 34.47 -14.30106 34.45605 C -14.31 34.44 -14.31 34.43 -14.31839 34.421 C -14.32 34.41 -14.33 34.4 -14.33533 34.38544 C -14.34 34.37 -14.35 34.36 -14.35186 34.34938 C -14.36 34.34 -14.36 34.33 -14.36796 34.31285 C -14.37 34.3 -14.38 34.29 -14.38362 34.27587 C -14.39 34.26 -14.4 34.24 -14.40286 34.22828 C -14.41 34.21 -14.42 34.2 -14.42136 34.18005 C -14.43 34.16 -14.43 34.14 -14.44068 34.12651 C -14.45 34.11 -14.45 34.09 -14.45853 34.07321 C -14.46 34.06 -14.47 34.04 -14.47487 34.02025 C -14.48 34 -14.48 33.99 -14.48964 33.96773 C -14.49 33.96 -14.49 33.95 -14.49724 33.93847 C -14.5 33.93 -14.5 33.92 -14.50433 33.9094 C -14.51 33.9 -14.51 33.89 -14.51092 33.88053 C -14.51 33.87 -14.52 33.86 -14.51699 33.85189 C -14.52 33.84 -14.52 33.83 -14.52255 33.82348 C -14.52 33.81 -14.53 33.8 -14.52761 33.79532 C -14.53 33.79 -14.53 33.78 -14.53215 33.76742 C -14.53 33.76 -14.53 33.75 -14.53619 33.7398 C -14.54 33.72 -14.54 33.7 -14.54277 33.68542 C -14.54 33.67 -14.55 33.65 -14.54739 33.63226 C -14.55 33.61 -14.55 33.6 -14.55012 33.58038 C -14.55 33.56 -14.55 33.55 -14.55101 33.52983 C -14.55 33.52 -14.55 33.51 -14.55066 33.50083 C -14.55 33.49 -14.55 33.48 -14.54958 33.473 C -14.55 33.46 -14.55 33.46 -14.54775 33.44641 C -14.55 33.44 -14.55 33.43 -14.54512 33.42118 C -14.54 33.41 -14.54 33.41 -14.54209 33.39992 C -14.54 33.39 -14.54 33.39 -14.5384 33.37988 C -14.54 33.37 -14.54 33.37 -14.53402 33.36112 C -14.53 33.36 -14.53 33.35 -14.52894 33.34371 C -14.53 33.34 -14.53 33.33 -14.52316 33.3277 C -14.52 33.32 -14.52 33.32 -14.51667 33.31315 C -14.51 33.31 -14.51 33.3 -14.50948 33.30009 C -14.51 33.3 -14.5 33.29 -14.50159 33.28858 C -14.5 33.28 -14.5 33.28 -14.49229 33.27788 C -14.49 33.27 -14.49 33.27 -14.48221 33.26902 C -14.48 33.27 -14.48 33.26 -14.47138 33.262 C -14.47 33.26 -14.46 33.26 -14.45983 33.2568 C -14.46 33.26 -14.45 33.25 -14.4468 33.25325 C -14.44 33.25 -14.44 33.25 -14.43303 33.25168 C -14.43 33.25 -14.43 33.25 -14.42247 33.25175 C -14.42 33.25 -14.42 33.25 -14.41157 33.25284 C -14.41 33.25 -14.4 33.25 -14.40033 33.25492 C -14.4 33.26 -14.39 33.26 -14.38879 33.25794 C -14.38 33.26 -14.37 33.26 -14.36562 33.26638 C -14.36 33.27 -14.35 33.27 -14.34151 33.27802 C -14.33 33.28 -14.33 33.29 -14.31657 33.29259 C -14.31 33.3 -14.31 33.3 -14.30383 33.3009 C -14.3 33.3 -14.3 33.31 -14.29092 33.30986 C -14.28 33.32 -14.27 33.32 -14.26506 33.32927 C -14.26 33.34 -14.25 33.34 -14.2387 33.35085 C -14.23 33.36 -14.22 33.37 -14.21189 33.37442 C -14.2 33.38 -14.19 33.39 -14.1847 33.39981 C -14.18 33.41 -14.17 33.42 -14.15717 33.42686 C -14.15 33.44 -14.14 33.45 -14.12936 33.45544 C -14.12 33.47 -14.11 33.48 -14.10129 33.48542 C -14.09 33.5 -14.08 33.51 -14.07301 33.51667 C -14.06 33.53 -14.05 33.54 -14.04454 33.54911 C -14.04 33.56 -14.03 33.57 -14.01592 33.58262 C -14.01 33.59 -14 33.61 -13.98716 33.61713 C -13.98 33.63 -13.97 33.64 -13.95829 33.65257 C -13.95 33.66 -13.94 33.68 -13.92931 33.68886 C -13.92 33.7 -13.91 33.71 -13.90024 33.72595 C -13.89 33.74 -13.88 33.75 -13.87107 33.76381 C -13.86 33.78 -13.85 33.79 -13.84183 33.80238 C -13.83 33.81 -13.82 33.82 -13.81645 33.83631 C -13.81 33.85 -13.8 33.86 -13.79103 33.8707 L -13.46692 34.31174 L -13.46692 35.08516" />
    <path d="M -13.13352 34.96488 L -13.13352 34.19146 L -13.46692 34.31174" />
    <path d="M -13.13352 34.19146 L -13.39862 33.83072" />
    <path d="M -13.95855 33.18885 Q -14.22 32.72 -14.12643 33.13653 L -14.45983 33.2568" />
    <path d="M -0.55915 28.18894 L -0.34777 28.0549" />
    <path d="M -24.36355 -32.31699 L -24.57493 -33.02631" />
    <path d="M -47.45047 -35.61975 L -47.66185 -36.32907" />
    <path d="M -14.45971 34.06955 L -14.73541 34.16902" />
    <path d="M -13.33862 32.7515 L -13.59656 32.84455" />
    <path d="M -13.69789 32.02277 L -13.97879 32.12411" />
    <path d="M -14.69762 31.04288 L -14.78683 31.07506" />
    <path d="M -13.52592 33.77506 L -13.79103 33.8707" />
    <path d="M -23.08117 -32.63995 L -23.29255 -32.50591" />
    <path d="M 47.30833 11.89989 L 47.09695 12.03393" />
    <path d="M -47.73113 -36.36422 L -47.51976 -35.6549" />
    <path d="M 23.50398 -50.31141 L 23.71536 -49.60209" />
    <path d="M -1.60493 79.93594 L -1.94826 79.46874" />
    <path d="M -45.55152 20.13439 L -45.89485 19.66719" />
    <path d="M -13.2228 35.04908 L -13.5562 35.16936" />
</svg>