<svg version="1.1" xmlns="http://www.w3.org/2000/svg" viewBox="-48.72893503478359 -54.65451658235796 97.45787006956719 135.78044620784704" fill="none" stroke="black" stroke-width="0.6%" vector-effect="non-scaling-stroke">
    <path d="M -23.64735 -31.34045 L -0.56481 28.19089 A 1 0.9427 237.62201 0 0 0.62843 28.81867 L 0.68497 28.80037 L 0.89631 28.66637 L 47.13012 11.99013 L 47.23871 11.9426 A 1 0.9427 237.62201 0 0 47.30496 11.90449 A 1 0.9427 237.62201 0 0 47.65857 10.73926 L 24.57603 -48.79208 A 1 0.9427 237.62201 0 0 23.38279 -49.41986 L 23.32625 -49.40156 L -22.90756 -32.72533 L -23.01615 -32.6778 A 1 0.9427 237.62201 0 0 -23.0824 -32.63968 A 1 0.9427 237.62201 0 0 -23.43601 -31.47445 L -0.35347 28.05689 A 1 0.9427 237.62201 0 0 0.83977 28.68467 L 0.89631 28.66637" />
    <path d="M -23.29374 -32.50568 A 1 0.9427 237.62201 0 0 -23.64735 -31.34045 L -23.43601 -31.47445" />
    <path d="M 0.62843 28.81867 L 0.83977 28.68467" />
    <path d="M 47.02738 12.07661 A 1 0.9427 237.62201 0 0 47.09362 12.03849" />
    <path d="M 46.91878 12.12414 L 47.02738 12.07661 L 47.23871 11.9426" />
    <path d="M 0.68497 28.80037 L 46.91878 12.12414 L 47.13012 11.99013" />
    <path d="M -47.51649 -35.65858 A 1 0.1616 163.40916 0 0 -47.44723 -35.62342 L -24.36469 -32.31687 A 1 0.1616 163.40916 0 0 -23.23086 -32.54555" />
    <path d="M 23.5575 -49.45199 A 1 0.1616 163.40916 0 0 23.7166 -49.59933" />
    <path d="M 23.21049 -49.35981 L 23.01615 -50.01206 A 1 0.1616 163.40916 0 0 23.50527 -50.30866 A 1 0.1616 163.40916 0 0 23.43601 -50.34382 L 0.35347 -53.65038 A 1 0.1616 163.40916 0 0 -0.83977 -53.40138 L -0.89631 -53.38135 L -47.13012 -36.70511 L -47.23871 -36.66451 A 1 0.1616 163.40916 0 0 -47.72782 -36.36791 A 1 0.1616 163.40916 0 0 -47.65857 -36.33275 L -24.57603 -33.02619 A 1 0.1616 163.40916 0 0 -23.38279 -33.27519 L -23.32625 -33.29523 L 22.90756 -49.97146 L 23.01615 -50.01206" />
    <path d="M 23.10151 -49.3205 L 22.90756 -49.97146" />
    <path d="M -2.02988 79.28405 A 1 0.63435 323.69641 0 0 -1.95367 79.46852" />
    <path d="M -2.0369 79.19715 L -2.02988 79.28405 L -1.68662 79.75129 A 1 0.63435 323.69641 0 0 -1.61041 79.93576 A 1 0.63435 323.69641 0 0 -0.80452 80.05717 L 45.4293 63.38093 A 1 0.63435 323.69641 0 0 46.31666 62.3922 L 46.31841 62.34677 L 46.31841 12.34069" />
    <path d="M -2.0369 24.97342 L -2.0369 79.19715 L -1.69363 79.66439 L -1.68662 79.75129" />
    <path d="M -2.03514 24.92798 L -2.0369 24.97342 L -1.69363 25.44066 L -1.69363 79.66439" />
    <path d="M -1.94651 24.62739 A 1 0.63435 323.69641 0 0 -2.03514 24.92798 L -1.69187 25.39523 L -1.69363 25.44066" />
    <path d="M -1.68046 25.31356 A 1 0.63435 323.69641 0 0 -1.69187 25.39523" />
    <path d="M -23.12323 -32.6138 L -23.32625 -33.29523" />
    <path d="M -23.1758 -32.58046 L -23.38279 -33.27519" />
    <path d="M -45.96813 19.47722 A 1 0.63435 323.69641 0 0 -45.89192 19.66169" />
    <path d="M -45.97514 19.39032 L -45.96813 19.47722 L -45.62486 19.94446 A 1 0.63435 323.69641 0 0 -45.54865 20.12893 A 1 0.63435 323.69641 0 0 -44.74276 20.25034 L -34.7683 16.65262" />
    <path d="M -45.97514 -34.83341 L -45.97514 19.39032 L -45.63187 19.85756 L -45.62486 19.94446" />
    <path d="M -45.97339 -34.87884 L -45.97514 -34.83341 L -45.63187 -34.36617 L -45.63187 19.85756" />
    <path d="M -45.75624 -35.38119 A 1 0.63435 323.69641 0 0 -45.97339 -34.87884 L -45.63012 -34.4116 L -45.63187 -34.36617" />
    <path d="M -45.00558 -35.27366 A 1 0.63435 323.69641 0 0 -45.63012 -34.4116" />
    <path d="M -17.12703 10.28952 L -8.68631 7.24501" />
    <path d="M -33.85292 21.9519 L -19.73318 41.17107 L -19.73318 51.26668 L -19.72957 51.36101 A 1 0.32655 70.16596 0 0 -19.27549 52.60313 L -4.4921 72.72564 A 1 0.32655 70.16596 0 0 -4.15281 72.95285 A 1 0.32655 70.16596 0 0 -4.03532 72.67873 L -4.03441 72.63516 L -4.03441 42.45537 L -4.03802 42.36103 A 1 0.32655 70.16596 0 0 -4.4921 41.11891 L -12.79918 29.81168 L -12.79918 24.92441 L -12.8064 24.73574 A 2 0.6531 70.16596 0 0 -13.10921 23.43205 L -23.47043 -5.1038 A 1 0.32655 70.16596 0 0 -24.09705 -5.95673 L -34.4584 -5.62738 L -33.79156 -5.8679 L -36.84761 -10.02766 A 0.5 0.16327 70.16596 0 0 -37.01726 -10.14126" />
    <path d="M -3.48597 72.71233 A 1 0.32655 70.16596 0 0 -3.36848 72.4382 L -4.03532 72.67873" />
    <path d="M -3.36848 72.4382 L -3.36758 72.39463 L -4.03441 72.63516" />
    <path d="M -3.36758 72.39463 L -3.36758 42.21484 L -4.03441 42.45537" />
    <path d="M -3.36758 42.21484 L -3.37119 42.12051 L -4.03802 42.36103" />
    <path d="M -3.37119 42.12051 A 1 0.32655 70.16596 0 0 -3.82527 40.87839 L -12.13235 29.57116 L -12.79918 29.81168" />
    <path d="M -12.13235 29.57116 L -12.13235 24.68389 L -12.79918 24.92441" />
    <path d="M -12.13235 24.68389 L -12.13956 24.49522 L -12.8064 24.73574" />
    <path d="M -12.13956 24.49522 A 2 0.6531 70.16596 0 0 -12.44237 23.19153 L -13.10921 23.43205" />
    <path d="M -12.44237 23.19153 L -22.8036 -5.34433 L -23.47043 -5.1038" />
    <path d="M -22.8036 -5.34433 A 1 0.32655 70.16596 0 0 -23.43022 -6.19726 L -24.09705 -5.95673" />
    <path d="M -23.43022 -6.19726 L -33.79156 -5.8679" />
    <path d="M -34.7683 19.27898 L -34.76108 19.46765 A 2 0.6531 70.16596 0 0 -33.85292 21.9519" />
    <path d="M -34.4584 -5.62738 L -37.51444 -9.78714 A 0.5 0.16327 70.16596 0 0 -37.68409 -9.90074 L -37.01726 -10.14126" />
    <path d="M -37.68409 -9.90074 A 0.5 0.16327 70.16596 0 0 -37.74284 -9.76368 L -37.74329 -9.7419 L -37.74329 4.52751 L -37.74148 4.57468 A 0.5 0.16327 70.16596 0 0 -37.51444 5.19574 L -34.7683 8.93366 L -34.7683 19.27898" />
    <path d="M -11.31124 39.1484 C -11.3 39.16 -11.29 39.18 -11.27985 39.19064 C -11.27 39.2 -11.26 39.22 -11.24852 39.23178 C -11.24 39.25 -11.23 39.26 -11.21727 39.27178 C -11.21 39.28 -11.2 39.3 -11.18611 39.31058 C -11.18 39.32 -11.17 39.34 -11.15507 39.34812 C -11.14 39.36 -11.13 39.37 -11.12416 39.38433 C -11.11 39.4 -11.1 39.41 -11.0934 39.41917 C -11.08 39.43 -11.07 39.44 -11.06282 39.45256 C -11.05 39.46 -11.04 39.48 -11.03046 39.48648 C -11.02 39.5 -11.01 39.51 -10.99836 39.51862 C -10.99 39.53 -10.98 39.54 -10.96654 39.54891 C -10.96 39.56 -10.95 39.57 -10.93504 39.57728 C -10.92 39.59 -10.91 39.6 -10.90345 39.60402 C -10.89 39.61 -10.88 39.62 -10.87225 39.62864 C -10.86 39.64 -10.85 39.64 -10.84149 39.65107 C -10.83 39.66 -10.82 39.66 -10.8112 39.67127 C -10.8 39.68 -10.79 39.68 -10.78142 39.68918 C -10.77 39.69 -10.76 39.7 -10.75219 39.70476 C -10.74 39.71 -10.73 39.71 -10.72352 39.71797 C -10.71 39.72 -10.7 39.73 -10.69548 39.72878 C -10.69 39.73 -10.68 39.73 -10.66975 39.73674 C -10.66 39.74 -10.65 39.74 -10.6446 39.74258 C -10.64 39.74 -10.63 39.75 -10.62007 39.74629 C -10.61 39.75 -10.6 39.75 -10.59616 39.7479 C -10.59 39.75 -10.58 39.75 -10.57289 39.74742 C -10.57 39.75 -10.56 39.75 -10.55027 39.74487 C -10.54 39.74 -10.54 39.74 -10.52832 39.74029 C -10.52 39.74 -10.51 39.74 -10.50704 39.73372 C -10.5 39.73 -10.49 39.73 -10.48566 39.72484 C -10.48 39.72 -10.47 39.72 -10.46277 39.71257 C -10.46 39.71 -10.45 39.7 -10.44077 39.69785 C -10.43 39.69 -10.43 39.69 -10.41966 39.68077 C -10.41 39.67 -10.41 39.67 -10.39943 39.6614 L -10.65197 39.0111 C -10.66 39.02 -10.67 39.02 -10.67696 39.02555 C -10.69 39.03 -10.69 39.03 -10.70295 39.03676 C -10.71 39.04 -10.72 39.04 -10.72333 39.04305 C -10.73 39.04 -10.74 39.05 -10.74427 39.04742 C -10.75 39.05 -10.76 39.05 -10.76579 39.04986 C -10.77 39.05 -10.78 39.05 -10.78786 39.05034 C -10.8 39.05 -10.8 39.05 -10.8105 39.04887 C -10.82 39.05 -10.83 39.05 -10.83369 39.04543 C -10.84 39.04 -10.85 39.04 -10.85742 39.04002 C -10.87 39.04 -10.87 39.04 -10.88169 39.03263 C -10.89 39.03 -10.91 39.02 -10.91791 39.01838 C -10.92 39.02 -10.93 39.01 -10.93748 39.00888 C -10.94 39.01 -10.95 39 -10.95754 38.99755 C -10.96 38.99 -10.97 38.99 -10.97808 38.9844 C -10.99 38.98 -10.99 38.97 -10.99909 38.96948 C -11.01 38.96 -11.01 38.96 -11.02054 38.95279 C -11.03 38.95 -11.04 38.94 -11.04241 38.93437 C -11.05 38.93 -11.06 38.92 -11.0647 38.91426 C -11.07 38.91 -11.08 38.9 -11.08738 38.8925 C -11.1 38.88 -11.1 38.88 -11.11136 38.86815 C -11.12 38.86 -11.13 38.85 -11.13572 38.8421 C -11.15 38.82 -11.17 38.81 -11.18553 38.78509 C -11.2 38.77 -11.22 38.74 -11.23663 38.72185 C -11.25 38.7 -11.27 38.68 -11.28889 38.65277 C -11.3 38.64 -11.31 38.63 -11.31621 38.61491 C -11.33 38.6 -11.33 38.59 -11.34334 38.57589 C -11.35 38.56 -11.36 38.55 -11.37028 38.53572 C -11.38 38.52 -11.39 38.51 -11.39698 38.4944 C -11.41 38.48 -11.41 38.47 -11.42329 38.45216 C -11.43 38.44 -11.44 38.42 -11.44932 38.40879 C -11.46 38.39 -11.47 38.38 -11.47503 38.36433 C -11.48 38.35 -11.49 38.33 -11.50039 38.31879 C -11.51 38.3 -11.52 38.29 -11.52539 38.2722 C -11.53 38.26 -11.54 38.24 -11.54998 38.22461 C -11.56 38.21 -11.57 38.19 -11.57413 38.17604 C -11.58 38.16 -11.59 38.14 -11.59783 38.12655 C -11.61 38.11 -11.62 38.09 -11.62552 38.06627 C -11.63 38.05 -11.64 38.03 -11.65247 38.00484 C -11.66 37.98 -11.67 37.96 -11.67866 37.94234 C -11.69 37.92 -11.7 37.9 -11.70406 37.8789 C -11.71 37.86 -11.72 37.84 -11.72863 37.81459 C -11.74 37.79 -11.74 37.77 -11.75238 37.74954 C -11.76 37.73 -11.77 37.71 -11.77527 37.68384 C -11.78 37.66 -11.79 37.64 -11.79731 37.61758 C -11.81 37.59 -11.82 37.56 -11.8251 37.52929 C -11.83 37.5 -11.84 37.47 -11.85095 37.4413 C -11.86 37.43 -11.86 37.41 -11.86327 37.39698 C -11.87 37.38 -11.87 37.37 -11.87508 37.35281 C -11.88 37.34 -11.88 37.32 -11.88637 37.3088 C -11.89 37.29 -11.89 37.28 -11.89714 37.26499 C -11.9 37.25 -11.9 37.24 -11.90738 37.22138 C -11.91 37.21 -11.91 37.19 -11.91709 37.17801 C -11.92 37.15 -11.93 37.12 -11.93493 37.09205 C -11.94 37.08 -11.94 37.06 -11.94335 37.04796 C -11.95 37.03 -11.95 37.02 -11.95121 37.0042 C -11.95 36.99 -11.96 36.98 -11.95851 36.96078 C -11.96 36.95 -11.96 36.93 -11.96527 36.91773 C -11.97 36.9 -11.97 36.89 -11.97147 36.87504 C -11.97 36.86 -11.98 36.85 -11.97714 36.83275 C -11.98 36.82 -11.98 36.8 -11.98228 36.79084 C -11.98 36.78 -11.99 36.76 -11.9869 36.74935 C -11.99 36.72 -11.99 36.69 -11.99461 36.6676 C -12 36.64 -12 36.61 -12.00035 36.58754 C -12 36.56 -12 36.54 -12.00421 36.50921 C -12.01 36.48 -12.01 36.46 -12.00627 36.43262 L -10.36815 38.66235 L -10.36815 38.3941 C -10.37 38.36 -10.37 38.33 -10.36898 38.29233 C -10.37 38.26 -10.37 38.22 -10.37156 38.18863 C -10.37 38.15 -10.37 38.12 -10.37602 38.08295 C -10.38 38.05 -10.38 38.01 -10.38246 37.97524 C -10.38 37.94 -10.39 37.91 -10.3902 37.87524 C -10.39 37.84 -10.4 37.81 -10.39983 37.77351 C -10.4 37.74 -10.41 37.7 -10.41144 37.67006 C -10.41 37.65 -10.42 37.64 -10.41804 37.6177 C -10.42 37.6 -10.42 37.58 -10.42517 37.56492 C -10.43 37.55 -10.43 37.53 -10.43329 37.50886 C -10.44 37.49 -10.44 37.47 -10.44204 37.45235 C -10.45 37.43 -10.45 37.41 -10.45144 37.39541 C -10.45 37.38 -10.46 37.36 -10.4615 37.33804 C -10.46 37.32 -10.47 37.3 -10.47224 37.28027 C -10.48 37.26 -10.48 37.24 -10.48366 37.22211 C -10.49 37.2 -10.49 37.18 -10.49579 37.16359 C -10.5 37.14 -10.5 37.12 -10.50863 37.10474 C -10.51 37.09 -10.52 37.07 -10.52146 37.04873 C -10.53 37.03 -10.53 37.01 -10.53493 36.99248 C -10.54 36.97 -10.54 36.95 -10.54907 36.93601 C -10.55 36.92 -10.56 36.9 -10.56386 36.87936 C -10.57 36.86 -10.57 36.84 -10.57932 36.82257 C -10.58 36.8 -10.59 36.78 -10.59543 36.76566 C -10.6 36.75 -10.61 36.73 -10.6122 36.70868 C -10.62 36.69 -10.62 36.67 -10.62962 36.65167 C -10.64 36.63 -10.64 36.61 -10.64894 36.59074 C -10.66 36.57 -10.66 36.55 -10.66895 36.52997 C -10.68 36.51 -10.68 36.49 -10.68963 36.4694 C -10.7 36.45 -10.7 36.43 -10.71098 36.40909 C -10.72 36.39 -10.73 36.37 -10.73299 36.34911 C -10.74 36.33 -10.75 36.31 -10.75565 36.28951 C -10.76 36.27 -10.77 36.25 -10.77893 36.23034 C -10.79 36.21 -10.79 36.19 -10.80282 36.17168 C -10.81 36.16 -10.82 36.14 -10.8213 36.12763 C -10.83 36.11 -10.83 36.1 -10.8401 36.08392 C -10.85 36.07 -10.85 36.05 -10.85922 36.04058 C -10.87 36.03 -10.87 36.01 -10.87864 35.99762 C -10.89 35.97 -10.9 35.94 -10.91834 35.91295 C -10.93 35.89 -10.95 35.86 -10.9591 35.83006 C -10.97 35.82 -10.97 35.8 -10.98055 35.78796 C -10.99 35.77 -10.99 35.76 -11.00224 35.74638 C -11.01 35.73 -11.02 35.72 -11.02416 35.70534 C -11.03 35.69 -11.04 35.68 -11.04629 35.66485 C -11.05 35.65 -11.06 35.64 -11.06861 35.62491 C -11.08 35.61 -11.08 35.6 -11.09113 35.58554 C -11.1 35.57 -11.11 35.56 -11.11381 35.54675 C -11.12 35.53 -11.13 35.52 -11.13665 35.50853 C -11.15 35.49 -11.16 35.48 -11.16436 35.46324 C -11.17 35.45 -11.18 35.43 -11.19227 35.4188 C -11.2 35.4 -11.21 35.39 -11.22034 35.3752 C -11.23 35.36 -11.24 35.35 -11.24857 35.33244 C -11.26 35.32 -11.27 35.3 -11.27692 35.29052 C -11.29 35.28 -11.3 35.26 -11.3054 35.24942 C -11.31 35.24 -11.32 35.22 -11.33398 35.20914 C -11.34 35.2 -11.35 35.18 -11.36264 35.16967 C -11.37 35.16 -11.38 35.14 -11.39375 35.12806 C -11.4 35.11 -11.41 35.1 -11.42475 35.08807 C -11.44 35.08 -11.45 35.06 -11.45561 35.04976 C -11.47 35.04 -11.48 35.03 -11.48632 35.01315 C -11.5 35 -11.51 34.99 -11.51686 34.97829 C -11.53 34.97 -11.54 34.96 -11.54721 34.94521 C -11.56 34.93 -11.57 34.92 -11.57735 34.91394 C -11.59 34.9 -11.6 34.89 -11.60725 34.88451 C -11.62 34.87 -11.63 34.86 -11.64541 34.84931 C -11.66 34.84 -11.67 34.83 -11.68312 34.81723 C -11.7 34.81 -11.71 34.8 -11.72033 34.78828 C -11.73 34.78 -11.74 34.77 -11.75701 34.76247 C -11.77 34.75 -11.78 34.75 -11.79313 34.73978 C -11.81 34.73 -11.82 34.73 -11.82866 34.7202 C -11.84 34.71 -11.85 34.71 -11.86359 34.70369 C -11.88 34.7 -11.89 34.69 -11.89788 34.69022 C -11.91 34.69 -11.92 34.68 -11.93109 34.67992 C -11.94 34.68 -11.95 34.67 -11.96337 34.67278 C -11.97 34.67 -11.98 34.67 -11.99468 34.66884 C -12 34.67 -12.02 34.67 -12.02498 34.66809 C -12.03 34.67 -12.04 34.67 -12.04529 34.66945 C -12.05 34.67 -12.06 34.67 -12.0651 34.67234 C -12.07 34.67 -12.08 34.68 -12.0844 34.67675 C -12.09 34.68 -12.1 34.68 -12.10318 34.68268 C -12.11 34.69 -12.12 34.69 -12.12947 34.69393 C -12.14 34.7 -12.15 34.7 -12.15465 34.70831 C -12.16 34.71 -12.17 34.72 -12.17871 34.72576 C -12.19 34.73 -12.19 34.74 -12.20165 34.74622 C -12.21 34.75 -12.22 34.76 -12.22348 34.76963 C -12.23 34.78 -12.24 34.79 -12.24418 34.79592 C -12.25 34.81 -12.26 34.81 -12.26377 34.825 C -12.27 34.84 -12.28 34.85 -12.28227 34.85679 C -12.29 34.87 -12.29 34.88 -12.29915 34.8902 C -12.3 34.9 -12.31 34.91 -12.3149 34.92601 C -12.32 34.94 -12.32 34.95 -12.32951 34.96419 C -12.33 34.98 -12.34 34.99 -12.34299 35.00469 C -12.35 35.02 -12.35 35.03 -12.35533 35.04746 C -12.36 35.06 -12.36 35.08 -12.36654 35.09245 C -12.37 35.11 -12.37 35.12 -12.37663 35.1396 C -12.38 35.16 -12.38 35.17 -12.38562 35.18885 C -12.39 35.21 -12.39 35.22 -12.39381 35.24222 C -12.4 35.26 -12.4 35.28 -12.40083 35.29773 C -12.4 35.32 -12.4 35.34 -12.4067 35.35529 C -12.41 35.37 -12.41 35.39 -12.41145 35.41483 C -12.41 35.46 -12.42 35.5 -12.41768 35.53955 C -12.42 35.56 -12.42 35.58 -12.4192 35.60458 C -12.42 35.63 -12.42 35.65 -12.41971 35.67128 L -12.41971 35.78973 C -12.42 35.81 -12.42 35.83 -12.41929 35.85167 C -12.42 35.87 -12.42 35.89 -12.41803 35.91459 C -12.42 35.94 -12.42 35.96 -12.41588 35.97852 C -12.42 36 -12.41 36.02 -12.41282 36.04344 C -12.41 36.07 -12.41 36.09 -12.40882 36.10938 C -12.41 36.13 -12.41 36.15 -12.40384 36.17632 C -12.4 36.2 -12.4 36.22 -12.39785 36.24426 C -12.4 36.27 -12.39 36.29 -12.39083 36.31319 C -12.39 36.33 -12.39 36.35 -12.38454 36.36827 C -12.38 36.39 -12.38 36.41 -12.37757 36.42395 C -12.38 36.44 -12.37 36.46 -12.36991 36.48022 C -12.37 36.5 -12.36 36.52 -12.36155 36.53705 C -12.36 36.56 -12.36 36.58 -12.35248 36.59445 C -12.35 36.61 -12.35 36.63 -12.34269 36.65238 C -12.34 36.67 -12.34 36.69 -12.33216 36.71082 C -12.33 36.73 -12.32 36.75 -12.32091 36.76975 C -12.32 36.79 -12.31 36.81 -12.30936 36.82698 C -12.31 36.85 -12.3 36.87 -12.29712 36.88461 C -12.29 36.9 -12.29 36.92 -12.2842 36.94261 C -12.28 36.96 -12.28 36.98 -12.27058 37.00096 C -12.27 37.02 -12.26 37.04 -12.25628 37.05962 C -12.25 37.08 -12.25 37.1 -12.24129 37.11856 C -12.24 37.14 -12.23 37.16 -12.22562 37.17775 C -12.22 37.2 -12.21 37.22 -12.20929 37.23714 C -12.2 37.26 -12.19 37.29 -12.18648 37.31661 C -12.18 37.34 -12.17 37.37 -12.16253 37.3963 C -12.15 37.42 -12.15 37.45 -12.13745 37.47612 C -12.13 37.5 -12.12 37.53 -12.1113 37.55598 C -12.1 37.58 -12.09 37.61 -12.08479 37.63391 C -12.08 37.66 -12.07 37.69 -12.05741 37.71148 C -12.05 37.74 -12.04 37.76 -12.02918 37.7886 C -12.02 37.81 -12.01 37.84 -12.00012 37.86519 C -11.99 37.89 -11.98 37.92 -11.97024 37.94115 C -11.96 37.97 -11.95 37.99 -11.93957 38.01641 C -11.93 38.04 -11.92 38.07 -11.90813 38.09086 C -11.9 38.12 -11.89 38.14 -11.87595 38.16443 C -11.87 38.18 -11.86 38.19 -11.85552 38.20982 C -11.85 38.22 -11.84 38.24 -11.83483 38.25481 C -11.83 38.27 -11.82 38.28 -11.81389 38.29939 C -11.81 38.31 -11.8 38.33 -11.7927 38.34354 C -11.78 38.37 -11.76 38.4 -11.74963 38.43046 C -11.74 38.46 -11.72 38.49 -11.70571 38.51545 C -11.69 38.54 -11.68 38.57 -11.66103 38.59841 C -11.65 38.63 -11.63 38.65 -11.61565 38.67927 C -11.6 38.71 -11.59 38.73 -11.56969 38.75794 C -11.55 38.78 -11.54 38.81 -11.52321 38.83439 C -11.51 38.85 -11.51 38.86 -11.49706 38.8761 C -11.49 38.89 -11.48 38.9 -11.47079 38.9171 C -11.46 38.93 -11.45 38.94 -11.44441 38.9574 C -11.44 38.97 -11.43 38.98 -11.41793 38.99699 C -11.4 39.02 -11.38 39.05 -11.36472 39.07408 C -11.35 39.1 -11.33 39.12 -11.31124 39.1484 Z" />
    <path d="M -8.77249 38.69527 C -8.79 38.67 -8.8 38.65 -8.8202 38.63172 C -8.84 38.61 -8.85 38.59 -8.86764 38.57143 C -8.88 38.55 -8.9 38.53 -8.9147 38.51465 C -8.93 38.5 -8.95 38.48 -8.96132 38.46164 C -8.98 38.45 -8.99 38.43 -9.00216 38.41802 C -9.02 38.4 -9.03 38.39 -9.0425 38.37773 C -9.06 38.36 -9.07 38.35 -9.08226 38.34092 C -9.1 38.33 -9.11 38.32 -9.12137 38.30775 C -9.13 38.3 -9.15 38.29 -9.15974 38.27836 C -9.17 38.27 -9.17 38.27 -9.17863 38.26512 C -9.18 38.26 -9.19 38.26 -9.1973 38.25287 C -9.2 38.25 -9.21 38.25 -9.21575 38.24162 C -9.22 38.24 -9.23 38.23 -9.23397 38.23138 C -9.24 38.23 -9.25 38.23 -9.25195 38.22215 C -9.26 38.22 -9.26 38.22 -9.26968 38.21395 C -9.28 38.21 -9.29 38.21 -9.29724 38.20306 C -9.31 38.2 -9.32 38.2 -9.32412 38.19475 C -9.33 38.19 -9.34 38.19 -9.35029 38.18903 C -9.36 38.19 -9.37 38.19 -9.37574 38.18588 C -9.38 38.19 -9.39 38.19 -9.40045 38.18526 C -9.41 38.19 -9.42 38.19 -9.4244 38.18716 C -9.43 38.19 -9.44 38.19 -9.44757 38.19151 C -9.46 38.19 -9.46 38.2 -9.46997 38.19826 C -9.48 38.2 -9.48 38.2 -9.48987 38.20654 L -9.50104 37.77328 L -9.89213 37.24094 L -9.89213 41.01035 L -9.47869 41.57311 L -9.47869 38.82095 C -9.48 38.81 -9.47 38.81 -9.46743 38.79761 C -9.46 38.79 -9.46 38.78 -9.4553 38.77635 C -9.45 38.77 -9.45 38.76 -9.44228 38.75729 C -9.44 38.75 -9.43 38.75 -9.42837 38.74053 C -9.42 38.74 -9.42 38.73 -9.41525 38.72768 C -9.41 38.72 -9.41 38.72 -9.40139 38.71681 C -9.4 38.71 -9.39 38.71 -9.38681 38.70798 C -9.38 38.71 -9.38 38.7 -9.37149 38.70125 C -9.37 38.7 -9.36 38.7 -9.35437 38.69646 C -9.35 38.7 -9.34 38.69 -9.33644 38.69416 C -9.33 38.69 -9.32 38.69 -9.31771 38.69439 C -9.31 38.69 -9.3 38.7 -9.29822 38.69717 C -9.29 38.7 -9.29 38.7 -9.282 38.70126 C -9.28 38.7 -9.27 38.7 -9.26533 38.70699 C -9.26 38.71 -9.25 38.71 -9.24822 38.71435 C -9.24 38.72 -9.24 38.72 -9.23069 38.72332 C -9.22 38.73 -9.22 38.73 -9.21276 38.73387 C -9.21 38.74 -9.2 38.74 -9.19447 38.74597 C -9.19 38.75 -9.18 38.75 -9.17583 38.75959 C -9.17 38.76 -9.16 38.77 -9.15687 38.77467 C -9.15 38.78 -9.14 38.79 -9.13775 38.79104 C -9.13 38.8 -9.12 38.8 -9.11837 38.80876 C -9.11 38.81 -9.11 38.82 -9.09875 38.82779 C -9.09 38.83 -9.09 38.84 -9.07889 38.84808 C -9.07 38.86 -9.05 38.88 -9.04053 38.88999 C -9.03 38.9 -9.01 38.92 -9.00155 38.93591 C -9 38.94 -8.99 38.95 -8.98187 38.96027 C -8.98 38.97 -8.97 38.98 -8.96208 38.9855 C -8.96 38.99 -8.95 39 -8.94219 39.01156 C -8.94 39.02 -8.93 39.03 -8.92222 39.03841 C -8.91 39.05 -8.91 39.06 -8.89798 39.07188 C -8.89 39.08 -8.88 39.09 -8.87385 39.10615 C -8.87 39.12 -8.86 39.13 -8.84986 39.14126 C -8.84 39.15 -8.83 39.17 -8.82603 39.17723 C -8.82 39.19 -8.81 39.2 -8.80241 39.21408 C -8.79 39.23 -8.79 39.24 -8.77901 39.25183 C -8.77 39.26 -8.76 39.28 -8.75589 39.2905 C -8.75 39.3 -8.74 39.32 -8.73308 39.33008 C -8.73 39.34 -8.72 39.35 -8.71387 39.36465 C -8.71 39.38 -8.7 39.39 -8.69497 39.39987 C -8.69 39.41 -8.68 39.42 -8.6764 39.43575 C -8.67 39.45 -8.66 39.46 -8.65822 39.47225 C -8.65 39.48 -8.65 39.49 -8.64197 39.50612 C -8.64 39.52 -8.63 39.53 -8.62611 39.54046 C -8.62 39.55 -8.62 39.56 -8.61066 39.57525 C -8.61 39.59 -8.6 39.6 -8.59567 39.61043 C -8.59 39.62 -8.59 39.63 -8.58115 39.64597 C -8.58 39.66 -8.57 39.67 -8.56715 39.68181 C -8.56 39.69 -8.56 39.71 -8.55368 39.71791 C -8.55 39.73 -8.54 39.74 -8.54078 39.75421 C -8.54 39.76 -8.53 39.77 -8.53215 39.77956 C -8.53 39.79 -8.53 39.8 -8.52381 39.80496 C -8.52 39.82 -8.51 39.84 -8.50802 39.85582 C -8.5 39.87 -8.5 39.89 -8.49346 39.90663 C -8.49 39.92 -8.48 39.94 -8.48013 39.95722 C -8.48 39.97 -8.47 39.99 -8.46861 40.00504 C -8.46 40.02 -8.46 40.04 -8.45818 40.05245 C -8.45 40.08 -8.45 40.11 -8.44271 40.13316 C -8.44 40.16 -8.43 40.19 -8.43029 40.21207 C -8.41 40.34 -8.41 40.45 -8.40598 40.56326 L -8.40598 43.03323 L -7.9903 43.59903 L -7.9903 41.09771 C -7.99 41.08 -7.99 41.06 -7.98484 41.04102 C -7.98 41.03 -7.98 41.02 -7.98128 41.01434 C -7.98 41.01 -7.98 41 -7.97717 40.98883 C -7.98 40.98 -7.97 40.97 -7.97248 40.96452 C -7.97 40.96 -7.97 40.95 -7.96722 40.94145 C -7.97 40.93 -7.96 40.93 -7.96138 40.91964 C -7.96 40.91 -7.96 40.91 -7.95494 40.89914 C -7.95 40.89 -7.95 40.89 -7.9479 40.87998 C -7.95 40.87 -7.94 40.87 -7.94027 40.86218 C -7.94 40.86 -7.93 40.85 -7.93203 40.84576 C -7.93 40.84 -7.93 40.84 -7.92318 40.83076 C -7.92 40.83 -7.92 40.82 -7.91373 40.81719 C -7.91 40.81 -7.91 40.81 -7.90368 40.80508 C -7.9 40.8 -7.9 40.8 -7.89302 40.79443 C -7.89 40.79 -7.89 40.79 -7.88178 40.78525 C -7.88 40.78 -7.87 40.78 -7.86678 40.77581 C -7.86 40.77 -7.86 40.77 -7.85086 40.76873 C -7.85 40.77 -7.84 40.76 -7.83281 40.76375 C -7.83 40.76 -7.82 40.76 -7.81375 40.76146 C -7.81 40.76 -7.8 40.76 -7.7922 40.76199 C -7.78 40.76 -7.78 40.76 -7.76979 40.76565 C -7.76 40.77 -7.75 40.77 -7.74656 40.77247 C -7.74 40.78 -7.73 40.78 -7.72252 40.78246 C -7.72 40.78 -7.71 40.79 -7.70635 40.79073 C -7.7 40.79 -7.7 40.8 -7.68986 40.80035 C -7.68 40.8 -7.68 40.81 -7.67305 40.81131 C -7.67 40.82 -7.66 40.82 -7.65595 40.8236 C -7.65 40.83 -7.64 40.83 -7.63855 40.83721 C -7.63 40.84 -7.63 40.85 -7.62088 40.85212 C -7.61 40.86 -7.61 40.86 -7.60294 40.86831 C -7.6 40.87 -7.59 40.88 -7.58475 40.88576 C -7.58 40.89 -7.57 40.9 -7.56632 40.90444 C -7.56 40.91 -7.55 40.92 -7.54766 40.92433 C -7.54 40.93 -7.54 40.94 -7.52878 40.9454 C -7.52 40.95 -7.52 40.96 -7.5097 40.96762 C -7.5 40.98 -7.48 41 -7.47098 41.01539 C -7.46 41.03 -7.44 41.05 -7.4316 41.06738 C -7.42 41.08 -7.41 41.09 -7.40435 41.10496 C -7.4 41.12 -7.39 41.13 -7.37745 41.14308 C -7.37 41.16 -7.36 41.17 -7.35092 41.18177 C -7.34 41.19 -7.33 41.21 -7.3248 41.221 C -7.32 41.23 -7.31 41.25 -7.29914 41.2608 C -7.29 41.27 -7.28 41.29 -7.27398 41.30115 C -7.27 41.31 -7.26 41.33 -7.24936 41.34205 C -7.24 41.36 -7.23 41.37 -7.22533 41.38349 C -7.22 41.4 -7.21 41.42 -7.19687 41.43479 C -7.19 41.45 -7.18 41.47 -7.16948 41.48681 C -7.16 41.5 -7.15 41.52 -7.14327 41.53949 C -7.13 41.56 -7.13 41.57 -7.11836 41.59274 C -7.11 41.61 -7.1 41.63 -7.09486 41.64646 C -7.09 41.66 -7.08 41.68 -7.07286 41.70052 C -7.07 41.72 -7.06 41.74 -7.05248 41.75481 C -7.05 41.76 -7.05 41.77 -7.04293 41.78198 C -7.04 41.79 -7.04 41.8 -7.0338 41.80916 C -7.03 41.82 -7.02 41.84 -7.01909 41.85572 C -7.01 41.87 -7.01 41.89 -7.00541 41.90246 C -7 41.92 -7 41.93 -6.99275 41.94931 C -6.99 41.96 -6.98 41.98 -6.98113 41.9962 C -6.98 42.01 -6.97 42.03 -6.97053 42.04305 C -6.97 42.06 -6.96 42.07 -6.96094 42.08982 C -6.96 42.11 -6.96 42.12 -6.95235 42.13645 C -6.95 42.15 -6.95 42.17 -6.94473 42.18287 C -6.94 42.2 -6.94 42.22 -6.93751 42.23327 C -6.94 42.25 -6.93 42.27 -6.93138 42.28332 C -6.93 42.3 -6.93 42.32 -6.92631 42.333 C -6.92 42.35 -6.92 42.37 -6.92225 42.38227 C -6.92 42.4 -6.92 42.41 -6.91917 42.43111 C -6.92 42.45 -6.92 42.46 -6.91703 42.47949 C -6.92 42.5 -6.92 42.51 -6.91577 42.52739 C -6.92 42.54 -6.92 42.56 -6.91536 42.57481 L -6.91536 45.0622 L -6.50192 45.62496 L -6.50192 43.09925 C -6.5 43.08 -6.5 43.05 -6.50321 43.02744 C -6.5 43 -6.5 42.98 -6.50573 42.9542 C -6.51 42.93 -6.51 42.9 -6.50956 42.87945 C -6.51 42.85 -6.51 42.83 -6.5148 42.80317 C -6.52 42.78 -6.52 42.75 -6.52157 42.7253 C -6.52 42.7 -6.53 42.67 -6.52998 42.64582 C -6.53 42.62 -6.54 42.59 -6.54015 42.56473 C -6.54 42.54 -6.55 42.51 -6.55221 42.48203 C -6.56 42.46 -6.56 42.44 -6.56256 42.41898 C -6.57 42.4 -6.57 42.38 -6.5741 42.35508 C -6.58 42.33 -6.58 42.31 -6.58686 42.2904 C -6.59 42.27 -6.6 42.25 -6.6009 42.22499 C -6.6 42.21 -6.61 42.2 -6.60947 42.18744 C -6.61 42.17 -6.62 42.16 -6.61848 42.14971 C -6.62 42.14 -6.62 42.12 -6.62792 42.1118 C -6.63 42.1 -6.63 42.09 -6.63779 42.07374 C -6.64 42.06 -6.64 42.05 -6.64836 42.03466 C -6.65 42.02 -6.66 42.01 -6.65938 41.99547 C -6.66 41.98 -6.67 41.97 -6.67087 41.95621 C -6.67 41.94 -6.68 41.93 -6.6828 41.91691 C -6.69 41.9 -6.69 41.89 -6.69519 41.87761 C -6.7 41.86 -6.7 41.85 -6.70803 41.83833 C -6.71 41.83 -6.72 41.81 -6.7213 41.79911 C -6.73 41.79 -6.73 41.77 -6.73499 41.75999 C -6.74 41.74 -6.75 41.72 -6.75485 41.70548 C -6.76 41.69 -6.77 41.67 -6.77547 41.65132 C -6.79 41.62 -6.8 41.58 -6.81888 41.54442 C -6.85 41.47 -6.88 41.4 -6.91299 41.33833 C -6.95 41.26 -6.99 41.19 -7.02525 41.12555 C -7.12 40.96 -7.21 40.82 -7.31092 40.6847 C -7.33 40.66 -7.35 40.63 -7.37419 40.60106 C -7.4 40.57 -7.42 40.55 -7.43642 40.52399 C -7.46 40.5 -7.48 40.48 -7.49743 40.45398 C -7.51 40.44 -7.52 40.43 -7.52742 40.42178 C -7.54 40.41 -7.55 40.4 -7.55703 40.39151 C -7.57 40.38 -7.58 40.37 -7.5849 40.36451 C -7.59 40.36 -7.6 40.35 -7.61238 40.33937 C -7.62 40.33 -7.63 40.32 -7.63945 40.31613 C -7.65 40.31 -7.66 40.3 -7.66609 40.29484 C -7.67 40.29 -7.68 40.28 -7.69228 40.27554 C -7.7 40.27 -7.71 40.26 -7.718 40.25826 C -7.73 40.25 -7.73 40.25 -7.74323 40.24301 C -7.75 40.24 -7.76 40.23 -7.76794 40.22984 C -7.78 40.22 -7.79 40.22 -7.80078 40.2148 C -7.81 40.21 -7.82 40.21 -7.8327 40.20273 C -7.84 40.2 -7.85 40.2 -7.86367 40.19369 C -7.87 40.19 -7.88 40.19 -7.89364 40.18773 C -7.9 40.19 -7.91 40.19 -7.92259 40.18488 C -7.93 40.18 -7.94 40.18 -7.95048 40.18517 C -7.96 40.19 -7.97 40.19 -7.97729 40.18861 C -7.99 40.19 -7.99 40.19 -8.00299 40.19523 C -8.01 40.2 -8.01 40.2 -8.00908 40.19732 C -8.02 40.2 -8.02 40.2 -8.02837 40.20539 C -8.03 40.21 -8.04 40.21 -8.04695 40.21544 C -8.05 40.22 -8.06 40.22 -8.06481 40.22745 C -8.07 40.23 -8.08 40.24 -8.08193 40.2414 C -8.09 40.22 -8.09 40.21 -8.09285 40.19183 C -8.1 40.18 -8.1 40.16 -8.10445 40.14201 C -8.11 40.13 -8.11 40.11 -8.11672 40.09198 C -8.12 40.08 -8.13 40.06 -8.12969 40.04178 C -8.13 40.03 -8.14 40.01 -8.14301 39.9927 C -8.15 39.98 -8.15 39.96 -8.157 39.94355 C -8.16 39.93 -8.17 39.91 -8.17165 39.89437 C -8.18 39.88 -8.18 39.86 -8.18696 39.84522 C -8.19 39.83 -8.2 39.81 -8.20293 39.79614 C -8.21 39.78 -8.21 39.76 -8.21955 39.7472 C -8.23 39.73 -8.23 39.71 -8.23681 39.69845 C -8.24 39.68 -8.25 39.67 -8.25467 39.64995 C -8.26 39.63 -8.27 39.61 -8.2749 39.59723 C -8.28 39.58 -8.29 39.56 -8.29582 39.54495 C -8.3 39.53 -8.31 39.51 -8.31739 39.49318 C -8.32 39.48 -8.33 39.46 -8.33958 39.44197 C -8.35 39.43 -8.35 39.41 -8.36234 39.39139 C -8.37 39.37 -8.38 39.36 -8.38565 39.34149 C -8.39 39.32 -8.4 39.31 -8.40946 39.29232 C -8.42 39.28 -8.43 39.26 -8.43373 39.24391 C -8.44 39.23 -8.45 39.21 -8.45949 39.19428 C -8.47 39.18 -8.48 39.16 -8.48566 39.14555 C -8.49 39.13 -8.5 39.11 -8.51221 39.09774 C -8.52 39.08 -8.53 39.07 -8.53909 39.05085 C -8.55 39.03 -8.56 39.02 -8.56749 39.00288 C -8.58 38.99 -8.59 38.97 -8.59617 38.95594 C -8.61 38.94 -8.62 38.93 -8.62511 38.91002 C -8.63 38.89 -8.64 38.88 -8.65426 38.86511 C -8.67 38.84 -8.69 38.81 -8.7131 38.77827 C -8.73 38.75 -8.75 38.72 -8.77249 38.69527 Z" />
    <path d="M -4.64926 48.14672 L -4.22017 48.73077 L -4.22017 43.65845 L -4.64926 43.0744 L -4.64926 48.14672 Z" />
    <path d="M -18.39784 28.88581 L -18.39784 24.36043 L -18.82916 23.77333 L -18.82916 28.84566 L -16.85581 31.53169 L -16.85581 30.98474 L -18.39784 28.88581 Z" />
    <path d="M -16.54071 30.04106 L -16.54071 30.08635 C -16.54 30.11 -16.54 30.13 -16.54024 30.15529 C -16.54 30.18 -16.54 30.2 -16.53881 30.22536 C -16.54 30.25 -16.54 30.27 -16.53637 30.29657 C -16.54 30.32 -16.53 30.34 -16.53291 30.36892 C -16.53 30.39 -16.53 30.42 -16.52836 30.44243 C -16.53 30.47 -16.52 30.49 -16.5227 30.51708 C -16.52 30.54 -16.52 30.57 -16.51589 30.59288 C -16.51 30.62 -16.51 30.64 -16.50789 30.66982 C -16.51 30.69 -16.5 30.71 -16.50084 30.73023 C -16.5 30.75 -16.5 30.77 -16.49305 30.79131 C -16.49 30.81 -16.49 30.83 -16.48449 30.85303 C -16.48 30.87 -16.48 30.89 -16.47515 30.91538 C -16.47 30.94 -16.47 30.96 -16.46502 30.97835 C -16.46 31 -16.46 31.02 -16.45409 31.0419 C -16.45 31.06 -16.45 31.08 -16.44235 31.10602 C -16.44 31.13 -16.43 31.15 -16.42979 31.17067 C -16.43 31.19 -16.42 31.21 -16.41697 31.2331 C -16.41 31.25 -16.41 31.27 -16.4034 31.29597 C -16.4 31.32 -16.39 31.34 -16.38907 31.35923 C -16.38 31.38 -16.38 31.4 -16.37397 31.42287 C -16.37 31.44 -16.36 31.47 -16.35812 31.48682 C -16.35 31.51 -16.35 31.53 -16.34152 31.55107 C -16.34 31.57 -16.33 31.59 -16.32417 31.61557 C -16.32 31.64 -16.31 31.66 -16.30608 31.68028 C -16.3 31.72 -16.28 31.76 -16.27199 31.79624 C -16.26 31.83 -16.25 31.87 -16.23565 31.91249 C -16.23 31.94 -16.22 31.97 -16.20587 32.00309 C -16.2 32.03 -16.19 32.06 -16.17491 32.09328 C -16.16 32.12 -16.15 32.15 -16.14278 32.18293 C -16.13 32.21 -16.12 32.24 -16.10951 32.2719 C -16.1 32.3 -16.09 32.33 -16.07511 32.36005 C -16.06 32.39 -16.05 32.42 -16.03962 32.44722 C -16.03 32.48 -16.02 32.5 -16.00308 32.53327 C -15.99 32.56 -15.98 32.59 -15.96555 32.61806 C -15.95 32.65 -15.94 32.67 -15.92667 32.7023 C -15.91 32.73 -15.9 32.76 -15.8869 32.78497 C -15.87 32.81 -15.86 32.84 -15.8463 32.86596 C -15.83 32.89 -15.82 32.92 -15.80496 32.94515 C -15.79 32.97 -15.78 33 -15.76294 33.02245 C -15.75 33.05 -15.73 33.07 -15.72032 33.0978 C -15.71 33.12 -15.69 33.15 -15.67718 33.17112 C -15.66 33.2 -15.65 33.22 -15.63359 33.24239 C -15.63 33.26 -15.62 33.27 -15.60955 33.28052 C -15.6 33.29 -15.59 33.31 -15.58542 33.31803 C -15.57 33.34 -15.55 33.37 -15.53687 33.39116 C -15.52 33.42 -15.5 33.44 -15.48802 33.46179 C -15.47 33.48 -15.46 33.51 -15.43894 33.52995 C -15.42 33.56 -15.4 33.59 -15.37579 33.61357 C -15.37 33.63 -15.35 33.64 -15.34443 33.6533 C -15.33 33.67 -15.32 33.68 -15.31323 33.69158 C -15.3 33.7 -15.29 33.72 -15.28222 33.72838 C -15.27 33.74 -15.26 33.75 -15.2514 33.76363 C -15.24 33.78 -15.23 33.79 -15.2208 33.7973 C -15.21 33.81 -15.2 33.82 -15.19045 33.82935 C -15.18 33.84 -15.17 33.85 -15.16035 33.85974 C -15.15 33.87 -15.14 33.88 -15.13052 33.88843 C -15.12 33.9 -15.11 33.91 -15.10099 33.91539 C -15.09 33.92 -15.08 33.93 -15.07177 33.94058 C -15.06 33.95 -15.05 33.96 -15.04289 33.96399 C -15.03 33.97 -15.02 33.98 -15.01436 33.98557 C -15 33.99 -15 34 -14.9862 34.00532 C -14.98 34.01 -14.97 34.02 -14.95842 34.02322 C -14.95 34.03 -14.94 34.03 -14.9336 34.03783 C -14.93 34.04 -14.92 34.05 -14.90912 34.0509 C -14.9 34.06 -14.89 34.06 -14.885 34.06243 C -14.88 34.07 -14.87 34.07 -14.86124 34.07243 C -14.85 34.08 -14.85 34.08 -14.84022 34.0801 C -14.83 34.08 -14.83 34.08 -14.81956 34.08654 C -14.81 34.09 -14.81 34.09 -14.79927 34.09174 C -14.79 34.09 -14.79 34.09 -14.77936 34.09567 C -14.77 34.1 -14.77 34.1 -14.75984 34.09833 C -14.75 34.1 -14.75 34.1 -14.74072 34.09972 C -14.73 34.1 -14.73 34.1 -14.72201 34.09984 C -14.72 34.1 -14.71 34.1 -14.70371 34.09867 C -14.69 34.1 -14.68 34.1 -14.6745 34.09396 C -14.66 34.09 -14.66 34.09 -14.64647 34.08579 C -14.64 34.08 -14.63 34.08 -14.62117 34.07495 C -14.61 34.07 -14.6 34.07 -14.59696 34.0611 C -14.59 34.06 -14.58 34.05 -14.57383 34.04427 C -14.57 34.04 -14.56 34.03 -14.5518 34.02452 C -14.54 34.02 -14.54 34.01 -14.53086 34.00191 C -14.52 33.99 -14.52 33.99 -14.51103 33.97651 C -14.5 33.97 -14.5 33.96 -14.49228 33.94838 C -14.49 33.94 -14.48 33.93 -14.47462 33.91761 C -14.47 33.91 -14.46 33.9 -14.45803 33.88434 C -14.45 33.87 -14.45 33.86 -14.44255 33.84874 C -14.44 33.84 -14.43 33.82 -14.42819 33.81085 C -14.42 33.8 -14.42 33.78 -14.41493 33.7707 C -14.41 33.76 -14.41 33.74 -14.40278 33.72834 C -14.4 33.71 -14.4 33.7 -14.39174 33.68382 C -14.39 33.67 -14.38 33.65 -14.3818 33.63719 C -14.38 33.62 -14.38 33.61 -14.37295 33.58851 C -14.37 33.57 -14.37 33.55 -14.36491 33.53597 C -14.36 33.52 -14.36 33.5 -14.35801 33.48135 C -14.36 33.46 -14.35 33.44 -14.35223 33.42473 C -14.35 33.41 -14.35 33.39 -14.34755 33.36617 C -14.34 33.33 -14.34 33.29 -14.34141 33.24353 C -14.34 33.2 -14.34 33.16 -14.33941 33.114 L -14.33941 33.06872 C -14.34 33.05 -14.34 33.02 -14.3399 32.99787 C -14.34 32.97 -14.34 32.95 -14.34139 32.92586 C -14.34 32.9 -14.34 32.88 -14.34392 32.85266 C -14.34 32.83 -14.35 32.8 -14.34753 32.77827 C -14.35 32.75 -14.35 32.73 -14.35227 32.70268 C -14.35 32.68 -14.36 32.65 -14.35818 32.62589 C -14.36 32.6 -14.36 32.57 -14.36529 32.54791 C -14.37 32.52 -14.37 32.5 -14.37365 32.46874 C -14.38 32.45 -14.38 32.43 -14.38091 32.40738 C -14.38 32.39 -14.39 32.37 -14.38894 32.34534 C -14.39 32.32 -14.39 32.3 -14.39775 32.28265 C -14.4 32.26 -14.4 32.24 -14.40737 32.21932 C -14.41 32.2 -14.41 32.18 -14.41779 32.15537 C -14.42 32.13 -14.43 32.11 -14.42904 32.09082 C -14.43 32.07 -14.44 32.05 -14.44112 32.02571 C -14.45 32 -14.45 31.98 -14.45404 31.96005 C -14.46 31.94 -14.46 31.92 -14.4672 31.89673 C -14.47 31.88 -14.48 31.85 -14.48114 31.83298 C -14.49 31.81 -14.49 31.79 -14.49586 31.76883 C -14.5 31.75 -14.51 31.73 -14.51136 31.70432 C -14.52 31.68 -14.52 31.66 -14.52763 31.63948 C -14.53 31.62 -14.54 31.6 -14.54468 31.57437 C -14.55 31.55 -14.56 31.53 -14.56249 31.50901 C -14.57 31.49 -14.57 31.47 -14.58105 31.44345 C -14.59 31.41 -14.6 31.37 -14.61186 31.33964 C -14.62 31.3 -14.63 31.27 -14.64447 31.23561 C -14.65 31.21 -14.66 31.18 -14.67382 31.1463 C -14.68 31.12 -14.69 31.09 -14.70432 31.05739 C -14.71 31.03 -14.73 31 -14.73596 30.96899 C -14.75 30.94 -14.76 30.91 -14.76872 30.88125 C -14.78 30.85 -14.79 30.82 -14.80258 30.79431 C -14.81 30.77 -14.83 30.74 -14.8375 30.7083 C -14.85 30.68 -14.86 30.65 -14.87345 30.62336 C -14.89 30.6 -14.9 30.57 -14.91037 30.53964 C -14.92 30.51 -14.94 30.48 -14.94954 30.45444 C -14.96 30.43 -14.98 30.4 -14.98963 30.37082 C -15 30.34 -15.02 30.32 -15.03056 30.28891 C -15.04 30.26 -15.06 30.24 -15.07226 30.20881 C -15.09 30.18 -15.1 30.16 -15.11465 30.13062 C -15.13 30.1 -15.14 30.08 -15.15766 30.05441 C -15.17 30.03 -15.19 30 -15.2012 29.98025 C -15.22 29.96 -15.23 29.93 -15.24521 29.90817 C -15.25 29.9 -15.26 29.88 -15.26968 29.86928 C -15.28 29.86 -15.29 29.84 -15.29425 29.83104 C -15.31 29.81 -15.33 29.78 -15.34369 29.7565 C -15.36 29.73 -15.38 29.71 -15.39343 29.68453 C -15.41 29.66 -15.43 29.64 -15.44341 29.61511 C -15.46 29.59 -15.48 29.56 -15.50323 29.53584 C -15.52 29.51 -15.54 29.49 -15.56252 29.46169 C -15.57 29.45 -15.58 29.44 -15.59193 29.42664 C -15.6 29.42 -15.61 29.4 -15.62116 29.39299 C -15.63 29.38 -15.64 29.37 -15.6502 29.36077 C -15.66 29.35 -15.67 29.34 -15.67903 29.33002 C -15.69 29.32 -15.7 29.31 -15.70763 29.30077 C -15.72 29.29 -15.73 29.28 -15.73599 29.27306 C -15.75 29.26 -15.75 29.26 -15.76409 29.2469 C -15.77 29.24 -15.78 29.23 -15.79192 29.22233 C -15.8 29.21 -15.81 29.21 -15.81946 29.19938 C -15.83 29.19 -15.84 29.18 -15.8467 29.17805 C -15.86 29.17 -15.86 29.16 -15.87361 29.15838 C -15.88 29.15 -15.89 29.15 -15.90018 29.14037 C -15.91 29.13 -15.92 29.13 -15.92885 29.12258 C -15.94 29.12 -15.95 29.11 -15.95708 29.10681 C -15.97 29.1 -15.98 29.1 -15.98486 29.09305 C -15.99 29.09 -16 29.08 -16.01217 29.08131 C -16.02 29.08 -16.03 29.07 -16.04329 29.07021 C -16.05 29.07 -16.06 29.06 -16.0736 29.0619 C -16.08 29.06 -16.09 29.06 -16.10308 29.05642 C -16.11 29.06 -16.12 29.05 -16.13169 29.05378 C -16.14 29.05 -16.15 29.05 -16.15672 29.05383 C -16.16 29.05 -16.17 29.06 -16.18102 29.05619 C -16.19 29.06 -16.2 29.06 -16.20457 29.06085 C -16.21 29.06 -16.22 29.07 -16.22735 29.06779 C -16.24 29.07 -16.24 29.07 -16.25274 29.07864 C -16.26 29.08 -16.27 29.09 -16.27708 29.09248 C -16.29 29.1 -16.29 29.1 -16.30037 29.10926 C -16.31 29.12 -16.32 29.12 -16.3226 29.12891 C -16.33 29.14 -16.34 29.14 -16.34378 29.15137 C -16.35 29.16 -16.36 29.17 -16.3639 29.17656 C -16.37 29.19 -16.38 29.19 -16.38298 29.20441 C -16.39 29.21 -16.4 29.22 -16.40103 29.23483 C -16.41 29.25 -16.41 29.26 -16.41814 29.26795 C -16.42 29.28 -16.43 29.29 -16.43411 29.30344 C -16.44 29.32 -16.44 29.33 -16.44895 29.34128 C -16.45 29.35 -16.46 29.37 -16.46264 29.38142 C -16.47 29.4 -16.47 29.41 -16.4752 29.42383 C -16.48 29.44 -16.48 29.45 -16.48662 29.46846 C -16.49 29.48 -16.49 29.5 -16.4969 29.51525 C -16.5 29.53 -16.5 29.55 -16.50607 29.56416 C -16.51 29.58 -16.51 29.6 -16.51436 29.61683 C -16.52 29.63 -16.52 29.65 -16.52149 29.67163 C -16.52 29.69 -16.53 29.71 -16.52746 29.72848 C -16.53 29.75 -16.53 29.77 -16.53229 29.78732 C -16.53 29.81 -16.53 29.83 -16.53601 29.84807 C -16.54 29.87 -16.54 29.89 -16.53864 29.91066 C -16.54 29.95 -16.54 30 -16.54071 30.04106 Z" />
    <path d="M -12.65213 34.06246 L -12.65213 33.46325 C -12.66 33.45 -12.66 33.44 -12.66923 33.4282 C -12.68 33.42 -12.68 33.4 -12.68813 33.3924 C -12.69 33.38 -12.7 33.37 -12.70876 33.35591 C -12.72 33.34 -12.72 33.33 -12.73104 33.31878 C -12.74 33.31 -12.75 33.29 -12.75492 33.28108 C -12.76 33.27 -12.77 33.26 -12.78032 33.24285 C -12.79 33.23 -12.8 33.22 -12.80716 33.20416 C -12.82 33.19 -12.83 33.18 -12.83538 33.16504 C -12.84 33.15 -12.85 33.14 -12.8641 33.12672 C -12.87 33.11 -12.88 33.1 -12.89264 33.09018 C -12.9 33.08 -12.91 33.07 -12.92098 33.05554 C -12.93 33.04 -12.94 33.03 -12.94908 33.02289 C -12.96 33.01 -12.97 33 -12.9756 32.99372 C -12.98 32.98 -12.99 32.98 -13.00184 32.96652 C -13.01 32.96 -13.02 32.95 -13.02774 32.94139 C -13.04 32.93 -13.04 32.93 -13.05328 32.91839 C -13.06 32.91 -13.07 32.9 -13.07841 32.89759 C -13.09 32.89 -13.09 32.88 -13.10311 32.87904 C -13.11 32.87 -13.12 32.87 -13.12733 32.8628 C -13.14 32.86 -13.14 32.85 -13.15103 32.84889 C -13.16 32.84 -13.17 32.84 -13.17536 32.83682 C -13.18 32.83 -13.19 32.83 -13.19906 32.82736 C -13.21 32.82 -13.21 32.82 -13.22208 32.82052 C -13.23 32.82 -13.24 32.82 -13.24442 32.81628 C -13.25 32.82 -13.26 32.81 -13.26605 32.8146 C -13.27 32.81 -13.28 32.81 -13.28695 32.81544 C -13.29 32.82 -13.3 32.82 -13.30711 32.81874 C -13.31 32.82 -13.32 32.82 -13.32652 32.82444 C -13.33 32.83 -13.33 32.83 -13.33372 32.82722 C -13.34 32.83 -13.35 32.83 -13.35472 32.83757 C -13.36 32.84 -13.37 32.85 -13.37475 32.8508 C -13.38 32.86 -13.39 32.86 -13.39382 32.86678 C -13.4 32.87 -13.41 32.88 -13.41197 32.88537 L -13.41867 32.44077 L -13.82094 31.89322 L -13.82094 35.66263 L -13.4075 36.22539 L -13.4075 33.54988 C -13.4 33.54 -13.4 33.53 -13.39663 33.52626 C -13.39 33.52 -13.39 33.51 -13.3849 33.50469 C -13.38 33.5 -13.38 33.49 -13.37229 33.4853 C -13.37 33.48 -13.36 33.47 -13.35877 33.46819 C -13.35 33.46 -13.35 33.46 -13.34531 33.45437 C -13.34 33.45 -13.34 33.45 -13.33103 33.44272 C -13.33 33.44 -13.32 33.44 -13.31595 33.43333 C -13.31 33.43 -13.31 33.43 -13.30004 33.42627 C -13.29 33.42 -13.29 33.42 -13.28402 33.42173 C -13.28 33.42 -13.27 33.42 -13.26727 33.41943 C -13.26 33.42 -13.26 33.42 -13.2498 33.41939 C -13.24 33.42 -13.24 33.42 -13.23164 33.42164 C -13.23 33.42 -13.22 33.42 -13.21562 33.42536 C -13.21 33.43 -13.2 33.43 -13.19913 33.43074 C -13.19 33.43 -13.19 33.44 -13.18219 33.43776 C -13.18 33.44 -13.17 33.44 -13.16483 33.4464 C -13.16 33.45 -13.15 33.45 -13.14707 33.45664 C -13.14 33.46 -13.14 33.46 -13.12893 33.46843 C -13.12 33.47 -13.12 33.48 -13.11043 33.48175 C -13.1 33.49 -13.1 33.49 -13.09161 33.49655 C -13.09 33.5 -13.08 33.51 -13.07245 33.51281 C -13.07 33.52 -13.06 33.52 -13.05301 33.53045 C -13.05 33.54 -13.04 33.54 -13.03332 33.54944 C -13.03 33.56 -13.02 33.56 -13.01339 33.5697 C -13 33.58 -12.99 33.6 -12.97475 33.61178 C -12.96 33.63 -12.95 33.64 -12.93547 33.65797 C -12.93 33.67 -12.92 33.67 -12.91564 33.6825 C -12.91 33.69 -12.9 33.7 -12.89569 33.70791 C -12.89 33.72 -12.88 33.73 -12.87564 33.73418 C -12.87 33.74 -12.86 33.75 -12.8555 33.76125 C -12.84 33.79 -12.82 33.81 -12.80219 33.8353 C -12.78 33.86 -12.77 33.89 -12.7505 33.9102 C -12.73 33.94 -12.72 33.96 -12.70046 33.98593 C -12.68 34.01 -12.67 34.04 -12.65213 34.06246 Z" />
    <path d="M -10.43192 39.57774 Q -10.37 39.86 -10.97782 39.02814 L -11.31124 39.1484" />
    <path d="M -10.97782 39.02814 Q -11.47 38.36 -11.04895 38.92861" />
    <path d="M -12.00085 36.57917 Q -12.09 36.51 -12.08629 35.66947 L -12.41971 35.78973" />
    <path d="M -12.08629 35.66947 L -12.08629 35.55102 L -12.41971 35.67128" />
    <path d="M -12.08629 35.55102 Q -12.09 34.99 -11.94885 34.73653 L -12.28227 34.85679" />
    <path d="M -11.94885 34.73653 Q -11.81 34.48 -11.91671 34.68403" />
    <path d="M -10.37631 38.07714 L -10.75571 37.56073" />
    <path d="M -11.69873 36.32169 L -12.00627 36.43262" />
    <path d="M -9.44956 38.192 L -9.48987 38.20654" />
    <path d="M -7.92495 40.18478 L -8.08193 40.2414" />
    <path d="M -6.50192 45.05087 L -6.58194 44.94194 L -6.58194 42.45455 L -6.91536 42.57481" />
    <path d="M -6.58194 44.94194 L -6.91536 45.0622" />
    <path d="M -6.58194 42.45455 Q -6.58 42.05 -6.58697 42.2899" />
    <path d="M -7.25632 40.76062 Q -7.33 40.63 -7.48034 40.6412 L -7.81375 40.76146" />
    <path d="M -7.48034 40.6412 Q -7.63 40.65 -7.51744 40.64846 L -7.85086 40.76873" />
    <path d="M -7.51744 40.64846 Q -7.63 40.65 -7.5503 40.66644" />
    <path d="M -7.9903 43.02494 L -8.07256 42.91297 L -8.07256 40.443 L -8.40598 40.56326" />
    <path d="M -8.07256 42.91297 L -8.40598 43.03323" />
    <path d="M -8.07256 40.443 Q -8.07 39.62 -8.08051 40.24089" />
    <path d="M -8.75861 38.71428 Q -9 38.36 -9.03807 38.58099 L -9.37149 38.70125" />
    <path d="M -9.47869 40.99901 L -9.55872 40.89009 L -9.55872 37.69477" />
    <path d="M -9.55872 40.89009 L -9.89213 41.01035" />
    <path d="M -4.22017 48.15668 L -4.31584 48.02646 L -4.31584 43.52823" />
    <path d="M -4.31584 48.02646 L -4.64926 48.14672" />
    <path d="M -18.39784 28.85866 L -18.49574 28.7254 L -18.49574 24.22717" />
    <path d="M -18.49574 28.7254 L -18.82916 28.84566" />
    <path d="M -16.20729 29.96609 L -16.20729 29.9208 L -16.54071 30.04106" />
    <path d="M -16.20729 29.9208 Q -16.21 29.37 -16.06761 29.11457 L -16.40103 29.23483" />
    <path d="M -16.06761 29.11457 Q -15.93 28.86 -16.04089 29.07097" />
    <path d="M -14.50087 33.96181 Q -14.28 34.05 -14.52783 33.95216 L -14.86124 34.07243" />
    <path d="M -14.52783 33.95216 Q -14.78 33.85 -15.10553 33.40969 L -15.43894 33.52995" />
    <path d="M -15.10553 33.40969 Q -15.6 32.74 -15.2185 33.24855" />
    <path d="M -16.11717 30.9412 Q -16.21 30.84 -16.20729 29.96609 L -16.54071 30.08635" />
    <path d="M -12.65213 33.47941 Q -12.93 33.09 -12.96663 33.30601 L -13.30004 33.42627" />
    <path d="M -13.4075 35.6513 L -13.48752 35.54237 L -13.48752 32.34706" />
    <path d="M -13.48752 35.54237 L -13.82094 35.66263" />
    <path d="M -13.22826 32.8191 L -13.41197 32.88537" />
    <path d="M -11.23284 35.35614 Q -11.28 35.24 -11.44937 35.29098 L -11.78279 35.41125 C -11.78 35.41 -11.77 35.41 -11.7621 35.40633 C -11.76 35.41 -11.75 35.4 -11.74063 35.40425 C -11.73 35.4 -11.73 35.4 -11.71839 35.40507 C -11.71 35.41 -11.7 35.41 -11.69539 35.40887 C -11.69 35.41 -11.68 35.41 -11.67164 35.41569 C -11.66 35.42 -11.66 35.42 -11.64718 35.42558 C -11.64 35.43 -11.63 35.43 -11.62201 35.43854 C -11.62 35.44 -11.61 35.44 -11.60918 35.44618 C -11.6 35.45 -11.6 35.45 -11.59618 35.45459 C -11.59 35.46 -11.58 35.47 -11.56883 35.47439 C -11.56 35.48 -11.55 35.49 -11.54085 35.49743 C -11.53 35.51 -11.52 35.51 -11.5123 35.52365 C -11.5 35.53 -11.49 35.54 -11.48322 35.55296 C -11.47 35.56 -11.46 35.57 -11.45366 35.58529 C -11.44 35.6 -11.43 35.61 -11.42368 35.62052 C -11.41 35.63 -11.4 35.65 -11.39332 35.65853 C -11.38 35.67 -11.37 35.69 -11.36264 35.6992 C -11.35 35.71 -11.34 35.73 -11.33443 35.73841 C -11.33 35.75 -11.32 35.77 -11.30655 35.77887 C -11.3 35.79 -11.29 35.81 -11.27902 35.82056 C -11.27 35.83 -11.26 35.85 -11.25188 35.86351 C -11.24 35.88 -11.23 35.89 -11.22653 35.90542 C -11.22 35.92 -11.21 35.93 -11.20162 35.94842 C -11.19 35.96 -11.19 35.98 -11.17718 35.9925 C -11.17 36.01 -11.16 36.02 -11.15325 36.03762 C -11.15 36.05 -11.14 36.07 -11.12988 36.08375 C -11.12 36.1 -11.11 36.11 -11.10709 36.13084 C -11.1 36.15 -11.09 36.16 -11.08492 36.17884 C -11.08 36.19 -11.07 36.21 -11.06341 36.22769 C -11.06 36.24 -11.05 36.25 -11.04803 36.26414 C -11.04 36.28 -11.04 36.29 -11.03302 36.30098 C -11.03 36.31 -11.02 36.33 -11.01841 36.33819 C -11.01 36.35 -11.01 36.36 -11.00419 36.37576 C -10.99 36.4 -10.99 36.43 -10.97699 36.45181 C -10.97 36.48 -10.96 36.5 -10.95143 36.52891 C -10.94 36.55 -10.94 36.57 -10.93247 36.5903 C -10.93 36.61 -10.92 36.63 -10.91469 36.65176 C -10.91 36.67 -10.9 36.69 -10.89809 36.7132 C -10.89 36.73 -10.89 36.75 -10.88267 36.77454 C -10.88 36.79 -10.87 36.82 -10.86843 36.8357 C -10.86 36.86 -10.86 36.88 -10.85536 36.89661 C -10.85 36.92 -10.85 36.94 -10.84344 36.9572 C -10.84 36.98 -10.84 37 -10.83265 37.01741 C -10.83 37.04 -10.83 37.06 -10.82213 37.08261 C -10.82 37.1 -10.82 37.13 -10.81289 37.14724 C -10.81 37.17 -10.81 37.19 -10.80487 37.21126 C -10.8 37.23 -10.8 37.25 -10.79803 37.27465 C -10.8 37.3 -10.79 37.32 -10.79234 37.33736 C -10.79 37.36 -10.79 37.38 -10.78773 37.39938 C -10.79 37.42 -10.79 37.44 -10.78416 37.46069 C -10.78 37.48 -10.78 37.5 -10.78159 37.52129 L -10.78159 37.57007 L -11.99286 35.92134 C -11.99 35.9 -11.99 35.89 -11.98763 35.86852 C -11.99 35.85 -11.98 35.83 -11.98139 35.81779 C -11.98 35.8 -11.98 35.79 -11.97409 35.76929 C -11.97 35.75 -11.97 35.74 -11.96569 35.72314 C -11.96 35.71 -11.96 35.69 -11.95615 35.6795 C -11.95 35.67 -11.95 35.65 -11.94541 35.63852 C -11.94 35.63 -11.94 35.61 -11.93345 35.60035 C -11.93 35.59 -11.92 35.58 -11.92023 35.56514 C -11.92 35.56 -11.91 35.55 -11.90751 35.53672 C -11.9 35.53 -11.9 35.52 -11.89377 35.51082 C -11.89 35.5 -11.88 35.49 -11.87899 35.48753 C -11.87 35.48 -11.87 35.47 -11.86315 35.46696 C -11.86 35.46 -11.85 35.45 -11.84624 35.44918 C -11.84 35.44 -11.83 35.44 -11.82828 35.43429 C -11.82 35.43 -11.82 35.43 -11.80924 35.42233 C -11.8 35.42 -11.8 35.42 -11.78915 35.41338 Q -11.79 35.41 -11.78279 35.41125" />
    <path d="M -11.44937 35.29098 Q -11.62 35.34 -11.45574 35.29312 L -11.78915 35.41338" />
    <path d="M -11.45574 35.29312 Q -11.62 35.34 -11.46201 35.29554" />
    <path d="M -10.44817 37.4498 L -10.44817 37.4148" />
    <path d="M -14.64643 33.20212 Q -14.79 33.31 -14.60493 33.18008 L -14.93834 33.30034 C -14.94 33.31 -14.95 33.31 -14.95859 33.31293 C -14.97 33.32 -14.97 33.32 -14.97985 33.32238 C -14.99 33.32 -14.99 33.33 -14.99814 33.32774 C -15 33.33 -15.01 33.33 -15.0146 33.33055 C -15.02 33.33 -15.03 33.33 -15.03158 33.3316 C -15.04 33.33 -15.04 33.33 -15.04907 33.33085 C -15.05 33.33 -15.06 33.33 -15.06706 33.32829 C -15.07 33.33 -15.08 33.33 -15.08554 33.32389 C -15.09 33.32 -15.1 33.32 -15.1045 33.31763 C -15.11 33.32 -15.12 33.31 -15.12393 33.30951 C -15.13 33.31 -15.14 33.3 -15.1438 33.29953 C -15.15 33.3 -15.16 33.29 -15.16613 33.28642 C -15.17 33.28 -15.18 33.28 -15.18894 33.2711 C -15.2 33.27 -15.2 33.26 -15.21222 33.25359 C -15.22 33.25 -15.23 33.24 -15.23592 33.23392 C -15.24 33.23 -15.25 33.22 -15.26002 33.21216 C -15.27 33.2 -15.28 33.2 -15.28449 33.18834 C -15.29 33.18 -15.3 33.17 -15.30928 33.16255 C -15.32 33.15 -15.33 33.14 -15.33438 33.13484 C -15.34 33.13 -15.35 33.12 -15.36018 33.10476 C -15.37 33.09 -15.38 33.08 -15.38623 33.07286 C -15.39 33.06 -15.4 33.05 -15.41249 33.03921 C -15.42 33.03 -15.43 33.02 -15.43894 33.0039 C -15.45 32.99 -15.46 32.98 -15.46522 32.96746 C -15.47 32.96 -15.48 32.94 -15.49131 32.92987 C -15.5 32.92 -15.51 32.9 -15.51719 32.89113 C -15.53 32.88 -15.53 32.86 -15.54284 32.85125 C -15.55 32.84 -15.56 32.82 -15.56781 32.8109 C -15.58 32.8 -15.58 32.78 -15.59249 32.76945 C -15.6 32.76 -15.61 32.74 -15.61684 32.72694 C -15.62 32.71 -15.63 32.7 -15.64084 32.68338 C -15.65 32.67 -15.66 32.65 -15.66445 32.63881 C -15.67 32.62 -15.68 32.61 -15.68765 32.59327 C -15.7 32.58 -15.7 32.56 -15.71039 32.5468 C -15.72 32.53 -15.73 32.52 -15.73266 32.49945 C -15.74 32.48 -15.75 32.46 -15.7617 32.43471 C -15.77 32.41 -15.78 32.39 -15.78978 32.36863 C -15.8 32.35 -15.81 32.32 -15.81685 32.30135 C -15.83 32.28 -15.83 32.26 -15.84288 32.23302 C -15.85 32.21 -15.86 32.19 -15.8685 32.16187 C -15.88 32.14 -15.89 32.11 -15.89297 32.08993 C -15.9 32.07 -15.91 32.04 -15.91628 32.01736 C -15.92 31.99 -15.93 31.97 -15.93842 31.9443 C -15.94 31.93 -15.95 31.91 -15.95477 31.88754 C -15.96 31.87 -15.97 31.85 -15.97033 31.83092 C -15.98 31.81 -15.98 31.79 -15.98511 31.77448 C -15.99 31.76 -15.99 31.74 -15.9991 31.71827 C -16 31.7 -16.01 31.68 -16.01229 31.66232 C -16.02 31.64 -16.02 31.63 -16.0247 31.60668 C -16.03 31.59 -16.03 31.57 -16.03632 31.55138 C -16.04 31.53 -16.04 31.51 -16.04716 31.49646 C -16.05 31.48 -16.05 31.46 -16.05723 31.44189 C -16.06 31.42 -16.06 31.41 -16.06654 31.38775 C -16.07 31.37 -16.07 31.35 -16.07509 31.33408 C -16.08 31.32 -16.08 31.3 -16.08291 31.28088 C -16.09 31.26 -16.09 31.25 -16.09 31.22817 C -16.09 31.21 -16.09 31.19 -16.09638 31.17598 C -16.1 31.16 -16.1 31.14 -16.10206 31.1243 C -16.1 31.11 -16.11 31.09 -16.10708 31.07315 C -16.11 31.06 -16.11 31.04 -16.11143 31.02254 C -16.11 31.01 -16.11 30.99 -16.11515 30.97246 C -16.12 30.96 -16.12 30.94 -16.11824 30.92294 C -16.12 30.91 -16.12 30.89 -16.12073 30.87396 C -16.12 30.86 -16.12 30.84 -16.12264 30.82553 C -16.12 30.81 -16.12 30.79 -16.12398 30.77765 C -16.12 30.76 -16.12 30.75 -16.12477 30.7303 C -16.12 30.71 -16.13 30.7 -16.12503 30.6835 C -16.13 30.67 -16.12 30.66 -16.12488 30.64394 C -16.12 30.63 -16.12 30.62 -16.12442 30.60492 C -16.12 30.59 -16.12 30.58 -16.12365 30.56645 C -16.12 30.55 -16.12 30.54 -16.12255 30.52857 C -16.12 30.52 -16.12 30.5 -16.12111 30.49128 C -16.12 30.48 -16.12 30.47 -16.11932 30.45463 C -16.12 30.44 -16.12 30.43 -16.11718 30.41863 C -16.12 30.41 -16.12 30.39 -16.11466 30.38332 C -16.11 30.37 -16.11 30.36 -16.11177 30.34874 C -16.11 30.34 -16.11 30.33 -16.10848 30.3149 C -16.11 30.29 -16.1 30.27 -16.10067 30.24961 C -16.1 30.23 -16.09 30.21 -16.09113 30.18773 C -16.09 30.17 -16.08 30.15 -16.07977 30.12958 C -16.08 30.11 -16.07 30.1 -16.06765 30.07974 C -16.06 30.06 -16.06 30.05 -16.05384 30.03358 C -16.05 30.02 -16.04 30 -16.03826 29.99135 C -16.03 29.98 -16.03 29.97 -16.02084 29.95335 C -16.02 29.94 -16.01 29.93 -16.00258 29.92144 C -16 29.92 -16 29.91 -15.9928 29.90707 C -15.99 29.9 -15.99 29.9 -15.98258 29.8938 C -15.98 29.89 -15.98 29.89 -15.97192 29.88164 C -15.97 29.88 -15.96 29.87 -15.96082 29.87062 C -15.96 29.87 -15.95 29.86 -15.94929 29.86077 C -15.95 29.86 -15.94 29.85 -15.93731 29.8521 C -15.93 29.85 -15.93 29.84 -15.91896 29.84139 C -15.91 29.84 -15.91 29.84 -15.89986 29.83312 C -15.9 29.83 -15.89 29.83 -15.88638 29.82891 C -15.88 29.83 -15.88 29.83 -15.87255 29.82591 C -15.87 29.82 -15.86 29.82 -15.85494 29.82388 C -15.85 29.82 -15.84 29.82 -15.83678 29.82377 C -15.83 29.82 -15.82 29.82 -15.81809 29.82561 C -15.81 29.83 -15.81 29.83 -15.79887 29.82943 C -15.79 29.83 -15.79 29.83 -15.77914 29.83526 C -15.77 29.84 -15.77 29.84 -15.75891 29.84311 C -15.75 29.85 -15.75 29.85 -15.73819 29.85299 C -15.73 29.86 -15.72 29.86 -15.717 29.8649 C -15.71 29.87 -15.71 29.87 -15.70151 29.87471 C -15.7 29.88 -15.69 29.88 -15.68579 29.88555 C -15.68 29.89 -15.68 29.89 -15.66987 29.89742 C -15.66 29.9 -15.66 29.91 -15.65374 29.91031 C -15.65 29.91 -15.64 29.92 -15.63743 29.92421 C -15.63 29.93 -15.63 29.93 -15.62093 29.93909 C -15.62 29.94 -15.61 29.95 -15.60426 29.95495 C -15.6 29.96 -15.59 29.97 -15.58743 29.97177 C -15.58 29.98 -15.56 30 -15.55217 30.00948 C -15.54 30.02 -15.53 30.04 -15.51636 30.051 C -15.5 30.07 -15.49 30.08 -15.48008 30.09612 C -15.47 30.11 -15.46 30.13 -15.44341 30.14463 C -15.43 30.16 -15.43 30.17 -15.41802 30.17984 C -15.41 30.19 -15.4 30.2 -15.3928 30.21613 C -15.38 30.23 -15.38 30.24 -15.36777 30.25351 C -15.36 30.27 -15.35 30.28 -15.34296 30.29198 C -15.33 30.3 -15.33 30.32 -15.31863 30.33113 C -15.31 30.34 -15.3 30.36 -15.29458 30.37133 C -15.29 30.38 -15.28 30.4 -15.27082 30.41256 C -15.26 30.43 -15.26 30.44 -15.2474 30.45479 C -15.24 30.47 -15.23 30.48 -15.22433 30.49799 C -15.22 30.51 -15.21 30.53 -15.20164 30.54214 C -15.19 30.56 -15.19 30.57 -15.17937 30.58719 C -15.17 30.6 -15.16 30.62 -15.15754 30.63309 C -15.15 30.65 -15.14 30.66 -15.13674 30.67854 C -15.13 30.69 -15.12 30.71 -15.1164 30.7247 C -15.11 30.74 -15.1 30.76 -15.09654 30.77153 C -15.09 30.79 -15.08 30.8 -15.07717 30.81897 C -15.07 30.83 -15.06 30.85 -15.05831 30.86698 C -15.05 30.88 -15.05 30.9 -15.03997 30.91549 C -15.03 30.93 -15.03 30.95 -15.02216 30.96445 C -15.02 30.98 -15.01 31 -15.00488 31.01381 C -15 31.03 -14.99 31.05 -14.98829 31.06309 C -14.98 31.08 -14.98 31.1 -14.97223 31.11266 C -14.97 31.13 -14.96 31.15 -14.9567 31.16248 C -14.95 31.18 -14.95 31.2 -14.9417 31.2125 C -14.94 31.23 -14.93 31.25 -14.92525 31.26966 C -14.92 31.29 -14.91 31.31 -14.90956 31.32665 C -14.9 31.35 -14.9 31.36 -14.89466 31.38345 C -14.89 31.4 -14.89 31.42 -14.88054 31.44 C -14.88 31.46 -14.87 31.48 -14.8672 31.49627 C -14.86 31.51 -14.86 31.53 -14.85465 31.55222 C -14.85 31.57 -14.85 31.59 -14.84289 31.60782 C -14.84 31.63 -14.84 31.64 -14.83191 31.66302 C -14.83 31.68 -14.82 31.7 -14.82173 31.71761 C -14.82 31.74 -14.82 31.75 -14.81232 31.77175 C -14.81 31.79 -14.81 31.81 -14.80366 31.82542 C -14.8 31.84 -14.8 31.86 -14.79574 31.8786 C -14.79 31.9 -14.79 31.91 -14.78855 31.93128 C -14.79 31.95 -14.78 31.97 -14.78207 31.98344 C -14.78 32 -14.78 32.02 -14.77628 32.03506 C -14.77 32.05 -14.77 32.07 -14.77118 32.08614 C -14.77 32.1 -14.77 32.12 -14.76674 32.13666 C -14.77 32.15 -14.76 32.17 -14.76295 32.18663 C -14.76 32.2 -14.76 32.22 -14.75979 32.23604 C -14.76 32.25 -14.76 32.27 -14.75725 32.28488 C -14.76 32.3 -14.76 32.32 -14.7553 32.33316 C -14.75 32.35 -14.75 32.37 -14.75393 32.38087 C -14.75 32.4 -14.75 32.41 -14.75312 32.42802 C -14.75 32.44 -14.75 32.46 -14.75285 32.4746 C -14.75 32.5 -14.75 32.53 -14.75343 32.5504 C -14.75 32.58 -14.75 32.6 -14.75522 32.62408 C -14.76 32.65 -14.76 32.67 -14.75829 32.69548 C -14.76 32.72 -14.76 32.74 -14.76271 32.76441 C -14.76 32.79 -14.77 32.81 -14.76857 32.83065 C -14.77 32.85 -14.77 32.87 -14.77594 32.89398 C -14.78 32.91 -14.78 32.93 -14.78492 32.95416 C -14.79 32.97 -14.79 32.99 -14.79559 33.01093 C -14.8 33.03 -14.8 33.05 -14.80767 33.06262 C -14.81 33.08 -14.82 33.1 -14.8215 33.11056 C -14.83 33.13 -14.83 33.14 -14.83716 33.15447 C -14.84 33.17 -14.85 33.18 -14.8547 33.1941 C -14.86 33.21 -14.87 33.22 -14.87297 33.22722 C -14.88 33.23 -14.88 33.24 -14.88276 33.24219 C -14.89 33.25 -14.89 33.25 -14.89299 33.25609 C -14.9 33.26 -14.9 33.26 -14.90366 33.26887 C -14.91 33.27 -14.91 33.28 -14.91478 33.28052 C -14.92 33.28 -14.92 33.29 -14.92634 33.29102 C -14.93 33.29 -14.93 33.3 -14.93834 33.30034" />
    <path d="M -14.60493 33.18008 Q -14.42 33.05 -14.41944 32.35434 L -14.75285 32.4746" />
    <path d="M -14.41944 32.35434 Q -14.42 31.73 -14.42728 32.10064" />
    <path d="M -15.32221 29.7885 Q -15.42 29.61 -15.56644 29.71286 L -15.89986 29.83312" />
    <path d="M -10.44817 37.4498 L -10.78159 37.57007" />
    <path d="M -10.45035 37.40182 L -10.78159 37.52129" />
    <path d="M -0.56481 28.19089 L -0.35347 28.05689" />
    <path d="M -24.36469 -32.31687 L -24.57603 -33.02619" />
    <path d="M -47.44723 -35.62342 L -47.65857 -36.33275" />
    <path d="M -3.82527 40.87839 L -4.4921 41.11891" />
    <path d="M -11.84557 37.46014 L -12.1113 37.55598" />
    <path d="M -6.75384 41.70818 L -7.0338 41.80916" />
    <path d="M -7.12567 40.95704 L -7.4316 41.06738" />
    <path d="M -8.61413 38.92728 L -8.92222 39.03841" />
    <path d="M -15.97377 31.81803 L -16.23565 31.91249" />
    <path d="M -12.65213 33.6879 L -12.8555 33.76125" />
    <path d="M -36.84761 -10.02766 L -37.51444 -9.78714" />
    <path d="M -11.08362 35.59856 L -11.36264 35.6992" />
    <path d="M -10.70051 36.4384 L -10.95143 36.52891" />
    <path d="M -14.68298 31.11919 L -14.9417 31.2125" />
    <path d="M -15.1638 30.04378 L -15.44341 30.14463" />
    <path d="M -23.0824 -32.63968 L -23.29374 -32.50568" />
    <path d="M 47.30496 11.90449 L 47.09362 12.03849" />
    <path d="M -47.72782 -36.36791 L -47.51649 -35.65858" />
    <path d="M 23.50527 -50.30866 L 23.7166 -49.59933" />
    <path d="M -1.61041 79.93576 L -1.95367 79.46852" />
    <path d="M -45.54865 20.12893 L -45.89192 19.66169" />
    <path d="M -4.15281 72.95285 L -3.48597 72.71233" />
    <path d="M -10.64949 39.01747 L -10.70295 39.03676" />
    <path d="M -14.64643 33.20212 L -14.97985 33.32238" />
</svg>