<svg version="1.1" xmlns="http://www.w3.org/2000/svg" viewBox="-75.45207051534197 -1.6205925554034213 126.37958732568202 3.394521088112364" fill="none" stroke="black" stroke-width="0.6%" vector-effect="non-scaling-stroke">
    <path d="M -74.09745 0.44539 L -0.76697 0.77268 A 1 0.00528 180 0 0 0.60024 0.7723 L 0.64227 0.77205 L 49.69137 0.46538 L 49.76624 0.46485 A 1 0.00528 180 0 0 49.92752 0.46197" />
    <path d="M -74.09745 -0.3046 L -0.76697 0.02269 A 1 0.00528 180 0 0 0.60024 0.02231 L 0.64227 0.02206 L 49.69137 -0.28461 L 49.76624 -0.28514 A 1 0.00528 180 0 0 49.92752 -0.28802 A 1 0.00528 180 0 0 49.90668 -0.28909 L 37.77101 -0.60593 A 1 0.00528 180 0 0 36.7972 -0.61028 L -24.36495 -0.62059 A 1 0.00528 180 0 0 -25.12479 -0.61896 L -25.16682 -0.61872 L -74.21593 -0.31205 L -74.29079 -0.31151 A 1 0.00528 180 0 0 -74.45207 -0.30864 A 1 0.00528 180 0 0 -74.09745 -0.3046 Z" />
    <path d="M -74.45207 0.44135 A 1 0.00528 180 0 0 -74.09745 0.44539 L -74.09745 -0.3046" />
    <path d="M 0.60024 0.7723 L 0.60024 0.02231" />
    <path d="M 9.47304 -0.22206 L 9.19704 -0.2233 L 7.26089 -0.21119 L 7.53689 -0.20996 L 9.47304 -0.22206 Z" />
    <path d="M 6.8694 -0.22064 C 6.88 -0.22 6.9 -0.22 6.91341 -0.22045 C 6.93 -0.22 6.94 -0.22 6.95781 -0.22026 C 6.97 -0.22 6.99 -0.22 7.00258 -0.22009 C 7.02 -0.22 7.03 -0.22 7.0477 -0.21993 C 7.06 -0.22 7.08 -0.22 7.09316 -0.21978 C 7.11 -0.22 7.12 -0.22 7.13893 -0.21965 C 7.15 -0.22 7.17 -0.22 7.18498 -0.21952 C 7.2 -0.22 7.22 -0.22 7.23128 -0.21941 C 7.25 -0.22 7.26 -0.22 7.27461 -0.21931 C 7.29 -0.22 7.3 -0.22 7.31809 -0.21923 C 7.33 -0.22 7.35 -0.22 7.36169 -0.21916 C 7.38 -0.22 7.39 -0.22 7.40536 -0.21911 C 7.42 -0.22 7.43 -0.22 7.44906 -0.21906 C 7.46 -0.22 7.48 -0.22 7.49275 -0.21903 C 7.51 -0.22 7.52 -0.22 7.53638 -0.21902 C 7.55 -0.22 7.57 -0.22 7.57991 -0.21901 C 7.61 -0.22 7.63 -0.22 7.65942 -0.21904 C 7.69 -0.22 7.71 -0.22 7.73717 -0.21911 C 7.75 -0.22 7.76 -0.22 7.7688 -0.21916 C 7.78 -0.22 7.79 -0.22 7.80006 -0.21921 C 7.81 -0.22 7.82 -0.22 7.83091 -0.21927 C 7.84 -0.22 7.85 -0.22 7.86134 -0.21934 C 7.87 -0.22 7.88 -0.22 7.89133 -0.21941 C 7.9 -0.22 7.91 -0.22 7.92087 -0.2195 C 7.93 -0.22 7.94 -0.22 7.94995 -0.21959 C 7.96 -0.22 7.97 -0.22 7.97854 -0.21968 C 7.99 -0.22 8 -0.22 8.00664 -0.21979 C 8.02 -0.22 8.03 -0.22 8.03425 -0.2199 C 8.04 -0.22 8.05 -0.22 8.06135 -0.22002 C 8.07 -0.22 8.08 -0.22 8.08794 -0.22014 C 8.11 -0.22 8.12 -0.22 8.13958 -0.22041 C 8.16 -0.22 8.17 -0.22 8.18914 -0.2207 C 8.2 -0.22 8.21 -0.22 8.22708 -0.22095 C 8.24 -0.22 8.25 -0.22 8.26164 -0.22121 C 8.27 -0.22 8.28 -0.22 8.29267 -0.22147 C 8.3 -0.22 8.31 -0.22 8.32003 -0.22174 C 8.33 -0.22 8.34 -0.22 8.34359 -0.22202 C 8.35 -0.22 8.35 -0.22 8.35392 -0.22215 C 8.36 -0.22 8.36 -0.22 8.36325 -0.22229 C 8.37 -0.22 8.37 -0.22 8.3716 -0.22244 C 8.37 -0.22 8.38 -0.22 8.37893 -0.22258 C 8.38 -0.22 8.38 -0.22 8.38526 -0.22272 C 8.39 -0.22 8.39 -0.22 8.39057 -0.22287 C 8.39 -0.22 8.39 -0.22 8.39553 -0.22304 C 8.4 -0.22 8.4 -0.22 8.39907 -0.22321 C 8.4 -0.22 8.4 -0.22 8.40119 -0.22339 C 8.4 -0.22 8.4 -0.22 8.40189 -0.22356 C 8.4 -0.22 8.4 -0.22 8.4014 -0.22371 C 8.4 -0.22 8.4 -0.22 8.39994 -0.22385 C 8.4 -0.22 8.4 -0.22 8.39752 -0.224 C 8.4 -0.22 8.4 -0.22 8.39414 -0.22415 C 8.39 -0.22 8.39 -0.22 8.39049 -0.22428 C 8.39 -0.22 8.39 -0.22 8.38215 -0.2245 C 8.38 -0.22 8.38 -0.22 8.37152 -0.22473 C 8.37 -0.22 8.36 -0.22 8.35862 -0.22495 C 8.35 -0.23 8.35 -0.23 8.34348 -0.22517 C 8.34 -0.23 8.33 -0.23 8.32613 -0.22538 C 8.32 -0.23 8.31 -0.23 8.30662 -0.22559 C 8.3 -0.23 8.29 -0.23 8.285 -0.2258 C 8.28 -0.23 8.27 -0.23 8.26133 -0.22601 C 8.25 -0.23 8.24 -0.23 8.23424 -0.22622 C 8.22 -0.23 8.22 -0.23 8.20501 -0.22643 C 8.19 -0.23 8.18 -0.23 8.17372 -0.22664 C 8.16 -0.23 8.15 -0.23 8.14045 -0.22684 C 8.12 -0.23 8.09 -0.23 8.0683 -0.22723 C 8.06 -0.23 8.04 -0.23 8.02957 -0.22742 C 8.02 -0.23 8 -0.23 7.9892 -0.22761 L 7.18804 -0.23118 L 5.35273 -0.21971 L 5.63918 -0.21843 L 6.35767 -0.22292 L 6.8694 -0.22064 Z" />
    <path d="M 12.99992 -0.20632 L 11.06377 -0.19422 L 11.33978 -0.19298 L 12.31163 -0.19906 C 12.33 -0.2 12.35 -0.2 12.36348 -0.19917 C 12.38 -0.2 12.4 -0.2 12.41581 -0.19925 C 12.43 -0.2 12.45 -0.2 12.46861 -0.19931 C 12.49 -0.2 12.5 -0.2 12.52183 -0.19935 C 12.56 -0.2 12.59 -0.2 12.6286 -0.19935 C 12.64 -0.2 12.66 -0.2 12.67512 -0.19932 C 12.69 -0.2 12.71 -0.2 12.72051 -0.19926 C 12.74 -0.2 12.76 -0.2 12.77436 -0.19916 C 12.79 -0.2 12.81 -0.2 12.8264 -0.19903 C 12.84 -0.2 12.86 -0.2 12.87657 -0.19887 C 12.89 -0.2 12.91 -0.2 12.92483 -0.19867 C 12.94 -0.2 12.95 -0.2 12.96291 -0.19849 C 12.97 -0.2 12.99 -0.2 12.99657 -0.19831 C 13.01 -0.2 13.02 -0.2 13.02565 -0.19812 C 13.03 -0.2 13.03 -0.2 13.03843 -0.19803 C 13.04 -0.2 13.05 -0.2 13.05001 -0.19793 C 13.05 -0.2 13.06 -0.2 13.06038 -0.19783 C 13.06 -0.2 13.07 -0.2 13.06953 -0.19774 C 13.07 -0.2 13.08 -0.2 13.07744 -0.19764 C 13.08 -0.2 13.08 -0.2 13.0841 -0.19754 C 13.09 -0.2 13.09 -0.2 13.08952 -0.19744 C 13.09 -0.2 13.09 -0.2 13.09367 -0.19734 C 13.09 -0.2 13.1 -0.2 13.09655 -0.19724 C 13.1 -0.2 13.1 -0.2 13.09817 -0.19714 C 13.1 -0.2 13.1 -0.2 13.09856 -0.19706 C 13.1 -0.2 13.1 -0.2 13.09799 -0.19697 C 13.1 -0.2 13.1 -0.2 13.09631 -0.19687 C 13.1 -0.2 13.09 -0.2 13.0935 -0.19677 C 13.09 -0.2 13.09 -0.2 13.08959 -0.19667 C 13.09 -0.2 13.08 -0.2 13.07846 -0.19647 C 13.07 -0.2 13.07 -0.2 13.06299 -0.19627 C 13.06 -0.2 13.05 -0.2 13.04328 -0.19606 C 13.04 -0.2 13.03 -0.2 13.01945 -0.19585 C 13.01 -0.2 13 -0.2 12.99162 -0.19564 C 12.98 -0.2 12.97 -0.2 12.95991 -0.19542 L 12.05739 -0.18978 L 12.33339 -0.18855 L 13.23466 -0.19419 C 13.24 -0.19 13.25 -0.19 13.25977 -0.19435 C 13.27 -0.19 13.28 -0.19 13.28388 -0.19451 C 13.29 -0.19 13.3 -0.19 13.30694 -0.19468 C 13.31 -0.19 13.32 -0.19 13.32884 -0.19485 C 13.34 -0.19 13.34 -0.19 13.34953 -0.19502 C 13.36 -0.2 13.36 -0.2 13.3689 -0.19519 C 13.38 -0.2 13.38 -0.2 13.38687 -0.19537 C 13.39 -0.2 13.4 -0.2 13.40333 -0.19554 C 13.41 -0.2 13.42 -0.2 13.42883 -0.19586 C 13.43 -0.2 13.44 -0.2 13.43946 -0.19603 C 13.44 -0.2 13.45 -0.2 13.44859 -0.19619 C 13.45 -0.2 13.45 -0.2 13.45758 -0.19639 C 13.46 -0.2 13.46 -0.2 13.46412 -0.19658 C 13.46 -0.2 13.47 -0.2 13.46643 -0.19668 C 13.47 -0.2 13.47 -0.2 13.4681 -0.19678 C 13.47 -0.2 13.47 -0.2 13.4691 -0.19688 C 13.47 -0.2 13.47 -0.2 13.46944 -0.19698 C 13.47 -0.2 13.47 -0.2 13.46909 -0.19708 C 13.47 -0.2 13.47 -0.2 13.46803 -0.19718 C 13.47 -0.2 13.47 -0.2 13.46627 -0.19728 C 13.47 -0.2 13.46 -0.2 13.4638 -0.19738 C 13.46 -0.2 13.46 -0.2 13.4597 -0.19751 C 13.46 -0.2 13.46 -0.2 13.4545 -0.19763 C 13.45 -0.2 13.45 -0.2 13.4482 -0.19775 C 13.45 -0.2 13.44 -0.2 13.44082 -0.19787 C 13.44 -0.2 13.44 -0.2 13.43239 -0.19799 C 13.43 -0.2 13.43 -0.2 13.42292 -0.19811 C 13.42 -0.2 13.42 -0.2 13.41245 -0.19822 C 13.41 -0.2 13.4 -0.2 13.40099 -0.19834 C 13.39 -0.2 13.38 -0.2 13.37523 -0.19856 C 13.37 -0.2 13.36 -0.2 13.34596 -0.19878 C 13.34 -0.2 13.33 -0.2 13.31484 -0.19898 C 13.3 -0.2 13.29 -0.2 13.28103 -0.19917 C 13.27 -0.2 13.26 -0.2 13.24476 -0.19936 C 13.24 -0.2 13.23 -0.2 13.22578 -0.19945 C 13.22 -0.2 13.21 -0.2 13.20628 -0.19954 C 13.19 -0.2 13.18 -0.2 13.16881 -0.1997 C 13.16 -0.2 13.14 -0.2 13.1304 -0.19984 C 13.12 -0.2 13.1 -0.2 13.09106 -0.19998 C 13.08 -0.2 13.06 -0.2 13.05084 -0.2001 C 13.04 -0.2 13.02 -0.2 13.00974 -0.20021 C 13 -0.2 12.98 -0.2 12.96782 -0.2003 C 12.95 -0.2 12.94 -0.2 12.92512 -0.20038 C 12.91 -0.2 12.9 -0.2 12.88168 -0.20044 C 12.85 -0.2 12.83 -0.2 12.79852 -0.20053 C 12.77 -0.2 12.74 -0.2 12.71334 -0.20056 C 12.68 -0.2 12.66 -0.2 12.62655 -0.20054 C 12.6 -0.2 12.57 -0.2 12.53853 -0.20048 L 13.27593 -0.20509 L 12.99992 -0.20632 Z" />
    <path d="M 0.76207 -0.24386 L 1.38153 -0.25205 L 1.08016 -0.25339 L 0.30729 -0.24239 L 0.10747 -0.24179 C 0.08 -0.24 0.05 -0.24 0.02334 -0.24155 C 0.01 -0.24 0 -0.24 -0.01686 -0.24146 C -0.03 -0.24 -0.04 -0.24 -0.05574 -0.24138 C -0.07 -0.24 -0.08 -0.24 -0.09323 -0.24133 C -0.11 -0.24 -0.12 -0.24 -0.12927 -0.24129 C -0.14 -0.24 -0.15 -0.24 -0.16381 -0.24127 C -0.18 -0.24 -0.19 -0.24 -0.19679 -0.24127 C -0.22 -0.24 -0.24 -0.24 -0.26149 -0.24134 C -0.28 -0.24 -0.31 -0.24 -0.3276 -0.24147 C -0.35 -0.24 -0.37 -0.24 -0.39493 -0.24168 C -0.42 -0.24 -0.44 -0.24 -0.46326 -0.24195 L -0.53281 -0.24231 L -0.72189 -0.24113 L -0.63533 -0.24057 L -0.5869 -0.24031 C -0.58 -0.24 -0.57 -0.24 -0.56246 -0.24021 C -0.55 -0.24 -0.55 -0.24 -0.53738 -0.24011 C -0.53 -0.24 -0.52 -0.24 -0.51168 -0.24002 C -0.5 -0.24 -0.49 -0.24 -0.48538 -0.23994 C -0.48 -0.24 -0.47 -0.24 -0.45849 -0.23987 C -0.45 -0.24 -0.44 -0.24 -0.43104 -0.2398 C -0.42 -0.24 -0.41 -0.24 -0.40305 -0.23975 C -0.39 -0.24 -0.38 -0.24 -0.37456 -0.2397 C -0.36 -0.24 -0.34 -0.24 -0.3172 -0.23963 C -0.3 -0.24 -0.28 -0.24 -0.25829 -0.23959 C -0.24 -0.24 -0.22 -0.24 -0.19812 -0.23958 C -0.18 -0.24 -0.16 -0.24 -0.13698 -0.23961 C -0.13 -0.24 -0.12 -0.24 -0.10592 -0.23963 C -0.1 -0.24 -0.09 -0.24 -0.07471 -0.23966 C -0.06 -0.24 -0.05 -0.24 -0.04339 -0.2397 C -0.03 -0.24 -0.02 -0.24 -0.01198 -0.23975 C 0 -0.24 0.01 -0.24 0.01857 -0.2398 C 0.03 -0.24 0.04 -0.24 0.04916 -0.23985 C 0.06 -0.24 0.07 -0.24 0.07976 -0.23991 C 0.09 -0.24 0.1 -0.24 0.11035 -0.23998 C 0.12 -0.24 0.13 -0.24 0.14092 -0.24006 C 0.15 -0.24 0.16 -0.24 0.17145 -0.24013 C 0.18 -0.24 0.19 -0.24 0.20193 -0.24022 C 0.21 -0.24 0.22 -0.24 0.23234 -0.2403 L 2.45571 -0.24725 L 2.16031 -0.24857 L 0.76207 -0.24386 Z" />
    <path d="M -0.75068 -0.24695 L -0.46125 -0.24566 L -0.44108 -0.24578 C -0.44 -0.25 -0.43 -0.25 -0.42485 -0.24603 C -0.42 -0.25 -0.41 -0.25 -0.40433 -0.24628 C -0.4 -0.25 -0.39 -0.25 -0.37967 -0.24654 C -0.37 -0.25 -0.36 -0.25 -0.35099 -0.24681 C -0.34 -0.25 -0.33 -0.25 -0.31843 -0.24708 C -0.31 -0.25 -0.29 -0.25 -0.28215 -0.24735 C -0.26 -0.25 -0.23 -0.25 -0.19903 -0.2479 L 0.4287 -0.25183 C 0.44 -0.25 0.45 -0.25 0.46235 -0.25206 C 0.47 -0.25 0.48 -0.25 0.49249 -0.2523 C 0.5 -0.25 0.51 -0.25 0.51899 -0.25254 C 0.53 -0.25 0.53 -0.25 0.54173 -0.25279 C 0.55 -0.25 0.55 -0.25 0.56059 -0.25304 C 0.56 -0.25 0.57 -0.25 0.56854 -0.25317 C 0.57 -0.25 0.57 -0.25 0.57549 -0.25329 C 0.58 -0.25 0.58 -0.25 0.58143 -0.25342 C 0.58 -0.25 0.58 -0.25 0.58636 -0.25355 C 0.59 -0.25 0.59 -0.25 0.59027 -0.25368 C 0.59 -0.25 0.59 -0.25 0.59315 -0.25381 C 0.59 -0.25 0.59 -0.25 0.59522 -0.25396 C 0.6 -0.25 0.6 -0.25 0.59591 -0.25411 C 0.6 -0.25 0.6 -0.25 0.59422 -0.25435 C 0.59 -0.25 0.59 -0.25 0.58918 -0.25459 C 0.59 -0.25 0.59 -0.25 0.58307 -0.25477 C 0.58 -0.25 0.58 -0.25 0.57504 -0.25495 C 0.57 -0.26 0.57 -0.26 0.56509 -0.25513 C 0.56 -0.26 0.56 -0.26 0.55324 -0.25531 C 0.55 -0.26 0.54 -0.26 0.5395 -0.25549 C 0.53 -0.26 0.53 -0.26 0.52391 -0.25566 C 0.52 -0.26 0.51 -0.26 0.50649 -0.25583 C 0.5 -0.26 0.49 -0.26 0.48729 -0.256 C 0.48 -0.26 0.47 -0.26 0.46595 -0.25617 C 0.46 -0.26 0.45 -0.26 0.44285 -0.25633 C 0.43 -0.26 0.43 -0.26 0.41803 -0.2565 C 0.41 -0.26 0.4 -0.26 0.39154 -0.25666 C 0.37 -0.26 0.35 -0.26 0.33375 -0.25697 C 0.31 -0.26 0.29 -0.26 0.2699 -0.25728 C 0.26 -0.26 0.24 -0.26 0.22584 -0.25746 C 0.21 -0.26 0.2 -0.26 0.18082 -0.25764 C 0.17 -0.26 0.15 -0.26 0.13485 -0.2578 C 0.12 -0.26 0.1 -0.26 0.08796 -0.25794 C 0.07 -0.26 0.06 -0.26 0.04015 -0.25807 C 0.02 -0.26 0.01 -0.26 -0.00855 -0.25819 C -0.02 -0.26 -0.04 -0.26 -0.05813 -0.25829 C -0.07 -0.26 -0.09 -0.26 -0.10856 -0.25837 C -0.14 -0.26 -0.17 -0.26 -0.20768 -0.25849 C -0.24 -0.26 -0.27 -0.26 -0.30477 -0.25855 C -0.34 -0.26 -0.37 -0.26 -0.3996 -0.25854 C -0.43 -0.26 -0.46 -0.26 -0.49193 -0.25847 C -0.5 -0.26 -0.52 -0.26 -0.52988 -0.25842 C -0.54 -0.26 -0.55 -0.26 -0.56614 -0.25836 C -0.58 -0.26 -0.59 -0.26 -0.60067 -0.25829 C -0.61 -0.26 -0.62 -0.26 -0.63345 -0.25821 C -0.64 -0.26 -0.65 -0.26 -0.66444 -0.25812 C -0.67 -0.26 -0.68 -0.26 -0.69361 -0.25801 C -0.7 -0.26 -0.71 -0.26 -0.72095 -0.2579 C -0.73 -0.26 -0.74 -0.26 -0.74643 -0.25778 C -0.76 -0.26 -0.77 -0.26 -0.77498 -0.25762 L -0.49749 -0.25638 C -0.49 -0.26 -0.49 -0.26 -0.48353 -0.25646 C -0.48 -0.26 -0.47 -0.26 -0.46871 -0.25654 C -0.46 -0.26 -0.46 -0.26 -0.45303 -0.2566 C -0.45 -0.26 -0.44 -0.26 -0.43651 -0.25666 C -0.43 -0.26 -0.42 -0.26 -0.41636 -0.25672 C -0.41 -0.26 -0.4 -0.26 -0.3951 -0.25678 C -0.39 -0.26 -0.38 -0.26 -0.37273 -0.25682 C -0.37 -0.26 -0.36 -0.26 -0.34928 -0.25685 C -0.34 -0.26 -0.33 -0.26 -0.32476 -0.25687 C -0.32 -0.26 -0.31 -0.26 -0.29919 -0.25689 C -0.29 -0.26 -0.28 -0.26 -0.2726 -0.25689 C -0.26 -0.26 -0.25 -0.26 -0.24501 -0.25689 C -0.23 -0.26 -0.22 -0.26 -0.21192 -0.25687 C -0.2 -0.26 -0.19 -0.26 -0.17564 -0.25684 C -0.16 -0.26 -0.15 -0.26 -0.13978 -0.25679 C -0.13 -0.26 -0.12 -0.26 -0.10434 -0.25672 C -0.09 -0.26 -0.08 -0.26 -0.06937 -0.25664 C -0.06 -0.26 -0.05 -0.26 -0.03486 -0.25655 C -0.02 -0.26 -0.01 -0.26 -0.00084 -0.25644 C 0.01 -0.26 0.02 -0.26 0.03268 -0.25632 C 0.04 -0.26 0.05 -0.26 0.06568 -0.25618 C 0.08 -0.26 0.09 -0.26 0.10458 -0.25599 C 0.12 -0.26 0.13 -0.26 0.13915 -0.2558 C 0.15 -0.26 0.16 -0.26 0.16923 -0.25561 C 0.18 -0.26 0.19 -0.26 0.19468 -0.25541 C 0.2 -0.26 0.2 -0.26 0.20564 -0.25531 C 0.21 -0.26 0.21 -0.26 0.2154 -0.25521 C 0.22 -0.26 0.22 -0.26 0.22395 -0.25511 C 0.23 -0.26 0.23 -0.26 0.23129 -0.255 C 0.23 -0.25 0.24 -0.25 0.2374 -0.2549 C 0.24 -0.25 0.24 -0.25 0.24227 -0.2548 C 0.24 -0.25 0.24 -0.25 0.24591 -0.25469 C 0.25 -0.25 0.25 -0.25 0.24831 -0.25458 C 0.25 -0.25 0.25 -0.25 0.24976 -0.25441 C 0.25 -0.25 0.25 -0.25 0.24783 -0.25422 C 0.25 -0.25 0.25 -0.25 0.24335 -0.25406 C 0.24 -0.25 0.24 -0.25 0.23626 -0.2539 C 0.23 -0.25 0.23 -0.25 0.22658 -0.25374 C 0.22 -0.25 0.22 -0.25 0.21432 -0.25358 C 0.21 -0.25 0.2 -0.25 0.1995 -0.25343 C 0.19 -0.25 0.19 -0.25 0.18217 -0.25328 C 0.18 -0.25 0.17 -0.25 0.16235 -0.25313 C 0.16 -0.25 0.15 -0.25 0.14009 -0.25298 L 0.03295 -0.25231 L -0.23559 -0.25351 C -0.25 -0.25 -0.26 -0.25 -0.27719 -0.25369 C -0.29 -0.25 -0.31 -0.25 -0.31901 -0.25386 C -0.33 -0.25 -0.35 -0.25 -0.36104 -0.25403 C -0.38 -0.25 -0.39 -0.25 -0.40326 -0.25418 C -0.42 -0.25 -0.43 -0.25 -0.44566 -0.25433 C -0.46 -0.25 -0.47 -0.25 -0.48821 -0.25446 C -0.5 -0.25 -0.52 -0.25 -0.5309 -0.25459 C -0.55 -0.25 -0.56 -0.25 -0.5737 -0.2547 C -0.59 -0.25 -0.6 -0.25 -0.61363 -0.2548 C -0.63 -0.25 -0.64 -0.25 -0.65361 -0.25489 C -0.67 -0.25 -0.68 -0.25 -0.69361 -0.25496 C -0.71 -0.25 -0.72 -0.26 -0.73359 -0.25503 C -0.75 -0.26 -0.76 -0.26 -0.77354 -0.25508 C -0.79 -0.26 -0.8 -0.26 -0.8134 -0.25513 C -0.83 -0.26 -0.84 -0.26 -0.85316 -0.25516 C -0.87 -0.26 -0.88 -0.26 -0.89278 -0.25518 C -0.91 -0.26 -0.94 -0.26 -0.95699 -0.25519 C -0.98 -0.26 -1 -0.26 -1.01957 -0.25516 C -1.04 -0.26 -1.06 -0.26 -1.08031 -0.25511 C -1.1 -0.26 -1.12 -0.26 -1.13901 -0.25502 C -1.15 -0.25 -1.16 -0.25 -1.17755 -0.25494 C -1.19 -0.25 -1.2 -0.25 -1.21501 -0.25484 C -1.23 -0.25 -1.24 -0.25 -1.25137 -0.25473 C -1.26 -0.25 -1.28 -0.25 -1.28656 -0.25461 C -1.3 -0.25 -1.31 -0.25 -1.32058 -0.25447 C -1.33 -0.25 -1.34 -0.25 -1.3534 -0.25431 C -1.36 -0.25 -1.37 -0.25 -1.385 -0.25415 C -1.4 -0.25 -1.41 -0.25 -1.41537 -0.25397 C -1.42 -0.25 -1.43 -0.25 -1.43716 -0.25382 C -1.44 -0.25 -1.45 -0.25 -1.45725 -0.25368 C -1.46 -0.25 -1.47 -0.25 -1.47559 -0.25353 C -1.48 -0.25 -1.49 -0.25 -1.49216 -0.25338 C -1.5 -0.25 -1.5 -0.25 -1.50692 -0.25322 C -1.51 -0.25 -1.52 -0.25 -1.51987 -0.25306 C -1.52 -0.25 -1.53 -0.25 -1.53097 -0.2529 C -1.53 -0.25 -1.54 -0.25 -1.54022 -0.25274 C -1.54 -0.25 -1.55 -0.25 -1.54836 -0.25255 C -1.55 -0.25 -1.55 -0.25 -1.55416 -0.25236 C -1.56 -0.25 -1.56 -0.25 -1.55764 -0.25217 C -1.56 -0.25 -1.56 -0.25 -1.55879 -0.25197 C -1.56 -0.25 -1.56 -0.25 -1.55702 -0.25173 C -1.56 -0.25 -1.55 -0.25 -1.55174 -0.25148 C -1.55 -0.25 -1.55 -0.25 -1.54736 -0.25134 C -1.55 -0.25 -1.54 -0.25 -1.54198 -0.2512 C -1.54 -0.25 -1.54 -0.25 -1.5356 -0.25106 C -1.53 -0.25 -1.53 -0.25 -1.52821 -0.25093 C -1.53 -0.25 -1.52 -0.25 -1.5197 -0.2508 C -1.52 -0.25 -1.51 -0.25 -1.51016 -0.25066 C -1.51 -0.25 -1.5 -0.25 -1.49961 -0.25053 C -1.5 -0.25 -1.49 -0.25 -1.48804 -0.2504 C -1.48 -0.25 -1.47 -0.25 -1.4619 -0.25015 C -1.45 -0.25 -1.44 -0.25 -1.43182 -0.24991 C -1.42 -0.25 -1.41 -0.25 -1.39788 -0.24967 C -1.39 -0.25 -1.37 -0.25 -1.36021 -0.24945 C -1.35 -0.25 -1.33 -0.25 -1.31894 -0.24923 C -1.3 -0.25 -1.29 -0.25 -1.27419 -0.24901 C -1.26 -0.25 -1.25 -0.25 -1.245 -0.24889 C -1.24 -0.25 -1.23 -0.25 -1.21512 -0.24877 C -1.21 -0.25 -1.19 -0.25 -1.18456 -0.24866 C -1.17 -0.25 -1.16 -0.25 -1.15335 -0.24856 C -1.14 -0.25 -1.13 -0.25 -1.12148 -0.24847 C -1.11 -0.25 -1.1 -0.25 -1.08898 -0.24838 C -1.08 -0.25 -1.07 -0.25 -1.05587 -0.2483 C -1.04 -0.25 -1.03 -0.25 -1.02216 -0.24824 C -1.01 -0.25 -0.99 -0.25 -0.97787 -0.24816 C -0.96 -0.25 -0.95 -0.25 -0.93268 -0.2481 C -0.92 -0.25 -0.9 -0.25 -0.88665 -0.24805 C -0.87 -0.25 -0.86 -0.25 -0.83982 -0.24802 C -0.81 -0.25 -0.78 -0.25 -0.74403 -0.24799 C -0.71 -0.25 -0.68 -0.25 -0.64577 -0.24802 C -0.65 -0.25 -0.66 -0.25 -0.66638 -0.24785 C -0.67 -0.25 -0.68 -0.25 -0.68493 -0.24769 C -0.69 -0.25 -0.7 -0.25 -0.70139 -0.24754 C -0.71 -0.25 -0.71 -0.25 -0.71569 -0.2474 C -0.72 -0.25 -0.72 -0.25 -0.72781 -0.24727 C -0.73 -0.25 -0.73 -0.25 -0.73771 -0.24715 C -0.74 -0.25 -0.74 -0.25 -0.74534 -0.24704 C -0.75 -0.25 -0.75 -0.25 -0.75068 -0.24695 Z" />
    <path d="M 2.31222 -0.23328 L 2.60165 -0.23199 L 2.62181 -0.23211 C 2.63 -0.23 2.63 -0.23 2.63805 -0.23236 C 2.64 -0.23 2.65 -0.23 2.65856 -0.23261 C 2.67 -0.23 2.67 -0.23 2.68323 -0.23287 C 2.69 -0.23 2.7 -0.23 2.71191 -0.23314 C 2.72 -0.23 2.73 -0.23 2.74446 -0.2334 C 2.76 -0.23 2.77 -0.23 2.78074 -0.23368 C 2.81 -0.23 2.83 -0.23 2.86386 -0.23423 L 3.4916 -0.23816 C 3.5 -0.24 3.51 -0.24 3.52525 -0.23839 C 3.54 -0.24 3.55 -0.24 3.55539 -0.23863 C 3.56 -0.24 3.57 -0.24 3.58189 -0.23887 C 3.59 -0.24 3.6 -0.24 3.60463 -0.23912 C 3.61 -0.24 3.62 -0.24 3.62349 -0.23937 C 3.63 -0.24 3.63 -0.24 3.63144 -0.2395 C 3.63 -0.24 3.64 -0.24 3.63839 -0.23962 C 3.64 -0.24 3.64 -0.24 3.64433 -0.23975 C 3.65 -0.24 3.65 -0.24 3.64926 -0.23988 C 3.65 -0.24 3.65 -0.24 3.65316 -0.24001 C 3.65 -0.24 3.66 -0.24 3.65605 -0.24014 C 3.66 -0.24 3.66 -0.24 3.65812 -0.24029 C 3.66 -0.24 3.66 -0.24 3.6588 -0.24044 C 3.66 -0.24 3.66 -0.24 3.65712 -0.24068 C 3.66 -0.24 3.65 -0.24 3.65207 -0.24092 C 3.65 -0.24 3.65 -0.24 3.64597 -0.2411 C 3.64 -0.24 3.64 -0.24 3.63794 -0.24128 C 3.63 -0.24 3.63 -0.24 3.62799 -0.24146 C 3.62 -0.24 3.62 -0.24 3.61613 -0.24164 C 3.61 -0.24 3.61 -0.24 3.60239 -0.24182 C 3.6 -0.24 3.59 -0.24 3.5868 -0.24199 C 3.58 -0.24 3.58 -0.24 3.56939 -0.24216 C 3.56 -0.24 3.56 -0.24 3.55019 -0.24233 C 3.54 -0.24 3.54 -0.24 3.52885 -0.2425 C 3.52 -0.24 3.51 -0.24 3.50575 -0.24266 C 3.5 -0.24 3.49 -0.24 3.48093 -0.24283 C 3.47 -0.24 3.46 -0.24 3.45443 -0.24299 C 3.44 -0.24 3.42 -0.24 3.39664 -0.2433 C 3.38 -0.24 3.36 -0.24 3.3328 -0.24361 C 3.32 -0.24 3.3 -0.24 3.28873 -0.24379 C 3.27 -0.24 3.26 -0.24 3.24371 -0.24397 C 3.23 -0.24 3.21 -0.24 3.19775 -0.24413 C 3.18 -0.24 3.17 -0.24 3.15085 -0.24427 C 3.14 -0.24 3.12 -0.24 3.10305 -0.2444 C 3.09 -0.24 3.07 -0.24 3.05435 -0.24452 C 3.04 -0.24 3.02 -0.24 3.00477 -0.24462 C 2.99 -0.24 2.97 -0.24 2.95434 -0.2447 C 2.92 -0.24 2.89 -0.24 2.85522 -0.24482 C 2.82 -0.24 2.79 -0.24 2.75812 -0.24488 C 2.73 -0.24 2.69 -0.24 2.66329 -0.24487 C 2.63 -0.24 2.6 -0.24 2.57097 -0.2448 C 2.56 -0.24 2.55 -0.24 2.53302 -0.24475 C 2.52 -0.24 2.51 -0.24 2.49676 -0.24469 C 2.48 -0.24 2.47 -0.24 2.46222 -0.24462 C 2.45 -0.24 2.44 -0.24 2.42945 -0.24454 C 2.42 -0.24 2.41 -0.24 2.39846 -0.24445 C 2.39 -0.24 2.38 -0.24 2.36928 -0.24434 C 2.36 -0.24 2.35 -0.24 2.34194 -0.24423 C 2.33 -0.24 2.32 -0.24 2.31647 -0.24411 C 2.31 -0.24 2.3 -0.24 2.28791 -0.24395 L 2.56541 -0.24271 C 2.57 -0.24 2.57 -0.24 2.57937 -0.24279 C 2.58 -0.24 2.59 -0.24 2.59419 -0.24287 C 2.6 -0.24 2.6 -0.24 2.60986 -0.24293 C 2.62 -0.24 2.62 -0.24 2.62639 -0.24299 C 2.63 -0.24 2.64 -0.24 2.64654 -0.24305 C 2.65 -0.24 2.66 -0.24 2.6678 -0.2431 C 2.68 -0.24 2.68 -0.24 2.69017 -0.24315 C 2.7 -0.24 2.71 -0.24 2.71362 -0.24318 C 2.72 -0.24 2.73 -0.24 2.73814 -0.2432 C 2.75 -0.24 2.76 -0.24 2.7637 -0.24322 C 2.77 -0.24 2.78 -0.24 2.7903 -0.24322 C 2.8 -0.24 2.81 -0.24 2.81789 -0.24322 C 2.83 -0.24 2.84 -0.24 2.85098 -0.2432 C 2.86 -0.24 2.88 -0.24 2.88726 -0.24317 C 2.9 -0.24 2.91 -0.24 2.92312 -0.24312 C 2.94 -0.24 2.95 -0.24 2.95855 -0.24305 C 2.97 -0.24 2.98 -0.24 2.99353 -0.24297 C 3.01 -0.24 3.02 -0.24 3.02804 -0.24288 C 3.04 -0.24 3.05 -0.24 3.06206 -0.24277 C 3.07 -0.24 3.08 -0.24 3.09557 -0.24264 C 3.11 -0.24 3.12 -0.24 3.12857 -0.24251 C 3.14 -0.24 3.16 -0.24 3.16748 -0.24232 C 3.18 -0.24 3.19 -0.24 3.20205 -0.24213 C 3.21 -0.24 3.22 -0.24 3.23212 -0.24194 C 3.24 -0.24 3.25 -0.24 3.25758 -0.24174 C 3.26 -0.24 3.27 -0.24 3.26854 -0.24164 C 3.27 -0.24 3.28 -0.24 3.2783 -0.24154 C 3.28 -0.24 3.28 -0.24 3.28685 -0.24144 C 3.29 -0.24 3.29 -0.24 3.29418 -0.24133 C 3.3 -0.24 3.3 -0.24 3.30029 -0.24123 C 3.3 -0.24 3.3 -0.24 3.30517 -0.24113 C 3.31 -0.24 3.31 -0.24 3.30881 -0.24102 C 3.31 -0.24 3.31 -0.24 3.31121 -0.24091 C 3.31 -0.24 3.31 -0.24 3.31266 -0.24074 C 3.31 -0.24 3.31 -0.24 3.31073 -0.24055 C 3.31 -0.24 3.31 -0.24 3.30625 -0.24038 C 3.3 -0.24 3.3 -0.24 3.29916 -0.24023 C 3.3 -0.24 3.29 -0.24 3.28947 -0.24007 C 3.29 -0.24 3.28 -0.24 3.27721 -0.23991 C 3.27 -0.24 3.27 -0.24 3.2624 -0.23976 C 3.26 -0.24 3.25 -0.24 3.24507 -0.23961 C 3.24 -0.24 3.23 -0.24 3.22525 -0.23946 C 3.22 -0.24 3.21 -0.24 3.20299 -0.23931 L 3.09585 -0.23864 L 2.8273 -0.23984 C 2.81 -0.24 2.8 -0.24 2.7857 -0.24002 C 2.77 -0.24 2.76 -0.24 2.74388 -0.24019 C 2.73 -0.24 2.72 -0.24 2.70186 -0.24036 C 2.69 -0.24 2.67 -0.24 2.65963 -0.24051 C 2.65 -0.24 2.63 -0.24 2.61724 -0.24066 C 2.6 -0.24 2.59 -0.24 2.57468 -0.24079 C 2.56 -0.24 2.55 -0.24 2.532 -0.24092 C 2.52 -0.24 2.5 -0.24 2.4892 -0.24103 C 2.48 -0.24 2.46 -0.24 2.44926 -0.24113 C 2.44 -0.24 2.42 -0.24 2.40929 -0.24122 C 2.4 -0.24 2.38 -0.24 2.36929 -0.24129 C 2.36 -0.24 2.34 -0.24 2.3293 -0.24136 C 2.32 -0.24 2.3 -0.24 2.28936 -0.24141 C 2.28 -0.24 2.26 -0.24 2.24949 -0.24146 C 2.24 -0.24 2.22 -0.24 2.20973 -0.24149 C 2.2 -0.24 2.18 -0.24 2.17012 -0.24151 C 2.15 -0.24 2.13 -0.24 2.10591 -0.24152 C 2.08 -0.24 2.06 -0.24 2.04333 -0.24149 C 2.02 -0.24 2 -0.24 1.98259 -0.24144 C 1.96 -0.24 1.94 -0.24 1.92389 -0.24135 C 1.91 -0.24 1.9 -0.24 1.88535 -0.24127 C 1.87 -0.24 1.86 -0.24 1.84788 -0.24117 C 1.84 -0.24 1.82 -0.24 1.81153 -0.24106 C 1.8 -0.24 1.79 -0.24 1.77633 -0.24094 C 1.76 -0.24 1.75 -0.24 1.74231 -0.2408 C 1.73 -0.24 1.72 -0.24 1.7095 -0.24064 C 1.7 -0.24 1.69 -0.24 1.6779 -0.24048 C 1.67 -0.24 1.66 -0.24 1.64752 -0.2403 C 1.64 -0.24 1.63 -0.24 1.62573 -0.24015 C 1.62 -0.24 1.61 -0.24 1.60565 -0.24001 C 1.6 -0.24 1.59 -0.24 1.58731 -0.23986 C 1.58 -0.24 1.58 -0.24 1.57074 -0.2397 C 1.57 -0.24 1.56 -0.24 1.55597 -0.23955 C 1.55 -0.24 1.55 -0.24 1.54303 -0.23939 C 1.54 -0.24 1.54 -0.24 1.53192 -0.23923 C 1.53 -0.24 1.53 -0.24 1.52268 -0.23907 C 1.52 -0.24 1.52 -0.24 1.51454 -0.23888 C 1.51 -0.24 1.51 -0.24 1.50873 -0.23869 C 1.51 -0.24 1.51 -0.24 1.50526 -0.2385 C 1.5 -0.24 1.5 -0.24 1.50411 -0.2383 C 1.5 -0.24 1.5 -0.24 1.50588 -0.23805 C 1.51 -0.24 1.51 -0.24 1.51116 -0.2378 C 1.51 -0.24 1.51 -0.24 1.51553 -0.23767 C 1.52 -0.24 1.52 -0.24 1.52092 -0.23753 C 1.52 -0.24 1.53 -0.24 1.5273 -0.23739 C 1.53 -0.24 1.53 -0.24 1.53469 -0.23726 C 1.54 -0.24 1.54 -0.24 1.5432 -0.23713 C 1.55 -0.24 1.55 -0.24 1.55273 -0.23699 C 1.56 -0.24 1.56 -0.24 1.56329 -0.23686 C 1.57 -0.24 1.57 -0.24 1.57485 -0.23673 C 1.58 -0.24 1.59 -0.24 1.601 -0.23648 C 1.61 -0.24 1.62 -0.24 1.63108 -0.23624 C 1.64 -0.24 1.65 -0.24 1.66501 -0.236 C 1.68 -0.24 1.69 -0.24 1.70268 -0.23577 C 1.72 -0.24 1.73 -0.24 1.74396 -0.23555 C 1.76 -0.24 1.77 -0.24 1.78871 -0.23534 C 1.8 -0.24 1.81 -0.24 1.8179 -0.23522 C 1.83 -0.24 1.84 -0.24 1.84778 -0.2351 C 1.86 -0.24 1.87 -0.24 1.87833 -0.23499 C 1.89 -0.23 1.9 -0.23 1.90955 -0.23489 C 1.92 -0.23 1.93 -0.23 1.94141 -0.2348 C 1.95 -0.23 1.96 -0.23 1.97391 -0.23471 C 1.98 -0.23 2 -0.23 2.00703 -0.23463 C 2.02 -0.23 2.03 -0.23 2.04074 -0.23457 C 2.06 -0.23 2.07 -0.23 2.08502 -0.23449 C 2.1 -0.23 2.12 -0.23 2.13021 -0.23443 C 2.15 -0.23 2.16 -0.23 2.17625 -0.23438 C 2.19 -0.23 2.21 -0.23 2.22308 -0.23435 C 2.25 -0.23 2.29 -0.23 2.31887 -0.23432 C 2.35 -0.23 2.38 -0.23 2.41712 -0.23435 C 2.41 -0.23 2.4 -0.23 2.39652 -0.23418 C 2.39 -0.23 2.38 -0.23 2.37796 -0.23402 C 2.37 -0.23 2.37 -0.23 2.36151 -0.23387 C 2.36 -0.23 2.35 -0.23 2.3472 -0.23373 C 2.34 -0.23 2.34 -0.23 2.33508 -0.2336 C 2.33 -0.23 2.33 -0.23 2.32519 -0.23348 C 2.32 -0.23 2.32 -0.23 2.31756 -0.23337 C 2.32 -0.23 2.31 -0.23 2.31222 -0.23328 Z" />
    <path d="M 4.34184 -0.22967 C 4.34 -0.23 4.35 -0.23 4.3479 -0.22949 C 4.35 -0.23 4.35 -0.23 4.34992 -0.22932 C 4.35 -0.23 4.35 -0.23 4.34907 -0.22921 C 4.35 -0.23 4.35 -0.23 4.34651 -0.2291 C 4.35 -0.23 4.34 -0.23 4.34279 -0.22901 C 4.34 -0.23 4.34 -0.23 4.33773 -0.22891 C 4.34 -0.23 4.33 -0.23 4.33131 -0.22882 C 4.33 -0.23 4.33 -0.23 4.32356 -0.22873 C 4.32 -0.23 4.32 -0.23 4.31447 -0.22864 C 4.31 -0.23 4.31 -0.23 4.30405 -0.22855 C 4.3 -0.23 4.3 -0.23 4.29232 -0.22846 C 4.29 -0.23 4.28 -0.23 4.27928 -0.22837 C 4.27 -0.23 4.27 -0.23 4.26003 -0.22826 C 4.25 -0.23 4.25 -0.23 4.23947 -0.22817 C 4.23 -0.23 4.23 -0.23 4.21759 -0.22809 C 4.21 -0.23 4.2 -0.23 4.19441 -0.22802 C 4.18 -0.23 4.17 -0.23 4.1598 -0.22795 C 4.15 -0.23 4.14 -0.23 4.12272 -0.22791 C 4.11 -0.23 4.1 -0.23 4.08325 -0.22789 C 4.07 -0.23 4.06 -0.23 4.04148 -0.2279 C 4.02 -0.23 3.99 -0.23 3.96591 -0.22799 C 3.94 -0.23 3.92 -0.23 3.88973 -0.22815 C 3.86 -0.23 3.84 -0.23 3.81319 -0.22838 C 3.79 -0.23 3.76 -0.23 3.73652 -0.22869 C 3.72 -0.23 3.71 -0.23 3.69681 -0.22888 C 3.68 -0.23 3.67 -0.23 3.66093 -0.22907 C 3.65 -0.23 3.64 -0.23 3.629 -0.22927 C 3.62 -0.23 3.61 -0.23 3.6011 -0.22947 C 3.59 -0.23 3.58 -0.23 3.57733 -0.22968 C 3.57 -0.23 3.56 -0.23 3.55777 -0.2299 C 3.55 -0.23 3.55 -0.23 3.54246 -0.23012 C 3.54 -0.23 3.53 -0.23 3.53145 -0.23034 C 3.53 -0.23 3.53 -0.23 3.52511 -0.23055 C 3.52 -0.23 3.52 -0.23 3.52299 -0.23076 C 3.52 -0.23 3.52 -0.23 3.52418 -0.23092 C 3.52 -0.23 3.53 -0.23 3.52775 -0.23107 C 3.53 -0.23 3.53 -0.23 3.53231 -0.23119 C 3.53 -0.23 3.54 -0.23 3.53839 -0.23131 C 3.54 -0.23 3.54 -0.23 3.54597 -0.23143 C 3.55 -0.23 3.55 -0.23 3.55507 -0.23155 C 3.56 -0.23 3.56 -0.23 3.56565 -0.23166 C 3.57 -0.23 3.57 -0.23 3.57772 -0.23178 C 3.58 -0.23 3.59 -0.23 3.59125 -0.23189 C 3.6 -0.23 3.6 -0.23 3.60623 -0.232 L 3.33022 -0.23323 C 3.32 -0.23 3.32 -0.23 3.30795 -0.23308 C 3.3 -0.23 3.29 -0.23 3.28752 -0.23293 C 3.28 -0.23 3.27 -0.23 3.26894 -0.23277 C 3.26 -0.23 3.26 -0.23 3.25223 -0.23261 C 3.25 -0.23 3.24 -0.23 3.24015 -0.23248 C 3.24 -0.23 3.23 -0.23 3.22929 -0.23234 C 3.23 -0.23 3.22 -0.23 3.21963 -0.2322 C 3.22 -0.23 3.21 -0.23 3.21119 -0.23205 C 3.21 -0.23 3.2 -0.23 3.19794 -0.23176 C 3.19 -0.23 3.19 -0.23 3.18951 -0.23145 C 3.19 -0.23 3.19 -0.23 3.18696 -0.23127 C 3.19 -0.23 3.19 -0.23 3.18602 -0.2311 C 3.19 -0.23 3.19 -0.23 3.18602 -0.23108 C 3.19 -0.23 3.19 -0.23 3.1872 -0.23087 C 3.19 -0.23 3.19 -0.23 3.19075 -0.23066 C 3.19 -0.23 3.19 -0.23 3.19665 -0.23045 C 3.2 -0.23 3.2 -0.23 3.2049 -0.23024 C 3.21 -0.23 3.21 -0.23 3.21549 -0.23002 C 3.22 -0.23 3.22 -0.23 3.22838 -0.22981 C 3.23 -0.23 3.24 -0.23 3.24357 -0.2296 C 3.25 -0.23 3.25 -0.23 3.26102 -0.22939 C 3.27 -0.23 3.28 -0.23 3.28572 -0.22914 C 3.29 -0.23 3.3 -0.23 3.31364 -0.22888 C 3.32 -0.23 3.33 -0.23 3.34475 -0.22864 C 3.36 -0.23 3.37 -0.23 3.37899 -0.2284 C 3.39 -0.23 3.4 -0.23 3.41631 -0.22816 C 3.43 -0.23 3.44 -0.23 3.45666 -0.22794 C 3.47 -0.23 3.49 -0.23 3.49998 -0.22772 C 3.51 -0.23 3.53 -0.23 3.54618 -0.2275 C 3.57 -0.23 3.59 -0.23 3.61392 -0.22721 C 3.64 -0.23 3.66 -0.23 3.68286 -0.22696 C 3.69 -0.23 3.71 -0.23 3.71776 -0.22685 C 3.73 -0.23 3.74 -0.23 3.75293 -0.22674 C 3.76 -0.23 3.78 -0.23 3.78835 -0.22664 C 3.8 -0.23 3.81 -0.23 3.82402 -0.22655 C 3.85 -0.23 3.87 -0.23 3.89347 -0.22641 C 3.92 -0.23 3.94 -0.23 3.96363 -0.2263 C 3.99 -0.23 4.01 -0.23 4.03437 -0.22622 C 4.06 -0.23 4.08 -0.23 4.10554 -0.22618 C 4.13 -0.23 4.15 -0.23 4.17433 -0.22618 C 4.2 -0.23 4.22 -0.23 4.24063 -0.22622 C 4.25 -0.23 4.26 -0.23 4.27276 -0.22625 C 4.28 -0.23 4.29 -0.23 4.30416 -0.2263 C 4.31 -0.23 4.32 -0.23 4.33481 -0.22635 C 4.34 -0.23 4.35 -0.23 4.36468 -0.22641 C 4.37 -0.23 4.38 -0.23 4.39352 -0.22648 C 4.4 -0.23 4.41 -0.23 4.42153 -0.22656 C 4.43 -0.23 4.44 -0.23 4.44872 -0.22665 C 4.46 -0.23 4.47 -0.23 4.47505 -0.22675 C 4.48 -0.23 4.49 -0.23 4.50053 -0.22686 C 4.51 -0.23 4.52 -0.23 4.52512 -0.22698 C 4.53 -0.23 4.54 -0.23 4.54884 -0.22711 C 4.56 -0.23 4.56 -0.23 4.57167 -0.22724 C 4.58 -0.23 4.59 -0.23 4.59739 -0.22742 C 4.61 -0.23 4.61 -0.23 4.62026 -0.22759 C 4.63 -0.23 4.63 -0.23 4.64023 -0.22777 C 4.65 -0.23 4.65 -0.23 4.65727 -0.22794 C 4.66 -0.23 4.67 -0.23 4.67135 -0.22813 C 4.68 -0.23 4.68 -0.23 4.68246 -0.22831 C 4.69 -0.23 4.69 -0.23 4.69057 -0.2285 C 4.69 -0.23 4.69 -0.23 4.69568 -0.22868 C 4.7 -0.23 4.7 -0.23 4.69801 -0.22893 C 4.7 -0.23 4.7 -0.23 4.69702 -0.2291 C 4.7 -0.23 4.7 -0.23 4.69406 -0.22927 C 4.69 -0.23 4.69 -0.23 4.68915 -0.22944 C 4.69 -0.23 4.68 -0.23 4.6823 -0.22962 C 4.68 -0.23 4.68 -0.23 4.67353 -0.2298 C 4.67 -0.23 4.67 -0.23 4.66286 -0.22998 C 4.66 -0.23 4.65 -0.23 4.65032 -0.23016 C 4.65 -0.23 4.64 -0.23 4.63593 -0.23035 C 4.63 -0.23 4.62 -0.23 4.61532 -0.23059 C 4.61 -0.23 4.6 -0.23 4.59181 -0.23083 C 4.58 -0.23 4.57 -0.23 4.56547 -0.23108 C 4.56 -0.23 4.55 -0.23 4.53639 -0.23134 C 4.52 -0.23 4.49 -0.23 4.47032 -0.23187 C 4.45 -0.23 4.42 -0.23 4.39427 -0.23243 C 4.38 -0.23 4.37 -0.23 4.35628 -0.2327 C 4.34 -0.23 4.33 -0.23 4.32149 -0.23295 C 4.31 -0.23 4.3 -0.23 4.29009 -0.2332 C 4.28 -0.23 4.27 -0.23 4.26228 -0.23343 C 4.25 -0.23 4.25 -0.23 4.23823 -0.23365 C 4.23 -0.23 4.22 -0.23 4.21814 -0.23385 C 4.21 -0.23 4.21 -0.23 4.20218 -0.23404 C 4.2 -0.23 4.2 -0.23 4.1958 -0.23413 C 4.19 -0.23 4.19 -0.23 4.1905 -0.23421 C 4.19 -0.23 4.19 -0.23 4.18576 -0.23431 C 4.18 -0.23 4.18 -0.23 4.18236 -0.2344 C 4.18 -0.23 4.18 -0.23 4.18032 -0.23449 C 4.18 -0.23 4.18 -0.23 4.17963 -0.23458 C 4.18 -0.23 4.18 -0.23 4.18173 -0.23473 C 4.18 -0.23 4.18 -0.23 4.18461 -0.23482 C 4.19 -0.23 4.19 -0.23 4.18871 -0.2349 C 4.19 -0.23 4.19 -0.23 4.19403 -0.23498 C 4.2 -0.24 4.2 -0.24 4.20057 -0.23506 C 4.21 -0.24 4.21 -0.24 4.21727 -0.23521 C 4.22 -0.24 4.23 -0.24 4.23874 -0.23536 C 4.25 -0.24 4.25 -0.24 4.26103 -0.23549 C 4.27 -0.24 4.28 -0.24 4.28486 -0.2356 C 4.29 -0.24 4.3 -0.24 4.31022 -0.23569 C 4.32 -0.24 4.33 -0.24 4.3371 -0.23577 C 4.35 -0.24 4.36 -0.24 4.36753 -0.23583 C 4.38 -0.24 4.39 -0.24 4.39964 -0.23587 C 4.41 -0.24 4.42 -0.24 4.43339 -0.23589 C 4.44 -0.24 4.46 -0.24 4.46874 -0.23589 C 4.49 -0.24 4.52 -0.24 4.54044 -0.23583 C 4.56 -0.24 4.59 -0.24 4.61305 -0.23569 C 4.64 -0.24 4.66 -0.24 4.68629 -0.23548 C 4.71 -0.24 4.74 -0.24 4.75993 -0.23518 C 4.77 -0.24 4.78 -0.24 4.78745 -0.23505 C 4.8 -0.24 4.8 -0.23 4.81277 -0.23492 C 4.82 -0.23 4.83 -0.23 4.83586 -0.23478 C 4.84 -0.23 4.85 -0.23 4.85667 -0.23464 C 4.86 -0.23 4.87 -0.23 4.87517 -0.23449 C 4.88 -0.23 4.89 -0.23 4.89136 -0.23434 C 4.9 -0.23 4.9 -0.23 4.9052 -0.23418 C 4.91 -0.23 4.91 -0.23 4.91668 -0.23402 C 4.92 -0.23 4.92 -0.23 4.92615 -0.23385 C 4.93 -0.23 4.93 -0.23 4.93303 -0.23367 C 4.93 -0.23 4.94 -0.23 4.93745 -0.23348 C 4.94 -0.23 4.94 -0.23 4.93893 -0.2333 C 4.94 -0.23 4.94 -0.23 4.93749 -0.23313 C 4.94 -0.23 4.94 -0.23 4.93315 -0.23297 C 4.93 -0.23 4.93 -0.23 4.9259 -0.23281 C 4.92 -0.23 4.92 -0.23 4.91574 -0.23265 C 4.91 -0.23 4.91 -0.23 4.90558 -0.23254 C 4.9 -0.23 4.9 -0.23 4.89358 -0.23242 C 4.89 -0.23 4.88 -0.23 4.87976 -0.23231 C 4.87 -0.23 4.87 -0.23 4.86413 -0.23221 L 5.14163 -0.23097 C 5.15 -0.23 5.16 -0.23 5.16342 -0.23111 C 5.17 -0.23 5.18 -0.23 5.18355 -0.23126 C 5.19 -0.23 5.2 -0.23 5.20198 -0.23141 C 5.21 -0.23 5.21 -0.23 5.21868 -0.23156 C 5.22 -0.23 5.23 -0.23 5.23362 -0.23172 C 5.24 -0.23 5.24 -0.23 5.24678 -0.23187 C 5.25 -0.23 5.25 -0.23 5.25814 -0.23204 C 5.26 -0.23 5.26 -0.23 5.26768 -0.2322 C 5.27 -0.23 5.27 -0.23 5.27663 -0.2324 C 5.28 -0.23 5.28 -0.23 5.28301 -0.2326 C 5.28 -0.23 5.29 -0.23 5.28682 -0.2328 C 5.29 -0.23 5.29 -0.23 5.28809 -0.23301 C 5.29 -0.23 5.29 -0.23 5.28739 -0.23317 C 5.29 -0.23 5.29 -0.23 5.28532 -0.23333 C 5.28 -0.23 5.28 -0.23 5.28189 -0.23349 C 5.28 -0.23 5.28 -0.23 5.27711 -0.23365 C 5.27 -0.23 5.27 -0.23 5.26778 -0.23388 C 5.27 -0.23 5.26 -0.23 5.25907 -0.23405 C 5.26 -0.23 5.25 -0.23 5.24886 -0.23422 C 5.25 -0.23 5.24 -0.23 5.23716 -0.23439 C 5.23 -0.23 5.23 -0.23 5.22398 -0.23456 C 5.22 -0.23 5.21 -0.23 5.20933 -0.23472 C 5.2 -0.23 5.2 -0.23 5.19324 -0.23488 C 5.19 -0.23 5.18 -0.23 5.17572 -0.23504 C 5.17 -0.24 5.16 -0.24 5.1568 -0.23519 C 5.15 -0.24 5.14 -0.24 5.1359 -0.23535 C 5.13 -0.24 5.12 -0.24 5.11358 -0.23551 C 5.11 -0.24 5.1 -0.24 5.08986 -0.23566 C 5.08 -0.24 5.07 -0.24 5.06478 -0.23581 C 5.05 -0.24 5.03 -0.24 5.01066 -0.2361 C 4.99 -0.24 4.97 -0.24 4.95152 -0.23638 C 4.93 -0.24 4.91 -0.24 4.89521 -0.23662 C 4.88 -0.24 4.86 -0.24 4.83773 -0.23683 C 4.82 -0.24 4.8 -0.24 4.77915 -0.23702 C 4.76 -0.24 4.74 -0.24 4.71952 -0.23718 C 4.7 -0.24 4.68 -0.24 4.65892 -0.23732 C 4.64 -0.24 4.62 -0.24 4.59743 -0.23742 C 4.58 -0.24 4.56 -0.24 4.53514 -0.2375 C 4.51 -0.24 4.49 -0.24 4.47217 -0.23755 C 4.45 -0.24 4.43 -0.24 4.40663 -0.23757 C 4.39 -0.24 4.38 -0.24 4.3641 -0.23757 C 4.35 -0.24 4.34 -0.24 4.32262 -0.23755 C 4.31 -0.24 4.3 -0.24 4.28228 -0.23753 C 4.27 -0.24 4.26 -0.24 4.24311 -0.23748 C 4.23 -0.24 4.22 -0.24 4.20519 -0.23743 C 4.19 -0.24 4.18 -0.24 4.16855 -0.23736 C 4.16 -0.24 4.14 -0.24 4.13326 -0.23728 C 4.12 -0.24 4.11 -0.24 4.09936 -0.23719 C 4.09 -0.24 4.07 -0.24 4.06002 -0.23706 C 4.05 -0.24 4.03 -0.24 4.02285 -0.23691 C 4.01 -0.24 4 -0.24 3.98789 -0.23674 C 3.98 -0.24 3.97 -0.24 3.95518 -0.23655 C 3.95 -0.24 3.94 -0.24 3.93461 -0.23641 C 3.93 -0.24 3.92 -0.24 3.91599 -0.23627 C 3.91 -0.24 3.9 -0.24 3.89932 -0.23613 C 3.89 -0.24 3.89 -0.24 3.88462 -0.23599 C 3.88 -0.24 3.88 -0.24 3.87192 -0.23584 C 3.87 -0.24 3.86 -0.24 3.86121 -0.2357 C 3.86 -0.24 3.86 -0.24 3.85251 -0.23555 C 3.85 -0.24 3.85 -0.24 3.84582 -0.2354 C 3.84 -0.24 3.84 -0.24 3.84016 -0.2352 C 3.84 -0.24 3.84 -0.24 3.83777 -0.23495 C 3.84 -0.23 3.84 -0.23 3.8387 -0.23479 C 3.84 -0.23 3.84 -0.23 3.84148 -0.23463 C 3.84 -0.23 3.84 -0.23 3.84609 -0.23446 C 3.85 -0.23 3.85 -0.23 3.85253 -0.2343 C 3.85 -0.23 3.86 -0.23 3.86077 -0.23413 C 3.86 -0.23 3.87 -0.23 3.87079 -0.23395 C 3.87 -0.23 3.88 -0.23 3.88258 -0.23378 C 3.89 -0.23 3.89 -0.23 3.89612 -0.2336 C 3.9 -0.23 3.91 -0.23 3.9159 -0.23336 C 3.92 -0.23 3.93 -0.23 3.93887 -0.23312 C 3.95 -0.23 3.96 -0.23 3.96493 -0.23288 C 3.97 -0.23 3.98 -0.23 3.99398 -0.23262 C 4.01 -0.23 4.04 -0.23 4.06064 -0.2321 C 4.07 -0.23 4.09 -0.23 4.09806 -0.23182 C 4.11 -0.23 4.12 -0.23 4.13806 -0.23154 C 4.15 -0.23 4.16 -0.23 4.177 -0.23127 C 4.19 -0.23 4.2 -0.23 4.21248 -0.23101 C 4.22 -0.23 4.23 -0.23 4.24431 -0.23076 C 4.25 -0.23 4.26 -0.23 4.27228 -0.23051 C 4.28 -0.23 4.29 -0.23 4.29619 -0.23028 C 4.3 -0.23 4.31 -0.23 4.31587 -0.23006 C 4.32 -0.23 4.33 -0.23 4.33114 -0.22986 C 4.33 -0.23 4.34 -0.23 4.33707 -0.22976 C 4.34 -0.23 4.34 -0.23 4.34184 -0.22967 Z" />
    <path d="M 10.48785 -0.20045 L 11.10731 -0.20864 L 10.80594 -0.20998 L 10.03307 -0.19898 L 9.83324 -0.19839 C 9.8 -0.2 9.78 -0.2 9.74912 -0.19814 C 9.74 -0.2 9.72 -0.2 9.70891 -0.19805 C 9.7 -0.2 9.68 -0.2 9.67004 -0.19797 C 9.66 -0.2 9.64 -0.2 9.63255 -0.19792 C 9.62 -0.2 9.61 -0.2 9.59651 -0.19788 C 9.58 -0.2 9.57 -0.2 9.56197 -0.19786 C 9.55 -0.2 9.54 -0.2 9.52898 -0.19787 C 9.51 -0.2 9.49 -0.2 9.46429 -0.19793 C 9.44 -0.2 9.42 -0.2 9.39817 -0.19806 C 9.38 -0.2 9.35 -0.2 9.33085 -0.19827 C 9.31 -0.2 9.29 -0.2 9.26252 -0.19854 L 9.19296 -0.19891 L 9.00389 -0.19772 L 9.09044 -0.19716 L 9.13888 -0.19691 C 9.15 -0.2 9.16 -0.2 9.16332 -0.1968 C 9.17 -0.2 9.18 -0.2 9.1884 -0.1967 C 9.2 -0.2 9.21 -0.2 9.21409 -0.19662 C 9.22 -0.2 9.23 -0.2 9.2404 -0.19653 C 9.25 -0.2 9.26 -0.2 9.26729 -0.19646 C 9.28 -0.2 9.29 -0.2 9.29474 -0.19639 C 9.3 -0.2 9.31 -0.2 9.32273 -0.19634 C 9.33 -0.2 9.34 -0.2 9.35122 -0.19629 C 9.37 -0.2 9.39 -0.2 9.40858 -0.19622 C 9.43 -0.2 9.45 -0.2 9.46749 -0.19618 C 9.49 -0.2 9.51 -0.2 9.52766 -0.19617 C 9.55 -0.2 9.57 -0.2 9.5888 -0.1962 C 9.6 -0.2 9.61 -0.2 9.61986 -0.19622 C 9.63 -0.2 9.64 -0.2 9.65107 -0.19625 C 9.66 -0.2 9.67 -0.2 9.68239 -0.19629 C 9.69 -0.2 9.7 -0.2 9.71379 -0.19634 C 9.72 -0.2 9.73 -0.2 9.74435 -0.19639 C 9.75 -0.2 9.76 -0.2 9.77494 -0.19644 C 9.79 -0.2 9.8 -0.2 9.80554 -0.19651 C 9.82 -0.2 9.83 -0.2 9.83613 -0.19657 C 9.85 -0.2 9.86 -0.2 9.8667 -0.19665 C 9.88 -0.2 9.89 -0.2 9.89723 -0.19672 C 9.91 -0.2 9.92 -0.2 9.92771 -0.19681 C 9.94 -0.2 9.95 -0.2 9.95812 -0.1969 L 12.18148 -0.20384 L 11.88608 -0.20516 L 10.48785 -0.20045 Z" />
    <path d="M 8.9751 -0.20354 L 9.26453 -0.20225 L 9.2847 -0.20237 C 9.29 -0.2 9.29 -0.2 9.30093 -0.20262 C 9.31 -0.2 9.31 -0.2 9.32144 -0.20288 C 9.33 -0.2 9.34 -0.2 9.34611 -0.20313 C 9.36 -0.2 9.36 -0.2 9.37479 -0.2034 C 9.39 -0.2 9.4 -0.2 9.40735 -0.20367 C 9.42 -0.2 9.43 -0.2 9.44362 -0.20394 C 9.47 -0.2 9.5 -0.2 9.52674 -0.20449 L 10.15448 -0.20842 C 10.17 -0.21 10.18 -0.21 10.18813 -0.20865 C 10.2 -0.21 10.21 -0.21 10.21827 -0.20889 C 10.23 -0.21 10.24 -0.21 10.24477 -0.20913 C 10.25 -0.21 10.26 -0.21 10.26751 -0.20938 C 10.27 -0.21 10.28 -0.21 10.28637 -0.20963 C 10.29 -0.21 10.29 -0.21 10.29432 -0.20976 C 10.3 -0.21 10.3 -0.21 10.30127 -0.20988 C 10.3 -0.21 10.31 -0.21 10.30721 -0.21001 C 10.31 -0.21 10.31 -0.21 10.31214 -0.21014 C 10.31 -0.21 10.31 -0.21 10.31605 -0.21027 C 10.32 -0.21 10.32 -0.21 10.31893 -0.2104 C 10.32 -0.21 10.32 -0.21 10.321 -0.21055 C 10.32 -0.21 10.32 -0.21 10.32168 -0.2107 C 10.32 -0.21 10.32 -0.21 10.32 -0.21094 C 10.32 -0.21 10.32 -0.21 10.31495 -0.21118 C 10.31 -0.21 10.31 -0.21 10.30885 -0.21136 C 10.31 -0.21 10.3 -0.21 10.30082 -0.21155 C 10.3 -0.21 10.29 -0.21 10.29087 -0.21172 C 10.29 -0.21 10.28 -0.21 10.27901 -0.2119 C 10.27 -0.21 10.27 -0.21 10.26528 -0.21208 C 10.26 -0.21 10.26 -0.21 10.24968 -0.21225 C 10.24 -0.21 10.24 -0.21 10.23227 -0.21242 C 10.23 -0.21 10.22 -0.21 10.21307 -0.21259 C 10.21 -0.21 10.2 -0.21 10.19173 -0.21276 C 10.18 -0.21 10.18 -0.21 10.16863 -0.21293 C 10.16 -0.21 10.15 -0.21 10.14381 -0.21309 C 10.14 -0.21 10.13 -0.21 10.11731 -0.21325 C 10.1 -0.21 10.08 -0.21 10.05952 -0.21357 C 10.04 -0.21 10.02 -0.21 9.99568 -0.21387 C 9.98 -0.21 9.97 -0.21 9.95161 -0.21406 C 9.94 -0.21 9.92 -0.21 9.90659 -0.21423 C 9.89 -0.21 9.88 -0.21 9.86063 -0.21439 C 9.85 -0.21 9.83 -0.21 9.81374 -0.21453 C 9.8 -0.21 9.78 -0.21 9.76593 -0.21466 C 9.75 -0.21 9.73 -0.21 9.71723 -0.21478 C 9.7 -0.21 9.68 -0.21 9.66765 -0.21488 C 9.65 -0.21 9.63 -0.21 9.61722 -0.21496 C 9.58 -0.22 9.55 -0.22 9.5181 -0.21508 C 9.49 -0.22 9.45 -0.22 9.421 -0.21514 C 9.39 -0.22 9.36 -0.22 9.32618 -0.21513 C 9.29 -0.22 9.26 -0.22 9.23385 -0.21506 C 9.22 -0.22 9.21 -0.22 9.1959 -0.21501 C 9.18 -0.21 9.17 -0.21 9.15964 -0.21495 C 9.15 -0.21 9.14 -0.21 9.1251 -0.21488 C 9.11 -0.21 9.1 -0.21 9.09233 -0.2148 C 9.08 -0.21 9.07 -0.21 9.06134 -0.21471 C 9.05 -0.21 9.04 -0.21 9.03216 -0.21461 C 9.02 -0.21 9.01 -0.21 9.00483 -0.21449 C 9 -0.21 8.99 -0.21 8.97935 -0.21437 C 8.97 -0.21 8.96 -0.21 8.95079 -0.21421 L 9.22829 -0.21297 C 9.23 -0.21 9.24 -0.21 9.24225 -0.21305 C 9.25 -0.21 9.25 -0.21 9.25707 -0.21313 C 9.26 -0.21 9.27 -0.21 9.27274 -0.21319 C 9.28 -0.21 9.28 -0.21 9.28927 -0.21325 C 9.3 -0.21 9.3 -0.21 9.30942 -0.21332 C 9.32 -0.21 9.32 -0.21 9.33068 -0.21337 C 9.34 -0.21 9.35 -0.21 9.35305 -0.21341 C 9.36 -0.21 9.37 -0.21 9.3765 -0.21344 C 9.38 -0.21 9.39 -0.21 9.40102 -0.21346 C 9.41 -0.21 9.42 -0.21 9.42659 -0.21348 C 9.44 -0.21 9.44 -0.21 9.45318 -0.21348 C 9.46 -0.21 9.47 -0.21 9.48077 -0.21348 C 9.49 -0.21 9.5 -0.21 9.51386 -0.21346 C 9.53 -0.21 9.54 -0.21 9.55014 -0.21343 C 9.56 -0.21 9.57 -0.21 9.586 -0.21338 C 9.6 -0.21 9.61 -0.21 9.62143 -0.21332 C 9.63 -0.21 9.64 -0.21 9.65641 -0.21324 C 9.67 -0.21 9.68 -0.21 9.69092 -0.21314 C 9.7 -0.21 9.71 -0.21 9.72494 -0.21303 C 9.74 -0.21 9.75 -0.21 9.75845 -0.21291 C 9.77 -0.21 9.78 -0.21 9.79145 -0.21277 C 9.81 -0.21 9.82 -0.21 9.83036 -0.21258 C 9.84 -0.21 9.85 -0.21 9.86493 -0.21239 C 9.88 -0.21 9.89 -0.21 9.89501 -0.2122 C 9.9 -0.21 9.91 -0.21 9.92046 -0.212 C 9.92 -0.21 9.93 -0.21 9.93142 -0.2119 C 9.93 -0.21 9.94 -0.21 9.94118 -0.2118 C 9.94 -0.21 9.95 -0.21 9.94973 -0.2117 C 9.95 -0.21 9.95 -0.21 9.95706 -0.2116 C 9.96 -0.21 9.96 -0.21 9.96317 -0.21149 C 9.97 -0.21 9.97 -0.21 9.96805 -0.21139 C 9.97 -0.21 9.97 -0.21 9.97169 -0.21128 C 9.97 -0.21 9.97 -0.21 9.97409 -0.21118 C 9.98 -0.21 9.98 -0.21 9.97554 -0.211 C 9.98 -0.21 9.97 -0.21 9.97361 -0.21081 C 9.97 -0.21 9.97 -0.21 9.96913 -0.21065 C 9.97 -0.21 9.96 -0.21 9.96204 -0.21049 C 9.96 -0.21 9.96 -0.21 9.95235 -0.21033 C 9.95 -0.21 9.94 -0.21 9.94009 -0.21018 C 9.94 -0.21 9.93 -0.21 9.92528 -0.21002 C 9.92 -0.21 9.91 -0.21 9.90795 -0.20987 C 9.9 -0.21 9.9 -0.21 9.88813 -0.20972 C 9.88 -0.21 9.87 -0.21 9.86587 -0.20957 L 9.75873 -0.2089 L 9.49018 -0.2101 C 9.48 -0.21 9.46 -0.21 9.44859 -0.21028 C 9.43 -0.21 9.42 -0.21 9.40677 -0.21045 C 9.39 -0.21 9.38 -0.21 9.36474 -0.21062 C 9.35 -0.21 9.34 -0.21 9.32252 -0.21077 C 9.31 -0.21 9.29 -0.21 9.28012 -0.21092 C 9.27 -0.21 9.25 -0.21 9.23756 -0.21105 C 9.22 -0.21 9.21 -0.21 9.19488 -0.21118 C 9.18 -0.21 9.17 -0.21 9.15208 -0.21129 C 9.14 -0.21 9.13 -0.21 9.11215 -0.21139 C 9.1 -0.21 9.09 -0.21 9.07217 -0.21148 C 9.06 -0.21 9.05 -0.21 9.03217 -0.21155 C 9.02 -0.21 9.01 -0.21 8.99218 -0.21162 C 8.98 -0.21 8.97 -0.21 8.95224 -0.21167 C 8.94 -0.21 8.93 -0.21 8.91237 -0.21172 C 8.9 -0.21 8.89 -0.21 8.87261 -0.21175 C 8.86 -0.21 8.85 -0.21 8.833 -0.21177 C 8.81 -0.21 8.79 -0.21 8.76879 -0.21178 C 8.75 -0.21 8.73 -0.21 8.70621 -0.21176 C 8.69 -0.21 8.67 -0.21 8.64547 -0.2117 C 8.63 -0.21 8.61 -0.21 8.58677 -0.21161 C 8.57 -0.21 8.56 -0.21 8.54823 -0.21153 C 8.54 -0.21 8.52 -0.21 8.51076 -0.21143 C 8.5 -0.21 8.49 -0.21 8.47441 -0.21132 C 8.46 -0.21 8.45 -0.21 8.43921 -0.2112 C 8.43 -0.21 8.42 -0.21 8.40519 -0.21106 C 8.39 -0.21 8.38 -0.21 8.37238 -0.2109 C 8.36 -0.21 8.35 -0.21 8.34078 -0.21074 C 8.33 -0.21 8.32 -0.21 8.3104 -0.21056 C 8.3 -0.21 8.3 -0.21 8.28861 -0.21041 C 8.28 -0.21 8.27 -0.21 8.26853 -0.21027 C 8.26 -0.21 8.26 -0.21 8.25019 -0.21012 C 8.24 -0.21 8.24 -0.21 8.23362 -0.20997 C 8.23 -0.21 8.22 -0.21 8.21885 -0.20981 C 8.21 -0.21 8.21 -0.21 8.20591 -0.20965 C 8.2 -0.21 8.2 -0.21 8.19481 -0.20949 C 8.19 -0.21 8.19 -0.21 8.18556 -0.20933 C 8.18 -0.21 8.18 -0.21 8.17742 -0.20914 C 8.18 -0.21 8.17 -0.21 8.17161 -0.20895 C 8.17 -0.21 8.17 -0.21 8.16814 -0.20876 C 8.17 -0.21 8.17 -0.21 8.16699 -0.20856 C 8.17 -0.21 8.17 -0.21 8.16876 -0.20832 C 8.17 -0.21 8.17 -0.21 8.17404 -0.20807 C 8.18 -0.21 8.18 -0.21 8.17841 -0.20793 C 8.18 -0.21 8.18 -0.21 8.1838 -0.20779 C 8.19 -0.21 8.19 -0.21 8.19018 -0.20766 C 8.19 -0.21 8.19 -0.21 8.19757 -0.20752 C 8.2 -0.21 8.2 -0.21 8.20608 -0.20739 C 8.21 -0.21 8.21 -0.21 8.21561 -0.20726 C 8.22 -0.21 8.22 -0.21 8.22617 -0.20712 C 8.23 -0.21 8.23 -0.21 8.23773 -0.207 C 8.25 -0.21 8.25 -0.21 8.26388 -0.20674 C 8.27 -0.21 8.28 -0.21 8.29396 -0.2065 C 8.3 -0.21 8.32 -0.21 8.32789 -0.20626 C 8.34 -0.21 8.35 -0.21 8.36556 -0.20604 C 8.38 -0.21 8.39 -0.21 8.40684 -0.20582 C 8.42 -0.21 8.44 -0.21 8.45159 -0.20561 C 8.46 -0.21 8.47 -0.21 8.48078 -0.20548 C 8.49 -0.21 8.5 -0.21 8.51066 -0.20536 C 8.52 -0.21 8.53 -0.21 8.54121 -0.20525 C 8.55 -0.21 8.56 -0.21 8.57243 -0.20515 C 8.58 -0.21 8.59 -0.21 8.6043 -0.20506 C 8.62 -0.21 8.63 -0.21 8.6368 -0.20497 C 8.65 -0.2 8.66 -0.2 8.66991 -0.2049 C 8.68 -0.2 8.69 -0.2 8.70362 -0.20483 C 8.72 -0.2 8.73 -0.2 8.74791 -0.20475 C 8.76 -0.2 8.78 -0.2 8.79309 -0.20469 C 8.81 -0.2 8.82 -0.2 8.83913 -0.20464 C 8.85 -0.2 8.87 -0.2 8.88596 -0.20461 C 8.92 -0.2 8.95 -0.2 8.98175 -0.20458 C 9.01 -0.2 9.05 -0.2 9.08 -0.20461 C 9.07 -0.2 9.07 -0.2 9.0594 -0.20444 C 9.05 -0.2 9.05 -0.2 9.04085 -0.20428 C 9.04 -0.2 9.03 -0.2 9.02439 -0.20413 C 9.02 -0.2 9.01 -0.2 9.01008 -0.20399 C 9.01 -0.2 9 -0.2 8.99796 -0.20386 C 8.99 -0.2 8.99 -0.2 8.98807 -0.20374 C 8.99 -0.2 8.98 -0.2 8.98044 -0.20364 C 8.98 -0.2 8.98 -0.2 8.9751 -0.20354 Z" />
    <path d="M 13.36809 -0.19137 L 13.3517 -0.19127 C 13.33 -0.19 13.31 -0.19 13.289 -0.19086 C 13.28 -0.19 13.27 -0.19 13.25993 -0.19064 C 13.25 -0.19 13.24 -0.19 13.23247 -0.19043 C 13.22 -0.19 13.21 -0.19 13.20666 -0.19021 C 13.2 -0.19 13.19 -0.19 13.18258 -0.18999 C 13.17 -0.19 13.17 -0.19 13.16027 -0.18977 C 13.15 -0.19 13.15 -0.19 13.13979 -0.18955 C 13.13 -0.19 13.13 -0.19 13.1212 -0.18932 C 13.12 -0.19 13.11 -0.19 13.10454 -0.18909 C 13.1 -0.19 13.09 -0.19 13.08984 -0.18886 C 13.09 -0.19 13.08 -0.19 13.07716 -0.18863 C 13.07 -0.19 13.07 -0.19 13.06652 -0.18839 C 13.06 -0.19 13.06 -0.19 13.05795 -0.18816 C 13.06 -0.19 13.05 -0.19 13.05147 -0.18792 C 13.05 -0.19 13.05 -0.19 13.0471 -0.18769 C 13.05 -0.19 13.05 -0.19 13.04514 -0.1875 C 13.04 -0.19 13.04 -0.19 13.04449 -0.18731 C 13.04 -0.19 13.04 -0.19 13.04484 -0.18717 C 13.05 -0.19 13.05 -0.19 13.04665 -0.18697 C 13.05 -0.19 13.05 -0.19 13.05001 -0.18676 C 13.05 -0.19 13.05 -0.19 13.05491 -0.18656 C 13.06 -0.19 13.06 -0.19 13.06139 -0.18636 C 13.06 -0.19 13.07 -0.19 13.06945 -0.18617 C 13.07 -0.19 13.08 -0.19 13.0791 -0.18598 C 13.08 -0.19 13.09 -0.19 13.09034 -0.18579 C 13.09 -0.19 13.1 -0.19 13.10316 -0.1856 C 13.11 -0.19 13.11 -0.19 13.11412 -0.18546 C 13.12 -0.19 13.12 -0.19 13.12601 -0.18532 C 13.13 -0.19 13.13 -0.19 13.13882 -0.18518 C 13.14 -0.19 13.15 -0.19 13.15255 -0.18504 C 13.16 -0.18 13.17 -0.18 13.18271 -0.18478 C 13.19 -0.18 13.2 -0.18 13.21639 -0.18452 C 13.23 -0.18 13.24 -0.18 13.25349 -0.18428 C 13.27 -0.18 13.28 -0.18 13.29386 -0.18404 C 13.31 -0.18 13.32 -0.18 13.33737 -0.18381 C 13.35 -0.18 13.37 -0.18 13.38385 -0.18359 C 13.4 -0.18 13.41 -0.18 13.42794 -0.1834 C 13.44 -0.18 13.46 -0.18 13.47303 -0.18323 C 13.49 -0.18 13.5 -0.18 13.51911 -0.18307 C 13.53 -0.18 13.55 -0.18 13.56614 -0.18293 C 13.58 -0.18 13.6 -0.18 13.6141 -0.18281 C 13.63 -0.18 13.65 -0.18 13.66298 -0.1827 C 13.68 -0.18 13.7 -0.18 13.71272 -0.1826 C 13.73 -0.18 13.75 -0.18 13.76331 -0.18252 C 13.78 -0.18 13.79 -0.18 13.81021 -0.18247 C 13.83 -0.18 13.84 -0.18 13.85774 -0.18242 C 13.92 -0.18 13.97 -0.18 14.03049 -0.18238 C 14.06 -0.18 14.09 -0.18 14.11446 -0.18242 C 14.14 -0.18 14.17 -0.18 14.19784 -0.18251 C 14.23 -0.18 14.25 -0.18 14.2805 -0.18264 C 14.31 -0.18 14.34 -0.18 14.36228 -0.18281 C 14.38 -0.18 14.4 -0.18 14.42429 -0.18297 C 14.44 -0.18 14.46 -0.18 14.48465 -0.18315 C 14.5 -0.18 14.52 -0.18 14.54329 -0.18335 C 14.56 -0.18 14.58 -0.18 14.6002 -0.18357 C 14.62 -0.18 14.64 -0.18 14.65532 -0.18381 C 14.67 -0.18 14.69 -0.18 14.70866 -0.18407 C 14.73 -0.18 14.74 -0.18 14.76018 -0.18435 C 14.78 -0.18 14.79 -0.18 14.80989 -0.18464 L 14.82628 -0.18474 C 14.85 -0.18 14.87 -0.19 14.89017 -0.18517 C 14.9 -0.19 14.91 -0.19 14.91978 -0.18538 C 14.93 -0.19 14.94 -0.19 14.94774 -0.1856 C 14.96 -0.19 14.97 -0.19 14.97398 -0.18582 C 14.98 -0.19 14.99 -0.19 14.99845 -0.18605 C 15.01 -0.19 15.01 -0.19 15.02108 -0.18627 C 15.03 -0.19 15.04 -0.19 15.04182 -0.1865 C 15.05 -0.19 15.05 -0.19 15.06061 -0.18673 C 15.07 -0.19 15.07 -0.19 15.0774 -0.18697 C 15.08 -0.19 15.09 -0.19 15.09215 -0.1872 C 15.1 -0.19 15.1 -0.19 15.10481 -0.18744 C 15.11 -0.19 15.11 -0.19 15.11536 -0.18768 C 15.12 -0.19 15.12 -0.19 15.12376 -0.18792 C 15.13 -0.19 15.13 -0.19 15.12999 -0.18816 C 15.13 -0.19 15.13 -0.19 15.13403 -0.1884 C 15.13 -0.19 15.14 -0.19 15.13552 -0.18856 C 15.14 -0.19 15.14 -0.19 15.13601 -0.18872 C 15.14 -0.19 15.14 -0.19 15.13566 -0.18886 C 15.14 -0.19 15.13 -0.19 15.1339 -0.18906 C 15.13 -0.19 15.13 -0.19 15.13065 -0.18926 C 15.13 -0.19 15.13 -0.19 15.12589 -0.18946 C 15.12 -0.19 15.12 -0.19 15.11963 -0.18965 C 15.12 -0.19 15.11 -0.19 15.11184 -0.18985 C 15.11 -0.19 15.11 -0.19 15.10252 -0.19003 C 15.1 -0.19 15.1 -0.19 15.09166 -0.19022 C 15.09 -0.19 15.08 -0.19 15.07928 -0.19041 C 15.08 -0.19 15.07 -0.19 15.06832 -0.19055 C 15.06 -0.19 15.06 -0.19 15.05639 -0.19069 C 15.05 -0.19 15.05 -0.19 15.04352 -0.19083 C 15.04 -0.19 15.03 -0.19 15.02969 -0.19097 C 15.02 -0.19 15.02 -0.19 15.01493 -0.19111 C 15.01 -0.19 15 -0.19 14.99925 -0.19124 C 14.99 -0.19 14.98 -0.19 14.96518 -0.1915 C 14.95 -0.19 14.94 -0.19 14.92758 -0.19175 C 14.91 -0.19 14.9 -0.19 14.88661 -0.19199 C 14.87 -0.19 14.86 -0.19 14.84242 -0.19223 C 14.83 -0.19 14.81 -0.19 14.79516 -0.19245 C 14.78 -0.19 14.77 -0.19 14.7535 -0.19262 C 14.74 -0.19 14.73 -0.19 14.7109 -0.19279 C 14.7 -0.19 14.68 -0.19 14.66737 -0.19294 C 14.65 -0.19 14.64 -0.19 14.62293 -0.19307 C 14.61 -0.19 14.59 -0.19 14.57761 -0.1932 C 14.56 -0.19 14.55 -0.19 14.53142 -0.1933 C 14.52 -0.19 14.5 -0.19 14.48439 -0.1934 C 14.47 -0.19 14.45 -0.19 14.43655 -0.19348 C 14.42 -0.19 14.4 -0.19 14.38297 -0.19355 C 14.36 -0.19 14.35 -0.19 14.32849 -0.1936 C 14.29 -0.19 14.24 -0.19 14.1993 -0.19365 C 14.17 -0.19 14.14 -0.19 14.10436 -0.19362 C 14.07 -0.19 14.04 -0.19 14.00966 -0.19354 C 13.98 -0.19 13.95 -0.19 13.91542 -0.1934 C 13.88 -0.19 13.85 -0.19 13.82184 -0.19321 C 13.8 -0.19 13.78 -0.19 13.75871 -0.19305 C 13.74 -0.19 13.72 -0.19 13.69733 -0.19287 C 13.68 -0.19 13.66 -0.19 13.63776 -0.19267 C 13.62 -0.19 13.6 -0.19 13.58003 -0.19245 C 13.56 -0.19 13.54 -0.19 13.52418 -0.19221 C 13.51 -0.19 13.49 -0.19 13.47023 -0.19195 C 13.45 -0.19 13.44 -0.19 13.4182 -0.19167 C 13.4 -0.19 13.38 -0.19 13.36809 -0.19137 Z" />
    <path d="M 15.62068 -0.17532 L 15.49177 -0.17445 L 15.75435 -0.17328 L 17.11822 -0.18181 L 16.84222 -0.18304 L 15.85019 -0.17684 C 15.83 -0.18 15.82 -0.18 15.8003 -0.17673 C 15.78 -0.18 15.77 -0.18 15.74974 -0.17664 C 15.73 -0.18 15.72 -0.18 15.69865 -0.17659 C 15.68 -0.18 15.66 -0.18 15.64721 -0.17656 C 15.64 -0.18 15.62 -0.18 15.61262 -0.17656 C 15.6 -0.18 15.59 -0.18 15.57801 -0.17658 C 15.57 -0.18 15.55 -0.18 15.54342 -0.17661 C 15.53 -0.18 15.52 -0.18 15.50892 -0.17665 C 15.5 -0.18 15.49 -0.18 15.47454 -0.1767 C 15.46 -0.18 15.45 -0.18 15.44034 -0.17677 C 15.43 -0.18 15.42 -0.18 15.40635 -0.17685 C 15.4 -0.18 15.38 -0.18 15.37263 -0.17694 C 15.36 -0.18 15.35 -0.18 15.33646 -0.17706 C 15.32 -0.18 15.31 -0.18 15.30067 -0.17718 C 15.29 -0.18 15.28 -0.18 15.26528 -0.17732 C 15.25 -0.18 15.24 -0.18 15.23031 -0.17747 C 15.22 -0.18 15.21 -0.18 15.19395 -0.17765 C 15.18 -0.18 15.17 -0.18 15.16214 -0.17783 C 15.16 -0.18 15.15 -0.18 15.14859 -0.17793 C 15.14 -0.18 15.14 -0.18 15.13623 -0.17802 C 15.13 -0.18 15.13 -0.18 15.1251 -0.17812 C 15.12 -0.18 15.12 -0.18 15.11525 -0.17822 C 15.11 -0.18 15.11 -0.18 15.10671 -0.17832 C 15.1 -0.18 15.1 -0.18 15.09951 -0.17842 C 15.1 -0.18 15.1 -0.18 15.09366 -0.17852 C 15.09 -0.18 15.09 -0.18 15.08918 -0.17863 C 15.09 -0.18 15.09 -0.18 15.08691 -0.1787 C 15.09 -0.18 15.09 -0.18 15.08529 -0.17877 C 15.08 -0.18 15.08 -0.18 15.08431 -0.17885 C 15.08 -0.18 15.08 -0.18 15.08399 -0.17892 C 15.08 -0.18 15.08 -0.18 15.08502 -0.17906 C 15.09 -0.18 15.09 -0.18 15.08808 -0.17919 C 15.09 -0.18 15.09 -0.18 15.09312 -0.17933 C 15.1 -0.18 15.1 -0.18 15.10008 -0.17947 C 15.1 -0.18 15.1 -0.18 15.10685 -0.17958 C 15.11 -0.18 15.11 -0.18 15.11472 -0.17969 C 15.12 -0.18 15.12 -0.18 15.12366 -0.17979 C 15.13 -0.18 15.13 -0.18 15.13363 -0.1799 C 15.14 -0.18 15.15 -0.18 15.15584 -0.18011 C 15.16 -0.18 15.17 -0.18 15.18151 -0.18032 C 15.19 -0.18 15.2 -0.18 15.21032 -0.18053 C 15.22 -0.18 15.22 -0.18 15.22583 -0.18064 C 15.23 -0.18 15.24 -0.18 15.24202 -0.18074 L 16.12312 -0.18625 L 15.84711 -0.18748 L 14.95971 -0.18193 C 14.94 -0.18 14.92 -0.18 14.90355 -0.18156 C 14.89 -0.18 14.87 -0.18 14.85398 -0.18118 C 14.85 -0.18 14.84 -0.18 14.83183 -0.18099 C 14.82 -0.18 14.82 -0.18 14.81152 -0.1808 C 14.81 -0.18 14.8 -0.18 14.79311 -0.18061 C 14.79 -0.18 14.78 -0.18 14.77667 -0.18042 C 14.77 -0.18 14.77 -0.18 14.76382 -0.18025 C 14.76 -0.18 14.76 -0.18 14.75258 -0.18008 C 14.75 -0.18 14.75 -0.18 14.743 -0.17991 C 14.74 -0.18 14.74 -0.18 14.73511 -0.17974 C 14.73 -0.18 14.73 -0.18 14.72894 -0.17957 C 14.73 -0.18 14.73 -0.18 14.72451 -0.1794 C 14.72 -0.18 14.72 -0.18 14.72184 -0.17924 C 14.72 -0.18 14.72 -0.18 14.72095 -0.17907 Q 14.72 -0.18 14.72122 -0.17898 C 14.72 -0.18 14.72 -0.18 14.72404 -0.17876 C 14.73 -0.18 14.73 -0.18 14.7299 -0.17855 C 14.73 -0.18 14.73 -0.18 14.73573 -0.1784 C 14.74 -0.18 14.74 -0.18 14.74302 -0.17826 C 14.75 -0.18 14.75 -0.18 14.75175 -0.17812 C 14.75 -0.18 14.76 -0.18 14.76191 -0.17798 C 14.77 -0.18 14.77 -0.18 14.77349 -0.17784 C 14.78 -0.18 14.78 -0.18 14.78647 -0.1777 C 14.79 -0.18 14.8 -0.18 14.80082 -0.17756 C 14.81 -0.18 14.81 -0.18 14.81654 -0.17743 C 14.82 -0.18 14.83 -0.18 14.83358 -0.1773 C 14.84 -0.18 14.85 -0.18 14.85193 -0.17717 C 14.86 -0.18 14.86 -0.18 14.87155 -0.17704 C 14.88 -0.18 14.89 -0.18 14.89242 -0.17692 C 14.91 -0.18 14.92 -0.18 14.93775 -0.17667 C 14.95 -0.18 14.97 -0.18 14.98766 -0.17643 C 15.01 -0.18 15.03 -0.18 15.04745 -0.17618 C 15.07 -0.18 15.09 -0.18 15.10846 -0.17596 C 15.13 -0.18 15.15 -0.18 15.17059 -0.17576 C 15.19 -0.18 15.21 -0.18 15.23376 -0.1756 C 15.24 -0.18 15.26 -0.18 15.26568 -0.17553 C 15.28 -0.18 15.29 -0.18 15.29782 -0.17547 C 15.31 -0.18 15.32 -0.18 15.33014 -0.17541 C 15.34 -0.18 15.35 -0.18 15.36263 -0.17537 C 15.37 -0.18 15.38 -0.18 15.39528 -0.17533 C 15.41 -0.18 15.42 -0.18 15.42804 -0.17531 C 15.44 -0.18 15.45 -0.18 15.46091 -0.17529 C 15.47 -0.18 15.48 -0.18 15.49385 -0.17528 C 15.51 -0.18 15.54 -0.18 15.55726 -0.17528 C 15.58 -0.18 15.6 -0.18 15.62068 -0.17532 Z" />
    <path d="M 17.5378 -0.17077 C 17.54 -0.17 17.54 -0.17 17.54386 -0.1706 C 17.55 -0.17 17.55 -0.17 17.54589 -0.17042 C 17.55 -0.17 17.55 -0.17 17.54503 -0.17031 C 17.54 -0.17 17.54 -0.17 17.54247 -0.1702 C 17.54 -0.17 17.54 -0.17 17.53876 -0.17011 C 17.54 -0.17 17.54 -0.17 17.53369 -0.17002 C 17.53 -0.17 17.53 -0.17 17.52728 -0.16992 C 17.52 -0.17 17.52 -0.17 17.51952 -0.16983 C 17.52 -0.17 17.51 -0.17 17.51043 -0.16974 C 17.51 -0.17 17.5 -0.17 17.50002 -0.16965 C 17.5 -0.17 17.49 -0.17 17.48828 -0.16956 C 17.48 -0.17 17.48 -0.17 17.47525 -0.16948 C 17.47 -0.17 17.46 -0.17 17.456 -0.16937 C 17.45 -0.17 17.44 -0.17 17.43543 -0.16927 C 17.43 -0.17 17.42 -0.17 17.41356 -0.16919 C 17.41 -0.17 17.4 -0.17 17.39038 -0.16912 C 17.38 -0.17 17.37 -0.17 17.35576 -0.16905 C 17.34 -0.17 17.33 -0.17 17.31868 -0.16901 C 17.31 -0.17 17.29 -0.17 17.27922 -0.16899 C 17.27 -0.17 17.25 -0.17 17.23744 -0.16901 C 17.21 -0.17 17.19 -0.17 17.16187 -0.16909 C 17.14 -0.17 17.11 -0.17 17.0857 -0.16925 C 17.06 -0.17 17.03 -0.17 17.00916 -0.16949 C 16.98 -0.17 16.96 -0.17 16.93248 -0.16979 C 16.92 -0.17 16.91 -0.17 16.89278 -0.16998 C 16.88 -0.17 16.87 -0.17 16.8569 -0.17017 C 16.85 -0.17 16.83 -0.17 16.82496 -0.17037 C 16.81 -0.17 16.81 -0.17 16.79707 -0.17058 C 16.79 -0.17 16.78 -0.17 16.7733 -0.17079 C 16.77 -0.17 16.76 -0.17 16.75373 -0.171 C 16.75 -0.17 16.74 -0.17 16.73842 -0.17122 C 16.73 -0.17 16.73 -0.17 16.72741 -0.17144 C 16.72 -0.17 16.72 -0.17 16.72108 -0.17166 C 16.72 -0.17 16.72 -0.17 16.71896 -0.17187 C 16.72 -0.17 16.72 -0.17 16.72014 -0.17202 C 16.72 -0.17 16.72 -0.17 16.72371 -0.17218 C 16.72 -0.17 16.73 -0.17 16.72827 -0.1723 C 16.73 -0.17 16.73 -0.17 16.73435 -0.17242 C 16.74 -0.17 16.74 -0.17 16.74194 -0.17253 C 16.74 -0.17 16.75 -0.17 16.75103 -0.17265 C 16.75 -0.17 16.76 -0.17 16.76162 -0.17277 C 16.77 -0.17 16.77 -0.17 16.77368 -0.17288 C 16.78 -0.17 16.78 -0.17 16.78721 -0.17299 C 16.79 -0.17 16.8 -0.17 16.80219 -0.1731 L 16.52619 -0.17433 C 16.52 -0.17 16.51 -0.17 16.50392 -0.17419 C 16.5 -0.17 16.49 -0.17 16.48349 -0.17403 C 16.48 -0.17 16.47 -0.17 16.46491 -0.17388 C 16.46 -0.17 16.45 -0.17 16.44819 -0.17371 C 16.44 -0.17 16.44 -0.17 16.43612 -0.17358 C 16.43 -0.17 16.43 -0.17 16.42525 -0.17344 C 16.42 -0.17 16.42 -0.17 16.4156 -0.1733 C 16.41 -0.17 16.41 -0.17 16.40716 -0.17316 C 16.4 -0.17 16.4 -0.17 16.39391 -0.17286 C 16.39 -0.17 16.39 -0.17 16.38548 -0.17255 C 16.38 -0.17 16.38 -0.17 16.38292 -0.17238 C 16.38 -0.17 16.38 -0.17 16.38199 -0.1722 C 16.38 -0.17 16.38 -0.17 16.38198 -0.17219 C 16.38 -0.17 16.38 -0.17 16.38316 -0.17197 C 16.38 -0.17 16.39 -0.17 16.38671 -0.17176 C 16.39 -0.17 16.39 -0.17 16.39262 -0.17155 C 16.39 -0.17 16.4 -0.17 16.40087 -0.17134 C 16.4 -0.17 16.41 -0.17 16.41145 -0.17113 C 16.42 -0.17 16.42 -0.17 16.42435 -0.17092 C 16.43 -0.17 16.43 -0.17 16.43954 -0.17071 C 16.44 -0.17 16.45 -0.17 16.45699 -0.1705 C 16.46 -0.17 16.47 -0.17 16.48169 -0.17024 C 16.49 -0.17 16.5 -0.17 16.50961 -0.16999 C 16.52 -0.17 16.53 -0.17 16.54071 -0.16974 C 16.55 -0.17 16.56 -0.17 16.57496 -0.1695 C 16.59 -0.17 16.6 -0.17 16.61228 -0.16927 C 16.63 -0.17 16.64 -0.17 16.65263 -0.16904 C 16.67 -0.17 16.68 -0.17 16.69594 -0.16882 C 16.71 -0.17 16.73 -0.17 16.74214 -0.1686 C 16.76 -0.17 16.79 -0.17 16.80988 -0.16832 C 16.83 -0.17 16.86 -0.17 16.87883 -0.16806 C 16.89 -0.17 16.9 -0.17 16.91373 -0.16795 C 16.93 -0.17 16.94 -0.17 16.94889 -0.16784 C 16.96 -0.17 16.97 -0.17 16.98432 -0.16775 C 17 -0.17 17.01 -0.17 17.01999 -0.16766 C 17.04 -0.17 17.07 -0.17 17.08943 -0.16751 C 17.11 -0.17 17.14 -0.17 17.15959 -0.1674 C 17.18 -0.17 17.21 -0.17 17.23034 -0.16733 C 17.25 -0.17 17.28 -0.17 17.3015 -0.16729 C 17.32 -0.17 17.35 -0.17 17.3703 -0.16729 C 17.39 -0.17 17.41 -0.17 17.43659 -0.16732 C 17.45 -0.17 17.46 -0.17 17.46872 -0.16736 C 17.48 -0.17 17.49 -0.17 17.50012 -0.1674 C 17.51 -0.17 17.52 -0.17 17.53078 -0.16745 C 17.54 -0.17 17.55 -0.17 17.56065 -0.16751 C 17.57 -0.17 17.58 -0.17 17.58948 -0.16759 C 17.6 -0.17 17.61 -0.17 17.6175 -0.16767 C 17.63 -0.17 17.64 -0.17 17.64468 -0.16776 C 17.65 -0.17 17.66 -0.17 17.67102 -0.16786 C 17.68 -0.17 17.69 -0.17 17.69649 -0.16797 C 17.7 -0.17 17.71 -0.17 17.72109 -0.16808 C 17.73 -0.17 17.74 -0.17 17.7448 -0.16821 C 17.75 -0.17 17.76 -0.17 17.76764 -0.16835 C 17.78 -0.17 17.79 -0.17 17.79336 -0.16852 C 17.8 -0.17 17.81 -0.17 17.81622 -0.16869 C 17.82 -0.17 17.83 -0.17 17.83619 -0.16887 C 17.84 -0.17 17.85 -0.17 17.85323 -0.16905 C 17.86 -0.17 17.86 -0.17 17.86732 -0.16923 C 17.87 -0.17 17.88 -0.17 17.87843 -0.16941 C 17.88 -0.17 17.88 -0.17 17.88654 -0.1696 C 17.89 -0.17 17.89 -0.17 17.89165 -0.16979 C 17.89 -0.17 17.89 -0.17 17.89397 -0.17004 C 17.89 -0.17 17.89 -0.17 17.89299 -0.1702 C 17.89 -0.17 17.89 -0.17 17.89003 -0.17037 C 17.89 -0.17 17.89 -0.17 17.88512 -0.17054 C 17.88 -0.17 17.88 -0.17 17.87826 -0.17072 C 17.88 -0.17 17.87 -0.17 17.86949 -0.1709 C 17.87 -0.17 17.86 -0.17 17.85883 -0.17108 C 17.85 -0.17 17.85 -0.17 17.84628 -0.17126 C 17.84 -0.17 17.84 -0.17 17.83189 -0.17145 C 17.83 -0.17 17.82 -0.17 17.81129 -0.17169 C 17.8 -0.17 17.8 -0.17 17.78778 -0.17194 C 17.78 -0.17 17.77 -0.17 17.76144 -0.17219 C 17.75 -0.17 17.74 -0.17 17.73235 -0.17244 C 17.71 -0.17 17.69 -0.17 17.66628 -0.17298 C 17.64 -0.17 17.62 -0.17 17.59024 -0.17353 C 17.58 -0.17 17.56 -0.17 17.55225 -0.1738 C 17.54 -0.17 17.53 -0.17 17.51746 -0.17406 C 17.51 -0.17 17.5 -0.17 17.48606 -0.1743 C 17.48 -0.17 17.47 -0.17 17.45824 -0.17454 C 17.45 -0.17 17.44 -0.17 17.4342 -0.17475 C 17.43 -0.17 17.42 -0.17 17.41411 -0.17496 C 17.41 -0.18 17.4 -0.18 17.39814 -0.17515 C 17.4 -0.18 17.39 -0.18 17.39176 -0.17523 C 17.39 -0.18 17.39 -0.18 17.38647 -0.17532 C 17.38 -0.18 17.38 -0.18 17.38172 -0.17541 C 17.38 -0.18 17.38 -0.18 17.37832 -0.1755 C 17.38 -0.18 17.38 -0.18 17.37628 -0.17559 C 17.38 -0.18 17.38 -0.18 17.3756 -0.17568 C 17.38 -0.18 17.38 -0.18 17.3777 -0.17584 C 17.38 -0.18 17.38 -0.18 17.38058 -0.17592 C 17.38 -0.18 17.38 -0.18 17.38468 -0.176 C 17.39 -0.18 17.39 -0.18 17.39 -0.17608 C 17.39 -0.18 17.39 -0.18 17.39654 -0.17616 C 17.4 -0.18 17.41 -0.18 17.41323 -0.17631 C 17.42 -0.18 17.43 -0.18 17.43471 -0.17647 C 17.44 -0.18 17.45 -0.18 17.457 -0.17659 C 17.46 -0.18 17.47 -0.18 17.48083 -0.1767 C 17.49 -0.18 17.5 -0.18 17.50619 -0.17679 C 17.51 -0.18 17.52 -0.18 17.53306 -0.17687 C 17.54 -0.18 17.55 -0.18 17.56349 -0.17693 C 17.57 -0.18 17.58 -0.18 17.5956 -0.17697 C 17.61 -0.18 17.62 -0.18 17.62935 -0.17699 C 17.64 -0.18 17.65 -0.18 17.66471 -0.17699 C 17.69 -0.18 17.71 -0.18 17.73641 -0.17694 C 17.76 -0.18 17.78 -0.18 17.80901 -0.1768 C 17.83 -0.18 17.86 -0.18 17.88226 -0.17658 C 17.91 -0.18 17.93 -0.18 17.95589 -0.17629 C 17.97 -0.18 17.97 -0.18 17.98342 -0.17616 C 17.99 -0.18 18 -0.18 18.00874 -0.17602 C 18.02 -0.18 18.02 -0.18 18.03182 -0.17588 C 18.04 -0.18 18.05 -0.18 18.05263 -0.17574 C 18.06 -0.18 18.07 -0.18 18.07114 -0.17559 C 18.08 -0.18 18.08 -0.18 18.08732 -0.17544 C 18.09 -0.18 18.1 -0.18 18.10116 -0.17528 C 18.11 -0.18 18.11 -0.18 18.11265 -0.17512 C 18.12 -0.18 18.12 -0.18 18.12212 -0.17495 C 18.12 -0.17 18.13 -0.17 18.129 -0.17477 C 18.13 -0.17 18.13 -0.17 18.13342 -0.17459 C 18.13 -0.17 18.13 -0.17 18.1349 -0.17441 C 18.13 -0.17 18.13 -0.17 18.13345 -0.17423 C 18.13 -0.17 18.13 -0.17 18.12912 -0.17407 C 18.13 -0.17 18.12 -0.17 18.12187 -0.17391 C 18.12 -0.17 18.12 -0.17 18.1117 -0.17376 C 18.11 -0.17 18.11 -0.17 18.10154 -0.17364 C 18.1 -0.17 18.09 -0.17 18.08955 -0.17352 C 18.09 -0.17 18.08 -0.17 18.07573 -0.17342 C 18.07 -0.17 18.07 -0.17 18.0601 -0.17331 L 18.3376 -0.17207 C 18.35 -0.17 18.35 -0.17 18.35938 -0.17221 C 18.37 -0.17 18.37 -0.17 18.37951 -0.17236 C 18.39 -0.17 18.39 -0.17 18.39794 -0.17251 C 18.4 -0.17 18.41 -0.17 18.41464 -0.17266 C 18.42 -0.17 18.42 -0.17 18.42958 -0.17282 C 18.43 -0.17 18.44 -0.17 18.44274 -0.17298 C 18.45 -0.17 18.45 -0.17 18.4541 -0.17314 C 18.46 -0.17 18.46 -0.17 18.46364 -0.1733 C 18.47 -0.17 18.47 -0.17 18.47259 -0.1735 C 18.48 -0.17 18.48 -0.17 18.47897 -0.1737 C 18.48 -0.17 18.48 -0.17 18.48279 -0.17391 C 18.48 -0.17 18.48 -0.17 18.48405 -0.17412 C 18.48 -0.17 18.48 -0.17 18.48336 -0.17427 C 18.48 -0.17 18.48 -0.17 18.48129 -0.17443 C 18.48 -0.17 18.48 -0.17 18.47785 -0.17459 C 18.48 -0.17 18.47 -0.17 18.47308 -0.17475 C 18.47 -0.17 18.47 -0.17 18.46375 -0.17498 C 18.46 -0.18 18.46 -0.18 18.45504 -0.17515 C 18.45 -0.18 18.45 -0.18 18.44483 -0.17532 C 18.44 -0.18 18.44 -0.18 18.43313 -0.17549 C 18.43 -0.18 18.42 -0.18 18.41994 -0.17566 C 18.42 -0.18 18.41 -0.18 18.4053 -0.17582 C 18.4 -0.18 18.39 -0.18 18.3892 -0.17598 C 18.38 -0.18 18.38 -0.18 18.37168 -0.17614 C 18.37 -0.18 18.36 -0.18 18.35276 -0.1763 C 18.35 -0.18 18.34 -0.18 18.33187 -0.17646 C 18.32 -0.18 18.32 -0.18 18.30954 -0.17661 C 18.3 -0.18 18.29 -0.18 18.28582 -0.17676 C 18.28 -0.18 18.27 -0.18 18.26074 -0.17691 C 18.24 -0.18 18.23 -0.18 18.20663 -0.1772 C 18.19 -0.18 18.17 -0.18 18.14749 -0.17749 C 18.13 -0.18 18.11 -0.18 18.09117 -0.17772 C 18.07 -0.18 18.05 -0.18 18.0337 -0.17794 C 18.01 -0.18 17.99 -0.18 17.97512 -0.17812 C 17.96 -0.18 17.94 -0.18 17.91549 -0.17828 C 17.9 -0.18 17.88 -0.18 17.85488 -0.17842 C 17.83 -0.18 17.81 -0.18 17.79339 -0.17853 C 17.77 -0.18 17.75 -0.18 17.73111 -0.1786 C 17.71 -0.18 17.69 -0.18 17.66813 -0.17865 C 17.65 -0.18 17.62 -0.18 17.6026 -0.17867 C 17.59 -0.18 17.57 -0.18 17.56006 -0.17867 C 17.55 -0.18 17.53 -0.18 17.51859 -0.17866 C 17.5 -0.18 17.49 -0.18 17.47824 -0.17863 C 17.46 -0.18 17.45 -0.18 17.43908 -0.17859 C 17.43 -0.18 17.41 -0.18 17.40115 -0.17853 C 17.39 -0.18 17.38 -0.18 17.36452 -0.17847 C 17.35 -0.18 17.34 -0.18 17.32923 -0.17839 C 17.32 -0.18 17.31 -0.18 17.29533 -0.17829 C 17.28 -0.18 17.27 -0.18 17.25598 -0.17816 C 17.24 -0.18 17.23 -0.18 17.21881 -0.17801 C 17.21 -0.18 17.2 -0.18 17.18386 -0.17784 C 17.17 -0.18 17.16 -0.18 17.15114 -0.17765 C 17.14 -0.18 17.14 -0.18 17.13058 -0.17751 C 17.12 -0.18 17.12 -0.18 17.11195 -0.17738 C 17.11 -0.18 17.1 -0.18 17.09528 -0.17724 C 17.09 -0.18 17.09 -0.18 17.08059 -0.17709 C 17.08 -0.18 17.07 -0.18 17.06788 -0.17695 C 17.06 -0.18 17.06 -0.18 17.05717 -0.1768 C 17.05 -0.18 17.05 -0.18 17.04848 -0.17665 C 17.05 -0.18 17.04 -0.18 17.04179 -0.1765 C 17.04 -0.18 17.04 -0.18 17.03612 -0.1763 C 17.03 -0.18 17.03 -0.18 17.03374 -0.17605 C 17.03 -0.18 17.03 -0.18 17.03466 -0.17589 C 17.04 -0.18 17.04 -0.18 17.03744 -0.17573 C 17.04 -0.18 17.04 -0.18 17.04206 -0.17557 C 17.04 -0.18 17.05 -0.18 17.04849 -0.1754 C 17.05 -0.18 17.05 -0.18 17.05673 -0.17523 C 17.06 -0.18 17.06 -0.18 17.06676 -0.17506 C 17.07 -0.17 17.07 -0.17 17.07855 -0.17488 C 17.08 -0.17 17.09 -0.17 17.09208 -0.1747 C 17.1 -0.17 17.1 -0.17 17.11187 -0.17447 C 17.12 -0.17 17.13 -0.17 17.13484 -0.17423 C 17.14 -0.17 17.15 -0.17 17.1609 -0.17398 C 17.17 -0.17 17.18 -0.17 17.18994 -0.17373 C 17.21 -0.17 17.23 -0.17 17.25661 -0.1732 C 17.27 -0.17 17.28 -0.17 17.29402 -0.17293 C 17.31 -0.17 17.32 -0.17 17.33402 -0.17265 C 17.35 -0.17 17.36 -0.17 17.37297 -0.17237 C 17.39 -0.17 17.4 -0.17 17.40845 -0.17211 C 17.42 -0.17 17.43 -0.17 17.44027 -0.17186 C 17.45 -0.17 17.46 -0.17 17.46824 -0.17162 C 17.48 -0.17 17.48 -0.17 17.49216 -0.17139 C 17.5 -0.17 17.51 -0.17 17.51184 -0.17117 C 17.52 -0.17 17.52 -0.17 17.52711 -0.17096 C 17.53 -0.17 17.53 -0.17 17.53304 -0.17087 C 17.53 -0.17 17.54 -0.17 17.5378 -0.17077 Z" />
    <path d="M 18.04173 -0.16475 C 18.04 -0.16 18.04 -0.16 18.04433 -0.16458 C 18.05 -0.16 18.05 -0.16 18.04806 -0.1644 C 18.05 -0.16 18.05 -0.16 18.05293 -0.16423 C 18.05 -0.16 18.06 -0.16 18.05895 -0.16406 C 18.06 -0.16 18.06 -0.16 18.06613 -0.16389 C 18.07 -0.16 18.07 -0.16 18.07447 -0.16373 C 18.08 -0.16 18.08 -0.16 18.08396 -0.16356 C 18.09 -0.16 18.09 -0.16 18.09461 -0.1634 C 18.1 -0.16 18.1 -0.16 18.10589 -0.16325 C 18.11 -0.16 18.11 -0.16 18.11822 -0.1631 C 18.12 -0.16 18.13 -0.16 18.13159 -0.16295 C 18.14 -0.16 18.14 -0.16 18.146 -0.1628 C 18.15 -0.16 18.16 -0.16 18.16142 -0.16266 C 18.17 -0.16 18.17 -0.16 18.17785 -0.16251 C 18.18 -0.16 18.19 -0.16 18.19528 -0.16237 C 18.2 -0.16 18.21 -0.16 18.21368 -0.16224 C 18.23 -0.16 18.24 -0.16 18.25334 -0.16197 C 18.27 -0.16 18.28 -0.16 18.29668 -0.16171 C 18.31 -0.16 18.33 -0.16 18.34352 -0.16147 C 18.36 -0.16 18.38 -0.16 18.39369 -0.16123 C 18.41 -0.16 18.42 -0.16 18.43331 -0.16106 C 18.45 -0.16 18.46 -0.16 18.4737 -0.1609 C 18.49 -0.16 18.5 -0.16 18.51486 -0.16075 C 18.53 -0.16 18.54 -0.16 18.55676 -0.16061 C 18.57 -0.16 18.58 -0.16 18.59737 -0.16049 C 18.61 -0.16 18.62 -0.16 18.63861 -0.16038 C 18.65 -0.16 18.67 -0.16 18.68045 -0.16029 C 18.69 -0.16 18.71 -0.16 18.72285 -0.1602 C 18.74 -0.16 18.75 -0.16 18.76577 -0.16013 C 18.78 -0.16 18.79 -0.16 18.80916 -0.16007 C 18.82 -0.16 18.84 -0.16 18.85297 -0.16002 C 18.87 -0.16 18.88 -0.16 18.89715 -0.15998 C 18.91 -0.16 18.93 -0.16 18.94277 -0.15996 C 18.96 -0.16 18.97 -0.16 18.98866 -0.15995 C 19 -0.16 19.02 -0.16 19.03474 -0.15995 C 19.05 -0.16 19.07 -0.16 19.08094 -0.15997 C 19.1 -0.16 19.11 -0.16 19.12722 -0.16 C 19.14 -0.16 19.16 -0.16 19.17349 -0.16004 C 19.19 -0.16 19.2 -0.16 19.21972 -0.16009 C 19.24 -0.16 19.25 -0.16 19.26584 -0.16016 L 19.20818 -0.16161 C 19.18 -0.16 19.16 -0.16 19.12918 -0.16154 C 19.1 -0.16 19.08 -0.16 19.05095 -0.16151 C 19.03 -0.16 19 -0.16 18.97354 -0.16152 C 18.95 -0.16 18.92 -0.16 18.89703 -0.16156 C 18.87 -0.16 18.85 -0.16 18.82087 -0.16167 C 18.8 -0.16 18.77 -0.16 18.74571 -0.16183 C 18.72 -0.16 18.7 -0.16 18.67169 -0.16206 C 18.65 -0.16 18.62 -0.16 18.59895 -0.16235 C 18.59 -0.16 18.58 -0.16 18.57161 -0.16248 C 18.56 -0.16 18.55 -0.16 18.546 -0.16262 C 18.54 -0.16 18.53 -0.16 18.52216 -0.16275 C 18.51 -0.16 18.51 -0.16 18.50014 -0.1629 C 18.49 -0.16 18.49 -0.16 18.47996 -0.16305 C 18.47 -0.16 18.47 -0.16 18.46166 -0.1632 C 18.46 -0.16 18.45 -0.16 18.44525 -0.16336 C 18.44 -0.16 18.44 -0.16 18.43076 -0.16352 C 18.43 -0.16 18.42 -0.16 18.42059 -0.16365 C 18.42 -0.16 18.41 -0.16 18.41165 -0.16378 C 18.41 -0.16 18.41 -0.16 18.40394 -0.16392 C 18.4 -0.16 18.4 -0.16 18.39746 -0.16406 C 18.4 -0.16 18.39 -0.16 18.3922 -0.1642 C 18.39 -0.16 18.39 -0.16 18.38816 -0.16435 C 18.39 -0.16 18.39 -0.16 18.38533 -0.1645 C 18.38 -0.16 18.38 -0.16 18.3837 -0.16465 C 18.38 -0.16 18.38 -0.16 18.38327 -0.16477 C 18.38 -0.16 18.38 -0.16 18.38525 -0.16504 C 18.39 -0.17 18.39 -0.17 18.38805 -0.16519 C 18.39 -0.17 18.39 -0.17 18.39206 -0.16533 C 18.39 -0.17 18.4 -0.17 18.39728 -0.16548 C 18.4 -0.17 18.4 -0.17 18.40369 -0.16563 C 18.41 -0.17 18.41 -0.17 18.4113 -0.16577 C 18.41 -0.17 18.42 -0.17 18.42009 -0.16592 C 18.42 -0.17 18.43 -0.17 18.43006 -0.16606 C 18.43 -0.17 18.44 -0.17 18.44119 -0.1662 C 18.45 -0.17 18.45 -0.17 18.45346 -0.16634 C 18.46 -0.17 18.46 -0.17 18.46687 -0.16648 C 18.48 -0.17 18.49 -0.17 18.497 -0.16676 C 18.51 -0.17 18.52 -0.17 18.53145 -0.16704 C 18.54 -0.17 18.56 -0.17 18.57005 -0.16731 L 19.66362 -0.16242 L 19.76068 -0.16303 C 19.77 -0.16 19.79 -0.16 19.7985 -0.16327 C 19.81 -0.16 19.82 -0.16 19.83446 -0.16352 C 19.85 -0.16 19.86 -0.16 19.86848 -0.16377 C 19.88 -0.16 19.89 -0.16 19.90045 -0.16402 C 19.92 -0.16 19.94 -0.16 19.95781 -0.16452 C 19.97 -0.16 19.98 -0.16 19.98299 -0.16478 C 19.99 -0.16 20 -0.16 20.0057 -0.16503 C 20.01 -0.17 20.02 -0.17 20.02443 -0.16527 C 20.03 -0.17 20.04 -0.17 20.04088 -0.16551 C 20.05 -0.17 20.05 -0.17 20.05496 -0.16575 C 20.06 -0.17 20.06 -0.17 20.06661 -0.16599 C 20.07 -0.17 20.07 -0.17 20.07577 -0.16623 C 20.08 -0.17 20.08 -0.17 20.08238 -0.16647 C 20.08 -0.17 20.09 -0.17 20.08641 -0.16671 C 20.09 -0.17 20.09 -0.17 20.08781 -0.16695 Q 20.09 -0.17 20.08781 -0.16696 C 20.09 -0.17 20.09 -0.17 20.08613 -0.16723 C 20.09 -0.17 20.08 -0.17 20.08104 -0.16749 C 20.08 -0.17 20.08 -0.17 20.07721 -0.16763 C 20.08 -0.17 20.07 -0.17 20.07252 -0.16776 C 20.07 -0.17 20.07 -0.17 20.06697 -0.16789 C 20.06 -0.17 20.06 -0.17 20.06056 -0.16802 C 20.06 -0.17 20.05 -0.17 20.05157 -0.16817 C 20.05 -0.17 20.04 -0.17 20.0413 -0.16832 C 20.04 -0.17 20.03 -0.17 20.02977 -0.16848 C 20.03 -0.17 20.02 -0.17 20.01699 -0.16863 C 20.01 -0.17 20.01 -0.17 20.00298 -0.16877 C 20 -0.17 19.99 -0.17 19.98774 -0.16892 C 19.98 -0.17 19.98 -0.17 19.97131 -0.16906 C 19.97 -0.17 19.96 -0.17 19.9537 -0.1692 C 19.95 -0.17 19.94 -0.17 19.93494 -0.16934 C 19.93 -0.17 19.92 -0.17 19.91505 -0.16947 C 19.9 -0.17 19.89 -0.17 19.872 -0.16973 C 19.86 -0.17 19.84 -0.17 19.82479 -0.16999 C 19.81 -0.17 19.79 -0.17 19.77367 -0.17023 C 19.76 -0.17 19.75 -0.17 19.7309 -0.17041 C 19.72 -0.17 19.7 -0.17 19.68652 -0.17057 C 19.67 -0.17 19.66 -0.17 19.64058 -0.17072 C 19.63 -0.17 19.61 -0.17 19.59309 -0.17085 C 19.57 -0.17 19.55 -0.17 19.52986 -0.17099 C 19.51 -0.17 19.49 -0.17 19.46424 -0.17111 C 19.44 -0.17 19.42 -0.17 19.39633 -0.1712 C 19.37 -0.17 19.35 -0.17 19.32623 -0.17126 C 19.28 -0.17 19.23 -0.17 19.18729 -0.1713 C 19.16 -0.17 19.13 -0.17 19.09461 -0.17126 C 19.06 -0.17 19.03 -0.17 19.00238 -0.17117 C 18.97 -0.17 18.94 -0.17 18.9108 -0.17103 C 18.88 -0.17 18.85 -0.17 18.82004 -0.17084 C 18.8 -0.17 18.78 -0.17 18.75724 -0.17068 C 18.74 -0.17 18.72 -0.17 18.69608 -0.1705 C 18.68 -0.17 18.66 -0.17 18.63663 -0.1703 C 18.62 -0.17 18.6 -0.17 18.57891 -0.17008 C 18.56 -0.17 18.54 -0.17 18.52296 -0.16983 C 18.5 -0.17 18.49 -0.17 18.4688 -0.16957 C 18.45 -0.17 18.43 -0.17 18.41644 -0.16929 C 18.4 -0.17 18.38 -0.17 18.36589 -0.16899 L 18.32304 -0.16872 C 18.3 -0.17 18.28 -0.17 18.26611 -0.16834 C 18.26 -0.17 18.25 -0.17 18.2397 -0.16815 C 18.23 -0.17 18.22 -0.17 18.21474 -0.16795 C 18.21 -0.17 18.2 -0.17 18.19126 -0.16776 C 18.18 -0.17 18.18 -0.17 18.16932 -0.16756 C 18.16 -0.17 18.16 -0.17 18.14897 -0.16736 C 18.14 -0.17 18.14 -0.17 18.13025 -0.16715 C 18.12 -0.17 18.12 -0.17 18.1132 -0.16695 C 18.11 -0.17 18.1 -0.17 18.09787 -0.16674 C 18.09 -0.17 18.09 -0.17 18.08427 -0.16653 C 18.08 -0.17 18.08 -0.17 18.07246 -0.16632 C 18.07 -0.17 18.07 -0.17 18.06244 -0.16611 C 18.06 -0.17 18.06 -0.17 18.05426 -0.1659 C 18.05 -0.17 18.05 -0.17 18.04791 -0.16568 C 18.05 -0.17 18.04 -0.17 18.04342 -0.16547 C 18.04 -0.17 18.04 -0.17 18.04087 -0.16526 C 18.04 -0.17 18.04 -0.17 18.04002 -0.16505 C 18.04 -0.16 18.04 -0.16 18.04173 -0.16475 Z" />
    <path d="M -2.16625 -0.27293 L -2.53624 -0.27458 L -4.37155 -0.26311 L -4.08511 -0.26183 L -3.37039 -0.2663 L -2.63109 -0.27122 L -3.40181 -0.25878 L -3.1825 -0.2578 L -0.98322 -0.26391 L -1.78151 -0.25921 L -2.49622 -0.25474 L -2.20977 -0.25346 L -0.37446 -0.26493 L -0.74595 -0.26659 L -2.95359 -0.2604 L -2.16625 -0.27293 Z" />
    <path d="M 0.64227 0.77205 L 0.64227 0.02206" />
    <path d="M 49.69137 0.46538 L 49.69137 -0.28461" />
    <path d="M 49.76624 0.46485 L 49.76624 -0.28514" />
    <path d="M 9.19704 -0.22034 L 9.19704 -0.2233" />
    <path d="M 7.18804 -0.22811 L 7.18804 -0.23118" />
    <path d="M 12.99992 -0.20336 L 12.99992 -0.20632" />
    <path d="M 12.53853 -0.19936 L 12.53853 -0.20048" />
    <path d="M 12.95991 -0.19247 L 12.95991 -0.19542" />
    <path d="M 0.76207 -0.24196 L 0.76207 -0.24386" />
    <path d="M 2.16031 -0.24633 L 2.16031 -0.24857" />
    <path d="M -0.53281 -0.2401 L -0.53281 -0.24231" />
    <path d="M -0.46326 -0.23988 L -0.46326 -0.24195" />
    <path d="M 0.10747 -0.23998 L 0.10747 -0.24179" />
    <path d="M 0.30729 -0.24054 L 0.30729 -0.24239" />
    <path d="M 1.08016 -0.24806 L 1.08016 -0.25339" />
    <path d="M -0.64577 -0.24648 L -0.64577 -0.24802" />
    <path d="M 0.03295 -0.24935 L 0.03295 -0.25231" />
    <path d="M 2.41712 -0.23281 L 2.41712 -0.23435" />
    <path d="M 3.09585 -0.23568 L 3.09585 -0.23864" />
    <path d="M 3.33022 -0.22875 L 3.33022 -0.23323" />
    <path d="M 10.48785 -0.19855 L 10.48785 -0.20045" />
    <path d="M 11.88608 -0.20292 L 11.88608 -0.20516" />
    <path d="M 9.19296 -0.19669 L 9.19296 -0.19891" />
    <path d="M 9.26252 -0.19647 L 9.26252 -0.19854" />
    <path d="M 9.83324 -0.19657 L 9.83324 -0.19839" />
    <path d="M 10.03307 -0.19713 L 10.03307 -0.19898" />
    <path d="M 10.80594 -0.20465 L 10.80594 -0.20998" />
    <path d="M 9.08 -0.20307 L 9.08 -0.20461" />
    <path d="M 9.75873 -0.20594 L 9.75873 -0.2089" />
    <path d="M 15.62068 -0.17388 L 15.62068 -0.17532" />
    <path d="M 14.95971 -0.17656 L 14.95971 -0.18193" />
    <path d="M 15.84711 -0.18452 L 15.84711 -0.18748" />
    <path d="M 15.85019 -0.17388 L 15.85019 -0.17684" />
    <path d="M 16.84222 -0.18008 L 16.84222 -0.18304" />
    <path d="M 16.52619 -0.16985 L 16.52619 -0.17433" />
    <path d="M 19.20818 -0.16008 L 19.20818 -0.16161" />
    <path d="M -2.53624 -0.26704 L -2.53624 -0.27458" />
    <path d="M -2.95359 -0.25844 L -2.95359 -0.2604" />
    <path d="M -0.74595 -0.26261 L -0.74595 -0.26659" />
    <path d="M -1.78151 -0.25614 L -1.78151 -0.25921" />
    <path d="M -0.98322 -0.26113 L -0.98322 -0.26391" />
    <path d="M -2.63109 -0.26553 L -2.63109 -0.27122" />
    <path d="M 6.55557 -0.22204 L 6.55557 -0.22416 L 7.27533 -0.22866 L 7.80645 -0.22629 C 7.82 -0.23 7.84 -0.23 7.85063 -0.22607 C 7.86 -0.23 7.88 -0.23 7.89063 -0.22584 C 7.9 -0.23 7.92 -0.23 7.92626 -0.22561 C 7.93 -0.23 7.94 -0.23 7.94239 -0.22549 C 7.95 -0.23 7.95 -0.23 7.95737 -0.22537 C 7.96 -0.23 7.97 -0.23 7.97118 -0.22525 C 7.98 -0.23 7.98 -0.23 7.98382 -0.22513 C 7.99 -0.23 7.99 -0.23 7.99526 -0.225 C 8 -0.22 8 -0.22 8.0055 -0.22488 C 8.01 -0.22 8.01 -0.22 8.01452 -0.22475 C 8.02 -0.22 8.02 -0.22 8.02231 -0.22462 C 8.02 -0.22 8.03 -0.22 8.02887 -0.22449 C 8.03 -0.22 8.03 -0.22 8.0342 -0.22436 C 8.04 -0.22 8.04 -0.22 8.04003 -0.22415 C 8.04 -0.22 8.04 -0.22 8.04233 -0.224 C 8.04 -0.22 8.04 -0.22 8.0431 -0.22386 C 8.04 -0.22 8.04 -0.22 8.04198 -0.22368 C 8.04 -0.22 8.04 -0.22 8.03863 -0.22351 C 8.04 -0.22 8.03 -0.22 8.03183 -0.2233 C 8.03 -0.22 8.03 -0.22 8.02196 -0.2231 C 8.02 -0.22 8.01 -0.22 8.00903 -0.22291 C 8 -0.22 8 -0.22 7.99309 -0.22271 C 7.99 -0.22 7.98 -0.22 7.97417 -0.22252 C 7.97 -0.22 7.96 -0.22 7.95233 -0.22233 C 7.94 -0.22 7.94 -0.22 7.92764 -0.22215 C 7.92 -0.22 7.91 -0.22 7.90018 -0.22197 C 7.89 -0.22 7.88 -0.22 7.8656 -0.22176 C 7.85 -0.22 7.84 -0.22 7.82989 -0.22158 C 7.82 -0.22 7.81 -0.22 7.79305 -0.22141 C 7.78 -0.22 7.77 -0.22 7.75511 -0.22127 C 7.74 -0.22 7.73 -0.22 7.7161 -0.22115 C 7.7 -0.22 7.69 -0.22 7.67606 -0.22104 C 7.66 -0.22 7.65 -0.22 7.63504 -0.22096 C 7.62 -0.22 7.61 -0.22 7.59308 -0.22091 C 7.58 -0.22 7.57 -0.22 7.55376 -0.22087 C 7.54 -0.22 7.53 -0.22 7.51376 -0.22086 C 7.5 -0.22 7.48 -0.22 7.45872 -0.22087 C 7.44 -0.22 7.42 -0.22 7.40334 -0.22092 C 7.38 -0.22 7.37 -0.22 7.34774 -0.22099 C 7.33 -0.22 7.31 -0.22 7.29204 -0.22111 C 7.27 -0.22 7.25 -0.22 7.23634 -0.22125 C 7.22 -0.22 7.2 -0.22 7.18075 -0.22142 C 7.16 -0.22 7.14 -0.22 7.12537 -0.22163 C 7.11 -0.22 7.09 -0.22 7.07028 -0.22186 L 6.55557 -0.22416" />
    <path d="M -0.72808 -0.24936 C -0.75 -0.25 -0.76 -0.25 -0.78115 -0.24942 C -0.8 -0.25 -0.82 -0.25 -0.83221 -0.2495 C -0.85 -0.25 -0.87 -0.25 -0.88121 -0.24961 C -0.9 -0.25 -0.91 -0.25 -0.92811 -0.24973 C -0.95 -0.25 -0.96 -0.25 -0.98107 -0.2499 C -1 -0.25 -1.01 -0.25 -1.03097 -0.2501 C -1.04 -0.25 -1.05 -0.25 -1.05864 -0.25023 C -1.07 -0.25 -1.08 -0.25 -1.08389 -0.25037 C -1.09 -0.25 -1.1 -0.25 -1.10667 -0.25051 C -1.11 -0.25 -1.12 -0.25 -1.12695 -0.25065 C -1.13 -0.25 -1.14 -0.25 -1.14469 -0.2508 C -1.15 -0.25 -1.16 -0.25 -1.15986 -0.25095 C -1.16 -0.25 -1.17 -0.25 -1.17246 -0.25111 C -1.18 -0.25 -1.18 -0.25 -1.18247 -0.25127 C -1.19 -0.25 -1.19 -0.25 -1.1915 -0.25148 C -1.19 -0.25 -1.19 -0.25 -1.19492 -0.25162 C -1.2 -0.25 -1.2 -0.25 -1.19606 -0.25176 C -1.2 -0.25 -1.2 -0.25 -1.19386 -0.25195 C -1.19 -0.25 -1.19 -0.25 -1.18989 -0.25208 C -1.19 -0.25 -1.19 -0.25 -1.18391 -0.25221 C -1.18 -0.25 -1.18 -0.25 -1.17593 -0.25234 C -1.17 -0.25 -1.17 -0.25 -1.16596 -0.25246 C -1.16 -0.25 -1.16 -0.25 -1.15403 -0.25258 C -1.15 -0.25 -1.15 -0.25 -1.14014 -0.2527 C -1.14 -0.25 -1.13 -0.25 -1.12432 -0.25282 C -1.12 -0.25 -1.11 -0.25 -1.1066 -0.25294 C -1.1 -0.25 -1.1 -0.25 -1.09079 -0.25303 C -1.09 -0.25 -1.08 -0.25 -1.07432 -0.25312 C -1.07 -0.25 -1.06 -0.25 -1.05719 -0.2532 C -1.05 -0.25 -1.05 -0.25 -1.03939 -0.25327 C -1.03 -0.25 -1.03 -0.25 -1.02096 -0.25334 C -1.01 -0.25 -1.01 -0.25 -1.00189 -0.2534 C -1 -0.25 -0.99 -0.25 -0.98223 -0.25345 C -0.98 -0.25 -0.97 -0.25 -0.96199 -0.25349 C -0.95 -0.25 -0.94 -0.25 -0.9321 -0.25354 C -0.92 -0.25 -0.91 -0.25 -0.90121 -0.25357 C -0.89 -0.25 -0.88 -0.25 -0.86945 -0.25358 C -0.86 -0.25 -0.85 -0.25 -0.83694 -0.25358 C -0.83 -0.25 -0.82 -0.25 -0.80498 -0.25356 C -0.79 -0.25 -0.78 -0.25 -0.77254 -0.25353 C -0.76 -0.25 -0.75 -0.25 -0.74375 -0.25349 C -0.73 -0.25 -0.72 -0.25 -0.71472 -0.25344 C -0.71 -0.25 -0.7 -0.25 -0.68553 -0.25339 C -0.68 -0.25 -0.67 -0.25 -0.65621 -0.25332 C -0.64 -0.25 -0.63 -0.25 -0.61759 -0.25323 C -0.6 -0.25 -0.59 -0.25 -0.57892 -0.25311 C -0.57 -0.25 -0.55 -0.25 -0.54025 -0.25299 C -0.53 -0.25 -0.51 -0.25 -0.50164 -0.25286 C -0.49 -0.25 -0.48 -0.25 -0.46313 -0.25272 C -0.45 -0.25 -0.44 -0.25 -0.42476 -0.25257 C -0.41 -0.25 -0.4 -0.25 -0.38654 -0.25241 C -0.37 -0.25 -0.36 -0.25 -0.3485 -0.25224 L -0.13218 -0.25128 L -0.41201 -0.24953 C -0.43 -0.25 -0.44 -0.25 -0.46179 -0.24943 C -0.48 -0.25 -0.5 -0.25 -0.52473 -0.24935 C -0.55 -0.25 -0.57 -0.25 -0.59017 -0.24931 C -0.61 -0.25 -0.63 -0.25 -0.65799 -0.24931 C -0.68 -0.25 -0.7 -0.25 -0.72808 -0.24936 Z" />
    <path d="M -0.41201 -0.24619 L -0.41201 -0.24953" />
    <path d="M -0.13218 -0.24832 L -0.13218 -0.25128" />
    <path d="M 2.33482 -0.23569 C 2.32 -0.24 2.3 -0.24 2.28175 -0.23575 C 2.26 -0.24 2.25 -0.24 2.23069 -0.23583 C 2.21 -0.24 2.2 -0.24 2.18169 -0.23593 C 2.17 -0.24 2.15 -0.24 2.13478 -0.23606 C 2.12 -0.24 2.1 -0.24 2.08182 -0.23623 C 2.06 -0.24 2.05 -0.24 2.03193 -0.23643 C 2.02 -0.24 2.01 -0.24 2.00425 -0.23656 C 2 -0.24 1.99 -0.24 1.979 -0.2367 C 1.97 -0.24 1.96 -0.24 1.95622 -0.23684 C 1.95 -0.24 1.94 -0.24 1.93595 -0.23698 C 1.93 -0.24 1.92 -0.24 1.91821 -0.23713 C 1.91 -0.24 1.91 -0.24 1.90303 -0.23728 C 1.9 -0.24 1.89 -0.24 1.89043 -0.23744 C 1.89 -0.24 1.88 -0.24 1.88043 -0.2376 C 1.88 -0.24 1.87 -0.24 1.8714 -0.23781 C 1.87 -0.24 1.87 -0.24 1.86798 -0.23795 C 1.87 -0.24 1.87 -0.24 1.86684 -0.23809 C 1.87 -0.24 1.87 -0.24 1.86903 -0.23828 C 1.87 -0.24 1.87 -0.24 1.87301 -0.23841 C 1.87 -0.24 1.88 -0.24 1.87899 -0.23854 C 1.88 -0.24 1.88 -0.24 1.88697 -0.23867 C 1.89 -0.24 1.89 -0.24 1.89693 -0.23879 C 1.9 -0.24 1.9 -0.24 1.90887 -0.23891 C 1.91 -0.24 1.92 -0.24 1.92276 -0.23903 C 1.93 -0.24 1.93 -0.24 1.93858 -0.23915 C 1.94 -0.24 1.95 -0.24 1.9563 -0.23927 C 1.96 -0.24 1.97 -0.24 1.9721 -0.23936 C 1.98 -0.24 1.98 -0.24 1.98857 -0.23945 C 1.99 -0.24 2 -0.24 2.00571 -0.23953 C 2.01 -0.24 2.02 -0.24 2.0235 -0.2396 C 2.03 -0.24 2.04 -0.24 2.04194 -0.23967 C 2.05 -0.24 2.05 -0.24 2.061 -0.23973 C 2.07 -0.24 2.07 -0.24 2.08067 -0.23978 C 2.09 -0.24 2.09 -0.24 2.1009 -0.23982 C 2.11 -0.24 2.12 -0.24 2.1308 -0.23987 C 2.14 -0.24 2.15 -0.24 2.16168 -0.2399 C 2.17 -0.24 2.18 -0.24 2.19344 -0.23991 C 2.2 -0.24 2.22 -0.24 2.22595 -0.23991 C 2.24 -0.24 2.25 -0.24 2.25792 -0.23989 C 2.27 -0.24 2.28 -0.24 2.29036 -0.23986 C 2.3 -0.24 2.31 -0.24 2.31915 -0.23982 C 2.33 -0.24 2.34 -0.24 2.34817 -0.23977 C 2.36 -0.24 2.37 -0.24 2.37737 -0.23972 C 2.39 -0.24 2.4 -0.24 2.40668 -0.23965 C 2.42 -0.24 2.43 -0.24 2.4453 -0.23955 C 2.46 -0.24 2.47 -0.24 2.48398 -0.23944 C 2.5 -0.24 2.51 -0.24 2.52265 -0.23932 C 2.54 -0.24 2.55 -0.24 2.56126 -0.23919 C 2.57 -0.24 2.59 -0.24 2.59977 -0.23905 C 2.61 -0.24 2.63 -0.24 2.63814 -0.2389 C 2.65 -0.24 2.66 -0.24 2.67635 -0.23874 C 2.69 -0.24 2.7 -0.24 2.71439 -0.23857 L 2.93072 -0.23761 L 2.65089 -0.23586 C 2.63 -0.24 2.62 -0.24 2.60111 -0.23576 C 2.58 -0.24 2.56 -0.24 2.53817 -0.23568 C 2.52 -0.24 2.49 -0.24 2.47273 -0.23564 C 2.45 -0.24 2.43 -0.24 2.4049 -0.23564 C 2.38 -0.24 2.36 -0.24 2.33482 -0.23569 Z" />
    <path d="M 2.65089 -0.23252 L 2.65089 -0.23586" />
    <path d="M 2.93072 -0.23465 L 2.93072 -0.23761" />
    <path d="M 8.9977 -0.20595 C 8.98 -0.21 8.96 -0.21 8.94463 -0.20601 C 8.93 -0.21 8.91 -0.21 8.89357 -0.20609 C 8.88 -0.21 8.86 -0.21 8.84457 -0.2062 C 8.83 -0.21 8.81 -0.21 8.79766 -0.20632 C 8.78 -0.21 8.76 -0.21 8.74471 -0.20649 C 8.73 -0.21 8.71 -0.21 8.69481 -0.20669 C 8.69 -0.21 8.68 -0.21 8.66713 -0.20683 C 8.66 -0.21 8.65 -0.21 8.64188 -0.20696 C 8.63 -0.21 8.63 -0.21 8.6191 -0.2071 C 8.61 -0.21 8.61 -0.21 8.59883 -0.20724 C 8.59 -0.21 8.59 -0.21 8.58109 -0.20739 C 8.58 -0.21 8.57 -0.21 8.56591 -0.20754 C 8.56 -0.21 8.56 -0.21 8.55332 -0.2077 C 8.55 -0.21 8.55 -0.21 8.54331 -0.20786 C 8.54 -0.21 8.54 -0.21 8.53428 -0.20807 C 8.53 -0.21 8.53 -0.21 8.53086 -0.20821 C 8.53 -0.21 8.53 -0.21 8.52972 -0.20835 C 8.53 -0.21 8.53 -0.21 8.53191 -0.20855 C 8.53 -0.21 8.53 -0.21 8.53589 -0.20867 C 8.54 -0.21 8.54 -0.21 8.54187 -0.2088 C 8.54 -0.21 8.55 -0.21 8.54985 -0.20893 C 8.55 -0.21 8.56 -0.21 8.55981 -0.20905 C 8.56 -0.21 8.57 -0.21 8.57175 -0.20917 C 8.58 -0.21 8.58 -0.21 8.58564 -0.20929 C 8.59 -0.21 8.6 -0.21 8.60146 -0.20941 C 8.61 -0.21 8.61 -0.21 8.61918 -0.20953 C 8.62 -0.21 8.63 -0.21 8.63498 -0.20962 C 8.64 -0.21 8.65 -0.21 8.65145 -0.20971 C 8.66 -0.21 8.66 -0.21 8.66859 -0.20979 C 8.67 -0.21 8.68 -0.21 8.68638 -0.20986 C 8.69 -0.21 8.7 -0.21 8.70482 -0.20993 C 8.71 -0.21 8.72 -0.21 8.72388 -0.20999 C 8.73 -0.21 8.74 -0.21 8.74355 -0.21004 C 8.75 -0.21 8.76 -0.21 8.76378 -0.21008 C 8.77 -0.21 8.78 -0.21 8.79368 -0.21013 C 8.8 -0.21 8.81 -0.21 8.82456 -0.21016 C 8.84 -0.21 8.85 -0.21 8.85632 -0.21017 C 8.87 -0.21 8.88 -0.21 8.88884 -0.21017 C 8.9 -0.21 8.91 -0.21 8.9208 -0.21015 C 8.93 -0.21 8.94 -0.21 8.95324 -0.21012 C 8.96 -0.21 8.97 -0.21 8.98203 -0.21008 C 8.99 -0.21 9 -0.21 9.01105 -0.21004 C 9.02 -0.21 9.03 -0.21 9.04025 -0.20998 C 9.05 -0.21 9.06 -0.21 9.06957 -0.20991 C 9.08 -0.21 9.1 -0.21 9.10819 -0.20982 C 9.12 -0.21 9.13 -0.21 9.14686 -0.20971 C 9.16 -0.21 9.17 -0.21 9.18553 -0.20958 C 9.2 -0.21 9.21 -0.21 9.22414 -0.20945 C 9.24 -0.21 9.25 -0.21 9.26265 -0.20931 C 9.28 -0.21 9.29 -0.21 9.30102 -0.20916 C 9.31 -0.21 9.33 -0.21 9.33923 -0.209 C 9.35 -0.21 9.36 -0.21 9.37727 -0.20884 L 9.5936 -0.20787 L 9.31377 -0.20612 C 9.3 -0.21 9.28 -0.21 9.26399 -0.20602 C 9.24 -0.21 9.22 -0.21 9.20105 -0.20594 C 9.18 -0.21 9.16 -0.21 9.13561 -0.2059 C 9.11 -0.21 9.09 -0.21 9.06778 -0.2059 C 9.04 -0.21 9.02 -0.21 8.9977 -0.20595 Z" />
    <path d="M 9.31377 -0.20279 L 9.31377 -0.20612" />
    <path d="M 9.5936 -0.20491 L 9.5936 -0.20787" />
    <path d="M 13.37814 -0.18713 C 13.38 -0.19 13.38 -0.19 13.38055 -0.1873 C 13.38 -0.19 13.38 -0.19 13.3846 -0.18748 C 13.39 -0.19 13.39 -0.19 13.39028 -0.18765 C 13.39 -0.19 13.39 -0.19 13.39758 -0.18783 C 13.4 -0.19 13.4 -0.19 13.40647 -0.188 C 13.41 -0.19 13.41 -0.19 13.41695 -0.18818 C 13.42 -0.19 13.42 -0.19 13.429 -0.18835 C 13.43 -0.19 13.44 -0.19 13.44258 -0.18852 C 13.45 -0.19 13.45 -0.19 13.45881 -0.18871 C 13.46 -0.19 13.47 -0.19 13.47675 -0.18889 C 13.48 -0.19 13.49 -0.19 13.49635 -0.18907 C 13.5 -0.19 13.51 -0.19 13.51758 -0.18925 C 13.53 -0.19 13.55 -0.19 13.56473 -0.18961 C 13.58 -0.19 13.6 -0.19 13.61785 -0.18996 C 13.63 -0.19 13.64 -0.19 13.64913 -0.19015 C 13.66 -0.19 13.67 -0.19 13.68078 -0.19034 C 13.69 -0.19 13.7 -0.19 13.71282 -0.19051 C 13.72 -0.19 13.73 -0.19 13.74524 -0.19068 C 13.76 -0.19 13.77 -0.19 13.77804 -0.19083 C 13.79 -0.19 13.8 -0.19 13.81119 -0.19098 C 13.82 -0.19 13.83 -0.19 13.8447 -0.19112 C 13.86 -0.19 13.87 -0.19 13.87856 -0.19125 C 13.9 -0.19 13.92 -0.19 13.94168 -0.19146 C 13.95 -0.19 13.96 -0.19 13.97362 -0.19155 C 13.98 -0.19 14 -0.19 14.00579 -0.19163 C 14.02 -0.19 14.03 -0.19 14.03818 -0.1917 C 14.05 -0.19 14.06 -0.19 14.07077 -0.19177 C 14.08 -0.19 14.09 -0.19 14.10354 -0.19182 C 14.11 -0.19 14.13 -0.19 14.13646 -0.19186 C 14.16 -0.19 14.18 -0.19 14.20135 -0.19192 C 14.22 -0.19 14.24 -0.19 14.26494 -0.19194 C 14.29 -0.19 14.31 -0.19 14.32702 -0.19192 C 14.35 -0.19 14.37 -0.19 14.38739 -0.19186 C 14.4 -0.19 14.41 -0.19 14.41617 -0.19181 C 14.43 -0.19 14.44 -0.19 14.44449 -0.19176 C 14.45 -0.19 14.46 -0.19 14.47231 -0.1917 C 14.48 -0.19 14.49 -0.19 14.49963 -0.19162 C 14.51 -0.19 14.52 -0.19 14.52642 -0.19154 C 14.54 -0.19 14.54 -0.19 14.55269 -0.19145 C 14.56 -0.19 14.57 -0.19 14.5784 -0.19136 C 14.59 -0.19 14.6 -0.19 14.60356 -0.19125 C 14.61 -0.19 14.62 -0.19 14.62888 -0.19113 C 14.64 -0.19 14.64 -0.19 14.65256 -0.19101 C 14.66 -0.19 14.67 -0.19 14.67457 -0.19088 C 14.68 -0.19 14.69 -0.19 14.69488 -0.19075 C 14.7 -0.19 14.71 -0.19 14.71344 -0.19061 C 14.72 -0.19 14.72 -0.19 14.73024 -0.19047 C 14.74 -0.19 14.74 -0.19 14.74526 -0.19032 C 14.75 -0.19 14.75 -0.19 14.75846 -0.19017 C 14.76 -0.19 14.77 -0.19 14.76825 -0.19004 C 14.77 -0.19 14.77 -0.19 14.77672 -0.18991 C 14.78 -0.19 14.78 -0.19 14.78387 -0.18977 C 14.79 -0.19 14.79 -0.19 14.7897 -0.18963 C 14.79 -0.19 14.79 -0.19 14.79423 -0.18949 C 14.8 -0.19 14.8 -0.19 14.79744 -0.18935 C 14.8 -0.19 14.8 -0.19 14.79936 -0.1892 C 14.8 -0.19 14.8 -0.19 14.8 -0.18905 C 14.8 -0.19 14.8 -0.19 14.79921 -0.18888 C 14.8 -0.19 14.8 -0.19 14.79673 -0.1887 C 14.8 -0.19 14.79 -0.19 14.79259 -0.18853 C 14.79 -0.19 14.79 -0.19 14.7868 -0.18835 C 14.78 -0.19 14.78 -0.19 14.77938 -0.18817 C 14.78 -0.19 14.77 -0.19 14.77034 -0.18799 C 14.77 -0.19 14.76 -0.19 14.7597 -0.18781 C 14.76 -0.19 14.75 -0.19 14.74747 -0.18764 C 14.74 -0.19 14.74 -0.19 14.73368 -0.18746 C 14.73 -0.19 14.72 -0.19 14.71765 -0.18728 C 14.71 -0.19 14.71 -0.19 14.69999 -0.1871 C 14.69 -0.19 14.69 -0.19 14.68072 -0.18692 C 14.67 -0.19 14.67 -0.19 14.65989 -0.18674 C 14.65 -0.19 14.63 -0.19 14.61366 -0.18639 C 14.6 -0.19 14.58 -0.19 14.56162 -0.18605 C 14.55 -0.19 14.54 -0.19 14.53058 -0.18586 C 14.52 -0.19 14.51 -0.19 14.49912 -0.18568 C 14.49 -0.19 14.48 -0.19 14.46726 -0.1855 C 14.46 -0.19 14.45 -0.19 14.435 -0.18534 C 14.42 -0.19 14.41 -0.19 14.40234 -0.18518 C 14.39 -0.19 14.38 -0.19 14.36929 -0.18504 C 14.36 -0.18 14.35 -0.18 14.33585 -0.1849 C 14.32 -0.18 14.31 -0.18 14.30205 -0.18477 C 14.28 -0.18 14.26 -0.18 14.23994 -0.18457 C 14.22 -0.18 14.2 -0.18 14.17675 -0.18439 C 14.17 -0.18 14.16 -0.18 14.14479 -0.18432 C 14.13 -0.18 14.12 -0.18 14.11261 -0.18426 C 14.1 -0.18 14.09 -0.18 14.08023 -0.18421 C 14.07 -0.18 14.06 -0.18 14.04766 -0.18416 C 14.03 -0.18 14.01 -0.18 13.98661 -0.1841 C 13.97 -0.18 13.95 -0.18 13.92654 -0.18408 C 13.91 -0.18 13.89 -0.18 13.86764 -0.18409 C 13.85 -0.18 13.83 -0.18 13.81008 -0.18414 C 13.8 -0.18 13.79 -0.18 13.77873 -0.18418 C 13.77 -0.18 13.76 -0.18 13.74787 -0.18424 C 13.74 -0.18 13.73 -0.18 13.71753 -0.1843 C 13.71 -0.18 13.7 -0.18 13.68772 -0.18438 C 13.68 -0.18 13.67 -0.18 13.65846 -0.18446 C 13.65 -0.18 13.64 -0.18 13.62978 -0.18456 C 13.62 -0.18 13.61 -0.18 13.60168 -0.18467 C 13.59 -0.18 13.58 -0.18 13.57419 -0.18478 C 13.57 -0.18 13.56 -0.18 13.54812 -0.1849 C 13.54 -0.18 13.53 -0.18 13.52378 -0.18503 C 13.52 -0.19 13.51 -0.19 13.50121 -0.18516 C 13.49 -0.19 13.49 -0.19 13.48046 -0.1853 C 13.47 -0.19 13.47 -0.19 13.46155 -0.18544 C 13.46 -0.19 13.45 -0.19 13.44451 -0.18559 C 13.44 -0.19 13.43 -0.19 13.42938 -0.18574 C 13.42 -0.19 13.42 -0.19 13.41616 -0.18589 C 13.41 -0.19 13.41 -0.19 13.40703 -0.18602 C 13.4 -0.19 13.4 -0.19 13.39913 -0.18615 C 13.4 -0.19 13.39 -0.19 13.39246 -0.18628 C 13.39 -0.19 13.39 -0.19 13.38701 -0.18641 C 13.39 -0.19 13.38 -0.19 13.38279 -0.18655 C 13.38 -0.19 13.38 -0.19 13.37979 -0.18668 C 13.38 -0.19 13.38 -0.19 13.37799 -0.18682 C 13.38 -0.19 13.38 -0.19 13.3774 -0.18697 C 13.38 -0.19 13.38 -0.19 13.37814 -0.18713 Z" />
    <path d="M 19.19886 -0.16964 C 19.22 -0.17 19.23 -0.17 19.25111 -0.16966 C 19.27 -0.17 19.29 -0.17 19.30212 -0.16965 C 19.32 -0.17 19.34 -0.17 19.35179 -0.16962 C 19.37 -0.17 19.38 -0.17 19.40004 -0.16956 C 19.42 -0.17 19.43 -0.17 19.44811 -0.16947 C 19.46 -0.17 19.48 -0.17 19.49451 -0.16935 C 19.51 -0.17 19.52 -0.17 19.53918 -0.1692 C 19.55 -0.17 19.57 -0.17 19.58208 -0.16903 C 19.59 -0.17 19.6 -0.17 19.60953 -0.1689 C 19.62 -0.17 19.63 -0.17 19.63479 -0.16877 C 19.64 -0.17 19.65 -0.17 19.65781 -0.16863 C 19.67 -0.17 19.67 -0.17 19.67855 -0.16848 C 19.69 -0.17 19.69 -0.17 19.69697 -0.16833 C 19.7 -0.17 19.71 -0.17 19.71303 -0.16818 C 19.72 -0.17 19.72 -0.17 19.7267 -0.16802 C 19.73 -0.17 19.73 -0.17 19.73798 -0.16786 C 19.74 -0.17 19.74 -0.17 19.74668 -0.1677 C 19.75 -0.17 19.75 -0.17 19.75306 -0.16754 C 19.75 -0.17 19.76 -0.17 19.75713 -0.16737 C 19.76 -0.17 19.76 -0.17 19.7589 -0.16719 Q 19.76 -0.17 19.75898 -0.16715 C 19.76 -0.17 19.76 -0.17 19.75832 -0.16701 C 19.76 -0.17 19.76 -0.17 19.75634 -0.16688 C 19.76 -0.17 19.75 -0.17 19.75305 -0.16674 C 19.75 -0.17 19.75 -0.17 19.74845 -0.16661 C 19.75 -0.17 19.74 -0.17 19.74256 -0.16647 C 19.74 -0.17 19.74 -0.17 19.73539 -0.16634 C 19.73 -0.17 19.73 -0.17 19.72695 -0.1662 C 19.72 -0.17 19.72 -0.17 19.71726 -0.16606 C 19.71 -0.17 19.7 -0.17 19.69418 -0.16579 C 19.69 -0.17 19.68 -0.17 19.66631 -0.16551 C 19.66 -0.17 19.65 -0.17 19.63381 -0.16524 C 19.62 -0.17 19.61 -0.17 19.59686 -0.16497 L 19.57921 -0.16485 L 18.7706 -0.16846 C 18.79 -0.17 18.8 -0.17 18.82212 -0.1687 C 18.84 -0.17 18.86 -0.17 18.87433 -0.16892 C 18.89 -0.17 18.91 -0.17 18.92717 -0.16911 C 18.94 -0.17 18.96 -0.17 18.98061 -0.16927 C 19 -0.17 19.02 -0.17 19.03456 -0.1694 C 19.05 -0.17 19.07 -0.17 19.08898 -0.16951 C 19.11 -0.17 19.13 -0.17 19.14377 -0.16959 C 19.16 -0.17 19.18 -0.17 19.19886 -0.16964 Z" />
    <path d="M 18.7706 -0.16641 L 18.7706 -0.16846" />
    <path d="M 19.57921 -0.1628 L 19.57921 -0.16485" />
    <path d="M 19.59686 -0.16272 L 19.59686 -0.16497" />
    <path d="M -0.76697 0.77268 L -0.76697 0.02269" />
    <path d="M 7.9892 -0.22507 L 7.9892 -0.22761" />
    <path d="M 8.39414 -0.22298 L 8.39414 -0.22415" />
    <path d="M 13.20628 -0.19401 L 13.20628 -0.19954" />
    <path d="M 13.09817 -0.19333 L 13.09817 -0.19698" />
    <path d="M -0.19679 -0.23958 L -0.19679 -0.24127" />
    <path d="M -1.41537 -0.24979 L -1.41537 -0.25397" />
    <path d="M -0.89278 -0.25357 L -0.89278 -0.25518" />
    <path d="M -0.23559 -0.25174 L -0.23559 -0.25351" />
    <path d="M 0.14009 -0.25002 L 0.14009 -0.25298" />
    <path d="M 0.24831 -0.2507 L 0.24831 -0.25424" />
    <path d="M -0.49193 -0.25641 L -0.49193 -0.25847" />
    <path d="M -0.10856 -0.25673 L -0.10856 -0.25837" />
    <path d="M 0.2699 -0.25083 L 0.2699 -0.25728" />
    <path d="M 0.58918 -0.25364 L 0.58918 -0.25459" />
    <path d="M 1.64752 -0.23612 L 1.64752 -0.2403" />
    <path d="M 2.17012 -0.2399 L 2.17012 -0.24151" />
    <path d="M 2.8273 -0.23807 L 2.8273 -0.23984" />
    <path d="M 3.20299 -0.23635 L 3.20299 -0.23931" />
    <path d="M 3.31121 -0.23703 L 3.31121 -0.24057" />
    <path d="M 2.57097 -0.24274 L 2.57097 -0.2448" />
    <path d="M 2.95434 -0.24306 L 2.95434 -0.2447" />
    <path d="M 3.3328 -0.23716 L 3.3328 -0.24361" />
    <path d="M 3.65207 -0.23997 L 3.65207 -0.24092" />
    <path d="M 4.27928 -0.22626 L 4.27928 -0.22837" />
    <path d="M 3.84016 -0.23469 L 3.84016 -0.2352" />
    <path d="M 3.95518 -0.23297 L 3.95518 -0.23655" />
    <path d="M 4.40663 -0.23587 L 4.40663 -0.23757" />
    <path d="M 4.95152 -0.23182 L 4.95152 -0.23638" />
    <path d="M 5.27711 -0.23241 L 5.27711 -0.23365" />
    <path d="M 4.1905 -0.23117 L 4.1905 -0.23421" />
    <path d="M 4.39427 -0.22648 L 4.39427 -0.23243" />
    <path d="M 4.63593 -0.22773 L 4.63593 -0.23035" />
    <path d="M 3.18951 -0.23072 L 3.18951 -0.23145" />
    <path d="M 3.53145 -0.22757 L 3.53145 -0.23034" />
    <path d="M 3.73652 -0.22679 L 3.73652 -0.22869" />
    <path d="M 4.04148 -0.22622 L 4.04148 -0.2279" />
    <path d="M 9.52898 -0.19617 L 9.52898 -0.19787" />
    <path d="M 8.3104 -0.20638 L 8.3104 -0.21056" />
    <path d="M 8.833 -0.21016 L 8.833 -0.21177" />
    <path d="M 9.49018 -0.20833 L 9.49018 -0.2101" />
    <path d="M 9.86587 -0.20661 L 9.86587 -0.20957" />
    <path d="M 9.97409 -0.20729 L 9.97409 -0.21083" />
    <path d="M 9.23385 -0.21301 L 9.23385 -0.21506" />
    <path d="M 9.61722 -0.21332 L 9.61722 -0.21496" />
    <path d="M 9.99568 -0.20743 L 9.99568 -0.21387" />
    <path d="M 10.31495 -0.21023 L 10.31495 -0.21118" />
    <path d="M 13.36809 -0.18366 L 13.36809 -0.19137" />
    <path d="M 13.3517 -0.18374 L 13.3517 -0.19127" />
    <path d="M 13.82184 -0.19103 L 13.82184 -0.19321" />
    <path d="M 14.32849 -0.19191 L 14.32849 -0.1936" />
    <path d="M 14.79516 -0.18946 L 14.79516 -0.19245" />
    <path d="M 15.13566 -0.18859 L 15.13566 -0.18886" />
    <path d="M 15.23031 -0.17561 L 15.23031 -0.17747" />
    <path d="M 17.47525 -0.16736 L 17.47525 -0.16948" />
    <path d="M 17.03612 -0.1758 L 17.03612 -0.1763" />
    <path d="M 17.15114 -0.17407 L 17.15114 -0.17765" />
    <path d="M 17.6026 -0.17698 L 17.6026 -0.17867" />
    <path d="M 18.14749 -0.17292 L 18.14749 -0.17749" />
    <path d="M 18.47308 -0.17351 L 18.47308 -0.17475" />
    <path d="M 17.38647 -0.17228 L 17.38647 -0.17532" />
    <path d="M 17.59024 -0.16759 L 17.59024 -0.17353" />
    <path d="M 17.83189 -0.16883 L 17.83189 -0.17145" />
    <path d="M 16.38548 -0.17182 L 16.38548 -0.17255" />
    <path d="M 16.72741 -0.16867 L 16.72741 -0.17144" />
    <path d="M 16.93248 -0.16789 L 16.93248 -0.16979" />
    <path d="M 17.23744 -0.16732 L 17.23744 -0.16901" />
    <path d="M 18.32304 -0.16157 L 18.32304 -0.16872" />
    <path d="M 18.36589 -0.16136 L 18.36589 -0.16899" />
    <path d="M 18.82004 -0.16869 L 18.82004 -0.17084" />
    <path d="M 19.32623 -0.16964 L 19.32623 -0.17126" />
    <path d="M 19.77367 -0.16311 L 19.77367 -0.17023" />
    <path d="M 18.3837 -0.16128 L 18.3837 -0.16465" />
    <path d="M 18.59895 -0.16049 L 18.59895 -0.16235" />
    <path d="M 18.89703 -0.15998 L 18.89703 -0.16156" />
    <path d="M 7.07028 -0.21986 L 7.07028 -0.22186" />
    <path d="M 7.51376 -0.21902 L 7.51376 -0.22086" />
    <path d="M 7.90018 -0.21944 L 7.90018 -0.22197" />
    <path d="M 8.04003 -0.21992 L 8.04003 -0.22357" />
    <path d="M -0.72808 -0.24799 L -0.72808 -0.24936" />
    <path d="M -1.03097 -0.24825 L -1.03097 -0.2501" />
    <path d="M -1.1915 -0.24869 L -1.1915 -0.25148" />
    <path d="M 2.33482 -0.23432 L 2.33482 -0.23569" />
    <path d="M 2.03193 -0.23458 L 2.03193 -0.23643" />
    <path d="M 1.8714 -0.23502 L 1.8714 -0.23781" />
    <path d="M 8.9977 -0.20458 L 8.9977 -0.20595" />
    <path d="M 8.69481 -0.20484 L 8.69481 -0.20669" />
    <path d="M 8.53428 -0.20528 L 8.53428 -0.20807" />
    <path d="M 13.37814 -0.18362 L 13.37814 -0.18681" />
    <path d="M 13.57419 -0.18291 L 13.57419 -0.18478" />
    <path d="M 14.04766 -0.18238 L 14.04766 -0.18416" />
    <path d="M 14.56162 -0.18342 L 14.56162 -0.18605" />
    <path d="M 14.79921 -0.18458 L 14.79921 -0.18888" />
    <path d="M 19.7589 -0.16302 L 19.7589 -0.1671" />
    <path d="M -74.45207 -0.30864 L -74.45207 0.44135" />
    <path d="M 49.92752 -0.28802 L 49.92752 0.46197" />
    <path d="M 13.09856 -0.19333 L 13.09856 -0.19706" />
    <path d="M 0.24976 -0.25071 L 0.24976 -0.25441" />
    <path d="M 3.31266 -0.23704 L 3.31266 -0.24074" />
    <path d="M 4.34992 -0.22638 L 4.34992 -0.22932" />
    <path d="M 4.93893 -0.23187 L 4.93893 -0.2333" />
    <path d="M 4.17963 -0.23125 L 4.17963 -0.23458" />
    <path d="M 3.52299 -0.22761 L 3.52299 -0.23076" />
    <path d="M 9.97554 -0.2073 L 9.97554 -0.211" />
    <path d="M 15.08399 -0.17604 L 15.08399 -0.17892" />
    <path d="M 17.54589 -0.16748 L 17.54589 -0.17042" />
    <path d="M 18.1349 -0.17298 L 18.1349 -0.17441" />
    <path d="M 17.3756 -0.17236 L 17.3756 -0.17568" />
    <path d="M 16.71896 -0.16871 L 16.71896 -0.17187" />
    <path d="M 18.38327 -0.16128 L 18.38327 -0.16477" />
    <path d="M 8.0431 -0.21994 L 8.0431 -0.22386" />
    <path d="M -1.19606 -0.2487 L -1.19606 -0.25176" />
    <path d="M 1.86684 -0.23503 L 1.86684 -0.23809" />
    <path d="M 8.52972 -0.20529 L 8.52972 -0.20835" />
    <path d="M 13.3774 -0.18362 L 13.3774 -0.18697" />
    <path d="M 14.8 -0.18458 L 14.8 -0.18905" />
    <path d="M 19.75898 -0.16302 L 19.75898 -0.16715" />
</svg>