<svg version="1.1" xmlns="http://www.w3.org/2000/svg" viewBox="-48.726597906828374 -54.65526870051104 97.45319581365675 135.7811155392655" fill="none" stroke="black" stroke-width="0.6%" vector-effect="non-scaling-stroke">
    <path d="M -23.64825 -31.3403 L -0.5688 28.19227 A 1 0.94271 237.6241 0 0 0.62442 28.8201 L 0.68096 28.8018 L 0.89227 28.66783 L 47.12772 11.99338 L 47.23632 11.94586 A 1 0.94271 237.6241 0 0 47.30258 11.90774 A 1 0.94271 237.6241 0 0 47.65625 10.74252 L 24.5768 -48.79005 A 1 0.94271 237.6241 0 0 23.38358 -49.41788 L 23.32704 -49.39958 L -22.90841 -32.72514 L -23.01701 -32.67761 A 1 0.94271 237.6241 0 0 -23.08327 -32.6395 A 1 0.94271 237.6241 0 0 -23.43694 -31.47428 L -0.35749 28.05829 A 1 0.94271 237.6241 0 0 0.83573 28.68613 L 0.89227 28.66783" />
    <path d="M -23.29458 -32.50552 A 1 0.94271 237.6241 0 0 -23.64825 -31.3403 L -23.43694 -31.47428" />
    <path d="M 0.62442 28.8201 L 0.83573 28.68613" />
    <path d="M 47.02501 12.07983 A 1 0.94271 237.6241 0 0 47.09127 12.04171" />
    <path d="M 46.91642 12.12736 L 47.02501 12.07983 L 47.23632 11.94586" />
    <path d="M 0.68096 28.8018 L 46.91642 12.12736 L 47.12772 11.99338" />
    <path d="M -47.51418 -35.66118 A 1 0.16161 163.41142 0 0 -47.44494 -35.62602 L -24.36549 -32.31678 A 1 0.16161 163.41142 0 0 -23.23168 -32.54539" />
    <path d="M 23.5583 -49.45001 A 1 0.16161 163.41142 0 0 23.71748 -49.59739" />
    <path d="M 23.21132 -49.35785 L 23.01701 -50.01012 A 1 0.16161 163.41142 0 0 23.50618 -50.30672 A 1 0.16161 163.41142 0 0 23.43694 -50.34189 L 0.35749 -53.65113 A 1 0.16161 163.41142 0 0 -0.83573 -53.4022 L -0.89227 -53.38217 L -47.12772 -36.70772 L -47.23632 -36.66713 A 1 0.16161 163.41142 0 0 -47.72549 -36.37052 A 1 0.16161 163.41142 0 0 -47.65625 -36.33535 L -24.5768 -33.02612 A 1 0.16161 163.41142 0 0 -23.38358 -33.27504 L -23.32704 -33.29507 L 22.90841 -49.96952 L 23.01701 -50.01012" />
    <path d="M 23.10233 -49.31855 L 22.90841 -49.96952" />
    <path d="M -2.03368 79.28393 A 1 0.63436 323.70178 0 0 -1.95749 79.46836" />
    <path d="M -2.04069 79.19704 L -2.03368 79.28393 L -1.69046 79.7512 A 1 0.63436 323.70178 0 0 -1.61427 79.93563 A 1 0.63436 323.70178 0 0 -0.80833 80.0571 L 45.42713 63.38265 A 1 0.63436 323.70178 0 0 46.31452 62.39397 L 46.31627 62.34854 L 46.31627 12.34379" />
    <path d="M -2.04069 24.9747 L -2.04069 79.19704 L -1.69747 79.66431 L -1.69046 79.7512" />
    <path d="M -2.03894 24.92927 L -2.04069 24.9747 L -1.69747 25.44197 L -1.69747 79.66431" />
    <path d="M -1.95031 24.62871 A 1 0.63436 323.70178 0 0 -2.03894 24.92927 L -1.69571 25.39654 L -1.69747 25.44197" />
    <path d="M -1.6843 25.31488 A 1 0.63436 323.70178 0 0 -1.69571 25.39654" />
    <path d="M -23.12405 -32.61364 L -23.32704 -33.29507" />
    <path d="M -23.17663 -32.5803 L -23.38358 -33.27504" />
    <path d="M -45.96604 19.47338 A 1 0.63436 323.70178 0 0 -45.88985 19.65781" />
    <path d="M -45.97305 19.38649 L -45.96604 19.47338 L -45.62282 19.94065 A 1 0.63436 323.70178 0 0 -45.54663 20.12508 A 1 0.63436 323.70178 0 0 -44.74069 20.24655 L -34.76768 16.64986" />
    <path d="M -45.97305 -34.83585 L -45.97305 19.38649 L -45.62983 19.85376 L -45.62282 19.94065" />
    <path d="M -45.9713 -34.88128 L -45.97305 -34.83585 L -45.62983 -34.36858 L -45.62983 19.85376" />
    <path d="M -45.75416 -35.38359 A 1 0.63436 323.70178 0 0 -45.9713 -34.88128 L -45.62807 -34.41401 L -45.62983 -34.36858" />
    <path d="M -45.00361 -35.27597 A 1 0.63436 323.70178 0 0 -45.62807 -34.41401" />
    <path d="M -17.12891 10.28858 L -8.68959 7.24501" />
    <path d="M -33.85242 21.94943 L -15.92481 46.35649 L -15.92481 48.72872 L -15.9212 48.82305 A 1 0.3265 70.16857 0 0 -15.46718 50.0652 L -8.30529 59.81556 A 1 0.3265 70.16857 0 0 -7.96604 60.04281 L -7.29918 59.80231 A 1 0.3265 70.16857 0 0 -7.18171 59.52821 L -7.84857 59.76871 L -7.84766 59.72514 L -7.84766 44.99236 L -7.85127 44.89803 A 1 0.3265 70.16857 0 0 -8.30529 43.65588 L -11.5975 39.17379" />
    <path d="M -7.18171 59.52821 L -7.18081 59.48464 L -7.84766 59.72514" />
    <path d="M -7.18081 59.48464 L -7.18081 44.75186 L -7.84766 44.99236" />
    <path d="M -7.18081 44.75186 L -7.18441 44.65753 L -7.85127 44.89803" />
    <path d="M -7.18441 44.65753 A 1 0.3265 70.16857 0 0 -7.63844 43.41538 L -8.30529 43.65588" />
    <path d="M -7.63844 43.41538 L -12.13464 37.29415 L -12.8015 37.53465 L -12.8015 24.92438 L -12.80871 24.73572 A 2 0.65299 70.16857 0 0 -13.11148 23.43202 L -23.47132 -5.10433 A 1 0.3265 70.16857 0 0 -24.09785 -5.95732 L -34.45855 -5.62919 A 2 0.65299 70.16857 0 0 -34.53093 -5.61623 L -33.86407 -5.85672" />
    <path d="M -12.13464 37.29415 L -12.13464 24.68389 L -12.8015 24.92438" />
    <path d="M -12.13464 24.68389 L -12.14185 24.49522 L -12.80871 24.73572" />
    <path d="M -12.14185 24.49522 A 2 0.65299 70.16857 0 0 -12.44462 23.19153 L -13.11148 23.43202" />
    <path d="M -12.44462 23.19153 L -22.80446 -5.34483 L -23.47132 -5.10433" />
    <path d="M -22.80446 -5.34483 A 1 0.3265 70.16857 0 0 -23.431 -6.19781 L -24.09785 -5.95732" />
    <path d="M -23.431 -6.19781 L -33.79169 -5.86969 L -34.45855 -5.62919" />
    <path d="M -33.79169 -5.86969 A 2 0.65299 70.16857 0 0 -33.86407 -5.85672" />
    <path d="M -34.00588 -5.80558 L -36.38896 -9.04997 L -37.05582 -8.80948 A 1 0.3265 70.16857 0 0 -37.39507 -9.03672 L -36.72822 -9.27722" />
    <path d="M -36.38896 -9.04997 A 1 0.3265 70.16857 0 0 -36.72822 -9.27722" />
    <path d="M -34.76768 19.27647 L -34.76046 19.46513 A 2 0.65299 70.16857 0 0 -33.85242 21.94943" />
    <path d="M -7.96604 60.04281 A 1 0.3265 70.16857 0 0 -7.84857 59.76871" />
    <path d="M -11.61988 39.24351 L -11.5975 39.17379" />
    <path d="M -11.65407 39.32864 C -11.65 39.32 -11.65 39.32 -11.64511 39.30829 C -11.64 39.3 -11.64 39.29 -11.63643 39.2873 C -11.63 39.28 -11.63 39.27 -11.62802 39.2657 C -11.63 39.26 -11.62 39.25 -11.61988 39.24351" />
    <path d="M -12.33716 39.20757 C -12.33 39.22 -12.32 39.23 -12.31358 39.23913 C -12.31 39.25 -12.3 39.26 -12.29007 39.26947 C -12.28 39.28 -12.27 39.29 -12.26666 39.29853 C -12.26 39.31 -12.25 39.32 -12.24336 39.32624 C -12.24 39.34 -12.23 39.34 -12.22034 39.35241 C -12.21 39.36 -12.21 39.37 -12.19748 39.37714 C -12.19 39.39 -12.18 39.39 -12.17481 39.40037 C -12.17 39.41 -12.16 39.42 -12.15236 39.42205 C -12.14 39.43 -12.14 39.44 -12.13016 39.44214 C -12.12 39.45 -12.12 39.45 -12.10824 39.46059 C -12.1 39.47 -12.09 39.47 -12.08661 39.47737 C -12.08 39.48 -12.07 39.49 -12.06531 39.49246 C -12.06 39.5 -12.05 39.5 -12.04016 39.50833 C -12.03 39.51 -12.02 39.52 -12.01555 39.5217 C -12.01 39.53 -12 39.53 -11.99152 39.53256 C -11.98 39.54 -11.98 39.54 -11.96811 39.54093 C -11.96 39.54 -11.95 39.55 -11.94533 39.54684 C -11.94 39.55 -11.93 39.55 -11.92321 39.55032 C -11.92 39.55 -11.91 39.55 -11.90176 39.55144 C -11.89 39.55 -11.89 39.55 -11.881 39.55025 C -11.87 39.55 -11.87 39.55 -11.85984 39.54658 C -11.85 39.54 -11.85 39.54 -11.83944 39.54052 C -11.83 39.54 -11.83 39.53 -11.81851 39.53153 C -11.81 39.53 -11.8 39.52 -11.79842 39.52006 C -11.79 39.52 -11.78 39.51 -11.7771 39.50457 C -11.77 39.5 -11.76 39.49 -11.75679 39.48635 C -11.75 39.48 -11.74 39.47 -11.73745 39.46557 C -11.73 39.46 -11.73 39.45 -11.71905 39.44239 C -11.71 39.43 -11.71 39.43 -11.70154 39.41696 C -11.7 39.41 -11.69 39.4 -11.68491 39.38944 C -11.68 39.38 -11.67 39.37 -11.66909 39.35996 C -11.66 39.35 -11.66 39.34 -11.65407 39.32864" />
    <path d="M -12.41537 39.09065 L -12.33716 39.20757" />
    <path d="M -12.56955 38.83545 L -12.41537 39.09065" />
    <path d="M -12.56955 38.31291 L -12.56955 38.83545" />
    <path d="M -12.45783 38.47895 L -12.56955 38.31291" />
    <path d="M -12.13047 38.79224 C -12.14 38.79 -12.14 38.79 -12.14586 38.78768 C -12.15 38.79 -12.16 38.78 -12.16194 38.78104 C -12.17 38.78 -12.17 38.78 -12.17869 38.77235 C -12.18 38.77 -12.19 38.77 -12.19609 38.76164 C -12.2 38.76 -12.21 38.75 -12.21411 38.74897 C -12.22 38.74 -12.23 38.74 -12.23272 38.73437 C -12.24 38.73 -12.25 38.72 -12.2519 38.7179 C -12.26 38.71 -12.26 38.71 -12.27162 38.69962 C -12.29 38.69 -12.3 38.67 -12.31528 38.65494 C -12.33 38.64 -12.35 38.62 -12.36102 38.60289 C -12.37 38.59 -12.38 38.58 -12.3846 38.57427 C -12.39 38.56 -12.4 38.55 -12.40861 38.54403 C -12.42 38.53 -12.42 38.52 -12.43303 38.51223 C -12.44 38.5 -12.45 38.49 -12.45783 38.47895" />
    <path d="M -12.05709 38.77997 C -12.06 38.78 -12.06 38.78 -12.06673 38.78531 C -12.07 38.79 -12.07 38.79 -12.07663 38.78951 C -12.08 38.79 -12.09 38.79 -12.08949 38.79313 C -12.09 38.79 -12.1 38.79 -12.10275 38.79482 C -12.11 38.8 -12.11 38.79 -12.11641 38.79454 C -12.12 38.79 -12.13 38.79 -12.13047 38.79224" />
    <path d="M -11.97149 38.66463 C -11.97 38.67 -11.98 38.68 -11.98083 38.68441 C -11.98 38.69 -11.99 38.7 -11.99054 38.70279 C -11.99 38.71 -12 38.71 -12.00062 38.71971 C -12 38.73 -12.01 38.73 -12.0111 38.7351 C -12.02 38.74 -12.03 38.75 -12.03327 38.76101 C -12.04 38.76 -12.04 38.77 -12.04497 38.77139 C -12.05 38.77 -12.05 38.78 -12.05709 38.77997 L -11.72366 38.65972 Q -11.68 38.7 -11.63807 38.54438 L -11.26407 39.05354 L -11.5975 39.17379" />
    <path d="M -11.97149 38.66463 L -12.8015 37.53465" />
    <path d="M -34.53093 -5.61623 A 2 0.65299 70.16857 0 0 -34.64505 -5.5274 L -37.05582 -8.80948" />
    <path d="M -37.39507 -9.03672 A 1 0.3265 70.16857 0 0 -37.51254 -8.76262 L -37.51345 -8.71905 L -37.51345 4.12308 L -37.50984 4.21741 A 1 0.3265 70.16857 0 0 -37.05582 5.45956 L -34.76768 8.57469 L -34.76768 19.27647" />
    <path d="M -13.4075 36.22804 L -12.974 36.81821 L -12.974 36.76248 C -12.98 36.74 -12.98 36.73 -12.98484 36.70634 C -12.99 36.69 -12.99 36.67 -12.9948 36.65014 C -13 36.63 -13 36.61 -13.00392 36.59394 C -13.01 36.58 -13.01 36.56 -13.01222 36.53778 C -13.01 36.52 -13.02 36.5 -13.01973 36.48169 C -13.02 36.46 -13.02 36.44 -13.02649 36.42572 C -13.03 36.41 -13.03 36.39 -13.03252 36.36988 C -13.03 36.35 -13.04 36.33 -13.03785 36.3142 C -13.04 36.29 -13.04 36.27 -13.04307 36.25159 C -13.04 36.23 -13.05 36.21 -13.04747 36.18923 C -13.05 36.17 -13.05 36.15 -13.0511 36.12714 C -13.05 36.11 -13.05 36.09 -13.054 36.06534 C -13.05 36.04 -13.06 36.02 -13.05619 36.00385 C -13.06 35.98 -13.06 35.96 -13.05772 35.94267 C -13.06 35.92 -13.06 35.9 -13.05862 35.8818 C -13.06 35.86 -13.06 35.84 -13.05891 35.82125 L -13.05891 34.08639 C -13.06 34.07 -13.06 34.05 -13.06038 34.02768 C -13.06 34.01 -13.06 33.99 -13.06305 33.96778 C -13.06 33.95 -13.07 33.93 -13.06695 33.90669 C -13.07 33.89 -13.07 33.87 -13.07215 33.84444 C -13.07 33.83 -13.08 33.81 -13.07805 33.78675 C -13.08 33.77 -13.08 33.75 -13.08509 33.72812 C -13.09 33.71 -13.09 33.69 -13.0933 33.6686 C -13.1 33.65 -13.1 33.63 -13.1027 33.60822 C -13.11 33.59 -13.11 33.57 -13.11331 33.54702 C -13.12 33.53 -13.12 33.51 -13.12516 33.48508 C -13.13 33.46 -13.13 33.44 -13.13824 33.42244 C -13.14 33.4 -13.15 33.38 -13.15256 33.35918 C -13.16 33.34 -13.16 33.32 -13.16769 33.29709 C -13.17 33.28 -13.18 33.26 -13.18398 33.23456 C -13.19 33.21 -13.2 33.19 -13.20141 33.17167 C -13.21 33.15 -13.21 33.13 -13.21995 33.10851 C -13.23 33.09 -13.23 33.07 -13.23959 33.04515 C -13.25 33.02 -13.25 33 -13.26029 32.98168 C -13.27 32.96 -13.27 32.94 -13.28201 32.91817 C -13.29 32.9 -13.3 32.88 -13.30471 32.85472 C -13.31 32.84 -13.32 32.82 -13.32372 32.80358 C -13.33 32.79 -13.34 32.77 -13.34329 32.75273 C -13.35 32.74 -13.36 32.72 -13.36339 32.70219 C -13.37 32.69 -13.38 32.67 -13.38402 32.652 C -13.39 32.64 -13.4 32.62 -13.40514 32.60221 C -13.41 32.59 -13.42 32.57 -13.42675 32.55283 C -13.43 32.54 -13.44 32.52 -13.44881 32.50391 C -13.46 32.49 -13.46 32.47 -13.4713 32.45548 C -13.48 32.44 -13.49 32.42 -13.49448 32.407 C -13.5 32.39 -13.51 32.37 -13.51805 32.35906 C -13.53 32.34 -13.53 32.33 -13.542 32.3117 C -13.55 32.3 -13.56 32.28 -13.5663 32.26491 C -13.57 32.25 -13.58 32.23 -13.59093 32.21872 C -13.6 32.2 -13.61 32.19 -13.61587 32.17314 C -13.62 32.16 -13.63 32.14 -13.6411 32.12818 C -13.65 32.11 -13.66 32.1 -13.66659 32.08385 C -13.68 32.06 -13.69 32.04 -13.70202 32.02395 C -13.71 32 -13.73 31.98 -13.73787 31.96524 C -13.75 31.95 -13.76 31.93 -13.77409 31.90773 C -13.79 31.89 -13.8 31.87 -13.81064 31.85141 C -13.82 31.83 -13.84 31.81 -13.84748 31.79626 C -13.86 31.78 -13.87 31.76 -13.88458 31.74226 C -13.9 31.72 -13.91 31.71 -13.9219 31.6894 C -13.93 31.67 -13.95 31.65 -13.95942 31.63765 C -13.98 31.61 -14 31.58 -14.02348 31.55275 C -14.04 31.53 -14.07 31.5 -14.08688 31.47346 C -14.1 31.46 -14.11 31.45 -14.11829 31.43602 C -14.13 31.42 -14.14 31.41 -14.1495 31.40008 C -14.16 31.39 -14.17 31.38 -14.18048 31.36567 C -14.19 31.35 -14.2 31.34 -14.21123 31.33285 C -14.22 31.32 -14.23 31.31 -14.24122 31.30213 C -14.25 31.29 -14.26 31.28 -14.27095 31.27298 C -14.28 31.26 -14.29 31.25 -14.30041 31.24544 C -14.31 31.24 -14.32 31.23 -14.32959 31.21951 C -14.34 31.21 -14.35 31.2 -14.35847 31.19521 C -14.37 31.19 -14.38 31.18 -14.38704 31.17257 C -14.4 31.17 -14.41 31.16 -14.41528 31.1516 C -14.42 31.14 -14.43 31.14 -14.44319 31.13232 C -14.46 31.12 -14.48 31.11 -14.49542 31.10015 C -14.5 31.1 -14.51 31.09 -14.52077 31.08655 C -14.53 31.08 -14.54 31.08 -14.54558 31.07465 C -14.55 31.07 -14.56 31.07 -14.56983 31.06449 C -14.58 31.06 -14.59 31.06 -14.59349 31.05611 C -14.6 31.05 -14.61 31.05 -14.61655 31.04954 C -14.62 31.05 -14.63 31.05 -14.63899 31.0448 C -14.65 31.04 -14.66 31.04 -14.6685 31.04135 C -14.68 31.04 -14.69 31.04 -14.69678 31.04142 C -14.71 31.04 -14.71 31.04 -14.72377 31.04504 C -14.73 31.05 -14.74 31.05 -14.74943 31.05225 C -14.76 31.05 -14.76 31.06 -14.77116 31.06171 C -14.78 31.07 -14.79 31.07 -14.79178 31.07404 C -14.8 31.08 -14.8 31.08 -14.80478 31.08371 C -14.81 31.09 -14.81 31.09 -14.81717 31.09452 C -14.82 31.1 -14.83 31.1 -14.82895 31.10648 C -14.83 31.11 -14.84 31.12 -14.84008 31.1196 C -14.84 31.12 -14.85 31.13 -14.85055 31.13391 C -14.85 31.14 -14.86 31.14 -14.86034 31.14943 C -14.86 31.15 -14.87 31.16 -14.86945 31.16615 C -14.87 31.17 -14.88 31.18 -14.87784 31.1841 C -14.88 31.19 -14.88 31.2 -14.88551 31.20329 C -14.89 31.21 -14.89 31.22 -14.89244 31.22371 C -14.89 31.23 -14.9 31.24 -14.89862 31.24537 C -14.9 31.25 -14.9 31.26 -14.90404 31.26827 C -14.91 31.28 -14.91 31.28 -14.90869 31.29241 C -14.91 31.3 -14.91 31.31 -14.91256 31.31778 C -14.91 31.33 -14.91 31.34 -14.91565 31.34437 C -14.92 31.35 -14.92 31.36 -14.91796 31.37217 C -14.92 31.38 -14.92 31.4 -14.91969 31.40739 C -14.92 31.42 -14.92 31.43 -14.92026 31.44431 L -14.50464 32.01014 C -14.5 32 -14.5 32 -14.50443 31.99201 C -14.5 31.99 -14.5 31.98 -14.5038 31.9746 C -14.5 31.97 -14.5 31.96 -14.50274 31.95792 C -14.5 31.95 -14.5 31.95 -14.50125 31.94199 C -14.5 31.94 -14.5 31.93 -14.49934 31.92683 C -14.5 31.92 -14.5 31.92 -14.49699 31.91244 C -14.5 31.91 -14.5 31.9 -14.4942 31.89883 C -14.49 31.89 -14.49 31.89 -14.49099 31.88601 C -14.49 31.88 -14.49 31.87 -14.48543 31.86847 C -14.48 31.86 -14.48 31.86 -14.47893 31.8527 C -14.48 31.85 -14.47 31.84 -14.4715 31.83871 C -14.47 31.83 -14.47 31.83 -14.46315 31.82649 C -14.46 31.82 -14.46 31.82 -14.45391 31.81604 C -14.45 31.81 -14.45 31.81 -14.4438 31.80735 C -14.44 31.8 -14.44 31.8 -14.43283 31.8004 C -14.43 31.8 -14.43 31.8 -14.42103 31.79515 C -14.42 31.79 -14.41 31.79 -14.40606 31.79111 C -14.4 31.79 -14.4 31.79 -14.39002 31.78936 C -14.38 31.79 -14.38 31.79 -14.37296 31.78983 C -14.37 31.79 -14.36 31.79 -14.35493 31.79244 C -14.35 31.79 -14.34 31.79 -14.33948 31.79617 C -14.33 31.8 -14.33 31.8 -14.32364 31.80132 C -14.32 31.8 -14.31 31.81 -14.30532 31.80882 C -14.3 31.81 -14.29 31.81 -14.28653 31.81813 C -14.28 31.82 -14.27 31.83 -14.26729 31.82922 C -14.26 31.83 -14.25 31.84 -14.24762 31.84207 C -14.24 31.85 -14.23 31.85 -14.22753 31.85667 C -14.22 31.86 -14.21 31.87 -14.20704 31.873 C -14.2 31.88 -14.19 31.88 -14.18617 31.89101 C -14.18 31.9 -14.17 31.9 -14.16494 31.91069 C -14.16 31.92 -14.15 31.92 -14.14335 31.93199 C -14.14 31.94 -14.13 31.95 -14.12144 31.95489 C -14.11 31.96 -14.11 31.97 -14.09921 31.97933 C -14.09 31.99 -14.08 32 -14.07668 32.00528 C -14.07 32.01 -14.06 32.02 -14.05388 32.0327 C -14.05 32.04 -14.04 32.05 -14.03082 32.06153 C -14.02 32.08 -14 32.1 -13.984 32.12325 C -13.97 32.14 -13.96 32.15 -13.9549 32.16356 C -13.95 32.18 -13.94 32.19 -13.92621 32.20471 C -13.92 32.22 -13.91 32.23 -13.89798 32.24672 C -13.89 32.26 -13.88 32.28 -13.87024 32.28959 C -13.86 32.3 -13.85 32.32 -13.84305 32.33331 C -13.83 32.35 -13.83 32.36 -13.81646 32.37788 C -13.81 32.39 -13.8 32.41 -13.79052 32.42329 C -13.78 32.44 -13.77 32.45 -13.76529 32.4695 C -13.76 32.48 -13.75 32.5 -13.74194 32.51428 C -13.73 32.53 -13.73 32.54 -13.71933 32.55974 C -13.71 32.58 -13.7 32.59 -13.69752 32.60583 C -13.69 32.62 -13.68 32.64 -13.67654 32.65249 C -13.67 32.67 -13.66 32.68 -13.65646 32.69968 C -13.65 32.72 -13.64 32.73 -13.63729 32.74734 C -13.63 32.76 -13.62 32.78 -13.6191 32.79539 C -13.61 32.81 -13.61 32.83 -13.6019 32.84377 C -13.6 32.86 -13.59 32.87 -13.58795 32.88534 C -13.58 32.9 -13.58 32.91 -13.57477 32.92678 C -13.57 32.94 -13.57 32.95 -13.56236 32.96806 C -13.56 32.98 -13.55 33 -13.55074 33.00913 C -13.55 33.02 -13.54 33.03 -13.54098 33.04586 C -13.54 33.06 -13.53 33.07 -13.53187 33.08236 C -13.53 33.09 -13.53 33.11 -13.52343 33.11862 C -13.52 33.13 -13.52 33.14 -13.51564 33.15461 C -13.51 33.17 -13.51 33.18 -13.50852 33.1903 C -13.51 33.2 -13.5 33.21 -13.50206 33.22567 C -13.5 33.24 -13.5 33.25 -13.49625 33.26071 C -13.49 33.27 -13.49 33.28 -13.4911 33.29539 C -13.49 33.31 -13.49 33.32 -13.48659 33.3297 C -13.49 33.34 -13.48 33.35 -13.48272 33.36362 C -13.48 33.37 -13.48 33.39 -13.47948 33.39715 C -13.48 33.41 -13.48 33.42 -13.47686 33.43027 C -13.48 33.44 -13.48 33.45 -13.47484 33.46296 C -13.47 33.47 -13.47 33.48 -13.47342 33.49522 C -13.47 33.51 -13.47 33.52 -13.47257 33.52705 C -13.47 33.54 -13.47 33.55 -13.4723 33.55843 L -13.4723 33.85454 L -13.87451 33.30696 C -13.88 33.29 -13.89 33.28 -13.90465 33.26621 C -13.91 33.25 -13.92 33.24 -13.93472 33.22611 C -13.94 33.21 -13.95 33.2 -13.96471 33.18671 C -13.97 33.17 -13.98 33.16 -13.99462 33.14802 C -14 33.14 -14.01 33.12 -14.02443 33.11008 C -14.03 33.1 -14.04 33.09 -14.05414 33.07293 C -14.06 33.06 -14.07 33.05 -14.08375 33.03659 C -14.09 33.02 -14.1 33.01 -14.11323 33.00111 C -14.12 32.99 -14.13 32.98 -14.14258 32.96651 C -14.15 32.96 -14.16 32.94 -14.17179 32.93285 C -14.18 32.92 -14.19 32.91 -14.20084 32.90017 C -14.21 32.89 -14.22 32.88 -14.22972 32.8685 C -14.24 32.86 -14.25 32.85 -14.25841 32.83789 C -14.27 32.83 -14.28 32.82 -14.2869 32.80839 C -14.3 32.8 -14.31 32.79 -14.31518 32.78004 C -14.32 32.77 -14.33 32.76 -14.34322 32.7529 C -14.36 32.74 -14.37 32.72 -14.39052 32.70949 C -14.41 32.7 -14.42 32.68 -14.43698 32.67001 C -14.45 32.66 -14.47 32.65 -14.48247 32.63475 C -14.5 32.62 -14.51 32.61 -14.52689 32.60398 C -14.54 32.6 -14.55 32.59 -14.56764 32.57934 C -14.58 32.57 -14.59 32.57 -14.60721 32.55915 C -14.61 32.56 -14.62 32.55 -14.62651 32.55079 C -14.63 32.55 -14.64 32.55 -14.64546 32.54363 C -14.65 32.54 -14.66 32.54 -14.66406 32.53768 C -14.67 32.54 -14.68 32.53 -14.68229 32.53296 C -14.69 32.53 -14.7 32.53 -14.70139 32.52929 C -14.71 32.53 -14.71 32.53 -14.71999 32.52712 C -14.73 32.53 -14.73 32.53 -14.73806 32.52646 C -14.74 32.53 -14.75 32.53 -14.75557 32.52737 C -14.76 32.53 -14.77 32.53 -14.77623 32.53065 C -14.78 32.53 -14.79 32.53 -14.79597 32.53636 C -14.8 32.54 -14.8 32.54 -14.80704 32.54084 C -14.81 32.54 -14.81 32.54 -14.81777 32.54616 C -14.82 32.55 -14.82 32.55 -14.82817 32.55233 C -14.83 32.55 -14.83 32.56 -14.83822 32.55937 C -14.84 32.56 -14.84 32.56 -14.84791 32.56726 C -14.85 32.57 -14.85 32.57 -14.85725 32.57601 C -14.86 32.58 -14.86 32.58 -14.86622 32.58562 C -14.87 32.59 -14.87 32.59 -14.87482 32.59609 C -14.88 32.6 -14.88 32.6 -14.88257 32.60671 C -14.89 32.61 -14.89 32.61 -14.88998 32.61809 C -14.89 32.63 -14.9 32.63 -14.9038 32.64306 C -14.91 32.65 -14.91 32.66 -14.91627 32.67094 C -14.92 32.68 -14.92 32.69 -14.92737 32.70166 C -14.93 32.71 -14.93 32.72 -14.93711 32.73511 C -14.94 32.75 -14.94 32.76 -14.94552 32.77121 C -14.95 32.78 -14.95 32.8 -14.9526 32.80982 C -14.95 32.82 -14.96 32.84 -14.95839 32.85084 C -14.96 32.87 -14.96 32.88 -14.9633 32.89855 C -14.96 32.91 -14.97 32.93 -14.96674 32.94884 C -14.97 32.97 -14.97 32.98 -14.96876 33.00155 C -14.97 33.02 -14.97 33.04 -14.96942 33.0565 C -14.97 33.07 -14.97 33.08 -14.96902 33.09715 C -14.97 33.11 -14.97 33.12 -14.96781 33.13866 C -14.97 33.15 -14.97 33.17 -14.96577 33.18103 C -14.96 33.2 -14.96 33.21 -14.96288 33.22425 C -14.96 33.24 -14.96 33.25 -14.95906 33.26891 C -14.96 33.28 -14.96 33.3 -14.95434 33.3144 C -14.95 33.33 -14.95 33.35 -14.9487 33.36071 C -14.95 33.38 -14.94 33.39 -14.94214 33.40779 C -14.94 33.42 -14.94 33.44 -14.93464 33.45562 C -14.93 33.47 -14.93 33.49 -14.9262 33.50416 C -14.92 33.52 -14.92 33.54 -14.91683 33.55337 C -14.91 33.57 -14.91 33.59 -14.90653 33.6032 C -14.9 33.63 -14.9 33.65 -14.89137 33.67053 C -14.89 33.69 -14.88 33.72 -14.87461 33.73876 C -14.87 33.76 -14.86 33.78 -14.85628 33.80776 C -14.85 33.83 -14.84 33.85 -14.83643 33.87742 C -14.83 33.9 -14.82 33.93 -14.81454 33.9495 C -14.81 33.97 -14.8 34 -14.79118 34.02201 C -14.78 34.05 -14.77 34.07 -14.76644 34.09482 C -14.76 34.12 -14.75 34.14 -14.74038 34.16782 C -14.73 34.19 -14.73 34.21 -14.71724 34.22996 C -14.71 34.25 -14.7 34.27 -14.69339 34.29159 C -14.69 34.31 -14.68 34.33 -14.66884 34.35264 C -14.66 34.37 -14.65 34.39 -14.64363 34.41304 C -14.64 34.43 -14.63 34.44 -14.62436 34.45773 C -14.62 34.47 -14.61 34.49 -14.60474 34.502 C -14.6 34.52 -14.59 34.53 -14.58479 34.54583 C -14.58 34.56 -14.57 34.57 -14.56451 34.58919 C -14.56 34.6 -14.55 34.62 -14.54391 34.63207 C -14.54 34.65 -14.53 34.66 -14.52302 34.67444 C -14.52 34.69 -14.51 34.7 -14.50185 34.71628 C -14.49 34.73 -14.49 34.74 -14.4804 34.75759 C -14.47 34.78 -14.45 34.81 -14.44162 34.82969 C -14.43 34.85 -14.42 34.88 -14.40211 34.89997 C -14.39 34.92 -14.38 34.95 -14.36195 34.96837 C -14.35 34.99 -14.33 35.01 -14.3212 35.03487 C -14.31 35.06 -14.29 35.08 -14.27995 35.09944 C -14.27 35.12 -14.25 35.14 -14.23827 35.16209 C -14.22 35.18 -14.21 35.2 -14.1962 35.22282 C -14.18 35.24 -14.17 35.26 -14.15382 35.28165 C -14.14 35.3 -14.13 35.32 -14.11149 35.33796 C -14.1 35.36 -14.08 35.37 -14.06936 35.39127 C -14.06 35.41 -14.04 35.43 -14.02751 35.44143 C -14.01 35.46 -14 35.47 -13.98601 35.48827 C -13.97 35.5 -13.96 35.52 -13.94493 35.53165 C -13.93 35.55 -13.92 35.56 -13.90433 35.57146 C -13.89 35.58 -13.88 35.6 -13.86429 35.60758 C -13.86 35.61 -13.85 35.62 -13.8445 35.62423 C -13.84 35.63 -13.83 35.63 -13.82488 35.63993 C -13.81 35.65 -13.8 35.66 -13.79164 35.66461 C -13.78 35.67 -13.77 35.68 -13.75895 35.68645 C -13.75 35.69 -13.74 35.7 -13.72685 35.70543 C -13.72 35.71 -13.71 35.72 -13.69536 35.72157 C -13.68 35.73 -13.67 35.73 -13.66451 35.73488 C -13.65 35.74 -13.64 35.74 -13.63434 35.74538 C -13.62 35.75 -13.61 35.75 -13.60485 35.75312 C -13.6 35.76 -13.59 35.76 -13.57607 35.75815 C -13.57 35.76 -13.56 35.76 -13.54731 35.76055 C -13.54 35.76 -13.53 35.76 -13.51931 35.76024 C -13.51 35.76 -13.5 35.76 -13.49207 35.7573 C -13.48 35.76 -13.47 35.75 -13.46559 35.75181 C -13.46 35.76 -13.46 35.78 -13.46302 35.78716 C -13.46 35.8 -13.46 35.81 -13.46032 35.82196 C -13.46 35.83 -13.46 35.84 -13.45749 35.85617 C -13.46 35.87 -13.46 35.88 -13.45453 35.88976 C -13.45 35.9 -13.45 35.91 -13.45144 35.92269 C -13.45 35.93 -13.45 35.94 -13.44821 35.95492 C -13.45 35.97 -13.45 35.98 -13.44484 35.9864 C -13.44 36 -13.44 36.01 -13.44132 36.01708 C -13.44 36.03 -13.44 36.04 -13.43765 36.04693 C -13.44 36.06 -13.44 36.07 -13.43383 36.07589 C -13.43 36.09 -13.43 36.11 -13.42571 36.13093 C -13.42 36.15 -13.42 36.17 -13.41694 36.1818 C -13.41 36.2 -13.41 36.21 -13.4075 36.22804 Z" />
    <path d="M -18.2765 24.52706 L -18.83066 23.77262 L -18.83066 28.84481 L -18.40164 29.4289 L -18.40164 27.45367 L -18.44409 25.27432 L -17.37823 30.82219 L -17.04976 31.26938 L -15.98166 28.61629 L -16.02188 30.69353 L -16.02188 32.66876 L -15.59285 33.25285 L -15.59285 28.18065 L -16.14925 27.42316 L -17.21288 30.11369 L -18.2765 24.52706 Z" />
    <path d="M -11.97149 38.66463 L -11.63807 38.54438" />
    <path d="M -11.68963 39.3976 Q -11.51 39.76 -12.00373 39.08733 L -12.08194 38.9704 L -12.21708 38.74673" />
    <path d="M -12.00373 39.08733 L -12.33716 39.20757" />
    <path d="M -12.08194 38.9704 L -12.41537 39.09065" />
    <path d="M -12.2495 38.72003 L -12.56955 38.83545" />
    <path d="M -11.76345 38.67407 Q -11.68 38.7 -11.7432 38.66926 L -12.07663 38.78951" />
    <path d="M -11.7432 38.66926 Q -11.68 38.7 -11.72366 38.65972" />
    <path d="M -13.05041 36.14 L -13.07407 36.10779 Q -13.11 35.95 -13.13216 35.63156 Q -13.42 35.71 -13.82039 35.1614 L -14.15382 35.28165" />
    <path d="M -13.07407 36.10779 L -13.4075 36.22804" />
    <path d="M -13.13216 35.63156 L -13.46559 35.75181" />
    <path d="M -13.82039 35.1614 Q -14.18 34.67 -13.94555 34.98069" />
    <path d="M -14.5557 33.55975 Q -14.64 33.42 -14.63599 32.93625 L -14.96942 33.0565" />
    <path d="M -14.63599 32.93625 Q -14.64 32.35 -14.58931 32.56779" />
    <path d="M -13.13887 33.7343 L -13.4723 33.85454" />
    <path d="M -13.13887 33.7343 L -13.13887 33.43819 L -13.4723 33.55843" />
    <path d="M -13.13887 33.43819 Q -13.14 33.1 -13.13897 33.4191" />
    <path d="M -13.88212 31.7458 Q -13.87 31.7 -14.0215 31.6722 L -14.35493 31.79244" />
    <path d="M -14.0215 31.6722 Q -14.17 31.64 -14.0876 31.6749 L -14.42103 31.79515" />
    <path d="M -14.27855 31.74377 L -14.58683 31.32406 Q -14.59 31.04 -14.54838 31.0734" />
    <path d="M -14.58683 31.32406 L -14.92026 31.44431" />
    <path d="M -16.87945 29.99344 L -17.21288 30.11369" />
    <path d="M -16.87945 29.99344 L -15.96339 27.6762" />
    <path d="M -15.59285 32.67866 L -15.68845 32.54851 L -15.68845 30.57328 L -15.64823 28.49604 L -15.98166 28.61629" />
    <path d="M -15.68845 32.54851 L -16.02188 32.66876" />
    <path d="M -15.68845 30.57328 L -16.02188 30.69353" />
    <path d="M -16.90044 30.89848 L -17.0448 30.70194 L -17.16138 30.09512" />
    <path d="M -17.0448 30.70194 L -17.37823 30.82219" />
    <path d="M -18.15414 25.16976 L -18.44409 25.27432" />
    <path d="M -18.40164 28.85471 L -18.49724 28.72456 L -18.49724 24.22655" />
    <path d="M -18.49724 28.72456 L -18.83066 28.84481" />
    <path d="M -13.22811 35.04819 Q -13.22 35.11 -13.13887 34.96403 L -13.4723 35.08427 C -13.48 35.09 -13.48 35.1 -13.48628 35.10718 C -13.49 35.11 -13.5 35.12 -13.50166 35.12685 C -13.51 35.13 -13.51 35.14 -13.51527 35.14052 C -13.52 35.14 -13.52 35.15 -13.5298 35.15201 C -13.53 35.16 -13.54 35.16 -13.54523 35.16131 C -13.55 35.16 -13.56 35.17 -13.56154 35.16844 C -13.57 35.17 -13.57 35.17 -13.57905 35.17347 C -13.59 35.17 -13.59 35.18 -13.59743 35.17628 C -13.6 35.18 -13.61 35.18 -13.61668 35.17688 C -13.62 35.18 -13.63 35.18 -13.63675 35.17531 C -13.64 35.17 -13.65 35.17 -13.65763 35.17161 C -13.66 35.17 -13.67 35.17 -13.67928 35.16581 C -13.69 35.16 -13.69 35.16 -13.70168 35.15796 C -13.71 35.16 -13.72 35.15 -13.7248 35.1481 C -13.73 35.14 -13.74 35.14 -13.75194 35.13451 C -13.76 35.13 -13.77 35.12 -13.77946 35.11862 C -13.79 35.11 -13.8 35.11 -13.80735 35.10042 C -13.82 35.09 -13.83 35.09 -13.83558 35.07988 C -13.85 35.07 -13.85 35.07 -13.86415 35.057 C -13.87 35.05 -13.88 35.04 -13.89302 35.03178 C -13.9 35.02 -13.91 35.01 -13.92219 35.00422 C -13.93 34.99 -13.94 34.98 -13.95164 34.97434 C -13.96 34.96 -13.97 34.95 -13.98667 34.93616 C -14 34.92 -14.01 34.91 -14.02201 34.89483 C -14.03 34.88 -14.05 34.87 -14.05763 34.85039 C -14.07 34.84 -14.08 34.82 -14.09349 34.80292 C -14.11 34.78 -14.12 34.76 -14.13469 34.74501 C -14.14 34.74 -14.15 34.73 -14.15493 34.71514 C -14.16 34.71 -14.17 34.69 -14.17491 34.68468 C -14.18 34.67 -14.19 34.66 -14.19462 34.65361 C -14.2 34.64 -14.21 34.63 -14.21403 34.62194 C -14.22 34.61 -14.23 34.6 -14.23314 34.58969 C -14.24 34.58 -14.25 34.57 -14.25192 34.55685 C -14.26 34.55 -14.26 34.53 -14.27036 34.52344 C -14.28 34.51 -14.28 34.5 -14.28845 34.48947 C -14.29 34.48 -14.3 34.47 -14.30617 34.45496 C -14.31 34.44 -14.32 34.43 -14.3235 34.41991 C -14.33 34.41 -14.33 34.4 -14.34043 34.38434 C -14.35 34.37 -14.35 34.36 -14.35695 34.34828 C -14.36 34.34 -14.37 34.32 -14.37304 34.31175 C -14.38 34.3 -14.38 34.29 -14.3887 34.27476 C -14.4 34.26 -14.4 34.24 -14.40794 34.22717 C -14.41 34.21 -14.42 34.2 -14.42643 34.17894 C -14.43 34.16 -14.44 34.14 -14.44574 34.1254 C -14.45 34.11 -14.46 34.09 -14.46359 34.0721 C -14.47 34.05 -14.47 34.04 -14.47992 34.01913 C -14.49 34 -14.49 33.98 -14.49469 33.96661 C -14.5 33.96 -14.5 33.95 -14.50229 33.93736 C -14.5 33.93 -14.51 33.92 -14.50938 33.90829 C -14.51 33.9 -14.51 33.89 -14.51596 33.87942 C -14.52 33.87 -14.52 33.86 -14.52203 33.85077 C -14.52 33.84 -14.53 33.83 -14.52759 33.82236 C -14.53 33.81 -14.53 33.8 -14.53264 33.7942 C -14.53 33.78 -14.54 33.78 -14.53719 33.76631 C -14.54 33.76 -14.54 33.75 -14.54122 33.73868 C -14.54 33.72 -14.55 33.7 -14.5478 33.68431 C -14.55 33.67 -14.55 33.65 -14.55242 33.63115 C -14.55 33.61 -14.55 33.6 -14.55515 33.57927 C -14.56 33.56 -14.56 33.55 -14.55604 33.52872 C -14.56 33.52 -14.56 33.51 -14.55569 33.49973 C -14.56 33.49 -14.56 33.48 -14.55461 33.47189 C -14.55 33.46 -14.55 33.45 -14.55278 33.44532 C -14.55 33.44 -14.55 33.43 -14.55015 33.42009 C -14.55 33.41 -14.55 33.41 -14.54713 33.39883 C -14.55 33.39 -14.54 33.39 -14.54343 33.37879 C -14.54 33.37 -14.54 33.37 -14.53905 33.36003 C -14.54 33.35 -14.54 33.35 -14.53398 33.34262 C -14.53 33.34 -14.53 33.33 -14.5282 33.32661 C -14.53 33.32 -14.52 33.32 -14.52171 33.31206 C -14.52 33.31 -14.52 33.3 -14.51452 33.29902 C -14.51 33.29 -14.51 33.29 -14.50663 33.2875 C -14.5 33.28 -14.5 33.28 -14.49734 33.27681 C -14.49 33.27 -14.49 33.27 -14.48727 33.26795 C -14.48 33.27 -14.48 33.26 -14.47644 33.26094 C -14.47 33.26 -14.47 33.26 -14.4649 33.25574 C -14.46 33.25 -14.46 33.25 -14.45186 33.25219 C -14.45 33.25 -14.44 33.25 -14.4381 33.25062 C -14.43 33.25 -14.43 33.25 -14.42754 33.2507 C -14.42 33.25 -14.42 33.25 -14.41664 33.2518 C -14.41 33.25 -14.41 33.25 -14.40541 33.25387 C -14.4 33.25 -14.4 33.26 -14.39388 33.2569 C -14.39 33.26 -14.38 33.26 -14.37071 33.26535 C -14.36 33.27 -14.35 33.27 -14.34661 33.27699 C -14.34 33.28 -14.33 33.29 -14.32168 33.29157 C -14.32 33.29 -14.31 33.3 -14.30894 33.29988 C -14.3 33.3 -14.3 33.31 -14.29604 33.30884 C -14.29 33.31 -14.28 33.32 -14.27018 33.32826 C -14.26 33.34 -14.25 33.34 -14.24383 33.34985 C -14.23 33.36 -14.23 33.37 -14.21703 33.37342 C -14.21 33.38 -14.2 33.39 -14.18985 33.39882 C -14.18 33.41 -14.17 33.42 -14.16233 33.42587 C -14.15 33.44 -14.14 33.44 -14.13452 33.45446 C -14.13 33.46 -14.12 33.47 -14.10646 33.48444 C -14.1 33.49 -14.09 33.51 -14.07819 33.51571 C -14.07 33.53 -14.06 33.54 -14.04974 33.54815 C -14.04 33.56 -14.03 33.57 -14.02112 33.58167 C -14.01 33.59 -14 33.6 -13.99237 33.61619 C -13.98 33.63 -13.97 33.64 -13.96351 33.65163 C -13.95 33.66 -13.94 33.68 -13.93454 33.68792 C -13.92 33.7 -13.92 33.71 -13.90548 33.72503 C -13.9 33.74 -13.89 33.75 -13.87632 33.76288 C -13.87 33.78 -13.86 33.79 -13.84709 33.80146 C -13.84 33.81 -13.83 33.82 -13.82171 33.8354 C -13.81 33.85 -13.8 33.86 -13.7963 33.8698 L -13.4723 34.3109 L -13.4723 35.08427" />
    <path d="M -13.13887 34.96403 L -13.13887 34.19065 L -13.4723 34.3109" />
    <path d="M -13.13887 34.19065 L -13.40387 33.82987" />
    <path d="M -13.96405 33.18756 Q -14.22 32.72 -14.13147 33.1355 L -14.4649 33.25574" />
    <path d="M -0.5688 28.19227 L -0.35749 28.05829" />
    <path d="M -24.36549 -32.31678 L -24.5768 -33.02612" />
    <path d="M -47.44494 -35.62602 L -47.65625 -36.33535" />
    <path d="M -14.46477 34.06842 L -14.74038 34.16782" />
    <path d="M -13.34405 32.75078 L -13.6019 32.84377" />
    <path d="M -13.7032 32.02199 L -13.984 32.12325" />
    <path d="M -14.70262 31.04189 L -14.79178 31.07404" />
    <path d="M -13.53129 33.77422 L -13.7963 33.8698" />
    <path d="M -23.08327 -32.6395 L -23.29458 -32.50552" />
    <path d="M 47.30258 11.90774 L 47.09127 12.04171" />
    <path d="M -47.72549 -36.37052 L -47.51418 -35.66118" />
    <path d="M 23.50618 -50.30672 L 23.71748 -49.59739" />
    <path d="M -1.61427 79.93563 L -1.95749 79.46836" />
    <path d="M -45.54663 20.12508 L -45.88985 19.65781" />
    <path d="M -13.22811 35.04819 L -13.56154 35.16844" />
</svg>