<svg version="1.1" xmlns="http://www.w3.org/2000/svg" viewBox="-48.72903810477832 -54.63320382759874 97.45807620955664 135.79159990097364" fill="none" stroke="black" stroke-width="0.6%" vector-effect="non-scaling-stroke">
    <path d="M -23.64731 -31.28809 L -0.56463 28.24493 A 1 0.94277 237.67626 0 0 0.62861 28.87262 L 0.68515 28.85431 L 46.91889 12.17125 L 47.02748 12.1237 A 1 0.94277 237.67626 0 0 47.09292 12.08608" />
    <path d="M -23.43597 -31.42182 L -0.35329 28.11121 A 1 0.94277 237.67626 0 0 0.83995 28.73889 L 0.89648 28.72058 L 47.13023 12.03752 L 47.23882 11.98998 A 1 0.94277 237.67626 0 0 47.30426 11.95236 A 1 0.94277 237.67626 0 0 47.65867 10.78649 L 24.57599 -48.74653 A 1 0.94277 237.67626 0 0 23.38275 -49.37422 L 23.32622 -49.35591 L -22.90753 -32.67285 L -23.01612 -32.6253 A 1 0.94277 237.67626 0 0 -23.08156 -32.58769 A 1 0.94277 237.67626 0 0 -23.28767 -32.40751 L -22.86393 -32.56041" />
    <path d="M -23.66359 -31.98357 A 1 0.94277 237.67626 0 0 -23.64731 -31.28809 L -23.43597 -31.42182" />
    <path d="M -23.45225 -32.1173 A 1 0.94277 237.67626 0 0 -23.43597 -31.42182" />
    <path d="M -23.45225 -32.1173 L -23.66359 -31.98357" />
    <path d="M 0.62861 28.87262 L 0.83995 28.73889" />
    <path d="M -23.34491 -31.84044 L -23.45225 -32.1173" />
    <path d="M -23.34491 -31.84044 L -22.67807 -32.08106 L -22.82513 -32.46271 A 1 0.32642 70.15845 0 0 -22.86393 -32.56041" />
    <path d="M -46.21065 -35.4166 L -46.21065 18.69547 L -46.20704 18.78977 A 1 0.32642 70.15845 0 0 -45.75296 20.0319 L -1.81445 79.86275 A 1 0.32642 70.15845 0 0 -1.47503 80.09019 A 1 0.32642 70.15845 0 0 -1.47118 80.08872 L -1.47118 51.05214 C -1.47 51.02 -1.47 51 -1.46518 50.96642 C -1.46 50.94 -1.46 50.91 -1.461 50.87763 C -1.46 50.85 -1.46 50.82 -1.45856 50.786 C -1.46 50.77 -1.46 50.75 -1.45797 50.73918 C -1.46 50.72 -1.46 50.71 -1.45777 50.69174 L -1.45777 50.63254 C -1.46 50.6 -1.46 50.57 -1.45856 50.53117 C -1.46 50.5 -1.46 50.46 -1.46098 50.42796 C -1.46 50.39 -1.46 50.36 -1.46515 50.32289 C -1.47 50.29 -1.47 50.25 -1.47118 50.2159 L -1.47118 25.90683" />
    <path d="M -2.39416 51.32849 C -2.38 51.35 -2.37 51.36 -2.35686 51.37829 C -2.34 51.39 -2.33 51.41 -2.31974 51.42577 C -2.31 51.44 -2.3 51.46 -2.28286 51.47079 C -2.27 51.49 -2.26 51.5 -2.24628 51.5132 C -2.24 51.52 -2.23 51.53 -2.21913 51.54315 C -2.21 51.55 -2.2 51.56 -2.1922 51.57149 C -2.18 51.58 -2.17 51.59 -2.16552 51.59818 C -2.16 51.61 -2.15 51.62 -2.1391 51.62315 C -2.13 51.63 -2.12 51.64 -2.11299 51.64637 C -2.1 51.65 -2.1 51.66 -2.08721 51.66778 C -2.08 51.67 -2.07 51.68 -2.06178 51.68734 C -2.05 51.69 -2.05 51.7 -2.03673 51.70501" />
    <path d="M -3.08696 49.94981 C -3.08 49.97 -3.08 49.98 -3.06991 50.00158 C -3.06 50.02 -3.06 50.04 -3.05235 50.0532 C -3.05 50.07 -3.04 50.09 -3.03431 50.10461 C -3.03 50.12 -3.02 50.14 -3.01577 50.1558 C -3.01 50.17 -3 50.19 -2.99675 50.20671 C -2.99 50.22 -2.98 50.24 -2.97726 50.25732 C -2.97 50.27 -2.96 50.29 -2.95731 50.30758 C -2.95 50.32 -2.94 50.34 -2.93691 50.35747 C -2.93 50.37 -2.92 50.39 -2.91883 50.40047 C -2.91 50.41 -2.91 50.43 -2.90044 50.44314 C -2.89 50.47 -2.88 50.5 -2.86274 50.52739 C -2.85 50.56 -2.84 50.58 -2.8239 50.61004 C -2.81 50.64 -2.8 50.66 -2.78403 50.69096 C -2.78 50.7 -2.77 50.72 -2.76315 50.73184 C -2.76 50.75 -2.75 50.76 -2.74204 50.77222 C -2.73 50.79 -2.73 50.8 -2.72071 50.81208 C -2.71 50.83 -2.71 50.84 -2.69917 50.85141 C -2.69 50.86 -2.68 50.88 -2.67744 50.89021 C -2.67 50.9 -2.66 50.92 -2.65552 50.92846 C -2.65 50.94 -2.64 50.95 -2.63344 50.96616 C -2.63 50.98 -2.62 50.99 -2.61119 51.00331 C -2.6 51.02 -2.59 51.03 -2.58459 51.0467 C -2.58 51.06 -2.57 51.08 -2.55781 51.08929 C -2.55 51.1 -2.54 51.12 -2.53086 51.1311 C -2.52 51.14 -2.51 51.16 -2.50376 51.17213 C -2.49 51.19 -2.49 51.2 -2.47652 51.21237 C -2.47 51.23 -2.46 51.24 -2.44917 51.25184 C -2.44 51.26 -2.43 51.28 -2.42171 51.29054 C -2.41 51.3 -2.4 51.32 -2.39416 51.32849" />
    <path d="M -3.08696 51.76414 L -3.08696 49.94981" />
    <path d="M -3.5004 51.20115 L -3.08696 51.76414" />
    <path d="M -3.5004 45.98454 L -3.5004 51.20115" />
    <path d="M -3.12272 46.49883 L -3.5004 45.98454" />
    <path d="M -3.10261 46.94411 L -3.12272 46.49883" />
    <path d="M -2.40087 47.41212 C -2.42 47.39 -2.43 47.37 -2.45011 47.34657 C -2.47 47.33 -2.48 47.3 -2.49902 47.28458 C -2.52 47.26 -2.53 47.25 -2.54751 47.22645 C -2.56 47.21 -2.58 47.19 -2.59548 47.17246 C -2.6 47.16 -2.61 47.15 -2.62185 47.14439 C -2.63 47.14 -2.64 47.13 -2.648 47.11774 C -2.66 47.11 -2.67 47.1 -2.67391 47.09257 C -2.68 47.08 -2.69 47.08 -2.69956 47.06893 C -2.71 47.06 -2.72 47.05 -2.72596 47.04599 C -2.73 47.04 -2.74 47.03 -2.75201 47.02481 C -2.76 47.02 -2.77 47.01 -2.77771 47.00542 C -2.79 47 -2.79 46.99 -2.80301 46.98788 C -2.81 46.98 -2.82 46.98 -2.8279 46.97222 C -2.84 46.97 -2.84 46.96 -2.85234 46.95847 C -2.86 46.95 -2.87 46.95 -2.87632 46.94666 C -2.88 46.94 -2.89 46.94 -2.89981 46.9368 C -2.91 46.93 -2.92 46.93 -2.92306 46.92883 C -2.93 46.93 -2.94 46.92 -2.94577 46.92287 C -2.95 46.92 -2.96 46.92 -2.96791 46.91894 C -2.98 46.92 -2.98 46.92 -2.98948 46.917 C -3 46.92 -3 46.92 -3.01045 46.91706 C -3.02 46.92 -3.02 46.92 -3.03081 46.91908 C -3.04 46.92 -3.04 46.92 -3.05057 46.92304 C -3.06 46.92 -3.06 46.93 -3.0697 46.92889 C -3.08 46.93 -3.08 46.93 -3.08641 46.93576 C -3.09 46.94 -3.1 46.94 -3.10261 46.94411" />
    <path d="M -2.03673 48.01747 C -2.04 48 -2.05 47.98 -2.0612 47.96841 C -2.07 47.95 -2.08 47.94 -2.08603 47.92014 C -2.09 47.9 -2.1 47.89 -2.11119 47.87268 C -2.12 47.86 -2.13 47.84 -2.13665 47.82607 C -2.15 47.81 -2.15 47.8 -2.16239 47.78032 C -2.17 47.77 -2.18 47.75 -2.18838 47.73545 C -2.2 47.72 -2.21 47.71 -2.21461 47.69149 C -2.22 47.68 -2.23 47.66 -2.24104 47.64843 C -2.25 47.63 -2.27 47.61 -2.28055 47.58633 C -2.29 47.57 -2.31 47.55 -2.32039 47.52625 C -2.33 47.51 -2.35 47.49 -2.36052 47.46818 C -2.37 47.45 -2.39 47.43 -2.40087 47.41212" />
    <path d="M -23.34491 -31.84044 L -23.49196 -32.22209 A 1 0.32642 70.15845 0 0 -24.07545 -33.01662 L -24.2225 -33.03546" />
    <path d="M -24.11516 -33.01997 L -24.2225 -33.03546" />
    <path d="M -24.11516 -33.01997 L -23.90382 -32.31069" />
    <path d="M -45.40969 -34.88824 L -45.74877 -35.34997" />
    <path d="M -45.40969 20.25787 L -45.40969 -34.88824 A 1 0.63411 323.70723 0 0 -45.63021 -34.38171 L -45.63196 -34.3363 L -45.63196 19.86634 L -45.62495 19.9532 A 1 0.63411 323.70723 0 0 -45.54886 20.13742 L -45.89213 19.66999" />
    <path d="M -7.03367 41.85063 C -7.03 41.87 -7.02 41.88 -7.01896 41.89719 C -7.01 41.91 -7.01 41.93 -7.00527 41.94393 C -7 41.96 -7 41.98 -6.99262 41.99078 C -6.99 42.01 -6.98 42.02 -6.98099 42.03765 C -6.98 42.05 -6.97 42.07 -6.97039 42.0845 C -6.97 42.1 -6.96 42.12 -6.9608 42.13127 C -6.96 42.15 -6.95 42.16 -6.95221 42.17788 C -6.95 42.19 -6.95 42.21 -6.9446 42.2243 C -6.94 42.24 -6.94 42.26 -6.93737 42.27468 C -6.94 42.29 -6.93 42.31 -6.93124 42.32472 C -6.93 42.34 -6.93 42.36 -6.92617 42.37439 C -6.92 42.39 -6.92 42.41 -6.92212 42.42365 C -6.92 42.44 -6.92 42.46 -6.91904 42.47246 C -6.92 42.49 -6.92 42.5 -6.91689 42.52083 C -6.92 42.54 -6.92 42.55 -6.91563 42.56871 C -6.92 42.58 -6.92 42.6 -6.91522 42.61612 L -6.91522 45.10254 L -6.50178 45.66552 L -6.50178 43.14079 C -6.5 43.12 -6.5 43.09 -6.50308 43.06901 C -6.5 43.04 -6.5 43.02 -6.50559 42.99579 C -6.51 42.97 -6.51 42.95 -6.50942 42.92108 C -6.51 42.9 -6.51 42.87 -6.51467 42.84481 C -6.52 42.82 -6.52 42.79 -6.52143 42.76696 C -6.52 42.74 -6.53 42.71 -6.52984 42.68751 C -6.53 42.66 -6.54 42.63 -6.54001 42.60644 C -6.54 42.58 -6.55 42.55 -6.55207 42.52376 C -6.56 42.5 -6.56 42.48 -6.56242 42.46072 C -6.57 42.44 -6.57 42.42 -6.57396 42.39684 C -6.58 42.38 -6.58 42.35 -6.58672 42.33217 C -6.59 42.31 -6.6 42.29 -6.60076 42.26677 C -6.6 42.25 -6.61 42.24 -6.60934 42.22923 C -6.61 42.22 -6.62 42.2 -6.61834 42.19149 C -6.62 42.18 -6.62 42.17 -6.62778 42.15359 C -6.63 42.14 -6.63 42.13 -6.63766 42.11554 C -6.64 42.1 -6.64 42.09 -6.64822 42.07646 C -6.65 42.06 -6.66 42.05 -6.65924 42.03728 C -6.66 42.02 -6.67 42.01 -6.67073 41.99802 C -6.67 41.98 -6.68 41.97 -6.68267 41.95872 C -6.69 41.95 -6.69 41.93 -6.69506 41.91942 C -6.7 41.91 -6.7 41.89 -6.70789 41.88014 C -6.71 41.87 -6.72 41.85 -6.72116 41.84092 C -6.73 41.83 -6.73 41.81 -6.73485 41.8018 C -6.74 41.78 -6.75 41.77 -6.75471 41.7473 C -6.76 41.73 -6.77 41.71 -6.77534 41.69314 C -6.79 41.66 -6.8 41.62 -6.81875 41.58623 C -6.85 41.52 -6.88 41.45 -6.91285 41.38012 C -6.95 41.31 -6.99 41.24 -7.02511 41.1673 C -7.12 41 -7.21 40.86 -7.31079 40.72631 C -7.33 40.7 -7.35 40.67 -7.37406 40.64264 C -7.39 40.62 -7.42 40.59 -7.43629 40.56553 C -7.46 40.54 -7.48 40.52 -7.4973 40.49549 C -7.51 40.48 -7.52 40.47 -7.52729 40.46326 C -7.54 40.45 -7.55 40.44 -7.5569 40.43297 C -7.57 40.42 -7.58 40.41 -7.58476 40.40595 C -7.59 40.4 -7.6 40.39 -7.61225 40.38079 C -7.62 40.37 -7.63 40.36 -7.63932 40.35753 C -7.65 40.35 -7.66 40.34 -7.66596 40.33623 C -7.67 40.33 -7.68 40.32 -7.69215 40.3169 C -7.7 40.31 -7.71 40.31 -7.71787 40.2996 C -7.73 40.29 -7.73 40.29 -7.7431 40.28433 C -7.75 40.28 -7.76 40.28 -7.76781 40.27114 C -7.78 40.27 -7.79 40.26 -7.80065 40.25607 C -7.81 40.25 -7.82 40.25 -7.83257 40.24397 C -7.84 40.24 -7.85 40.24 -7.86354 40.2349 C -7.87 40.23 -7.88 40.23 -7.89351 40.22891 C -7.9 40.23 -7.91 40.23 -7.92246 40.22603 C -7.93 40.23 -7.94 40.23 -7.95035 40.22629 C -7.96 40.23 -7.97 40.23 -7.97716 40.2297 C -7.99 40.23 -7.99 40.23 -8.00286 40.23629 C -8 40.24 -8.01 40.24 -8.00918 40.23845 C -8.02 40.24 -8.02 40.24 -8.02841 40.2465 C -8.03 40.25 -8.04 40.25 -8.04693 40.25651 C -8.05 40.26 -8.06 40.26 -8.06473 40.26847 C -8.07 40.27 -8.08 40.28 -8.0818 40.28236 C -8.09 40.27 -8.09 40.25 -8.09272 40.23279 C -8.1 40.22 -8.1 40.2 -8.10432 40.18298 C -8.11 40.17 -8.11 40.15 -8.11659 40.13296 C -8.12 40.12 -8.13 40.1 -8.12956 40.08276 C -8.13 40.07 -8.14 40.05 -8.14288 40.03369 C -8.15 40.02 -8.15 40 -8.15687 39.98454 C -8.16 39.97 -8.17 39.95 -8.17152 39.93537 C -8.18 39.92 -8.18 39.9 -8.18683 39.88622 C -8.19 39.87 -8.2 39.85 -8.20281 39.83714 C -8.21 39.82 -8.21 39.8 -8.21942 39.7882 C -8.23 39.77 -8.23 39.76 -8.23668 39.73945 C -8.24 39.72 -8.25 39.71 -8.25454 39.69095 C -8.26 39.67 -8.27 39.66 -8.27478 39.63823 C -8.28 39.62 -8.29 39.6 -8.29569 39.58595 C -8.3 39.57 -8.31 39.55 -8.31726 39.53417 C -8.32 39.52 -8.33 39.5 -8.33945 39.48296 C -8.35 39.47 -8.35 39.45 -8.36222 39.43238 C -8.37 39.42 -8.38 39.4 -8.38552 39.38247 C -8.39 39.37 -8.4 39.35 -8.40933 39.33329 C -8.42 39.32 -8.43 39.3 -8.4336 39.28487 C -8.44 39.27 -8.45 39.25 -8.45936 39.23524 C -8.47 39.22 -8.48 39.2 -8.48553 39.1865 C -8.49 39.17 -8.5 39.15 -8.51208 39.13867 C -8.52 39.12 -8.53 39.11 -8.53896 39.09178 C -8.55 39.08 -8.56 39.06 -8.56736 39.0438 C -8.58 39.03 -8.59 39.01 -8.59605 38.99685 C -8.61 38.98 -8.62 38.97 -8.62498 38.95091 C -8.63 38.94 -8.64 38.92 -8.65413 38.90599 C -8.67 38.88 -8.69 38.85 -8.71298 38.81912 C -8.73 38.79 -8.75 38.76 -8.77236 38.73609 C -8.79 38.71 -8.8 38.69 -8.82008 38.67251 C -8.84 38.65 -8.85 38.63 -8.86751 38.61219 C -8.88 38.59 -8.9 38.57 -8.91458 38.55538 C -8.93 38.54 -8.95 38.52 -8.9612 38.50234 C -8.97 38.49 -8.99 38.47 -9.00203 38.4587 C -9.02 38.44 -9.03 38.43 -9.04238 38.41837 C -9.06 38.41 -9.07 38.39 -9.08214 38.38154 C -9.1 38.37 -9.11 38.36 -9.12125 38.34834 C -9.13 38.34 -9.15 38.33 -9.15962 38.31892 C -9.17 38.31 -9.17 38.31 -9.1785 38.30567 C -9.18 38.3 -9.19 38.3 -9.19718 38.2934 C -9.2 38.29 -9.21 38.29 -9.21563 38.28213 C -9.22 38.28 -9.23 38.28 -9.23385 38.27187 C -9.24 38.27 -9.25 38.27 -9.25183 38.26263 C -9.26 38.26 -9.26 38.26 -9.26956 38.25441 C -9.28 38.25 -9.29 38.25 -9.29715 38.24348 C -9.31 38.24 -9.32 38.24 -9.32407 38.23515 C -9.33 38.23 -9.34 38.23 -9.35028 38.2294 C -9.36 38.23 -9.37 38.23 -9.37577 38.22623 C -9.38 38.23 -9.39 38.23 -9.4005 38.22561 C -9.41 38.23 -9.42 38.23 -9.42448 38.22749 C -9.43 38.23 -9.44 38.23 -9.44768 38.23184 C -9.46 38.23 -9.46 38.24 -9.4701 38.23861 C -9.48 38.24 -9.48 38.24 -9.48974 38.24677 L -9.50092 37.81367 L -9.89201 37.28112 L -9.89201 41.04906 L -9.47857 41.61204 L -9.47857 38.86096 C -9.47 38.85 -9.47 38.85 -9.46731 38.83764 C -9.46 38.83 -9.46 38.82 -9.45518 38.8164 C -9.45 38.81 -9.45 38.8 -9.44216 38.79736 C -9.44 38.79 -9.43 38.79 -9.42824 38.78062 C -9.42 38.78 -9.42 38.77 -9.41515 38.76782 C -9.41 38.76 -9.41 38.76 -9.40134 38.75698 C -9.4 38.75 -9.39 38.75 -9.38679 38.74818 C -9.38 38.75 -9.38 38.74 -9.37151 38.74147 C -9.37 38.74 -9.36 38.74 -9.35436 38.73667 C -9.35 38.74 -9.34 38.73 -9.33639 38.73437 C -9.33 38.73 -9.32 38.73 -9.31763 38.73461 C -9.31 38.74 -9.3 38.74 -9.2981 38.73742 C -9.29 38.74 -9.29 38.74 -9.28188 38.74152 C -9.28 38.74 -9.27 38.75 -9.26521 38.74727 C -9.26 38.75 -9.25 38.75 -9.24809 38.75465 C -9.24 38.76 -9.24 38.76 -9.23056 38.76363 C -9.22 38.77 -9.22 38.77 -9.21264 38.7742 C -9.21 38.78 -9.2 38.78 -9.19435 38.78631 C -9.19 38.79 -9.18 38.8 -9.1757 38.79994 C -9.17 38.8 -9.16 38.81 -9.15674 38.81504 C -9.15 38.82 -9.14 38.83 -9.13763 38.83142 C -9.13 38.84 -9.12 38.84 -9.11825 38.84916 C -9.11 38.86 -9.11 38.86 -9.09862 38.8682 C -9.09 38.87 -9.09 38.88 -9.07877 38.8885 C -9.07 38.9 -9.05 38.92 -9.0404 38.93044 C -9.03 38.95 -9.01 38.96 -9.00142 38.97639 C -8.99 38.98 -8.99 38.99 -8.98174 39.00076 C -8.98 39.01 -8.97 39.02 -8.96196 39.026 C -8.96 39.03 -8.95 39.04 -8.94207 39.05207 C -8.94 39.06 -8.93 39.07 -8.9221 39.07893 C -8.91 39.09 -8.91 39.1 -8.89785 39.11241 C -8.89 39.12 -8.88 39.14 -8.87372 39.14669 C -8.87 39.16 -8.86 39.17 -8.84973 39.18182 C -8.84 39.19 -8.83 39.21 -8.82591 39.2178 C -8.82 39.23 -8.81 39.24 -8.80228 39.25466 C -8.79 39.27 -8.79 39.28 -8.77888 39.29242 C -8.77 39.31 -8.76 39.32 -8.75576 39.3311 C -8.75 39.34 -8.74 39.36 -8.73295 39.37069 C -8.73 39.38 -8.72 39.39 -8.71375 39.40526 C -8.71 39.42 -8.7 39.43 -8.69484 39.4405 C -8.69 39.45 -8.68 39.46 -8.67628 39.47638 C -8.67 39.49 -8.66 39.5 -8.65809 39.51289 C -8.65 39.52 -8.65 39.54 -8.64185 39.54676 C -8.64 39.56 -8.63 39.57 -8.62598 39.58111 C -8.62 39.59 -8.62 39.6 -8.61054 39.61589 C -8.61 39.63 -8.6 39.64 -8.59554 39.65108 C -8.59 39.66 -8.59 39.67 -8.58102 39.68662 C -8.58 39.7 -8.57 39.71 -8.56702 39.72246 C -8.56 39.73 -8.56 39.75 -8.55355 39.75856 C -8.55 39.77 -8.54 39.78 -8.54065 39.79486 C -8.54 39.8 -8.53 39.81 -8.53202 39.82021 C -8.53 39.83 -8.53 39.84 -8.52368 39.84561 C -8.52 39.86 -8.51 39.88 -8.50789 39.89647 C -8.5 39.91 -8.5 39.93 -8.49333 39.94727 C -8.49 39.96 -8.48 39.98 -8.48001 39.99786 C -8.48 40.01 -8.47 40.03 -8.46848 40.04567 C -8.46 40.06 -8.46 40.08 -8.45806 40.09307 C -8.45 40.12 -8.45 40.15 -8.44258 40.17377 C -8.44 40.2 -8.43 40.23 -8.43016 40.25266 C -8.41 40.38 -8.41 40.49 -8.40585 40.60374 L -8.40585 43.07276 L -7.99017 43.63878 L -7.99017 41.13843 C -7.99 41.12 -7.99 41.1 -7.9847 41.08177 C -7.98 41.07 -7.98 41.06 -7.98115 41.0551 C -7.98 41.05 -7.98 41.04 -7.97704 41.02961 C -7.98 41.02 -7.97 41.01 -7.97235 41.00531 C -7.97 41 -7.97 40.99 -7.96709 40.98225 C -7.97 40.97 -7.96 40.97 -7.96125 40.96047 C -7.96 40.95 -7.96 40.95 -7.95481 40.93998 C -7.95 40.93 -7.95 40.93 -7.94777 40.92083 C -7.95 40.91 -7.94 40.91 -7.94014 40.90304 C -7.94 40.9 -7.93 40.89 -7.9319 40.88665 C -7.93 40.88 -7.93 40.88 -7.92305 40.87166 C -7.92 40.87 -7.92 40.86 -7.9136 40.85811 C -7.91 40.85 -7.91 40.85 -7.90355 40.846 C -7.9 40.84 -7.9 40.84 -7.89289 40.83537 C -7.89 40.83 -7.89 40.83 -7.88165 40.82621 C -7.88 40.82 -7.87 40.82 -7.86671 40.81682 C -7.86 40.81 -7.86 40.81 -7.85086 40.80977 C -7.84 40.81 -7.84 40.81 -7.83275 40.80478 C -7.83 40.8 -7.82 40.8 -7.81362 40.8025 C -7.81 40.8 -7.8 40.8 -7.79207 40.80305 C -7.78 40.8 -7.78 40.8 -7.76966 40.80674 C -7.76 40.81 -7.75 40.81 -7.74642 40.81358 C -7.74 40.82 -7.73 40.82 -7.72239 40.82359 C -7.72 40.83 -7.71 40.83 -7.70622 40.83187 C -7.7 40.83 -7.7 40.84 -7.68972 40.84151 C -7.68 40.84 -7.68 40.85 -7.67292 40.85248 C -7.67 40.86 -7.66 40.86 -7.65581 40.86479 C -7.65 40.87 -7.64 40.87 -7.63842 40.87841 C -7.63 40.88 -7.63 40.89 -7.62075 40.89334 C -7.61 40.9 -7.61 40.9 -7.60281 40.90954 C -7.6 40.92 -7.59 40.92 -7.58462 40.927 C -7.58 40.93 -7.57 40.94 -7.56619 40.9457 C -7.56 40.95 -7.55 40.96 -7.54753 40.9656 C -7.54 40.97 -7.53 40.98 -7.52865 40.98668 C -7.52 40.99 -7.52 41 -7.50957 41.00891 C -7.5 41.02 -7.48 41.04 -7.47085 41.0567 C -7.46 41.07 -7.44 41.09 -7.43147 41.10872 C -7.42 41.12 -7.41 41.13 -7.40422 41.14631 C -7.4 41.16 -7.39 41.17 -7.37732 41.18445 C -7.37 41.2 -7.36 41.21 -7.35079 41.22314 C -7.34 41.24 -7.33 41.25 -7.32467 41.26239 C -7.32 41.28 -7.31 41.29 -7.29901 41.3022 C -7.29 41.32 -7.28 41.33 -7.27384 41.34257 C -7.27 41.36 -7.26 41.37 -7.24922 41.38348 C -7.24 41.4 -7.23 41.41 -7.22519 41.42492 C -7.22 41.44 -7.21 41.46 -7.19674 41.47623 C -7.19 41.49 -7.18 41.51 -7.16935 41.52827 C -7.16 41.55 -7.15 41.56 -7.14314 41.58095 C -7.13 41.6 -7.13 41.62 -7.11823 41.63421 C -7.11 41.65 -7.1 41.67 -7.09472 41.68793 C -7.09 41.71 -7.08 41.72 -7.07273 41.742 C -7.07 41.76 -7.06 41.78 -7.05235 41.79628 C -7.05 41.81 -7.05 41.81 -7.04279 41.82346 C -7.04 41.83 -7.04 41.84 -7.03367 41.85063 Z" />
    <path d="M -16.85574 31.01985 L -18.39777 28.92008 L -18.39777 24.39646 L -18.82909 23.80913 L -18.82909 28.87948 L -16.85574 31.56659 L -16.85574 31.01985 Z" />
    <path d="M -4.22002 48.77258 L -4.22002 43.70223 L -4.64911 43.11794 L -4.64911 48.1883 L -4.22002 48.77258 Z" />
    <path d="M -16.54063 30.07688 L -16.54063 30.12215 C -16.54 30.14 -16.54 30.17 -16.54016 30.19107 C -16.54 30.21 -16.54 30.24 -16.53873 30.26111 C -16.54 30.28 -16.54 30.31 -16.53629 30.3323 C -16.54 30.36 -16.53 30.38 -16.53282 30.40462 C -16.53 30.43 -16.53 30.45 -16.52828 30.47811 C -16.53 30.5 -16.52 30.53 -16.52262 30.55274 C -16.52 30.58 -16.52 30.6 -16.51581 30.62851 C -16.51 30.65 -16.51 30.68 -16.50781 30.70543 C -16.51 30.73 -16.5 30.75 -16.50076 30.76583 C -16.5 30.79 -16.5 30.81 -16.49297 30.82689 C -16.49 30.85 -16.49 30.87 -16.48441 30.88859 C -16.48 30.91 -16.48 30.93 -16.47507 30.95093 C -16.47 30.97 -16.47 30.99 -16.46494 31.01388 C -16.46 31.03 -16.46 31.06 -16.45401 31.07742 C -16.45 31.1 -16.45 31.12 -16.44227 31.14153 C -16.44 31.16 -16.43 31.18 -16.42971 31.20617 C -16.43 31.23 -16.42 31.25 -16.41689 31.26859 C -16.41 31.29 -16.41 31.31 -16.40332 31.33145 C -16.4 31.35 -16.39 31.37 -16.38899 31.39471 C -16.38 31.42 -16.38 31.44 -16.37389 31.45833 C -16.37 31.48 -16.36 31.5 -16.35804 31.52228 C -16.35 31.54 -16.35 31.57 -16.34144 31.58652 C -16.34 31.61 -16.33 31.63 -16.32409 31.65102 C -16.32 31.67 -16.31 31.69 -16.306 31.71572 C -16.3 31.75 -16.28 31.79 -16.2719 31.83166 C -16.26 31.87 -16.25 31.91 -16.23557 31.94791 C -16.23 31.98 -16.22 32.01 -16.20579 32.0385 C -16.2 32.07 -16.19 32.1 -16.17482 32.1287 C -16.16 32.16 -16.15 32.19 -16.1427 32.21835 C -16.13 32.25 -16.12 32.28 -16.10942 32.30732 C -16.1 32.34 -16.09 32.37 -16.07502 32.39547 C -16.06 32.42 -16.05 32.45 -16.03954 32.48264 C -16.03 32.51 -16.02 32.54 -16.003 32.5687 C -15.99 32.6 -15.98 32.63 -15.96546 32.6535 C -15.95 32.68 -15.94 32.71 -15.92659 32.73775 C -15.91 32.77 -15.9 32.79 -15.88681 32.82043 C -15.87 32.85 -15.86 32.87 -15.84622 32.90143 C -15.83 32.93 -15.82 32.95 -15.80488 32.98063 C -15.79 33.01 -15.78 33.03 -15.76286 33.05795 C -15.75 33.08 -15.73 33.11 -15.72024 33.13331 C -15.71 33.16 -15.69 33.18 -15.6771 33.20665 C -15.66 33.23 -15.65 33.25 -15.6335 33.27794 C -15.63 33.29 -15.62 33.3 -15.60947 33.31608 C -15.6 33.33 -15.59 33.34 -15.58533 33.3536 C -15.57 33.38 -15.55 33.4 -15.53678 33.42676 C -15.52 33.45 -15.5 33.47 -15.48793 33.49741 C -15.47 33.52 -15.46 33.54 -15.43886 33.5656 C -15.42 33.59 -15.4 33.62 -15.37571 33.64925 C -15.37 33.66 -15.35 33.68 -15.34434 33.689 C -15.33 33.7 -15.32 33.71 -15.31315 33.72731 C -15.3 33.74 -15.29 33.75 -15.28213 33.76412 C -15.27 33.78 -15.26 33.79 -15.25131 33.79939 C -15.24 33.81 -15.23 33.82 -15.22072 33.83308 C -15.21 33.84 -15.2 33.85 -15.19036 33.86515 C -15.18 33.88 -15.17 33.89 -15.16026 33.89556 C -15.15 33.91 -15.14 33.91 -15.13043 33.92427 C -15.12 33.93 -15.11 33.94 -15.1009 33.95125 C -15.09 33.96 -15.08 33.97 -15.07169 33.97647 C -15.06 33.98 -15.05 33.99 -15.0428 33.99989 C -15.03 34.01 -15.02 34.01 -15.01427 34.0215 C -15 34.03 -15 34.03 -14.98611 34.04128 C -14.98 34.05 -14.97 34.05 -14.95833 34.0592 C -14.95 34.06 -14.94 34.07 -14.93351 34.07383 C -14.93 34.08 -14.92 34.08 -14.90903 34.08692 C -14.9 34.09 -14.89 34.09 -14.88491 34.09847 C -14.88 34.1 -14.87 34.11 -14.86115 34.10848 C -14.85 34.11 -14.85 34.11 -14.84013 34.11618 C -14.83 34.12 -14.83 34.12 -14.81947 34.12264 C -14.81 34.12 -14.81 34.13 -14.79918 34.12785 C -14.79 34.13 -14.79 34.13 -14.77927 34.13181 C -14.77 34.13 -14.77 34.13 -14.75975 34.13449 C -14.75 34.14 -14.75 34.14 -14.74063 34.1359 C -14.73 34.14 -14.73 34.14 -14.72192 34.13604 C -14.72 34.14 -14.71 34.14 -14.70362 34.13489 C -14.69 34.13 -14.68 34.13 -14.67428 34.13018 C -14.66 34.13 -14.66 34.13 -14.64612 34.12198 C -14.64 34.12 -14.63 34.12 -14.62086 34.11116 C -14.61 34.11 -14.6 34.1 -14.59668 34.09733 C -14.59 34.09 -14.58 34.09 -14.57359 34.08054 C -14.57 34.07 -14.56 34.07 -14.55159 34.06083 C -14.54 34.05 -14.54 34.05 -14.53069 34.03826 C -14.52 34.03 -14.52 34.02 -14.51088 34.01291 C -14.5 34 -14.5 33.99 -14.49217 33.98485 C -14.49 33.98 -14.48 33.96 -14.47453 33.95414 C -14.47 33.94 -14.46 33.93 -14.45794 33.92091 C -14.45 33.91 -14.45 33.9 -14.44246 33.88534 C -14.44 33.87 -14.43 33.86 -14.42809 33.84748 C -14.42 33.83 -14.42 33.82 -14.41484 33.80736 C -14.41 33.79 -14.41 33.78 -14.40269 33.76503 C -14.4 33.75 -14.4 33.74 -14.39165 33.72054 C -14.39 33.71 -14.38 33.69 -14.38171 33.67394 C -14.38 33.66 -14.38 33.64 -14.37285 33.62529 C -14.37 33.61 -14.37 33.59 -14.36481 33.57277 C -14.36 33.55 -14.36 33.54 -14.35791 33.51818 C -14.36 33.5 -14.35 33.48 -14.35213 33.46159 C -14.35 33.44 -14.35 33.42 -14.34746 33.40305 C -14.34 33.36 -14.34 33.32 -14.34132 33.28047 C -14.34 33.24 -14.34 33.2 -14.33932 33.151 L -14.33932 33.10573 C -14.34 33.08 -14.34 33.06 -14.33981 33.03491 C -14.34 33.01 -14.34 32.99 -14.3413 32.96292 C -14.34 32.94 -14.34 32.91 -14.34383 32.88975 C -14.34 32.87 -14.35 32.84 -14.34744 32.81538 C -14.35 32.79 -14.35 32.77 -14.35218 32.73982 C -14.35 32.71 -14.36 32.69 -14.35809 32.66305 C -14.36 32.64 -14.36 32.61 -14.3652 32.58509 C -14.37 32.56 -14.37 32.53 -14.37356 32.50595 C -14.38 32.49 -14.38 32.47 -14.38082 32.4446 C -14.38 32.42 -14.39 32.4 -14.38885 32.38258 C -14.39 32.36 -14.39 32.34 -14.39766 32.31991 C -14.4 32.3 -14.4 32.28 -14.40728 32.25659 C -14.41 32.24 -14.41 32.21 -14.4177 32.19265 C -14.42 32.17 -14.43 32.15 -14.42895 32.12812 C -14.43 32.11 -14.44 32.08 -14.44103 32.06302 C -14.45 32.04 -14.45 32.02 -14.45395 31.99737 C -14.46 31.98 -14.46 31.96 -14.46711 31.93406 C -14.47 31.91 -14.48 31.89 -14.48105 31.87032 C -14.49 31.85 -14.49 31.83 -14.49577 31.80618 C -14.5 31.78 -14.51 31.76 -14.51127 31.74168 C -14.52 31.72 -14.52 31.7 -14.52754 31.67685 C -14.53 31.66 -14.54 31.63 -14.54459 31.61174 C -14.55 31.59 -14.56 31.57 -14.56239 31.54639 C -14.57 31.52 -14.57 31.5 -14.58095 31.48084 C -14.59 31.45 -14.6 31.41 -14.61177 31.37703 C -14.62 31.34 -14.63 31.31 -14.64437 31.27301 C -14.65 31.24 -14.66 31.21 -14.67373 31.1837 C -14.68 31.15 -14.69 31.12 -14.70423 31.09479 C -14.71 31.07 -14.73 31.04 -14.73587 31.00639 C -14.75 30.98 -14.76 30.95 -14.76863 30.91865 C -14.78 30.89 -14.79 30.86 -14.80249 30.83171 C -14.81 30.8 -14.83 30.77 -14.83741 30.74569 C -14.85 30.72 -14.86 30.69 -14.87336 30.66075 C -14.89 30.63 -14.9 30.6 -14.91028 30.57702 C -14.92 30.55 -14.94 30.52 -14.94945 30.49182 C -14.96 30.46 -14.98 30.44 -14.98954 30.40819 C -15 30.38 -15.02 30.35 -15.03047 30.32626 C -15.04 30.3 -15.06 30.27 -15.07217 30.24615 C -15.09 30.22 -15.1 30.19 -15.11456 30.16794 C -15.13 30.14 -15.14 30.12 -15.15757 30.09172 C -15.17 30.07 -15.19 30.04 -15.20112 30.01753 C -15.22 29.99 -15.23 29.97 -15.24513 29.94543 C -15.25 29.93 -15.26 29.92 -15.26959 29.90654 C -15.28 29.89 -15.29 29.88 -15.29417 29.86829 C -15.31 29.84 -15.33 29.82 -15.3436 29.79372 C -15.36 29.77 -15.38 29.75 -15.39334 29.72172 C -15.41 29.7 -15.43 29.68 -15.44333 29.65227 C -15.46 29.63 -15.48 29.6 -15.50314 29.57297 C -15.52 29.55 -15.54 29.52 -15.56243 29.49879 C -15.57 29.49 -15.58 29.48 -15.59184 29.46372 C -15.6 29.45 -15.61 29.44 -15.62108 29.43005 C -15.63 29.42 -15.64 29.41 -15.65011 29.39781 C -15.66 29.39 -15.67 29.38 -15.67894 29.36704 C -15.69 29.36 -15.7 29.35 -15.70754 29.33778 C -15.72 29.33 -15.73 29.32 -15.73591 29.31004 C -15.75 29.3 -15.75 29.29 -15.76401 29.28387 C -15.77 29.28 -15.78 29.27 -15.79184 29.25928 C -15.8 29.25 -15.81 29.24 -15.81938 29.2363 C -15.83 29.23 -15.84 29.22 -15.84661 29.21496 C -15.86 29.21 -15.86 29.2 -15.87352 29.19526 C -15.88 29.19 -15.89 29.18 -15.9001 29.17723 C -15.91 29.17 -15.92 29.17 -15.92877 29.15942 C -15.94 29.15 -15.95 29.15 -15.957 29.14362 C -15.97 29.14 -15.98 29.13 -15.98478 29.12984 C -15.99 29.13 -16 29.12 -16.01209 29.11807 C -16.02 29.11 -16.03 29.11 -16.0432 29.10694 C -16.05 29.1 -16.06 29.1 -16.07351 29.09861 C -16.08 29.1 -16.09 29.09 -16.10299 29.0931 C -16.11 29.09 -16.12 29.09 -16.13161 29.09042 C -16.14 29.09 -16.15 29.09 -16.15672 29.09045 C -16.16 29.09 -16.17 29.09 -16.18108 29.0928 C -16.19 29.09 -16.2 29.1 -16.20469 29.09746 C -16.21 29.1 -16.22 29.1 -16.22753 29.10442 C -16.24 29.11 -16.24 29.11 -16.25288 29.11526 C -16.26 29.12 -16.27 29.12 -16.27718 29.12907 C -16.29 29.13 -16.29 29.14 -16.30043 29.14582 C -16.31 29.15 -16.32 29.16 -16.32263 29.16543 C -16.33 29.17 -16.34 29.18 -16.34378 29.18784 C -16.35 29.2 -16.36 29.2 -16.36387 29.21298 C -16.37 29.22 -16.38 29.23 -16.38293 29.24076 C -16.39 29.25 -16.4 29.26 -16.40095 29.27111 C -16.41 29.28 -16.41 29.29 -16.41806 29.3042 C -16.42 29.32 -16.43 29.33 -16.43403 29.33966 C -16.44 29.35 -16.44 29.36 -16.44887 29.37747 C -16.45 29.39 -16.46 29.4 -16.46256 29.41758 C -16.47 29.43 -16.47 29.45 -16.47512 29.45996 C -16.48 29.47 -16.48 29.49 -16.48654 29.50456 C -16.49 29.52 -16.49 29.54 -16.49682 29.55133 C -16.5 29.57 -16.5 29.58 -16.50599 29.6002 C -16.51 29.62 -16.51 29.63 -16.51428 29.65285 C -16.52 29.67 -16.52 29.69 -16.52141 29.70762 C -16.52 29.73 -16.53 29.75 -16.52738 29.76444 C -16.53 29.78 -16.53 29.8 -16.53221 29.82325 C -16.53 29.84 -16.53 29.86 -16.53593 29.88397 C -16.54 29.9 -16.54 29.93 -16.53856 29.94653 C -16.54 29.99 -16.54 30.03 -16.54063 30.07688 Z" />
    <path d="M -12.65203 34.1009 L -12.65203 33.50193 C -12.66 33.49 -12.66 33.48 -12.66913 33.46687 C -12.68 33.46 -12.68 33.44 -12.68803 33.43106 C -12.69 33.42 -12.7 33.41 -12.70865 33.39456 C -12.72 33.38 -12.72 33.37 -12.73094 33.35743 C -12.74 33.34 -12.75 33.33 -12.75482 33.31971 C -12.76 33.31 -12.77 33.29 -12.78022 33.28148 C -12.79 33.27 -12.8 33.26 -12.80706 33.24277 C -12.82 33.23 -12.83 33.22 -12.83528 33.20363 C -12.84 33.19 -12.85 33.18 -12.864 33.16529 C -12.87 33.15 -12.88 33.14 -12.89254 33.12874 C -12.9 33.12 -12.91 33.11 -12.92088 33.09409 C -12.93 33.08 -12.94 33.07 -12.94898 33.06142 C -12.96 33.05 -12.97 33.04 -12.9755 33.03222 C -12.98 33.02 -12.99 33.01 -13.00173 33.00501 C -13.01 33 -13.02 32.99 -13.02764 32.97986 C -13.04 32.97 -13.04 32.96 -13.05318 32.95684 C -13.06 32.95 -13.07 32.94 -13.07831 32.93602 C -13.09 32.93 -13.09 32.92 -13.10301 32.91746 C -13.11 32.91 -13.12 32.91 -13.12723 32.90119 C -13.14 32.9 -13.14 32.89 -13.15093 32.88727 C -13.16 32.88 -13.17 32.88 -13.17529 32.87516 C -13.18 32.87 -13.19 32.87 -13.19901 32.86567 C -13.21 32.86 -13.21 32.86 -13.22207 32.85881 C -13.23 32.86 -13.24 32.86 -13.24443 32.85455 C -13.25 32.85 -13.26 32.85 -13.26608 32.85286 C -13.27 32.85 -13.28 32.85 -13.287 32.8537 C -13.29 32.85 -13.3 32.86 -13.30718 32.857 C -13.31 32.86 -13.32 32.86 -13.32662 32.8627 C -13.33 32.86 -13.33 32.86 -13.33362 32.8654 C -13.34 32.87 -13.35 32.87 -13.35462 32.87573 C -13.36 32.88 -13.37 32.88 -13.37465 32.88893 C -13.38 32.89 -13.39 32.9 -13.39373 32.90488 C -13.4 32.91 -13.41 32.92 -13.41187 32.92345 L -13.41857 32.47902 L -13.82084 31.93125 L -13.82084 35.69919 L -13.4074 36.26218 L -13.4074 33.5877 C -13.4 33.58 -13.4 33.57 -13.39653 33.5641 C -13.39 33.56 -13.39 33.55 -13.3848 33.54256 C -13.38 33.54 -13.38 33.53 -13.37219 33.52319 C -13.37 33.52 -13.36 33.51 -13.35867 33.5061 C -13.35 33.5 -13.35 33.5 -13.34524 33.49233 C -13.34 33.49 -13.34 33.48 -13.331 33.48072 C -13.33 33.48 -13.32 33.47 -13.31594 33.47136 C -13.31 33.47 -13.31 33.47 -13.30008 33.46431 C -13.29 33.46 -13.29 33.46 -13.28403 33.45976 C -13.28 33.46 -13.27 33.46 -13.26724 33.45746 C -13.26 33.46 -13.26 33.46 -13.24974 33.45744 C -13.24 33.46 -13.24 33.46 -13.23154 33.45971 C -13.23 33.46 -13.22 33.46 -13.21552 33.46344 C -13.21 33.46 -13.2 33.47 -13.19903 33.46884 C -13.19 33.47 -13.19 33.47 -13.18209 33.47587 C -13.18 33.48 -13.17 33.48 -13.16473 33.48453 C -13.16 33.49 -13.15 33.49 -13.14697 33.49478 C -13.14 33.5 -13.13 33.5 -13.12883 33.50659 C -13.12 33.51 -13.12 33.52 -13.11033 33.51992 C -13.1 33.52 -13.1 33.53 -13.09151 33.53473 C -13.09 33.54 -13.08 33.55 -13.07235 33.55101 C -13.07 33.56 -13.06 33.56 -13.05291 33.56867 C -13.05 33.57 -13.04 33.58 -13.03322 33.58767 C -13.03 33.59 -13.02 33.6 -13.01329 33.60795 C -13 33.62 -12.99 33.64 -12.97465 33.65005 C -12.96 33.66 -12.95 33.68 -12.93537 33.69627 C -12.93 33.7 -12.92 33.71 -12.91553 33.7208 C -12.91 33.73 -12.9 33.74 -12.89558 33.74623 C -12.89 33.75 -12.88 33.76 -12.87553 33.77251 C -12.87 33.78 -12.86 33.79 -12.85539 33.79959 C -12.84 33.82 -12.82 33.85 -12.80209 33.87367 C -12.78 33.9 -12.77 33.92 -12.75039 33.9486 C -12.73 33.97 -12.72 34 -12.70035 34.02434 C -12.68 34.05 -12.67 34.08 -12.65203 34.1009 Z" />
    <path d="M -12.1112 37.59365 C -12.1 37.62 -12.09 37.65 -12.08468 37.67157 C -12.08 37.7 -12.07 37.72 -12.0573 37.74914 C -12.05 37.77 -12.04 37.8 -12.02908 37.82626 C -12.02 37.85 -12.01 37.88 -12.00002 37.90285 C -11.99 37.93 -11.98 37.95 -11.97014 37.97882 C -11.96 38 -11.95 38.03 -11.93946 38.05408 C -11.93 38.08 -11.92 38.1 -11.90802 38.12854 C -11.9 38.15 -11.89 38.18 -11.87584 38.20211 C -11.87 38.22 -11.86 38.23 -11.85542 38.2475 C -11.85 38.26 -11.84 38.28 -11.83473 38.2925 C -11.83 38.31 -11.82 38.32 -11.81378 38.33709 C -11.81 38.35 -11.8 38.37 -11.79259 38.38124 C -11.78 38.41 -11.76 38.44 -11.74953 38.46817 C -11.74 38.5 -11.72 38.53 -11.70561 38.55318 C -11.69 38.58 -11.68 38.61 -11.66092 38.63616 C -11.65 38.66 -11.63 38.69 -11.61555 38.71703 C -11.6 38.74 -11.58 38.77 -11.56958 38.79572 C -11.55 38.82 -11.54 38.85 -11.5231 38.87219 C -11.51 38.89 -11.51 38.9 -11.49695 38.91391 C -11.49 38.93 -11.48 38.94 -11.47068 38.95492 C -11.46 38.97 -11.45 38.98 -11.4443 38.99523 C -11.44 39.01 -11.43 39.02 -11.41782 39.03484 C -11.4 39.06 -11.38 39.09 -11.36461 39.11196 C -11.35 39.14 -11.33 39.16 -11.31113 39.1863 C -11.3 39.2 -11.29 39.21 -11.27973 39.22856 C -11.27 39.24 -11.26 39.26 -11.2484 39.26972 C -11.24 39.28 -11.23 39.3 -11.21715 39.30974 C -11.21 39.32 -11.2 39.34 -11.186 39.34856 C -11.18 39.36 -11.17 39.37 -11.15496 39.38611 C -11.14 39.4 -11.13 39.41 -11.12405 39.42235 C -11.11 39.43 -11.1 39.45 -11.09329 39.4572 C -11.08 39.47 -11.07 39.48 -11.06271 39.49062 C -11.05 39.5 -11.04 39.51 -11.03035 39.52456 C -11.02 39.54 -11.01 39.55 -10.99825 39.55672 C -10.99 39.57 -10.98 39.58 -10.96643 39.58703 C -10.96 39.6 -10.95 39.61 -10.93493 39.61542 C -10.92 39.62 -10.91 39.63 -10.90334 39.64218 C -10.89 39.65 -10.88 39.66 -10.87214 39.66683 C -10.86 39.67 -10.85 39.68 -10.84138 39.68929 C -10.83 39.7 -10.82 39.7 -10.81109 39.70951 C -10.8 39.72 -10.79 39.72 -10.78131 39.72745 C -10.77 39.73 -10.76 39.74 -10.75207 39.74305 C -10.74 39.75 -10.73 39.75 -10.72341 39.75628 C -10.71 39.76 -10.7 39.76 -10.69536 39.76712 C -10.69 39.77 -10.68 39.77 -10.66959 39.77512 C -10.66 39.78 -10.65 39.78 -10.64441 39.78098 C -10.64 39.78 -10.63 39.78 -10.61984 39.78472 C -10.61 39.79 -10.6 39.79 -10.59589 39.78635 C -10.59 39.79 -10.58 39.79 -10.57259 39.78587 C -10.56 39.79 -10.56 39.78 -10.54994 39.78333 C -10.54 39.78 -10.54 39.78 -10.52796 39.77875 C -10.52 39.78 -10.51 39.77 -10.50665 39.77217 C -10.5 39.77 -10.49 39.77 -10.48554 39.76341 C -10.48 39.76 -10.47 39.76 -10.46265 39.75117 C -10.46 39.75 -10.45 39.74 -10.44065 39.73648 C -10.43 39.73 -10.43 39.73 -10.41955 39.71942 C -10.41 39.71 -10.41 39.71 -10.39932 39.70009 L -10.65185 39.04976 C -10.66 39.06 -10.67 39.06 -10.67672 39.06413 C -10.69 39.07 -10.69 39.07 -10.70258 39.07527 C -10.71 39.08 -10.72 39.08 -10.72298 39.08157 C -10.73 39.08 -10.74 39.08 -10.74395 39.08594 C -10.75 39.09 -10.76 39.09 -10.76549 39.08838 C -10.77 39.09 -10.78 39.09 -10.7876 39.08885 C -10.8 39.09 -10.8 39.09 -10.81028 39.08737 C -10.82 39.09 -10.83 39.09 -10.8335 39.08391 C -10.84 39.08 -10.85 39.08 -10.85727 39.07847 C -10.87 39.08 -10.87 39.07 -10.88158 39.07105 C -10.89 39.07 -10.91 39.06 -10.9178 39.05676 C -10.92 39.05 -10.93 39.05 -10.93737 39.04724 C -10.94 39.04 -10.95 39.04 -10.95743 39.03589 C -10.96 39.03 -10.97 39.03 -10.97797 39.02273 C -10.98 39.02 -10.99 39.01 -10.99897 39.00779 C -11.01 39 -11.01 39 -11.02042 38.99108 C -11.03 38.99 -11.03 38.98 -11.0423 38.97265 C -11.05 38.97 -11.06 38.96 -11.06459 38.95252 C -11.07 38.95 -11.08 38.94 -11.08727 38.93074 C -11.1 38.92 -11.1 38.91 -11.11125 38.90638 C -11.12 38.9 -11.13 38.89 -11.13561 38.88032 C -11.15 38.86 -11.17 38.84 -11.18541 38.82327 C -11.2 38.8 -11.22 38.78 -11.23652 38.76 C -11.25 38.74 -11.27 38.71 -11.28878 38.69089 C -11.3 38.68 -11.31 38.67 -11.31609 38.65302 C -11.33 38.64 -11.33 38.63 -11.34323 38.61399 C -11.35 38.6 -11.36 38.59 -11.37017 38.5738 C -11.38 38.56 -11.39 38.55 -11.39687 38.53247 C -11.41 38.52 -11.41 38.5 -11.42318 38.49021 C -11.43 38.48 -11.44 38.46 -11.44921 38.44684 C -11.46 38.43 -11.47 38.42 -11.47492 38.40236 C -11.48 38.39 -11.49 38.37 -11.50028 38.35682 C -11.51 38.34 -11.52 38.33 -11.52528 38.31022 C -11.53 38.29 -11.54 38.28 -11.54987 38.26262 C -11.56 38.25 -11.57 38.23 -11.57402 38.21404 C -11.58 38.2 -11.59 38.18 -11.59772 38.16455 C -11.61 38.14 -11.62 38.12 -11.62541 38.10426 C -11.63 38.08 -11.64 38.06 -11.65236 38.04282 C -11.66 38.02 -11.67 38 -11.67855 37.98032 C -11.69 37.96 -11.7 37.94 -11.70395 37.91687 C -11.71 37.9 -11.72 37.87 -11.72853 37.85257 C -11.74 37.83 -11.74 37.81 -11.75227 37.78751 C -11.76 37.77 -11.77 37.74 -11.77516 37.72181 C -11.78 37.7 -11.79 37.68 -11.7972 37.65556 C -11.81 37.63 -11.82 37.6 -11.82499 37.56728 C -11.83 37.54 -11.84 37.51 -11.85085 37.47929 C -11.86 37.46 -11.86 37.45 -11.86317 37.43497 C -11.87 37.42 -11.87 37.41 -11.87497 37.3908 C -11.88 37.38 -11.88 37.36 -11.88626 37.3468 C -11.89 37.33 -11.89 37.32 -11.89703 37.303 C -11.9 37.29 -11.9 37.27 -11.90727 37.2594 C -11.91 37.24 -11.91 37.23 -11.91698 37.21603 C -11.92 37.19 -11.93 37.16 -11.93483 37.13008 C -11.94 37.12 -11.94 37.1 -11.94325 37.086 C -11.95 37.07 -11.95 37.06 -11.9511 37.04225 C -11.95 37.03 -11.96 37.01 -11.95841 36.99884 C -11.96 36.98 -11.96 36.97 -11.96516 36.95579 C -11.97 36.94 -11.97 36.93 -11.97137 36.91312 C -11.97 36.9 -11.98 36.88 -11.97703 36.87084 C -11.98 36.86 -11.98 36.84 -11.98217 36.82894 C -11.98 36.82 -11.99 36.8 -11.98679 36.78746 C -11.99 36.76 -11.99 36.73 -11.9945 36.70573 C -12 36.68 -12 36.65 -12.00025 36.6257 C -12 36.6 -12 36.57 -12.0041 36.5474 C -12.01 36.52 -12.01 36.5 -12.00616 36.47083 L -10.36803 38.70146 L -10.36803 38.43332 C -10.37 38.4 -10.37 38.37 -10.36887 38.33158 C -10.37 38.3 -10.37 38.26 -10.37145 38.22792 C -10.37 38.19 -10.37 38.16 -10.3759 38.12227 C -10.38 38.09 -10.38 38.05 -10.38235 38.0146 C -10.38 37.98 -10.39 37.95 -10.39009 37.91463 C -10.39 37.88 -10.4 37.85 -10.39971 37.81293 C -10.4 37.78 -10.41 37.74 -10.41133 37.70951 C -10.41 37.69 -10.42 37.67 -10.41792 37.65716 C -10.42 37.64 -10.42 37.62 -10.42506 37.60439 C -10.43 37.59 -10.43 37.57 -10.43317 37.54835 C -10.44 37.53 -10.44 37.51 -10.44192 37.49185 C -10.44 37.47 -10.45 37.45 -10.45132 37.43492 C -10.45 37.42 -10.46 37.4 -10.46138 37.37756 C -10.46 37.36 -10.47 37.34 -10.47212 37.3198 C -10.48 37.3 -10.48 37.28 -10.48355 37.26165 C -10.49 37.24 -10.49 37.22 -10.49568 37.20315 C -10.5 37.18 -10.5 37.16 -10.50852 37.1443 C -10.51 37.13 -10.52 37.11 -10.52134 37.0883 C -10.53 37.07 -10.53 37.05 -10.53482 37.03206 C -10.54 37.01 -10.54 36.99 -10.54895 36.9756 C -10.55 36.96 -10.56 36.94 -10.56375 36.91896 C -10.57 36.9 -10.57 36.88 -10.5792 36.86217 C -10.58 36.84 -10.59 36.82 -10.59531 36.80526 C -10.6 36.79 -10.61 36.77 -10.61209 36.74829 C -10.62 36.73 -10.62 36.71 -10.62951 36.69128 C -10.64 36.67 -10.64 36.65 -10.64883 36.63036 C -10.66 36.61 -10.66 36.59 -10.66883 36.56958 C -10.68 36.55 -10.68 36.53 -10.68952 36.50902 C -10.7 36.49 -10.7 36.47 -10.71087 36.44871 C -10.72 36.43 -10.73 36.41 -10.73288 36.38873 C -10.74 36.37 -10.75 36.35 -10.75553 36.32912 C -10.76 36.31 -10.77 36.29 -10.77881 36.26996 C -10.79 36.25 -10.79 36.23 -10.8027 36.21129 C -10.81 36.2 -10.81 36.18 -10.82118 36.16724 C -10.83 36.15 -10.83 36.14 -10.83999 36.12353 C -10.85 36.11 -10.85 36.09 -10.8591 36.08018 C -10.87 36.07 -10.87 36.05 -10.87852 36.03722 C -10.89 36.01 -10.9 35.98 -10.91822 35.95254 C -10.93 35.92 -10.95 35.9 -10.95899 35.86964 C -10.97 35.86 -10.97 35.84 -10.98044 35.82753 C -10.99 35.81 -10.99 35.8 -11.00213 35.78594 C -11.01 35.77 -11.02 35.76 -11.02404 35.74489 C -11.03 35.73 -11.04 35.72 -11.04617 35.70439 C -11.05 35.69 -11.06 35.68 -11.0685 35.66445 C -11.08 35.65 -11.08 35.64 -11.09101 35.62507 C -11.1 35.61 -11.11 35.6 -11.1137 35.58627 C -11.12 35.57 -11.13 35.56 -11.13654 35.54804 C -11.15 35.53 -11.15 35.52 -11.16425 35.50274 C -11.17 35.49 -11.18 35.47 -11.19215 35.45828 C -11.2 35.44 -11.21 35.43 -11.22023 35.41467 C -11.23 35.4 -11.24 35.39 -11.24845 35.3719 C -11.26 35.36 -11.27 35.34 -11.27681 35.32996 C -11.29 35.32 -11.3 35.3 -11.30529 35.28885 C -11.31 35.28 -11.32 35.26 -11.33387 35.24856 C -11.34 35.24 -11.35 35.22 -11.36253 35.20907 C -11.37 35.19 -11.38 35.18 -11.39364 35.16744 C -11.4 35.15 -11.41 35.14 -11.42464 35.12744 C -11.43 35.11 -11.45 35.1 -11.4555 35.0891 C -11.47 35.08 -11.48 35.06 -11.48621 35.05248 C -11.5 35.04 -11.51 35.03 -11.51675 35.0176 C -11.53 35.01 -11.54 35 -11.5471 34.9845 C -11.56 34.97 -11.57 34.96 -11.57724 34.95321 C -11.59 34.94 -11.6 34.93 -11.60714 34.92375 C -11.62 34.91 -11.63 34.9 -11.6453 34.88853 C -11.66 34.88 -11.67 34.87 -11.68301 34.85642 C -11.7 34.85 -11.71 34.84 -11.72022 34.82744 C -11.73 34.82 -11.74 34.81 -11.7569 34.8016 C -11.77 34.79 -11.78 34.79 -11.79302 34.77888 C -11.8 34.77 -11.82 34.77 -11.82856 34.75927 C -11.84 34.75 -11.85 34.75 -11.86348 34.74273 C -11.88 34.74 -11.89 34.73 -11.89777 34.72923 C -11.91 34.73 -11.92 34.72 -11.93098 34.7189 C -11.94 34.72 -11.95 34.71 -11.96326 34.71173 C -11.97 34.71 -11.98 34.71 -11.99457 34.70775 C -12 34.71 -12.01 34.71 -12.02488 34.70697 C -12.03 34.71 -12.04 34.71 -12.04526 34.70832 C -12.05 34.71 -12.06 34.71 -12.06514 34.71121 C -12.07 34.71 -12.08 34.71 -12.08451 34.71562 C -12.09 34.72 -12.1 34.72 -12.10336 34.72157 C -12.11 34.72 -12.12 34.73 -12.1296 34.73281 C -12.14 34.74 -12.15 34.74 -12.15473 34.74716 C -12.16 34.75 -12.17 34.76 -12.17876 34.76457 C -12.19 34.77 -12.19 34.78 -12.20166 34.78499 C -12.21 34.79 -12.22 34.8 -12.22345 34.80835 C -12.23 34.82 -12.24 34.83 -12.24413 34.83458 C -12.25 34.84 -12.26 34.85 -12.26369 34.8636 C -12.27 34.87 -12.28 34.88 -12.28216 34.89532 C -12.29 34.91 -12.29 34.92 -12.29905 34.9287 C -12.3 34.94 -12.31 34.95 -12.31479 34.96448 C -12.32 34.98 -12.32 34.99 -12.32941 35.00263 C -12.33 35.02 -12.34 35.03 -12.34288 35.0431 C -12.35 35.06 -12.35 35.07 -12.35522 35.08584 C -12.36 35.1 -12.36 35.12 -12.36644 35.1308 C -12.37 35.15 -12.37 35.16 -12.37653 35.17792 C -12.38 35.19 -12.38 35.21 -12.38552 35.22714 C -12.39 35.24 -12.39 35.26 -12.3937 35.28048 C -12.4 35.3 -12.4 35.32 -12.40072 35.33596 C -12.4 35.35 -12.4 35.37 -12.4066 35.39349 C -12.41 35.41 -12.41 35.43 -12.41135 35.453 C -12.41 35.49 -12.42 35.53 -12.41757 35.57767 C -12.42 35.6 -12.42 35.62 -12.4191 35.64267 C -12.42 35.66 -12.42 35.69 -12.4196 35.70935 L -12.4196 35.82775 C -12.42 35.85 -12.42 35.87 -12.41919 35.88966 C -12.42 35.91 -12.42 35.93 -12.41792 35.95257 C -12.42 35.97 -12.42 35.99 -12.41578 36.01647 C -12.41 36.04 -12.41 36.06 -12.41272 36.08137 C -12.41 36.1 -12.41 36.13 -12.40871 36.14728 C -12.41 36.17 -12.41 36.19 -12.40374 36.2142 C -12.4 36.24 -12.4 36.26 -12.39775 36.28212 C -12.4 36.3 -12.39 36.33 -12.39073 36.35104 C -12.39 36.37 -12.39 36.39 -12.38443 36.4061 C -12.38 36.42 -12.38 36.44 -12.37746 36.46177 C -12.38 36.48 -12.37 36.5 -12.3698 36.51802 C -12.37 36.54 -12.36 36.56 -12.36144 36.57485 C -12.36 36.59 -12.36 36.61 -12.35237 36.63223 C -12.35 36.65 -12.35 36.67 -12.34258 36.69014 C -12.34 36.71 -12.34 36.73 -12.33206 36.74857 C -12.33 36.77 -12.32 36.79 -12.3208 36.80749 C -12.32 36.83 -12.31 36.85 -12.30926 36.86471 C -12.31 36.88 -12.3 36.9 -12.29702 36.92233 C -12.29 36.94 -12.29 36.96 -12.28409 36.98033 C -12.28 37 -12.28 37.02 -12.27048 37.03867 C -12.27 37.06 -12.26 37.08 -12.25617 37.09733 C -12.25 37.12 -12.25 37.14 -12.24118 37.15626 C -12.24 37.18 -12.23 37.2 -12.22552 37.21544 C -12.22 37.24 -12.21 37.25 -12.20918 37.27482 C -12.2 37.3 -12.19 37.33 -12.18638 37.35429 C -12.18 37.38 -12.17 37.41 -12.16242 37.43397 C -12.15 37.46 -12.15 37.49 -12.13735 37.51379 C -12.13 37.54 -12.12 37.57 -12.1112 37.59365 Z" />
    <path d="M 0.68515 28.85431 L 0.89648 28.72058" />
    <path d="M -1.94637 24.68126 A 1 0.63411 323.70723 0 0 -2.03497 24.98171 L -2.03673 25.02712 L -1.69346 25.49455 L -1.69346 79.69719 L -1.68645 79.78405 A 1 0.63411 323.70723 0 0 -1.61035 79.96827 L -1.95362 79.50085" />
    <path d="M -2.03497 24.98171 L -1.6917 25.44914 L -1.69346 25.49455" />
    <path d="M -1.68029 25.36751 A 1 0.63411 323.70723 0 0 -1.6917 25.44914" />
    <path d="M -1.61035 79.96827 A 1 0.63411 323.70723 0 0 -1.47118 80.08872 A 1 0.63411 323.70723 0 0 -0.80435 80.08956 L 45.42939 63.4065 A 1 0.63411 323.70723 0 0 46.31675 62.41789 L 46.3185 62.37248 L 46.3185 12.38789" />
    <path d="M -1.35676 79.77279 L -1.35676 26.20194" />
    <path d="M -1.35766 79.81635 L -1.35676 79.77279" />
    <path d="M -1.47118 80.08872 A 1 0.32642 70.15845 0 0 -1.35766 79.81635" />
    <path d="M -0.68992 79.53217 L -0.68992 27.92178" />
    <path d="M -0.69083 79.57572 L -0.68992 79.53217 L -1.35676 79.77279" />
    <path d="M -0.80435 79.8481 A 1 0.32642 70.15845 0 0 -0.69083 79.57572 L -1.35766 79.81635" />
    <path d="M -1.47118 80.08872 L -0.80435 79.8481" />
    <path d="M 23.55664 -49.4063 A 1 0.16198 163.408 0 0 23.71656 -49.55434" />
    <path d="M -24.36465 -32.2649 A 1 0.16198 163.408 0 0 -23.90382 -32.31069" />
    <path d="M -47.44733 -35.59502 L -24.36465 -32.2649 L -24.57599 -32.97418 A 1 0.16198 163.408 0 0 -24.11516 -33.01997" />
    <path d="M -47.51658 -35.63029 A 1 0.16198 163.408 0 0 -47.44733 -35.59502 L -47.65867 -36.3043 L -24.57599 -32.97418" />
    <path d="M 23.21053 -49.31417 L 23.01612 -49.96666 A 1 0.16198 163.408 0 0 23.50522 -50.26362 L 23.71656 -49.55434" />
    <path d="M 22.90753 -49.92603 L 23.01612 -49.96666" />
    <path d="M 23.10156 -49.27484 L 22.90753 -49.92603" />
    <path d="M 47.02748 12.1237 L 47.23882 11.98998" />
    <path d="M 46.91889 12.17125 L 47.13023 12.03752" />
    <path d="M -22.82513 -32.46271 L -23.49196 -32.22209" />
    <path d="M -22.91264 -32.67061 A 1 0.32642 70.15845 0 0 -23.32146 -33.22701 L -23.32622 -33.24298 L 22.90753 -49.92603" />
    <path d="M -23.37811 -33.20735 L -23.37406 -33.20875 L -23.37002 -33.21016 L -23.36597 -33.21156 L -23.36192 -33.21297 L -23.35787 -33.21437 L -23.35383 -33.21578 L -23.34978 -33.21718 L -23.34574 -33.21859 L -23.34169 -33.21999 L -23.33764 -33.2214 L -23.3336 -33.2228 L -23.32955 -33.2242 L -23.3255 -33.22561 L -23.32146 -33.22701" />
    <path d="M -23.79355 -33.09636 C -23.78 -33.1 -23.76 -33.1 -23.74004 -33.10875 C -23.72 -33.11 -23.7 -33.12 -23.6863 -33.12142 C -23.67 -33.12 -23.66 -33.13 -23.64701 -33.13095 C -23.63 -33.13 -23.62 -33.14 -23.60778 -33.14076 C -23.59 -33.14 -23.58 -33.15 -23.56869 -33.15089 C -23.56 -33.15 -23.54 -33.16 -23.52983 -33.16137 C -23.52 -33.16 -23.5 -33.17 -23.49127 -33.17225 C -23.48 -33.18 -23.47 -33.18 -23.45308 -33.18352 C -23.44 -33.19 -23.43 -33.19 -23.41534 -33.19522 C -23.4 -33.2 -23.39 -33.2 -23.37811 -33.20735 L -23.38275 -33.22294 L -23.32622 -33.24298" />
    <path d="M -23.79355 -33.09636 L -23.36981 -33.24927 A 1 0.32642 70.15845 0 0 -23.40862 -33.25724 L -23.55567 -33.27608 L -24.2225 -33.03546" />
    <path d="M -23.40862 -33.25724 L -24.07545 -33.01662" />
    <path d="M -23.08338 -32.58653 Q -23.08 -32.59 -23.08518 -32.5854 C -23.1 -32.58 -23.11 -32.57 -23.12018 -32.56204 C -23.13 -32.55 -23.14 -32.55 -23.15395 -32.53703 C -23.17 -32.53 -23.18 -32.52 -23.18645 -32.51042 C -23.2 -32.5 -23.21 -32.49 -23.21762 -32.48225 C -23.23 -32.47 -23.24 -32.46 -23.25367 -32.44597 C -23.27 -32.43 -23.28 -32.42 -23.28767 -32.40751" />
    <path d="M -2.02972 79.31662 A 1 0.63411 323.70723 0 0 -1.95362 79.50085" />
    <path d="M -2.02972 79.31662 L -1.68645 79.78405" />
    <path d="M -2.03673 79.22976 L -2.02972 79.31662" />
    <path d="M -2.03673 25.02712 L -2.03673 79.22976 L -1.69346 79.69719" />
    <path d="M -2.03673 51.24047 Q -1.63 51.8 -2.06075 51.20818 L -2.39416 51.32849" />
    <path d="M -2.06075 51.20818 Q -2.5 50.61 -2.27302 50.89084" />
    <path d="M -2.91864 49.88907 L -3.08696 49.94981" />
    <path d="M -3.08696 51.18981 L -3.16699 51.08084 L -3.16699 46.43855" />
    <path d="M -3.16699 51.08084 L -3.5004 51.20115" />
    <path d="M -3.03521 46.91979 L -3.10261 46.94411" />
    <path d="M -47.23882 -36.63654 A 1 0.16198 163.408 0 0 -47.72792 -36.33957 L -47.51658 -35.63029" />
    <path d="M -47.72792 -36.33957 A 1 0.16198 163.408 0 0 -47.65867 -36.3043" />
    <path d="M -47.13023 -36.67716 L -47.23882 -36.63654" />
    <path d="M -0.89648 -53.36022 L -47.13023 -36.67716" />
    <path d="M -0.83995 -53.38026 L -0.89648 -53.36022" />
    <path d="M 0.35329 -53.62901 A 1 0.16198 163.408 0 0 -0.83995 -53.38026" />
    <path d="M 23.43597 -50.2989 L 0.35329 -53.62901" />
    <path d="M 23.50522 -50.26362 A 1 0.16198 163.408 0 0 23.43597 -50.2989" />
    <path d="M -23.79355 -33.09636 A 1 0.16198 163.408 0 0 -23.38275 -33.22294" />
    <path d="M -45.75655 -35.35109 A 1 0.63411 323.70723 0 0 -45.97348 -34.84914 L -45.97523 -34.80373 L -45.63196 -34.3363" />
    <path d="M -45.97348 -34.84914 L -45.63021 -34.38171" />
    <path d="M -45.54886 20.13742 A 1 0.63411 323.70723 0 0 -45.40969 20.25787" />
    <path d="M -45.96822 19.48577 A 1 0.63411 323.70723 0 0 -45.89213 19.66999" />
    <path d="M -45.96822 19.48577 L -45.62495 19.9532" />
    <path d="M -45.97523 19.39891 L -45.96822 19.48577" />
    <path d="M -45.97523 -34.80373 L -45.97523 19.39891 L -45.63196 19.86634" />
    <path d="M -6.58181 42.49581 Q -6.58 42.09 -6.58679 42.33185" />
    <path d="M -7.25719 40.80083 Q -7.33 40.67 -7.48021 40.68219 L -7.81362 40.8025" />
    <path d="M -7.48021 40.68219 Q -7.63 40.69 -7.51745 40.68946 L -7.85086 40.80977" />
    <path d="M -7.51745 40.68946 Q -7.63 40.69 -7.55041 40.70753" />
    <path d="M -7.99017 43.06446 L -8.07244 42.95245 L -8.07244 40.48343 L -8.40585 40.60374" />
    <path d="M -8.07244 42.95245 L -8.40585 43.07276" />
    <path d="M -8.07244 40.48343 Q -8.07 39.66 -8.08034 40.28183" />
    <path d="M -8.75972 38.7534 Q -9 38.4 -9.03809 38.62116 L -9.37151 38.74147" />
    <path d="M -9.47857 41.03772 L -9.5586 40.92875 L -9.5586 37.73513" />
    <path d="M -9.5586 40.92875 L -9.89201 41.04906" />
    <path d="M -9.44996 38.23241 L -9.48974 38.24677" />
    <path d="M -7.92536 40.22591 L -8.0818 40.28236" />
    <path d="M -6.50178 45.0912 L -6.58181 44.98223 L -6.58181 42.49581 L -6.91522 42.61612" />
    <path d="M -6.58181 44.98223 L -6.91522 45.10254" />
    <path d="M -18.39777 28.89249 L -18.49567 28.75917 L -18.49567 24.26314" />
    <path d="M -18.49567 28.75917 L -18.82909 28.87948" />
    <path d="M -4.22002 48.19826 L -4.31569 48.06799 L -4.31569 43.57196" />
    <path d="M -4.31569 48.06799 L -4.64911 48.1883" />
    <path d="M -16.20721 30.00184 L -16.20721 29.95657 L -16.54063 30.07688" />
    <path d="M -16.20721 29.95657 Q -16.21 29.4 -16.06753 29.1508 L -16.40095 29.27111" />
    <path d="M -16.06753 29.1508 Q -15.93 28.9 -16.04106 29.10763" />
    <path d="M -14.50053 33.99792 Q -14.28 34.09 -14.52774 33.98817 L -14.86115 34.10848" />
    <path d="M -14.52774 33.98817 Q -14.78 33.89 -15.10544 33.44529 L -15.43886 33.5656" />
    <path d="M -15.10544 33.44529 Q -15.6 32.78 -15.21775 33.28508" />
    <path d="M -16.11713 30.97646 Q -16.21 30.88 -16.20721 30.00184 L -16.54063 30.12215" />
    <path d="M -12.65203 33.51762 Q -12.93 33.13 -12.96667 33.344 L -13.30008 33.46431" />
    <path d="M -13.4074 35.68785 L -13.48742 35.57888 L -13.48742 32.38526" />
    <path d="M -13.48742 35.57888 L -13.82084 35.69919" />
    <path d="M -13.22859 32.85731 L -13.41187 32.92345" />
    <path d="M -10.97771 39.06599 Q -11.47 38.4 -11.04802 38.96761" />
    <path d="M -12.00078 36.61668 Q -12.09 36.55 -12.08619 35.70744 L -12.4196 35.82775" />
    <path d="M -12.08619 35.70744 L -12.08619 35.58904 L -12.4196 35.70935" />
    <path d="M -12.08619 35.58904 Q -12.09 35.03 -11.94874 34.77501 L -12.28216 34.89532" />
    <path d="M -11.94874 34.77501 Q -11.81 34.52 -11.91687 34.72294" />
    <path d="M -10.37622 38.11599 L -10.75535 37.59973" />
    <path d="M -11.69887 36.35995 L -12.00616 36.47083" />
    <path d="M -10.43203 39.61586 Q -10.37 39.89 -10.97771 39.06599 L -11.31113 39.1863" />
    <path d="M -2.35714 47.47299 Q -2.57 47.16 -2.65627 47.34269 L -2.98969 47.463 C -2.98 47.46 -2.98 47.46 -2.97325 47.4581 C -2.97 47.46 -2.96 47.46 -2.95622 47.45509 C -2.95 47.45 -2.94 47.45 -2.9386 47.45401 C -2.93 47.45 -2.93 47.45 -2.92041 47.45489 C -2.91 47.46 -2.91 47.46 -2.90164 47.45778 C -2.9 47.46 -2.89 47.46 -2.88233 47.46268 C -2.88 47.46 -2.87 47.47 -2.86247 47.46961 C -2.86 47.47 -2.85 47.48 -2.84211 47.47857 C -2.83 47.48 -2.83 47.49 -2.81873 47.49101 C -2.81 47.5 -2.8 47.5 -2.79477 47.50596 C -2.79 47.51 -2.78 47.52 -2.77028 47.52338 C -2.76 47.53 -2.75 47.54 -2.74528 47.54323 C -2.74 47.55 -2.73 47.56 -2.71984 47.56543 C -2.71 47.57 -2.7 47.58 -2.69398 47.58992 C -2.69 47.6 -2.68 47.61 -2.66775 47.6166 C -2.66 47.63 -2.65 47.64 -2.64119 47.64539 C -2.63 47.66 -2.62 47.67 -2.61222 47.67871 C -2.6 47.69 -2.59 47.7 -2.58297 47.71425 C -2.57 47.73 -2.56 47.74 -2.55348 47.75188 C -2.54 47.76 -2.53 47.78 -2.52378 47.79148 C -2.51 47.8 -2.51 47.82 -2.49742 47.82809 C -2.49 47.84 -2.48 47.85 -2.47126 47.86587 C -2.46 47.88 -2.45 47.89 -2.44534 47.90481 C -2.44 47.92 -2.43 47.93 -2.41969 47.94492 C -2.41 47.96 -2.4 47.97 -2.39504 47.98504 C -2.39 48 -2.38 48.01 -2.37071 48.02625 C -2.36 48.04 -2.35 48.05 -2.34673 48.06851 C -2.34 48.08 -2.33 48.1 -2.32315 48.11181 C -2.32 48.13 -2.31 48.14 -2.29998 48.15612 C -2.29 48.17 -2.28 48.19 -2.27727 48.20139 C -2.27 48.22 -2.26 48.23 -2.25504 48.24758 C -2.25 48.26 -2.24 48.28 -2.23333 48.29463 C -2.22 48.31 -2.22 48.33 -2.20673 48.35512 C -2.2 48.38 -2.19 48.4 -2.18104 48.41677 C -2.17 48.44 -2.16 48.46 -2.15631 48.47946 C -2.15 48.5 -2.14 48.52 -2.13257 48.54305 C -2.12 48.57 -2.12 48.59 -2.10917 48.60938 C -2.1 48.63 -2.09 48.65 -2.08686 48.67637 C -2.08 48.7 -2.07 48.72 -2.06565 48.74391 C -2.06 48.77 -2.05 48.79 -2.04553 48.81185 C -2.04 48.82 -2.04 48.83 -2.03673 48.8429" />
    <path d="M -14.64616 33.23823 Q -14.79 33.35 -14.60484 33.21631 L -14.93825 33.33662 C -14.94 33.34 -14.95 33.35 -14.95842 33.34913 C -14.97 33.35 -14.97 33.36 -14.97958 33.35854 C -14.99 33.36 -14.99 33.36 -14.99805 33.36394 C -15 33.37 -15.01 33.37 -15.01451 33.36673 C -15.02 33.37 -15.03 33.37 -15.03149 33.36776 C -15.04 33.37 -15.04 33.37 -15.04898 33.367 C -15.05 33.37 -15.06 33.37 -15.06697 33.36442 C -15.07 33.36 -15.08 33.36 -15.08545 33.36 C -15.09 33.36 -15.1 33.36 -15.10442 33.35372 C -15.11 33.35 -15.12 33.35 -15.12384 33.34559 C -15.13 33.34 -15.14 33.34 -15.14372 33.33558 C -15.15 33.33 -15.16 33.33 -15.16604 33.32246 C -15.17 33.32 -15.18 33.31 -15.18886 33.30712 C -15.2 33.3 -15.2 33.3 -15.21213 33.28959 C -15.22 33.28 -15.23 33.28 -15.23583 33.26991 C -15.24 33.26 -15.25 33.26 -15.25993 33.24812 C -15.27 33.24 -15.28 33.23 -15.2844 33.22429 C -15.29 33.22 -15.3 33.21 -15.3092 33.19848 C -15.32 33.19 -15.33 33.18 -15.33429 33.17076 C -15.34 33.16 -15.35 33.15 -15.3601 33.14066 C -15.37 33.13 -15.38 33.12 -15.38614 33.10874 C -15.39 33.1 -15.4 33.09 -15.41241 33.07508 C -15.42 33.06 -15.43 33.05 -15.43886 33.03976 C -15.45 33.03 -15.46 33.02 -15.46513 33.0033 C -15.47 32.99 -15.48 32.98 -15.49122 32.96569 C -15.5 32.95 -15.51 32.94 -15.51711 32.92695 C -15.53 32.91 -15.53 32.9 -15.54275 32.88705 C -15.55 32.87 -15.56 32.86 -15.56772 32.84669 C -15.58 32.83 -15.58 32.82 -15.5924 32.80523 C -15.6 32.79 -15.61 32.78 -15.61676 32.76271 C -15.62 32.75 -15.63 32.73 -15.64076 32.71914 C -15.65 32.7 -15.66 32.69 -15.66437 32.67457 C -15.67 32.66 -15.68 32.64 -15.68756 32.62902 C -15.7 32.61 -15.7 32.6 -15.71031 32.58254 C -15.72 32.57 -15.73 32.55 -15.73257 32.53518 C -15.74 32.51 -15.75 32.49 -15.76162 32.47044 C -15.77 32.45 -15.78 32.43 -15.7897 32.40435 C -15.8 32.38 -15.81 32.36 -15.81677 32.33707 C -15.83 32.31 -15.83 32.29 -15.8428 32.26873 C -15.85 32.25 -15.86 32.22 -15.86842 32.19758 C -15.88 32.17 -15.88 32.15 -15.89289 32.12565 C -15.9 32.1 -15.91 32.08 -15.91619 32.05308 C -15.92 32.03 -15.93 32 -15.93834 31.98003 C -15.94 31.96 -15.95 31.94 -15.95468 31.92327 C -15.96 31.9 -15.97 31.89 -15.97025 31.86666 C -15.98 31.85 -15.98 31.83 -15.98503 31.81022 C -15.99 31.79 -15.99 31.77 -15.99902 31.75402 C -16 31.74 -16.01 31.72 -16.01221 31.69808 C -16.02 31.68 -16.02 31.66 -16.02462 31.64245 C -16.03 31.62 -16.03 31.61 -16.03624 31.58716 C -16.04 31.57 -16.04 31.55 -16.04707 31.53224 C -16.05 31.51 -16.05 31.5 -16.05715 31.47768 C -16.06 31.46 -16.06 31.44 -16.06645 31.42356 C -16.07 31.41 -16.07 31.39 -16.07501 31.3699 C -16.08 31.35 -16.08 31.33 -16.08282 31.31671 C -16.09 31.3 -16.09 31.28 -16.08991 31.26402 C -16.09 31.25 -16.09 31.23 -16.09629 31.21183 C -16.1 31.19 -16.1 31.18 -16.10198 31.16017 C -16.1 31.14 -16.11 31.13 -16.10699 31.10903 C -16.11 31.09 -16.11 31.08 -16.11135 31.05844 C -16.11 31.04 -16.11 31.02 -16.11507 31.00838 C -16.12 30.99 -16.12 30.98 -16.11816 30.95887 C -16.12 30.94 -16.12 30.93 -16.12065 30.90991 C -16.12 30.89 -16.12 30.88 -16.12256 30.8615 C -16.12 30.85 -16.12 30.83 -16.1239 30.81363 C -16.12 30.8 -16.12 30.78 -16.12469 30.7663 C -16.12 30.75 -16.12 30.74 -16.12495 30.71952 C -16.12 30.71 -16.12 30.69 -16.1248 30.67998 C -16.12 30.67 -16.12 30.65 -16.12434 30.64097 C -16.12 30.63 -16.12 30.62 -16.12357 30.60252 C -16.12 30.59 -16.12 30.58 -16.12247 30.56465 C -16.12 30.55 -16.12 30.54 -16.12103 30.52738 C -16.12 30.52 -16.12 30.5 -16.11924 30.49074 C -16.12 30.48 -16.12 30.47 -16.1171 30.45476 C -16.12 30.44 -16.12 30.43 -16.11458 30.41947 C -16.11 30.41 -16.11 30.4 -16.11168 30.3849 C -16.11 30.37 -16.11 30.36 -16.10839 30.35108 C -16.11 30.33 -16.1 30.31 -16.10058 30.28582 C -16.1 30.26 -16.09 30.24 -16.09105 30.22398 C -16.09 30.2 -16.08 30.18 -16.07969 30.16586 C -16.08 30.15 -16.07 30.13 -16.06757 30.11606 C -16.06 30.1 -16.06 30.08 -16.05376 30.06992 C -16.05 30.06 -16.04 30.04 -16.03817 30.02774 C -16.03 30.01 -16.03 30 -16.02076 29.98976 C -16.01 29.98 -16.01 29.97 -16.00249 29.95789 C -16 29.95 -16 29.95 -15.99271 29.94354 C -15.99 29.94 -15.99 29.93 -15.98249 29.93028 C -15.98 29.93 -15.98 29.92 -15.97184 29.91813 C -15.97 29.91 -15.96 29.91 -15.96074 29.90713 C -15.96 29.9 -15.95 29.9 -15.9492 29.89729 C -15.95 29.89 -15.94 29.89 -15.93722 29.88864 C -15.93 29.88 -15.93 29.88 -15.91897 29.87801 C -15.91 29.87 -15.91 29.87 -15.89996 29.86978 C -15.9 29.87 -15.89 29.87 -15.88639 29.86555 C -15.88 29.86 -15.88 29.86 -15.87246 29.86253 C -15.87 29.86 -15.86 29.86 -15.85485 29.86052 C -15.85 29.86 -15.84 29.86 -15.8367 29.86043 C -15.83 29.86 -15.82 29.86 -15.81801 29.86229 C -15.81 29.86 -15.81 29.86 -15.79879 29.86613 C -15.79 29.87 -15.79 29.87 -15.77906 29.87198 C -15.77 29.87 -15.77 29.88 -15.75882 29.87985 C -15.75 29.88 -15.75 29.89 -15.7381 29.88975 C -15.73 29.89 -15.72 29.9 -15.71692 29.90168 C -15.71 29.9 -15.71 29.91 -15.70142 29.9115 C -15.7 29.91 -15.69 29.92 -15.68571 29.92235 C -15.68 29.93 -15.68 29.93 -15.66978 29.93424 C -15.66 29.94 -15.66 29.94 -15.65366 29.94714 C -15.65 29.95 -15.64 29.96 -15.63734 29.96105 C -15.63 29.97 -15.63 29.97 -15.62084 29.97594 C -15.62 29.98 -15.61 29.99 -15.60418 29.99181 C -15.6 30 -15.59 30 -15.58735 30.00864 C -15.58 30.02 -15.56 30.03 -15.55208 30.04637 C -15.54 30.06 -15.53 30.07 -15.51627 30.08792 C -15.5 30.1 -15.49 30.12 -15.47999 30.13306 C -15.47 30.15 -15.46 30.16 -15.44333 30.1816 C -15.43 30.19 -15.43 30.2 -15.41793 30.21681 C -15.41 30.23 -15.4 30.24 -15.39271 30.25312 C -15.38 30.27 -15.38 30.28 -15.36768 30.29051 C -15.36 30.3 -15.35 30.32 -15.34287 30.32899 C -15.33 30.34 -15.33 30.35 -15.31854 30.36815 C -15.31 30.38 -15.3 30.39 -15.29449 30.40836 C -15.29 30.42 -15.28 30.44 -15.27074 30.4496 C -15.26 30.46 -15.26 30.48 -15.24731 30.49184 C -15.24 30.51 -15.23 30.52 -15.22424 30.53505 C -15.22 30.55 -15.21 30.56 -15.20156 30.57921 C -15.19 30.59 -15.19 30.61 -15.17928 30.62426 C -15.17 30.64 -15.16 30.65 -15.15745 30.67017 C -15.15 30.69 -15.14 30.7 -15.13665 30.71562 C -15.13 30.73 -15.12 30.75 -15.11631 30.76179 C -15.11 30.78 -15.1 30.79 -15.09645 30.80862 C -15.09 30.82 -15.08 30.84 -15.07708 30.85607 C -15.07 30.87 -15.06 30.89 -15.05822 30.90407 C -15.05 30.92 -15.05 30.94 -15.03988 30.95258 C -15.03 30.97 -15.03 30.99 -15.02207 31.00154 C -15.02 31.02 -15.01 31.03 -15.00479 31.05091 C -15 31.07 -14.99 31.08 -14.9882 31.10018 C -14.98 31.12 -14.98 31.13 -14.97214 31.14975 C -14.97 31.17 -14.96 31.18 -14.95661 31.19956 C -14.95 31.22 -14.95 31.23 -14.94161 31.24959 C -14.94 31.27 -14.93 31.29 -14.92516 31.30674 C -14.92 31.33 -14.91 31.34 -14.90947 31.36373 C -14.9 31.38 -14.9 31.4 -14.89457 31.42052 C -14.89 31.44 -14.89 31.46 -14.88045 31.47707 C -14.88 31.5 -14.87 31.51 -14.86711 31.53333 C -14.86 31.55 -14.86 31.57 -14.85456 31.58927 C -14.85 31.61 -14.85 31.63 -14.8428 31.64486 C -14.84 31.66 -14.84 31.68 -14.83181 31.70005 C -14.83 31.72 -14.82 31.74 -14.82164 31.75463 C -14.82 31.77 -14.82 31.79 -14.81223 31.80876 C -14.81 31.83 -14.81 31.84 -14.80357 31.86242 C -14.8 31.88 -14.8 31.9 -14.79565 31.91559 C -14.79 31.93 -14.79 31.95 -14.78846 31.96825 C -14.79 31.99 -14.78 32 -14.78198 32.02039 C -14.78 32.04 -14.78 32.05 -14.77619 32.072 C -14.77 32.09 -14.77 32.11 -14.77109 32.12307 C -14.77 32.14 -14.77 32.16 -14.76665 32.17358 C -14.77 32.19 -14.76 32.21 -14.76286 32.22353 C -14.76 32.24 -14.76 32.26 -14.7597 32.27292 C -14.76 32.29 -14.76 32.31 -14.75716 32.32175 C -14.76 32.34 -14.76 32.35 -14.75521 32.37001 C -14.75 32.39 -14.75 32.4 -14.75384 32.4177 C -14.75 32.43 -14.75 32.45 -14.75303 32.46483 C -14.75 32.48 -14.75 32.5 -14.75276 32.5114 C -14.75 32.54 -14.75 32.56 -14.75334 32.58716 C -14.75 32.61 -14.75 32.64 -14.75513 32.66082 C -14.76 32.68 -14.76 32.71 -14.7582 32.73219 C -14.76 32.76 -14.76 32.78 -14.76262 32.80108 C -14.76 32.82 -14.77 32.85 -14.76848 32.86729 C -14.77 32.89 -14.77 32.91 -14.77585 32.93059 C -14.78 32.95 -14.78 32.97 -14.78483 32.99074 C -14.79 33.01 -14.79 33.03 -14.7955 33.04748 C -14.8 33.07 -14.8 33.08 -14.80758 33.09913 C -14.81 33.12 -14.82 33.13 -14.82141 33.14703 C -14.83 33.16 -14.83 33.18 -14.83707 33.19092 C -14.84 33.2 -14.85 33.22 -14.85461 33.23051 C -14.86 33.24 -14.87 33.25 -14.87288 33.26359 C -14.88 33.27 -14.88 33.27 -14.88267 33.27855 C -14.89 33.28 -14.89 33.29 -14.8929 33.29243 C -14.9 33.3 -14.9 33.3 -14.90357 33.3052 C -14.91 33.31 -14.91 33.31 -14.91469 33.31683 C -14.92 33.32 -14.92 33.32 -14.92625 33.32731 C -14.93 33.33 -14.93 33.33 -14.93825 33.33662" />
    <path d="M -14.60484 33.21631 Q -14.42 33.08 -14.41935 32.39109 L -14.75276 32.5114" />
    <path d="M -14.41935 32.39109 Q -14.42 31.77 -14.42715 32.13816" />
    <path d="M -15.32279 29.82474 Q -15.42 29.64 -15.56654 29.74947 L -15.89996 29.86978" />
    <path d="M -11.23335 35.39466 Q -11.28 35.28 -11.44926 35.32979 L -11.78268 35.4501 C -11.78 35.45 -11.77 35.45 -11.76199 35.44521 C -11.75 35.44 -11.75 35.44 -11.74052 35.44315 C -11.73 35.44 -11.73 35.44 -11.71828 35.44399 C -11.71 35.44 -11.7 35.45 -11.69528 35.44782 C -11.69 35.45 -11.68 35.45 -11.67154 35.45466 C -11.66 35.46 -11.66 35.46 -11.64707 35.46457 C -11.64 35.47 -11.63 35.47 -11.6219 35.47756 C -11.62 35.48 -11.61 35.48 -11.60907 35.4852 C -11.6 35.49 -11.6 35.49 -11.59607 35.49362 C -11.59 35.5 -11.58 35.51 -11.56872 35.51345 C -11.56 35.52 -11.55 35.53 -11.54074 35.53651 C -11.53 35.54 -11.52 35.55 -11.51219 35.56275 C -11.5 35.57 -11.49 35.58 -11.48311 35.59208 C -11.47 35.6 -11.46 35.61 -11.45355 35.62443 C -11.44 35.64 -11.43 35.65 -11.42357 35.65967 C -11.41 35.67 -11.4 35.68 -11.39321 35.69771 C -11.38 35.71 -11.37 35.72 -11.36253 35.7384 C -11.35 35.75 -11.34 35.76 -11.33432 35.77762 C -11.32 35.79 -11.32 35.8 -11.30644 35.81809 C -11.3 35.83 -11.29 35.85 -11.2789 35.8598 C -11.27 35.87 -11.26 35.89 -11.25177 35.90275 C -11.24 35.92 -11.23 35.93 -11.22642 35.94467 C -11.22 35.96 -11.21 35.97 -11.20151 35.98769 C -11.19 36 -11.19 36.02 -11.17707 36.03178 C -11.17 36.05 -11.16 36.06 -11.15314 36.07691 C -11.15 36.09 -11.14 36.11 -11.12977 36.12304 C -11.12 36.14 -11.11 36.15 -11.10698 36.17014 C -11.1 36.19 -11.09 36.2 -11.08481 36.21815 C -11.08 36.23 -11.07 36.25 -11.0633 36.267 C -11.06 36.28 -11.05 36.29 -11.04792 36.30345 C -11.04 36.32 -11.04 36.33 -11.03291 36.34029 C -11.03 36.35 -11.02 36.37 -11.0183 36.37751 C -11.01 36.39 -11.01 36.4 -11.00408 36.41507 C -10.99 36.44 -10.99 36.47 -10.97687 36.49113 C -10.97 36.52 -10.96 36.54 -10.95132 36.56822 C -10.94 36.59 -10.94 36.61 -10.93236 36.62961 C -10.93 36.65 -10.92 36.67 -10.91457 36.69106 C -10.91 36.71 -10.9 36.73 -10.89797 36.7525 C -10.89 36.77 -10.89 36.79 -10.88255 36.81383 C -10.88 36.83 -10.87 36.85 -10.86832 36.87498 C -10.86 36.9 -10.86 36.92 -10.85525 36.93588 C -10.85 36.96 -10.85 36.98 -10.84333 36.99646 C -10.84 37.02 -10.84 37.04 -10.83254 37.05666 C -10.83 37.08 -10.83 37.1 -10.82202 37.12184 C -10.82 37.14 -10.82 37.17 -10.81277 37.18646 C -10.81 37.21 -10.81 37.23 -10.80475 37.25047 C -10.8 37.27 -10.8 37.29 -10.79792 37.31383 C -10.8 37.33 -10.79 37.36 -10.79222 37.37653 C -10.79 37.4 -10.79 37.42 -10.78761 37.43853 C -10.79 37.46 -10.79 37.48 -10.78405 37.49982 C -10.78 37.52 -10.78 37.54 -10.78147 37.5604 L -10.78147 37.60916 L -11.99275 35.95977 C -11.99 35.94 -11.99 35.92 -11.98752 35.90697 C -11.99 35.89 -11.98 35.87 -11.98128 35.85627 C -11.98 35.84 -11.98 35.82 -11.97398 35.80779 C -11.97 35.79 -11.97 35.78 -11.96558 35.76167 C -11.96 35.75 -11.96 35.73 -11.95604 35.71806 C -11.95 35.7 -11.95 35.69 -11.94531 35.67711 C -11.94 35.66 -11.94 35.65 -11.93334 35.63896 C -11.93 35.63 -11.92 35.61 -11.92012 35.60378 C -11.92 35.59 -11.91 35.58 -11.90742 35.57542 C -11.9 35.57 -11.9 35.56 -11.89369 35.54956 C -11.89 35.54 -11.88 35.53 -11.87893 35.52632 C -11.87 35.52 -11.87 35.51 -11.86311 35.50578 C -11.86 35.5 -11.85 35.49 -11.84623 35.48804 C -11.84 35.48 -11.83 35.48 -11.82828 35.47316 C -11.82 35.47 -11.82 35.46 -11.80928 35.46123 C -11.8 35.46 -11.8 35.45 -11.78922 35.45229 Q -11.79 35.45 -11.78268 35.4501" />
    <path d="M -11.44926 35.32979 Q -11.62 35.38 -11.4558 35.33198 L -11.78922 35.45229" />
    <path d="M -11.4558 35.33198 Q -11.62 35.38 -11.46224 35.33447" />
    <path d="M -10.44806 37.48884 L -10.44806 37.45429" />
    <path d="M -2.03673 50.9006 C -2.04 50.9 -2.04 50.91 -2.04665 50.90847 C -2.05 50.91 -2.06 50.92 -2.06672 50.92121 C -2.07 50.92 -2.08 50.93 -2.08784 50.93069 C -2.09 50.93 -2.1 50.93 -2.10016 50.93454 C -2.1 50.94 -2.11 50.94 -2.11281 50.93729 C -2.12 50.94 -2.12 50.94 -2.1258 50.93893 C -2.13 50.94 -2.13 50.94 -2.1391 50.93943 C -2.14 50.94 -2.15 50.94 -2.15155 50.93889 C -2.16 50.94 -2.16 50.94 -2.16427 50.93736 C -2.17 50.94 -2.17 50.94 -2.17726 50.93486 C -2.18 50.93 -2.19 50.93 -2.1905 50.93137 C -2.19 50.93 -2.2 50.93 -2.20399 50.92688 C -2.21 50.93 -2.21 50.92 -2.21774 50.92139 C -2.22 50.92 -2.23 50.92 -2.23172 50.91491 C -2.24 50.91 -2.24 50.91 -2.24594 50.90742 C -2.25 50.9 -2.26 50.9 -2.26669 50.89498 C -2.27 50.89 -2.28 50.89 -2.28789 50.8805 C -2.3 50.88 -2.3 50.87 -2.30951 50.86404 C -2.32 50.86 -2.32 50.85 -2.33151 50.84561 C -2.34 50.84 -2.35 50.83 -2.35388 50.82525 C -2.36 50.82 -2.37 50.81 -2.37658 50.80303 C -2.38 50.8 -2.39 50.79 -2.39959 50.77898 C -2.41 50.77 -2.42 50.76 -2.42288 50.75317 C -2.43 50.74 -2.44 50.73 -2.44667 50.72537 C -2.45 50.72 -2.46 50.71 -2.47069 50.6959 C -2.48 50.69 -2.49 50.68 -2.49492 50.66483 C -2.5 50.65 -2.51 50.64 -2.51932 50.63223 C -2.53 50.62 -2.54 50.6 -2.55147 50.58751 C -2.56 50.57 -2.57 50.56 -2.5834 50.54118 C -2.59 50.53 -2.6 50.51 -2.61504 50.49323 C -2.63 50.48 -2.64 50.46 -2.64635 50.44364 C -2.66 50.43 -2.67 50.41 -2.67431 50.39743 C -2.68 50.38 -2.69 50.37 -2.7019 50.3499 C -2.71 50.33 -2.72 50.32 -2.72907 50.3011 C -2.74 50.28 -2.75 50.27 -2.75577 50.25106 C -2.76 50.23 -2.77 50.22 -2.78194 50.19982 C -2.79 50.18 -2.8 50.17 -2.80754 50.14746 C -2.82 50.13 -2.82 50.11 -2.83252 50.09403 C -2.84 50.08 -2.85 50.06 -2.85683 50.03963 C -2.86 50.02 -2.87 50 -2.87979 49.98588 C -2.89 49.97 -2.89 49.95 -2.90205 49.93137 C -2.91 49.91 -2.92 49.89 -2.92357 49.87619 C -2.93 49.86 -2.94 49.84 -2.94434 49.82044 C -2.95 49.8 -2.96 49.78 -2.96432 49.76421 C -2.97 49.75 -2.98 49.73 -2.98352 49.70758 C -2.99 49.69 -3 49.67 -3.00192 49.65064 C -3.01 49.63 -3.01 49.61 -3.01952 49.59348 C -3.03 49.57 -3.03 49.55 -3.03776 49.53113 C -3.04 49.51 -3.05 49.49 -3.05507 49.4687 C -3.06 49.45 -3.07 49.43 -3.07147 49.40626 C -3.08 49.39 -3.08 49.36 -3.08696 49.34388 L -3.08696 47.54348 C -3.08 47.54 -3.08 47.53 -3.07028 47.52205 C -3.06 47.52 -3.06 47.51 -3.0526 47.50328 C -3.05 47.5 -3.04 47.49 -3.03391 47.48731 C -3.03 47.48 -3.02 47.48 -3.01418 47.47431 C -3.01 47.47 -3.01 47.47 -3.00212 47.46811 C -3 47.47 -2.99 47.46 -2.98969 47.463" />
    <path d="M -10.44806 37.48884 L -10.78147 37.60916" />
    <path d="M -10.45031 37.4409 L -10.78147 37.5604" />
    <path d="M -0.56463 28.24493 L -0.35329 28.11121" />
    <path d="M -6.75383 41.74966 L -7.03367 41.85063" />
    <path d="M -7.12575 40.9984 L -7.43147 41.10872" />
    <path d="M -8.61422 38.96784 L -8.9221 39.07893" />
    <path d="M -15.97378 31.85344 L -16.23557 31.94791" />
    <path d="M -12.65203 33.72621 L -12.85539 33.79959" />
    <path d="M -11.84556 37.4978 L -12.1112 37.59365" />
    <path d="M -2.03673 48.80867 L -2.04553 48.81185" />
    <path d="M -2.03673 50.90489 L -2.04665 50.90847" />
    <path d="M -2.22037 47.682 L -2.52378 47.79148" />
    <path d="M -14.683 31.15627 L -14.94161 31.24959" />
    <path d="M -15.16389 30.08076 L -15.44333 30.1816" />
    <path d="M -11.08369 35.63778 L -11.36253 35.7384" />
    <path d="M -10.7005 36.47772 L -10.95132 36.56822" />
    <path d="M 47.30426 11.95236 L 47.09292 12.08608" />
    <path d="M -23.08156 -32.58769 L -23.08518 -32.5854" />
    <path d="M -1.47503 80.09019 L -1.47109 80.08877" />
    <path d="M -10.6494 39.05608 L -10.70258 39.07527" />
    <path d="M -2.03673 50.91225 L -2.08784 50.93069" />
    <path d="M -14.64616 33.23823 L -14.97958 33.35854" />
</svg>