<svg version="1.1" xmlns="http://www.w3.org/2000/svg" viewBox="-48.732245702985445 -54.63216783310339 97.46449140597088 135.79067958475878" fill="none" stroke="black" stroke-width="0.6%" vector-effect="non-scaling-stroke">
    <path d="M -23.64607 -31.2883 L -0.55915 28.24304 A 1 0.94274 237.67336 0 0 0.63411 28.87065 L 0.69065 28.85234 L 46.92214 12.16683 L 47.03072 12.11928 A 1 0.94274 237.67336 0 0 47.09615 12.08166" />
    <path d="M -23.43469 -31.42206 L -0.34777 28.10927 A 1 0.94274 237.67336 0 0 0.84549 28.73689 L 0.90203 28.71857 L 47.13352 12.03306 L 47.2421 11.98551 A 1 0.94274 237.67336 0 0 47.30753 11.9479 A 1 0.94274 237.67336 0 0 47.66185 10.78201 L 24.57493 -48.74932 A 1 0.94274 237.67336 0 0 23.38166 -49.37694 L 23.32513 -49.35863 L -22.90636 -32.67311 L -23.01495 -32.62556 A 1 0.94274 237.67336 0 0 -23.08037 -32.58795 A 1 0.94274 237.67336 0 0 -23.28648 -32.40775 L -22.86276 -32.56068" />
    <path d="M -23.66241 -31.98377 A 1 0.94274 237.67336 0 0 -23.64607 -31.2883 L -23.43469 -31.42206" />
    <path d="M -23.45103 -32.11753 A 1 0.94274 237.67336 0 0 -23.43469 -31.42206" />
    <path d="M -23.45103 -32.11753 L -23.66241 -31.98377" />
    <path d="M 0.63411 28.87065 L 0.84549 28.73689" />
    <path d="M -23.34367 -31.84069 L -23.45103 -32.11753" />
    <path d="M -23.34367 -31.84069 L -22.67687 -32.08134 L -22.82395 -32.46298 A 1 0.32649 70.15486 0 0 -22.86276 -32.56068" />
    <path d="M -46.21361 -35.41324 L -46.21361 18.70078 L -46.21 18.79509 A 1 0.32649 70.15486 0 0 -45.75584 20.03719 L -1.80925 79.86292 A 1 0.32649 70.15486 0 0 -1.46977 80.09032 A 1 0.32649 70.15486 0 0 -1.46592 80.08884 L -1.46592 25.90487" />
    <path d="M -23.34367 -31.84069 L -23.49075 -32.22232 A 1 0.32649 70.15486 0 0 -24.07434 -33.01679 L -24.22142 -33.0356" />
    <path d="M -24.11406 -33.02013 L -24.22142 -33.0356" />
    <path d="M -24.11406 -33.02013 L -23.90268 -32.31086" />
    <path d="M -45.4125 -34.88496 L -45.75168 -35.34668" />
    <path d="M -45.4125 20.26311 L -45.4125 -34.88496 A 1 0.6341 323.69987 0 0 -45.63302 -34.37841 L -45.63477 -34.33299 L -45.63477 19.87158 L -45.62776 19.95844 A 1 0.6341 323.69987 0 0 -45.55163 20.14272 L -45.89496 19.67533" />
    <path d="M -12.96846 36.85608 L -12.96846 36.80036 C -12.97 36.78 -12.98 36.76 -12.9793 36.74423 C -12.98 36.73 -12.99 36.71 -12.98927 36.68804 C -12.99 36.67 -13 36.65 -12.99839 36.63186 C -13 36.61 -13 36.59 -13.00669 36.5757 C -13.01 36.56 -13.01 36.54 -13.01421 36.51963 C -13.02 36.5 -13.02 36.48 -13.02097 36.46367 C -13.02 36.45 -13.03 36.43 -13.027 36.40784 C -13.03 36.39 -13.03 36.37 -13.03233 36.35218 C -13.03 36.33 -13.04 36.31 -13.03755 36.28958 C -13.04 36.27 -13.04 36.25 -13.04195 36.22724 C -13.04 36.21 -13.04 36.19 -13.04559 36.16517 C -13.05 36.14 -13.05 36.12 -13.04848 36.10339 C -13.05 36.08 -13.05 36.06 -13.05068 36.04191 C -13.05 36.02 -13.05 36 -13.05221 35.98075 C -13.05 35.96 -13.05 35.94 -13.05311 35.9199 C -13.05 35.9 -13.05 35.88 -13.0534 35.85937 L -13.0534 34.12508 C -13.05 34.11 -13.05 34.09 -13.05487 34.06639 C -13.06 34.05 -13.06 34.03 -13.05753 34.0065 C -13.06 33.99 -13.06 33.97 -13.06144 33.94544 C -13.06 33.92 -13.06 33.9 -13.06664 33.8832 C -13.07 33.86 -13.07 33.84 -13.07254 33.82552 C -13.07 33.81 -13.08 33.79 -13.07958 33.76691 C -13.08 33.75 -13.08 33.73 -13.08779 33.7074 C -13.09 33.69 -13.09 33.67 -13.0972 33.64703 C -13.1 33.63 -13.1 33.61 -13.10782 33.58585 C -13.11 33.57 -13.12 33.54 -13.11967 33.52391 C -13.12 33.5 -13.13 33.48 -13.13275 33.46128 C -13.14 33.44 -13.14 33.42 -13.14708 33.39803 C -13.15 33.38 -13.16 33.36 -13.16221 33.33595 C -13.17 33.32 -13.17 33.29 -13.1785 33.27343 C -13.18 33.25 -13.19 33.23 -13.19594 33.21055 C -13.2 33.19 -13.21 33.17 -13.21449 33.14739 C -13.22 33.13 -13.23 33.11 -13.23414 33.08404 C -13.24 33.06 -13.25 33.04 -13.25484 33.02057 C -13.26 33 -13.27 32.98 -13.27657 32.95707 C -13.28 32.94 -13.29 32.91 -13.29927 32.89362 C -13.31 32.88 -13.31 32.86 -13.31829 32.84249 C -13.32 32.83 -13.33 32.81 -13.33787 32.79163 C -13.34 32.77 -13.35 32.76 -13.35798 32.74109 C -13.36 32.72 -13.37 32.71 -13.37861 32.69091 C -13.39 32.67 -13.39 32.66 -13.39974 32.64111 C -13.41 32.62 -13.41 32.61 -13.42135 32.59173 C -13.43 32.58 -13.44 32.56 -13.44342 32.54281 C -13.45 32.53 -13.46 32.51 -13.46592 32.49437 C -13.47 32.48 -13.48 32.46 -13.4891 32.44589 C -13.5 32.43 -13.5 32.41 -13.51268 32.39796 C -13.52 32.38 -13.53 32.37 -13.53664 32.35059 C -13.54 32.33 -13.55 32.32 -13.56095 32.3038 C -13.57 32.29 -13.58 32.27 -13.58559 32.2576 C -13.59 32.24 -13.6 32.23 -13.61054 32.21202 C -13.62 32.2 -13.63 32.18 -13.63577 32.16705 C -13.64 32.15 -13.65 32.14 -13.66127 32.12271 C -13.67 32.1 -13.68 32.08 -13.69672 32.06281 C -13.71 32.04 -13.72 32.02 -13.73258 32.00409 C -13.74 31.98 -13.76 31.97 -13.76881 31.94657 C -13.78 31.93 -13.79 31.91 -13.80537 31.89024 C -13.82 31.87 -13.83 31.85 -13.84223 31.83507 C -13.85 31.82 -13.87 31.8 -13.87934 31.78107 C -13.89 31.76 -13.9 31.75 -13.91667 31.72819 C -13.93 31.71 -13.94 31.69 -13.9542 31.67643 C -13.98 31.65 -14 31.62 -14.01828 31.59151 C -14.04 31.56 -14.06 31.54 -14.08169 31.5122 C -14.09 31.5 -14.1 31.49 -14.11312 31.47474 C -14.12 31.46 -14.13 31.45 -14.14434 31.43878 C -14.15 31.43 -14.17 31.42 -14.17533 31.40437 C -14.19 31.39 -14.2 31.38 -14.20609 31.37153 C -14.22 31.36 -14.23 31.35 -14.23609 31.3408 C -14.25 31.33 -14.26 31.32 -14.26583 31.31164 C -14.28 31.3 -14.29 31.29 -14.2953 31.28407 C -14.31 31.28 -14.31 31.27 -14.32449 31.25813 C -14.33 31.25 -14.34 31.24 -14.35338 31.23382 C -14.36 31.23 -14.37 31.22 -14.38195 31.21117 C -14.39 31.2 -14.4 31.2 -14.41021 31.19018 C -14.42 31.18 -14.43 31.18 -14.43813 31.17088 C -14.46 31.16 -14.47 31.15 -14.49037 31.13869 C -14.5 31.13 -14.51 31.13 -14.51573 31.12507 C -14.52 31.12 -14.53 31.12 -14.54055 31.11315 C -14.55 31.11 -14.56 31.11 -14.5648 31.10298 C -14.57 31.1 -14.58 31.1 -14.58847 31.09458 C -14.6 31.09 -14.6 31.09 -14.61154 31.08799 C -14.62 31.09 -14.63 31.08 -14.63399 31.08324 C -14.64 31.08 -14.65 31.08 -14.66357 31.07976 C -14.67 31.08 -14.68 31.08 -14.6919 31.07982 C -14.7 31.08 -14.71 31.08 -14.71895 31.08344 C -14.73 31.09 -14.74 31.09 -14.74466 31.09067 C -14.75 31.09 -14.76 31.1 -14.76629 31.10009 C -14.77 31.1 -14.78 31.11 -14.78683 31.11235 C -14.79 31.12 -14.8 31.12 -14.79983 31.12201 C -14.8 31.13 -14.81 31.13 -14.81223 31.1328 C -14.82 31.14 -14.82 31.14 -14.82401 31.14474 C -14.83 31.15 -14.83 31.15 -14.83514 31.15785 C -14.84 31.16 -14.84 31.17 -14.84562 31.17215 C -14.85 31.18 -14.85 31.18 -14.85541 31.18765 C -14.86 31.19 -14.86 31.2 -14.86452 31.20437 C -14.87 31.21 -14.87 31.22 -14.87291 31.22231 C -14.88 31.23 -14.88 31.23 -14.88058 31.24148 C -14.88 31.25 -14.89 31.25 -14.88752 31.26188 C -14.89 31.27 -14.89 31.28 -14.8937 31.28353 C -14.9 31.29 -14.9 31.3 -14.89912 31.30642 C -14.9 31.31 -14.9 31.32 -14.90377 31.33055 C -14.91 31.34 -14.91 31.35 -14.90765 31.35591 C -14.91 31.36 -14.91 31.37 -14.91074 31.38249 C -14.91 31.39 -14.91 31.4 -14.91304 31.41028 C -14.91 31.42 -14.91 31.43 -14.91478 31.44548 C -14.92 31.46 -14.92 31.47 -14.91535 31.48239 L -14.4996 32.04837 C -14.5 32.04 -14.5 32.04 -14.49939 32.03024 C -14.5 32.02 -14.5 32.02 -14.49875 32.01283 C -14.5 32.01 -14.5 32 -14.4977 31.99616 C -14.5 31.99 -14.5 31.99 -14.49621 31.98025 C -14.5 31.98 -14.5 31.97 -14.49429 31.96509 C -14.49 31.96 -14.49 31.96 -14.49194 31.9507 C -14.49 31.95 -14.49 31.94 -14.48915 31.9371 C -14.49 31.93 -14.49 31.93 -14.48594 31.92429 C -14.48 31.92 -14.48 31.91 -14.48038 31.90678 C -14.48 31.9 -14.48 31.9 -14.47389 31.89103 C -14.47 31.89 -14.47 31.88 -14.46647 31.87706 C -14.46 31.87 -14.46 31.87 -14.45813 31.86486 C -14.46 31.86 -14.45 31.86 -14.4489 31.85442 C -14.45 31.85 -14.44 31.85 -14.43879 31.84574 C -14.44 31.84 -14.43 31.84 -14.42784 31.83879 C -14.42 31.84 -14.42 31.84 -14.41606 31.83355 C -14.41 31.83 -14.41 31.83 -14.40106 31.8295 C -14.4 31.83 -14.39 31.83 -14.38499 31.82775 C -14.38 31.83 -14.37 31.83 -14.3679 31.82823 C -14.36 31.83 -14.36 31.83 -14.34984 31.83086 C -14.34 31.83 -14.34 31.83 -14.33438 31.8346 C -14.33 31.84 -14.32 31.84 -14.31854 31.83975 C -14.31 31.84 -14.31 31.84 -14.30021 31.84727 C -14.29 31.85 -14.29 31.85 -14.28141 31.85659 C -14.28 31.86 -14.27 31.86 -14.26217 31.86769 C -14.26 31.87 -14.25 31.88 -14.24249 31.88056 C -14.24 31.89 -14.23 31.89 -14.22239 31.89517 C -14.22 31.9 -14.21 31.91 -14.2019 31.9115 C -14.2 31.92 -14.19 31.92 -14.18102 31.92953 C -14.17 31.94 -14.17 31.94 -14.15978 31.94922 C -14.15 31.96 -14.15 31.96 -14.13819 31.97053 C -14.13 31.98 -14.12 31.99 -14.11627 31.99344 C -14.11 32 -14.1 32.01 -14.09403 32.01789 C -14.09 32.03 -14.08 32.03 -14.0715 32.04385 C -14.06 32.05 -14.06 32.06 -14.04869 32.07127 C -14.04 32.08 -14.03 32.09 -14.02563 32.10011 C -14.01 32.12 -13.99 32.14 -13.97879 32.16186 C -13.97 32.18 -13.96 32.19 -13.94968 32.20217 C -13.94 32.22 -13.93 32.23 -13.92098 32.24333 C -13.91 32.26 -13.9 32.27 -13.89274 32.28535 C -13.88 32.3 -13.87 32.31 -13.86499 32.32822 C -13.86 32.34 -13.85 32.36 -13.83779 32.37196 C -13.83 32.39 -13.82 32.4 -13.8112 32.41653 C -13.8 32.43 -13.79 32.45 -13.78525 32.46194 C -13.78 32.48 -13.77 32.49 -13.76 32.50816 C -13.75 32.52 -13.74 32.54 -13.73665 32.55295 C -13.73 32.57 -13.72 32.58 -13.71403 32.59841 C -13.71 32.61 -13.7 32.63 -13.69221 32.6445 C -13.69 32.66 -13.68 32.68 -13.67123 32.69116 C -13.66 32.71 -13.66 32.72 -13.65114 32.73836 C -13.64 32.75 -13.64 32.77 -13.63197 32.78601 C -13.63 32.8 -13.62 32.82 -13.61376 32.83406 C -13.61 32.85 -13.6 32.87 -13.59656 32.88244 C -13.59 32.9 -13.59 32.91 -13.58261 32.924 C -13.58 32.94 -13.57 32.95 -13.56942 32.96544 C -13.57 32.98 -13.56 32.99 -13.55701 33.00672 C -13.55 33.02 -13.55 33.03 -13.54539 33.04779 C -13.54 33.06 -13.54 33.07 -13.53562 33.08451 C -13.53 33.1 -13.53 33.11 -13.52651 33.12101 C -13.52 33.13 -13.52 33.15 -13.51806 33.15726 C -13.52 33.17 -13.51 33.18 -13.51027 33.19324 C -13.51 33.21 -13.51 33.22 -13.50315 33.22893 C -13.5 33.24 -13.5 33.25 -13.49668 33.26429 C -13.49 33.28 -13.49 33.29 -13.49088 33.29932 C -13.49 33.31 -13.49 33.32 -13.48572 33.334 C -13.48 33.35 -13.48 33.36 -13.48122 33.3683 C -13.48 33.38 -13.48 33.39 -13.47735 33.40222 C -13.48 33.41 -13.48 33.42 -13.4741 33.43573 C -13.47 33.45 -13.47 33.46 -13.47148 33.46884 C -13.47 33.48 -13.47 33.49 -13.46946 33.50153 C -13.47 33.51 -13.47 33.52 -13.46804 33.53378 C -13.47 33.54 -13.47 33.56 -13.46719 33.5656 C -13.47 33.58 -13.47 33.59 -13.46692 33.59697 L -13.46692 33.89298 L -13.86926 33.34526 C -13.88 33.33 -13.89 33.32 -13.89941 33.3045 C -13.91 33.29 -13.92 33.28 -13.92949 33.26439 C -13.94 33.25 -13.95 33.24 -13.95949 33.22498 C -13.97 33.21 -13.98 33.2 -13.98941 33.18628 C -14 33.17 -14.01 33.16 -14.01923 33.14833 C -14.03 33.14 -14.04 33.12 -14.04895 33.11116 C -14.06 33.1 -14.07 33.09 -14.07857 33.07481 C -14.09 33.06 -14.1 33.05 -14.10806 33.03932 C -14.12 33.03 -14.13 33.02 -14.13742 33.00471 C -14.15 32.99 -14.16 32.98 -14.16663 32.97104 C -14.18 32.96 -14.19 32.95 -14.19569 32.93834 C -14.21 32.93 -14.21 32.92 -14.22458 32.90666 C -14.23 32.9 -14.24 32.89 -14.25328 32.87604 C -14.26 32.87 -14.27 32.86 -14.28179 32.84652 C -14.29 32.84 -14.3 32.83 -14.31007 32.81817 C -14.32 32.81 -14.33 32.8 -14.33812 32.79101 C -14.35 32.78 -14.37 32.76 -14.38544 32.74757 C -14.4 32.73 -14.42 32.72 -14.43191 32.70808 C -14.45 32.7 -14.46 32.68 -14.47742 32.67279 C -14.49 32.66 -14.51 32.65 -14.52185 32.642 C -14.54 32.63 -14.55 32.62 -14.56262 32.61733 C -14.58 32.61 -14.59 32.6 -14.60219 32.59711 C -14.61 32.59 -14.62 32.59 -14.6215 32.58875 C -14.63 32.59 -14.63 32.58 -14.64046 32.58157 C -14.65 32.58 -14.65 32.58 -14.65907 32.5756 C -14.67 32.57 -14.67 32.57 -14.6773 32.57087 C -14.68 32.57 -14.69 32.57 -14.69641 32.56719 C -14.7 32.57 -14.71 32.57 -14.71501 32.565 C -14.72 32.56 -14.73 32.56 -14.73309 32.56434 C -14.74 32.56 -14.74 32.56 -14.75061 32.56523 C -14.76 32.57 -14.76 32.57 -14.77136 32.56851 C -14.78 32.57 -14.78 32.57 -14.79119 32.57425 C -14.79 32.58 -14.8 32.58 -14.80223 32.57872 C -14.81 32.58 -14.81 32.58 -14.81295 32.58403 C -14.82 32.59 -14.82 32.59 -14.82332 32.59019 C -14.83 32.59 -14.83 32.59 -14.83335 32.59721 C -14.84 32.6 -14.84 32.6 -14.84303 32.60508 C -14.85 32.61 -14.85 32.61 -14.85235 32.61381 C -14.86 32.62 -14.86 32.62 -14.86131 32.62339 C -14.86 32.63 -14.87 32.63 -14.86989 32.63383 C -14.87 32.64 -14.88 32.64 -14.87764 32.64444 C -14.88 32.65 -14.88 32.65 -14.88506 32.65581 C -14.89 32.66 -14.89 32.67 -14.89889 32.68076 C -14.9 32.69 -14.91 32.7 -14.91135 32.70862 C -14.92 32.72 -14.92 32.73 -14.92246 32.73932 C -14.93 32.75 -14.93 32.76 -14.93221 32.77276 C -14.94 32.78 -14.94 32.8 -14.94062 32.80883 C -14.94 32.82 -14.95 32.83 -14.9477 32.84743 C -14.95 32.86 -14.95 32.87 -14.95349 32.88843 C -14.96 32.9 -14.96 32.92 -14.95841 32.93612 C -14.96 32.95 -14.96 32.97 -14.96185 32.98639 C -14.96 33 -14.96 33.02 -14.96387 33.03908 C -14.96 33.06 -14.96 33.08 -14.96453 33.09402 C -14.96 33.11 -14.96 33.12 -14.96413 33.13465 C -14.96 33.15 -14.96 33.16 -14.96292 33.17615 C -14.96 33.19 -14.96 33.2 -14.96088 33.21851 C -14.96 33.23 -14.96 33.25 -14.95798 33.26172 C -14.96 33.28 -14.96 33.29 -14.95417 33.30636 C -14.95 33.32 -14.95 33.34 -14.94944 33.35185 C -14.95 33.37 -14.95 33.38 -14.9438 33.39814 C -14.94 33.41 -14.94 33.43 -14.93723 33.44521 C -14.93 33.46 -14.93 33.48 -14.92973 33.49303 C -14.93 33.51 -14.92 33.53 -14.92129 33.54156 C -14.92 33.56 -14.92 33.57 -14.91192 33.59076 C -14.91 33.61 -14.91 33.62 -14.90162 33.64059 C -14.9 33.66 -14.89 33.69 -14.88645 33.7079 C -14.88 33.73 -14.88 33.75 -14.86968 33.77612 C -14.86 33.8 -14.86 33.82 -14.85134 33.84512 C -14.84 33.87 -14.84 33.89 -14.83149 33.91477 C -14.82 33.94 -14.82 33.96 -14.80959 33.98685 C -14.8 34.01 -14.79 34.04 -14.78623 34.05935 C -14.78 34.08 -14.77 34.11 -14.76148 34.13216 C -14.75 34.16 -14.74 34.18 -14.73541 34.20515 C -14.73 34.23 -14.72 34.25 -14.71226 34.26729 C -14.7 34.29 -14.7 34.31 -14.6884 34.32892 C -14.68 34.35 -14.67 34.37 -14.66385 34.38997 C -14.66 34.41 -14.65 34.43 -14.63863 34.45037 C -14.63 34.47 -14.63 34.48 -14.61935 34.49506 C -14.61 34.51 -14.61 34.52 -14.59973 34.53933 C -14.59 34.55 -14.59 34.57 -14.57977 34.58316 C -14.57 34.6 -14.57 34.61 -14.55948 34.62652 C -14.55 34.64 -14.55 34.66 -14.53888 34.6694 C -14.53 34.68 -14.52 34.7 -14.51798 34.71178 C -14.51 34.73 -14.5 34.74 -14.4968 34.75363 C -14.49 34.77 -14.48 34.78 -14.47534 34.79494 C -14.46 34.82 -14.45 34.84 -14.43655 34.86704 C -14.42 34.89 -14.41 34.91 -14.39703 34.93733 C -14.38 34.96 -14.37 34.98 -14.35685 35.00574 C -14.34 35.03 -14.33 35.05 -14.3161 35.07225 C -14.3 35.09 -14.29 35.12 -14.27484 35.13684 C -14.26 35.16 -14.25 35.18 -14.23313 35.19949 C -14.22 35.22 -14.21 35.24 -14.19106 35.26024 C -14.18 35.28 -14.16 35.3 -14.14866 35.31908 C -14.13 35.34 -14.12 35.36 -14.10631 35.37541 C -14.09 35.39 -14.08 35.41 -14.06417 35.42874 C -14.05 35.45 -14.04 35.46 -14.02231 35.47891 C -14.01 35.5 -13.99 35.51 -13.9808 35.52576 C -13.97 35.54 -13.95 35.56 -13.9397 35.56917 C -13.93 35.58 -13.91 35.6 -13.89909 35.60899 C -13.89 35.62 -13.87 35.63 -13.85904 35.64513 C -13.85 35.65 -13.85 35.66 -13.83924 35.66179 C -13.83 35.67 -13.83 35.67 -13.81961 35.6775 C -13.81 35.69 -13.8 35.69 -13.78636 35.7022 C -13.78 35.71 -13.76 35.72 -13.75366 35.72406 C -13.74 35.73 -13.73 35.74 -13.72155 35.74307 C -13.71 35.75 -13.7 35.75 -13.69005 35.75922 C -13.68 35.76 -13.67 35.77 -13.6592 35.77255 C -13.65 35.78 -13.64 35.78 -13.62901 35.78307 C -13.62 35.79 -13.61 35.79 -13.59951 35.79083 C -13.59 35.79 -13.58 35.79 -13.57072 35.79588 C -13.56 35.8 -13.55 35.8 -13.54195 35.79831 C -13.53 35.8 -13.52 35.8 -13.51394 35.79802 C -13.5 35.8 -13.5 35.8 -13.48669 35.7951 C -13.48 35.79 -13.47 35.79 -13.46021 35.78963 C -13.46 35.8 -13.46 35.81 -13.45763 35.82498 C -13.46 35.84 -13.46 35.85 -13.45493 35.85977 C -13.45 35.87 -13.45 35.88 -13.4521 35.89397 C -13.45 35.91 -13.45 35.92 -13.44915 35.92755 C -13.45 35.94 -13.45 35.95 -13.44605 35.96047 C -13.45 35.97 -13.44 35.98 -13.44282 35.99269 C -13.44 36 -13.44 36.01 -13.43945 36.02416 C -13.44 36.03 -13.44 36.04 -13.43593 36.05484 C -13.43 36.06 -13.43 36.07 -13.43226 36.08468 C -13.43 36.09 -13.43 36.1 -13.42843 36.11363 C -13.43 36.13 -13.42 36.15 -13.42031 36.16866 C -13.42 36.19 -13.41 36.2 -13.41154 36.21952 C -13.41 36.24 -13.41 36.25 -13.40209 36.26575 L -12.96846 36.85608 Z" />
    <path d="M -9.91065 38.29543 C -9.91 38.29 -9.91 38.28 -9.91044 38.2773 C -9.91 38.27 -9.91 38.27 -9.90981 38.2599 C -9.91 38.25 -9.91 38.25 -9.90875 38.24323 C -9.91 38.24 -9.91 38.23 -9.90726 38.22731 C -9.91 38.22 -9.91 38.22 -9.90534 38.21215 C -9.9 38.21 -9.9 38.2 -9.90299 38.19777 C -9.9 38.19 -9.9 38.19 -9.90021 38.18416 C -9.9 38.18 -9.9 38.18 -9.89699 38.17135 C -9.9 38.17 -9.89 38.16 -9.89144 38.15384 C -9.89 38.15 -9.89 38.14 -9.88494 38.13809 C -9.88 38.13 -9.88 38.13 -9.87752 38.12412 C -9.87 38.12 -9.87 38.12 -9.86918 38.11192 C -9.87 38.11 -9.86 38.1 -9.85995 38.10148 C -9.86 38.1 -9.85 38.1 -9.84985 38.0928 C -9.85 38.09 -9.84 38.09 -9.83889 38.08585 C -9.84 38.08 -9.83 38.08 -9.82711 38.08061 C -9.82 38.08 -9.82 38.08 -9.81211 38.07657 C -9.81 38.08 -9.8 38.08 -9.79604 38.07482 C -9.79 38.07 -9.78 38.07 -9.77895 38.07529 C -9.77 38.08 -9.77 38.08 -9.76089 38.07792 C -9.76 38.08 -9.75 38.08 -9.74543 38.08166 C -9.74 38.08 -9.73 38.08 -9.7296 38.08682 C -9.72 38.09 -9.72 38.09 -9.71126 38.09434 C -9.71 38.1 -9.7 38.1 -9.69246 38.10365 C -9.69 38.11 -9.68 38.11 -9.67322 38.11475 C -9.67 38.12 -9.66 38.12 -9.65354 38.12762 C -9.65 38.13 -9.64 38.14 -9.63345 38.14223 C -9.63 38.15 -9.62 38.15 -9.61295 38.15856 C -9.61 38.16 -9.6 38.17 -9.59208 38.17659 C -9.59 38.18 -9.58 38.19 -9.57083 38.19628 C -9.56 38.2 -9.56 38.21 -9.54924 38.21759 C -9.54 38.22 -9.53 38.23 -9.52732 38.2405 C -9.52 38.25 -9.51 38.26 -9.50509 38.26495 C -9.5 38.27 -9.49 38.28 -9.48255 38.29091 C -9.47 38.3 -9.47 38.31 -9.45975 38.31833 C -9.45 38.33 -9.44 38.34 -9.43668 38.34717 C -9.42 38.37 -9.41 38.39 -9.38984 38.40892 C -9.38 38.42 -9.37 38.44 -9.36073 38.44923 C -9.35 38.46 -9.34 38.48 -9.33203 38.49039 C -9.32 38.5 -9.31 38.52 -9.30379 38.53241 C -9.29 38.55 -9.29 38.56 -9.27605 38.57529 C -9.27 38.59 -9.26 38.6 -9.24885 38.61902 C -9.24 38.63 -9.23 38.65 -9.22225 38.6636 C -9.21 38.68 -9.2 38.69 -9.1963 38.70901 C -9.19 38.72 -9.18 38.74 -9.17106 38.75522 C -9.16 38.77 -9.16 38.78 -9.1477 38.80001 C -9.14 38.82 -9.13 38.83 -9.12509 38.84547 C -9.12 38.86 -9.11 38.88 -9.10327 38.89156 C -9.1 38.91 -9.09 38.92 -9.08229 38.93823 C -9.08 38.95 -9.07 38.97 -9.06219 38.98542 C -9.06 39 -9.05 39.02 -9.04302 39.03307 C -9.04 39.05 -9.03 39.07 -9.02482 39.08112 C -9.02 39.1 -9.01 39.11 -9.00761 39.1295 C -9 39.14 -9 39.16 -8.99367 39.17107 C -8.99 39.18 -8.98 39.2 -8.98048 39.2125 C -8.98 39.23 -8.97 39.24 -8.96806 39.25378 C -8.96 39.27 -8.96 39.28 -8.95644 39.29485 C -8.95 39.31 -8.95 39.32 -8.94668 39.33157 C -8.94 39.34 -8.94 39.36 -8.93757 39.36807 C -8.93 39.38 -8.93 39.39 -8.92912 39.40432 C -8.93 39.42 -8.92 39.43 -8.92133 39.4403 C -8.92 39.45 -8.92 39.46 -8.9142 39.47599 C -8.91 39.49 -8.91 39.5 -8.90774 39.51136 C -8.91 39.52 -8.9 39.53 -8.90193 39.54639 C -8.9 39.56 -8.9 39.57 -8.89678 39.58106 C -8.9 39.59 -8.89 39.6 -8.89227 39.61536 C -8.89 39.63 -8.89 39.64 -8.8884 39.64928 C -8.89 39.66 -8.89 39.67 -8.88516 39.6828 C -8.88 39.69 -8.88 39.7 -8.88253 39.7159 C -8.88 39.73 -8.88 39.74 -8.88052 39.74859 C -8.88 39.76 -8.88 39.77 -8.87909 39.78084 C -8.88 39.79 -8.88 39.8 -8.87825 39.81266 C -8.88 39.82 -8.88 39.83 -8.87797 39.84403 L -8.87797 40.14005 L -9.28031 39.59233 C -9.29 39.58 -9.3 39.57 -9.31046 39.55156 C -9.32 39.54 -9.33 39.52 -9.34054 39.51145 C -9.35 39.5 -9.36 39.49 -9.37054 39.47204 C -9.38 39.46 -9.39 39.45 -9.40046 39.43334 C -9.41 39.42 -9.42 39.41 -9.43028 39.39539 C -9.44 39.38 -9.45 39.37 -9.46001 39.35823 C -9.47 39.35 -9.48 39.33 -9.48962 39.32188 C -9.5 39.31 -9.51 39.3 -9.51911 39.28638 C -9.53 39.27 -9.54 39.26 -9.54847 39.25178 C -9.56 39.24 -9.57 39.23 -9.57769 39.2181 C -9.59 39.21 -9.6 39.2 -9.60675 39.1854 C -9.62 39.17 -9.63 39.16 -9.63564 39.15372 C -9.65 39.14 -9.65 39.13 -9.66434 39.1231 C -9.67 39.11 -9.68 39.1 -9.69284 39.09359 C -9.7 39.08 -9.71 39.07 -9.72113 39.06523 C -9.73 39.06 -9.74 39.05 -9.74918 39.03808 C -9.77 39.02 -9.78 39.01 -9.79649 38.99464 C -9.81 38.98 -9.83 38.97 -9.84296 38.95514 C -9.86 38.94 -9.87 38.93 -9.88847 38.91985 C -9.9 38.91 -9.92 38.9 -9.9329 38.88906 C -9.95 38.88 -9.96 38.87 -9.97367 38.86439 C -9.99 38.86 -10 38.85 -10.01325 38.84418 C -10.02 38.84 -10.03 38.84 -10.03255 38.83581 C -10.04 38.83 -10.05 38.83 -10.05152 38.82863 C -10.06 38.83 -10.06 38.82 -10.07012 38.82266 C -10.08 38.82 -10.08 38.82 -10.08835 38.81793 C -10.09 38.82 -10.1 38.82 -10.10746 38.81426 C -10.11 38.81 -10.12 38.81 -10.12607 38.81207 C -10.13 38.81 -10.14 38.81 -10.14414 38.8114 C -10.15 38.81 -10.16 38.81 -10.16166 38.81229 C -10.17 38.81 -10.18 38.81 -10.18241 38.81557 C -10.19 38.82 -10.2 38.82 -10.20224 38.82131 C -10.21 38.82 -10.21 38.82 -10.21329 38.82578 C -10.22 38.83 -10.22 38.83 -10.224 38.83109 C -10.23 38.83 -10.23 38.84 -10.23438 38.83725 C -10.24 38.84 -10.24 38.84 -10.24441 38.84427 C -10.25 38.85 -10.25 38.85 -10.25409 38.85214 C -10.26 38.85 -10.26 38.86 -10.2634 38.86087 C -10.27 38.86 -10.27 38.87 -10.27236 38.87045 C -10.28 38.87 -10.28 38.88 -10.28095 38.88089 C -10.28 38.88 -10.29 38.89 -10.2887 38.89151 C -10.29 38.9 -10.29 38.9 -10.29612 38.90287 C -10.3 38.91 -10.31 38.92 -10.30994 38.92782 C -10.31 38.94 -10.32 38.95 -10.32241 38.95569 C -10.33 38.97 -10.33 38.98 -10.33351 38.98638 C -10.34 39 -10.34 39.01 -10.34326 39.01982 C -10.35 39.03 -10.35 39.04 -10.35167 39.0559 C -10.35 39.07 -10.36 39.08 -10.35876 39.09449 C -10.36 39.11 -10.36 39.12 -10.36455 39.13549 C -10.37 39.15 -10.37 39.17 -10.36946 39.18318 C -10.37 39.2 -10.37 39.22 -10.3729 39.23346 C -10.37 39.25 -10.37 39.27 -10.37492 39.28614 C -10.38 39.3 -10.38 39.32 -10.37558 39.34108 C -10.38 39.35 -10.38 39.37 -10.37518 39.38171 C -10.37 39.4 -10.37 39.41 -10.37397 39.42321 C -10.37 39.44 -10.37 39.45 -10.37193 39.46557 C -10.37 39.48 -10.37 39.49 -10.36904 39.50878 C -10.37 39.52 -10.37 39.54 -10.36522 39.55343 C -10.36 39.57 -10.36 39.58 -10.3605 39.59891 C -10.36 39.61 -10.36 39.63 -10.35486 39.6452 C -10.35 39.66 -10.35 39.68 -10.34829 39.69227 C -10.35 39.71 -10.34 39.72 -10.34078 39.7401 C -10.34 39.76 -10.34 39.77 -10.33235 39.78863 C -10.33 39.8 -10.33 39.82 -10.32297 39.83783 C -10.32 39.85 -10.32 39.87 -10.31267 39.88765 C -10.31 39.91 -10.3 39.93 -10.29751 39.95496 C -10.29 39.98 -10.29 40 -10.28073 40.02318 C -10.27 40.05 -10.27 40.07 -10.2624 40.09218 C -10.26 40.12 -10.25 40.14 -10.24255 40.16183 C -10.24 40.19 -10.23 40.21 -10.22065 40.23391 C -10.21 40.26 -10.21 40.28 -10.19728 40.30641 C -10.19 40.33 -10.18 40.35 -10.17253 40.37922 C -10.16 40.4 -10.16 40.43 -10.14647 40.45221 C -10.14 40.47 -10.13 40.49 -10.12332 40.51435 C -10.12 40.53 -10.11 40.56 -10.09946 40.57598 C -10.09 40.6 -10.08 40.62 -10.07491 40.63703 C -10.07 40.66 -10.06 40.68 -10.04968 40.69743 C -10.04 40.71 -10.04 40.73 -10.03041 40.74212 C -10.02 40.76 -10.02 40.77 -10.01078 40.78639 C -10 40.8 -10 40.82 -9.99082 40.83022 C -9.98 40.84 -9.98 40.86 -9.97054 40.87359 C -9.96 40.89 -9.96 40.9 -9.94994 40.91646 C -9.94 40.93 -9.94 40.94 -9.92904 40.95884 C -9.92 40.97 -9.91 40.99 -9.90785 41.00069 C -9.9 41.01 -9.89 41.03 -9.8864 41.042 C -9.87 41.07 -9.86 41.09 -9.84761 41.11411 C -9.83 41.14 -9.82 41.16 -9.80809 41.18439 C -9.79 41.21 -9.78 41.23 -9.76791 41.2528 C -9.75 41.28 -9.74 41.3 -9.72715 41.31931 C -9.71 41.34 -9.7 41.36 -9.68589 41.3839 C -9.67 41.41 -9.66 41.43 -9.64419 41.44656 C -9.63 41.47 -9.62 41.49 -9.60211 41.5073 C -9.59 41.53 -9.57 41.55 -9.55972 41.56614 C -9.55 41.59 -9.53 41.6 -9.51737 41.62247 C -9.5 41.64 -9.49 41.66 -9.47523 41.6758 C -9.46 41.69 -9.45 41.71 -9.43337 41.72597 C -9.42 41.74 -9.41 41.76 -9.39185 41.77282 C -9.38 41.79 -9.36 41.8 -9.35076 41.81623 C -9.34 41.83 -9.32 41.84 -9.31015 41.85605 C -9.3 41.87 -9.28 41.88 -9.27009 41.89219 C -9.26 41.9 -9.26 41.9 -9.2503 41.90886 C -9.24 41.91 -9.24 41.92 -9.23067 41.92456 C -9.22 41.93 -9.21 41.94 -9.19742 41.94926 C -9.19 41.96 -9.18 41.96 -9.16472 41.97112 C -9.15 41.98 -9.14 41.98 -9.1326 41.99013 C -9.12 42 -9.11 42 -9.1011 42.00628 C -9.09 42.01 -9.08 42.02 -9.07025 42.01961 C -9.06 42.02 -9.05 42.03 -9.04006 42.03013 C -9.03 42.03 -9.02 42.04 -9.01057 42.03789 C -9 42.04 -8.99 42.04 -8.98178 42.04294 C -8.97 42.04 -8.96 42.05 -8.95301 42.04537 C -8.94 42.05 -8.93 42.05 -8.925 42.04508 C -8.92 42.04 -8.91 42.04 -8.89775 42.04216 C -8.89 42.04 -8.88 42.04 -8.87127 42.0367 C -8.87 42.05 -8.87 42.06 -8.86869 42.07204 C -8.87 42.08 -8.87 42.1 -8.86599 42.10683 C -8.87 42.12 -8.86 42.13 -8.86316 42.14103 C -8.86 42.15 -8.86 42.16 -8.8602 42.17461 C -8.86 42.19 -8.86 42.2 -8.85711 42.20753 C -8.86 42.22 -8.85 42.23 -8.85388 42.23975 C -8.85 42.25 -8.85 42.26 -8.8505 42.27122 C -8.85 42.28 -8.85 42.29 -8.84698 42.3019 C -8.85 42.31 -8.84 42.32 -8.84331 42.33174 C -8.84 42.34 -8.84 42.35 -8.83949 42.36069 C -8.84 42.38 -8.83 42.4 -8.83137 42.41573 C -8.83 42.43 -8.83 42.45 -8.82259 42.46658 C -8.82 42.48 -8.82 42.5 -8.81315 42.51282 L -8.37951 43.10314 L -8.37951 43.04742 C -8.38 43.03 -8.39 43.01 -8.39035 42.99129 C -8.39 42.97 -8.4 42.95 -8.40032 42.93511 C -8.4 42.92 -8.41 42.9 -8.40944 42.87892 C -8.41 42.86 -8.42 42.84 -8.41775 42.82277 C -8.42 42.8 -8.42 42.79 -8.42526 42.76669 C -8.43 42.75 -8.43 42.73 -8.43202 42.71073 C -8.43 42.69 -8.44 42.67 -8.43805 42.65491 C -8.44 42.64 -8.44 42.62 -8.44339 42.59924 C -8.45 42.58 -8.45 42.56 -8.4486 42.53664 C -8.45 42.52 -8.45 42.5 -8.45301 42.4743 C -8.45 42.45 -8.46 42.43 -8.45664 42.41223 C -8.46 42.39 -8.46 42.37 -8.45954 42.35045 C -8.46 42.33 -8.46 42.31 -8.46173 42.28898 C -8.46 42.27 -8.46 42.25 -8.46326 42.22781 C -8.46 42.21 -8.46 42.19 -8.46416 42.16696 C -8.46 42.15 -8.46 42.13 -8.46445 42.10643 L -8.46445 40.37214 C -8.46 40.35 -8.47 40.32 -8.46642 40.29998 C -8.47 40.28 -8.47 40.25 -8.4702 40.22603 C -8.47 40.21 -8.47 40.2 -8.4728 40.18839 C -8.47 40.18 -8.47 40.16 -8.47589 40.1503 C -8.48 40.14 -8.48 40.12 -8.47948 40.11179 C -8.48 40.1 -8.48 40.09 -8.48357 40.07284 C -8.49 40.05 -8.49 40.03 -8.49207 40.00299 C -8.5 39.98 -8.5 39.96 -8.50224 39.93188 C -8.51 39.91 -8.51 39.88 -8.51411 39.85957 C -8.52 39.85 -8.52 39.84 -8.52069 39.823 C -8.52 39.81 -8.53 39.8 -8.52771 39.78616 C -8.53 39.76 -8.54 39.74 -8.54262 39.71383 C -8.55 39.69 -8.55 39.67 -8.55918 39.64065 C -8.56 39.62 -8.57 39.59 -8.5774 39.56675 C -8.58 39.54 -8.59 39.52 -8.59726 39.49226 C -8.61 39.46 -8.61 39.43 -8.62245 39.40475 C -8.63 39.38 -8.64 39.35 -8.64976 39.31684 C -8.66 39.29 -8.67 39.26 -8.67909 39.22874 C -8.69 39.2 -8.7 39.17 -8.71033 39.14068 C -8.72 39.12 -8.72 39.11 -8.72935 39.08955 C -8.74 39.07 -8.74 39.06 -8.74892 39.03869 C -8.76 39.02 -8.76 39 -8.76903 38.98815 C -8.78 38.97 -8.78 38.95 -8.78966 38.93797 C -8.8 38.92 -8.8 38.9 -8.8108 38.88817 C -8.82 38.87 -8.83 38.86 -8.8324 38.8388 C -8.84 38.82 -8.85 38.81 -8.85447 38.78987 C -8.86 38.77 -8.87 38.76 -8.87697 38.74144 C -8.88 38.73 -8.89 38.71 -8.90016 38.69296 C -8.91 38.68 -8.92 38.66 -8.92374 38.64502 C -8.93 38.63 -8.94 38.61 -8.9477 38.59765 C -8.96 38.58 -8.96 38.57 -8.97201 38.55086 C -8.98 38.54 -8.99 38.52 -8.99665 38.50467 C -9 38.49 -9.01 38.47 -9.02159 38.45908 C -9.03 38.44 -9.04 38.43 -9.04683 38.41412 C -9.06 38.4 -9.06 38.38 -9.07233 38.36978 C -9.08 38.35 -9.1 38.33 -9.10777 38.30987 C -9.12 38.29 -9.13 38.27 -9.14363 38.25116 C -9.16 38.23 -9.17 38.21 -9.17987 38.19363 C -9.19 38.17 -9.2 38.16 -9.21643 38.1373 C -9.23 38.12 -9.24 38.1 -9.25328 38.08213 C -9.27 38.06 -9.28 38.05 -9.29039 38.02813 C -9.3 38.01 -9.32 37.99 -9.32772 37.97526 C -9.34 37.96 -9.35 37.94 -9.36525 37.9235 C -9.39 37.89 -9.41 37.87 -9.42933 37.83857 C -9.45 37.81 -9.47 37.78 -9.49275 37.75926 C -9.5 37.75 -9.51 37.73 -9.52417 37.7218 C -9.53 37.71 -9.55 37.7 -9.55539 37.68584 C -9.57 37.67 -9.58 37.66 -9.58639 37.65143 C -9.6 37.64 -9.61 37.63 -9.61715 37.61859 C -9.63 37.61 -9.64 37.6 -9.64714 37.58786 C -9.66 37.58 -9.67 37.57 -9.67688 37.5587 C -9.69 37.55 -9.7 37.54 -9.70635 37.53114 C -9.72 37.52 -9.73 37.51 -9.73554 37.50519 C -9.75 37.5 -9.75 37.49 -9.76443 37.48088 C -9.77 37.47 -9.78 37.47 -9.79301 37.45823 C -9.8 37.45 -9.81 37.44 -9.82126 37.43725 C -9.83 37.43 -9.84 37.42 -9.84918 37.41794 C -9.87 37.41 -9.88 37.4 -9.90143 37.38575 C -9.91 37.38 -9.92 37.38 -9.92678 37.37213 C -9.94 37.37 -9.94 37.36 -9.9516 37.36022 C -9.96 37.36 -9.97 37.35 -9.97586 37.35004 C -9.98 37.35 -9.99 37.34 -9.99953 37.34164 C -10.01 37.34 -10.02 37.34 -10.0226 37.33505 C -10.03 37.33 -10.04 37.33 -10.04505 37.3303 C -10.06 37.33 -10.06 37.33 -10.07462 37.32682 C -10.08 37.33 -10.09 37.33 -10.10296 37.32688 C -10.11 37.33 -10.12 37.33 -10.13 37.3305 C -10.14 37.33 -10.15 37.33 -10.15572 37.33773 C -10.16 37.34 -10.17 37.34 -10.17734 37.34715 C -10.18 37.35 -10.19 37.35 -10.19788 37.35941 C -10.2 37.36 -10.21 37.37 -10.21088 37.36907 C -10.22 37.37 -10.22 37.38 -10.22328 37.37986 C -10.23 37.38 -10.23 37.39 -10.23506 37.3918 C -10.24 37.4 -10.24 37.4 -10.24619 37.40492 C -10.25 37.41 -10.25 37.41 -10.25667 37.41922 C -10.26 37.42 -10.26 37.43 -10.26647 37.43472 C -10.27 37.44 -10.27 37.45 -10.27557 37.45143 C -10.28 37.46 -10.28 37.46 -10.28397 37.46937 C -10.29 37.48 -10.29 37.48 -10.29164 37.48854 C -10.29 37.5 -10.3 37.5 -10.29857 37.50895 C -10.3 37.52 -10.3 37.52 -10.30475 37.5306 C -10.31 37.54 -10.31 37.55 -10.31018 37.55349 C -10.31 37.56 -10.31 37.57 -10.31483 37.57761 C -10.32 37.59 -10.32 37.59 -10.3187 37.60297 C -10.32 37.61 -10.32 37.62 -10.32179 37.62955 C -10.32 37.64 -10.32 37.65 -10.3241 37.65734 C -10.32 37.67 -10.33 37.68 -10.32583 37.69254 C -10.33 37.7 -10.33 37.72 -10.32641 37.72945 L -9.91065 38.29543 Z" />
    <path d="M -11.64743 37.71067 L -12.25095 34.06477 L -12.70246 33.45011 L -11.83966 38.35095 L -11.93131 38.60927 C -11.93 38.62 -11.94 38.63 -11.94045 38.63771 C -11.94 38.65 -11.95 38.66 -11.95004 38.66461 C -11.95 38.67 -11.96 38.68 -11.96008 38.68989 C -11.96 38.7 -11.97 38.71 -11.97059 38.71345 C -11.97 38.72 -11.98 38.73 -11.98159 38.73521 C -11.99 38.74 -11.99 38.75 -11.99309 38.75506 C -12 38.76 -12 38.77 -12.0051 38.77289 C -12.01 38.78 -12.01 38.78 -12.01764 38.78862 C -12.02 38.79 -12.03 38.8 -12.03015 38.80158 C -12.03 38.81 -12.04 38.81 -12.04315 38.81243 C -12.05 38.82 -12.05 38.82 -12.05667 38.82106 C -12.06 38.82 -12.07 38.83 -12.07069 38.8274 C -12.07 38.83 -12.08 38.83 -12.08358 38.83103 C -12.09 38.83 -12.09 38.83 -12.09687 38.83272 C -12.1 38.83 -12.11 38.83 -12.11056 38.83244 C -12.12 38.83 -12.12 38.83 -12.12466 38.83012 C -12.13 38.83 -12.13 38.83 -12.14005 38.82556 C -12.15 38.82 -12.15 38.82 -12.15614 38.81891 C -12.16 38.82 -12.17 38.81 -12.17289 38.8102 C -12.18 38.81 -12.18 38.8 -12.1903 38.79948 C -12.2 38.8 -12.2 38.79 -12.20832 38.7868 C -12.21 38.78 -12.22 38.78 -12.22694 38.77219 C -12.23 38.77 -12.24 38.76 -12.24612 38.75571 C -12.25 38.75 -12.26 38.74 -12.26585 38.73743 C -12.28 38.72 -12.29 38.71 -12.30953 38.69273 C -12.32 38.68 -12.34 38.66 -12.35528 38.64065 C -12.36 38.63 -12.37 38.62 -12.37887 38.61203 C -12.39 38.6 -12.39 38.59 -12.40289 38.58178 C -12.41 38.57 -12.42 38.56 -12.42731 38.54997 C -12.44 38.54 -12.44 38.53 -12.45212 38.51667 L -12.56388 38.3506 L -12.56388 38.87298 L -12.40965 39.12821 L -12.33142 39.24516 C -12.32 39.26 -12.32 39.27 -12.30782 39.27673 C -12.3 39.29 -12.29 39.3 -12.28431 39.30707 C -12.28 39.32 -12.27 39.33 -12.26089 39.33614 C -12.25 39.35 -12.25 39.35 -12.23759 39.36386 C -12.23 39.37 -12.22 39.38 -12.21455 39.39004 C -12.21 39.4 -12.2 39.41 -12.19168 39.41478 C -12.18 39.42 -12.18 39.43 -12.16901 39.43802 C -12.16 39.45 -12.15 39.45 -12.14656 39.45971 C -12.14 39.47 -12.13 39.47 -12.12435 39.47981 C -12.12 39.49 -12.11 39.49 -12.10242 39.49827 C -12.1 39.5 -12.09 39.51 -12.08079 39.51506 C -12.07 39.52 -12.07 39.53 -12.05948 39.53016 C -12.05 39.53 -12.05 39.54 -12.04603 39.53892 C -12.04 39.54 -12.04 39.54 -12.03272 39.54698 C -12.03 39.55 -12.02 39.55 -12.01958 39.55433 C -12.02 39.56 -12.01 39.56 -12.00659 39.56096 C -12 39.56 -12 39.57 -11.99377 39.56689 C -11.99 39.57 -11.99 39.57 -11.98112 39.57211 C -11.97 39.58 -11.96 39.58 -11.95635 39.58045 C -11.95 39.58 -11.94 39.58 -11.93231 39.586 C -11.92 39.59 -11.92 39.59 -11.90902 39.58883 C -11.9 39.59 -11.89 39.59 -11.8865 39.58901 C -11.88 39.59 -11.87 39.59 -11.86475 39.58662 C -11.86 39.59 -11.85 39.58 -11.84882 39.58316 C -11.84 39.58 -11.84 39.58 -11.83333 39.57832 C -11.83 39.58 -11.82 39.57 -11.81828 39.57215 C -11.81 39.57 -11.81 39.57 -11.80368 39.5647 C -11.79 39.56 -11.78 39.55 -11.77575 39.54612 C -11.77 39.54 -11.76 39.53 -11.75095 39.5244 C -11.74 39.52 -11.74 39.51 -11.72759 39.49891 C -11.72 39.49 -11.71 39.48 -11.7056 39.46993 C -11.7 39.46 -11.69 39.45 -11.68492 39.43774 C -11.68 39.43 -11.67 39.41 -11.66547 39.40259 C -11.66 39.4 -11.66 39.39 -11.65619 39.38398 C -11.65 39.38 -11.65 39.37 -11.64719 39.36472 C -11.64 39.36 -11.64 39.35 -11.63847 39.34483 C -11.64 39.34 -11.63 39.33 -11.63002 39.32434 C -11.63 39.32 -11.62 39.31 -11.62184 39.30327 C -11.62 39.3 -11.62 39.29 -11.6139 39.28165 L -10.64157 36.25565 L -11.08415 35.65316 L -11.64743 37.71067 Z" />
    <path d="M -18.27268 24.56475 L -18.82702 23.81012 L -18.82702 28.88065 L -18.39785 29.46489 L -18.39785 27.4903 L -18.44032 25.31164 L -17.37411 30.85853 L -17.04553 31.30584 L -15.97709 28.65446 L -16.01732 30.73099 L -16.01732 32.70557 L -15.58816 33.2898 L -15.58816 28.21927 L -16.14473 27.46159 L -17.20871 30.15039 L -18.27268 24.56475 Z" />
    <path d="M 0.69065 28.85234 L 0.90203 28.71857" />
    <path d="M -1.94115 24.67945 A 1 0.6341 323.69987 0 0 -2.02976 24.97994 L -2.03152 25.02536 L -1.68819 25.49275 L -1.68819 79.69731 L -1.68117 79.78417 A 1 0.6341 323.69987 0 0 -1.60505 79.96845 L -1.94838 79.50106" />
    <path d="M -2.02976 24.97994 L -1.68643 25.44733 L -1.68819 25.49275" />
    <path d="M -1.67502 25.36569 A 1 0.6341 323.69987 0 0 -1.68643 25.44733" />
    <path d="M -1.60505 79.96845 A 1 0.6341 323.69987 0 0 -1.46592 80.08884 A 1 0.6341 323.69987 0 0 -0.79912 80.08965 L 45.43237 63.40414 A 1 0.6341 323.69987 0 0 46.31968 62.41547 L 46.32144 62.37005 L 46.32144 12.38363" />
    <path d="M -1.35147 79.77289 L -1.35147 26.19997" />
    <path d="M -1.35238 79.81644 L -1.35147 79.77289" />
    <path d="M -1.46592 80.08884 A 1 0.32649 70.15486 0 0 -1.35238 79.81644" />
    <path d="M -0.68467 79.53223 L -0.68467 27.91936" />
    <path d="M -0.68558 79.57579 L -0.68467 79.53223 L -1.35147 79.77289" />
    <path d="M -0.79912 79.84819 A 1 0.32649 70.15486 0 0 -0.68558 79.57579 L -1.35238 79.81644" />
    <path d="M -1.46592 80.08884 L -0.79912 79.84819" />
    <path d="M 23.55554 -49.40903 A 1 0.16196 163.4049 0 0 23.71535 -49.55702" />
    <path d="M -24.36355 -32.26502 A 1 0.16196 163.4049 0 0 -23.90268 -32.31086" />
    <path d="M -47.45047 -35.59145 L -24.36355 -32.26502 L -24.57493 -32.97429 A 1 0.16196 163.4049 0 0 -24.11406 -33.02013" />
    <path d="M -47.51975 -35.62672 A 1 0.16196 163.4049 0 0 -47.45047 -35.59145 L -47.66185 -36.30072 L -24.57493 -32.97429" />
    <path d="M 23.2094 -49.31686 L 23.01495 -49.96933 A 1 0.16196 163.4049 0 0 23.50397 -50.26629 L 23.71535 -49.55702" />
    <path d="M 22.90636 -49.9287 L 23.01495 -49.96933" />
    <path d="M 23.10042 -49.27753 L 22.90636 -49.9287" />
    <path d="M 47.03072 12.11928 L 47.2421 11.98551" />
    <path d="M 46.92214 12.16683 L 47.13352 12.03306" />
    <path d="M -22.82395 -32.46298 L -23.49075 -32.22232" />
    <path d="M -22.91148 -32.67087 A 1 0.32649 70.15486 0 0 -23.32037 -33.22723 L -23.32513 -33.24319 L 22.90636 -49.9287" />
    <path d="M -23.37702 -33.20756 L -23.37297 -33.20896 L -23.36892 -33.21037 L -23.36488 -33.21178 L -23.36083 -33.21318 L -23.35678 -33.21459 L -23.35274 -33.21599 L -23.34869 -33.2174 L -23.34465 -33.2188 L -23.3406 -33.22021 L -23.33655 -33.22161 L -23.33251 -33.22301 L -23.32846 -33.22442 L -23.32442 -33.22582 L -23.32037 -33.22723" />
    <path d="M -23.79245 -33.09655 C -23.77 -33.1 -23.76 -33.1 -23.73894 -33.10894 C -23.72 -33.11 -23.7 -33.12 -23.6852 -33.12162 C -23.67 -33.12 -23.66 -33.13 -23.64591 -33.13115 C -23.63 -33.13 -23.62 -33.14 -23.60668 -33.14096 C -23.59 -33.14 -23.58 -33.15 -23.5676 -33.15109 C -23.55 -33.15 -23.54 -33.16 -23.52873 -33.16158 C -23.52 -33.17 -23.5 -33.17 -23.49017 -33.17245 C -23.48 -33.18 -23.46 -33.18 -23.45199 -33.18373 C -23.44 -33.19 -23.43 -33.19 -23.41425 -33.19543 C -23.4 -33.2 -23.39 -33.2 -23.37702 -33.20756 L -23.38166 -33.22315 L -23.32513 -33.24319" />
    <path d="M -23.79245 -33.09655 L -23.36873 -33.24947 A 1 0.32649 70.15486 0 0 -23.40754 -33.25744 L -23.55462 -33.27626 L -24.22142 -33.0356" />
    <path d="M -23.40754 -33.25744 L -24.07434 -33.01679" />
    <path d="M -23.08219 -32.58679 Q -23.08 -32.59 -23.08399 -32.58566 C -23.1 -32.58 -23.11 -32.57 -23.119 -32.5623 C -23.13 -32.55 -23.14 -32.55 -23.15277 -32.53729 C -23.16 -32.53 -23.17 -32.52 -23.18526 -32.51068 C -23.2 -32.5 -23.21 -32.49 -23.21644 -32.4825 C -23.23 -32.47 -23.24 -32.46 -23.25248 -32.44622 C -23.26 -32.43 -23.28 -32.42 -23.28648 -32.40775" />
    <path d="M -2.02451 79.31678 A 1 0.6341 323.69987 0 0 -1.94838 79.50106" />
    <path d="M -2.02451 79.31678 L -1.68117 79.78417" />
    <path d="M -2.03152 79.22992 L -2.02451 79.31678" />
    <path d="M -2.03152 25.02536 L -2.03152 79.22992 L -1.68819 79.69731" />
    <path d="M -47.2421 -36.63295 A 1 0.16196 163.4049 0 0 -47.73113 -36.33599 L -47.51975 -35.62672" />
    <path d="M -47.73113 -36.33599 A 1 0.16196 163.4049 0 0 -47.66185 -36.30072" />
    <path d="M -47.13352 -36.67357 L -47.2421 -36.63295" />
    <path d="M -0.90203 -53.35908 L -47.13352 -36.67357" />
    <path d="M -0.84549 -53.37913 L -0.90203 -53.35908" />
    <path d="M 0.34777 -53.62798 A 1 0.16196 163.4049 0 0 -0.84549 -53.37913" />
    <path d="M 23.43469 -50.30156 L 0.34777 -53.62798" />
    <path d="M 23.50397 -50.26629 A 1 0.16196 163.4049 0 0 23.43469 -50.30156" />
    <path d="M -23.79245 -33.09655 A 1 0.16196 163.4049 0 0 -23.38166 -33.22315" />
    <path d="M -45.7594 -35.3478 A 1 0.6341 323.69987 0 0 -45.97635 -34.84579 L -45.9781 -34.80038 L -45.63477 -34.33299" />
    <path d="M -45.97635 -34.84579 L -45.63302 -34.37841" />
    <path d="M -45.55163 20.14272 A 1 0.6341 323.69987 0 0 -45.4125 20.26311" />
    <path d="M -45.97109 19.49105 A 1 0.6341 323.69987 0 0 -45.89496 19.67533" />
    <path d="M -45.97109 19.49105 L -45.62776 19.95844" />
    <path d="M -45.9781 19.40419 L -45.97109 19.49105" />
    <path d="M -45.9781 -34.80038 L -45.9781 19.40419 L -45.63477 19.87158" />
    <path d="M -13.04491 36.17781 L -13.06869 36.14543 Q -13.1 35.99 -13.12681 35.66931 Q -13.42 35.74 -13.81526 35.19875 L -14.14866 35.31908" />
    <path d="M -13.06869 36.14543 L -13.40209 36.26575" />
    <path d="M -13.12681 35.66931 L -13.46021 35.78963" />
    <path d="M -13.81526 35.19875 Q -14.17 34.71 -13.93997 35.01875" />
    <path d="M -14.55067 33.59764 Q -14.63 33.46 -14.63113 32.97369 L -14.96453 33.09402" />
    <path d="M -14.63113 32.97369 Q -14.63 32.39 -14.58452 32.60565" />
    <path d="M -13.13352 33.77266 L -13.46692 33.89298" />
    <path d="M -13.13352 33.77266 L -13.13352 33.47664 L -13.46692 33.59697" />
    <path d="M -13.13352 33.47664 Q -13.13 33.14 -13.13362 33.45731" />
    <path d="M -13.8773 31.78399 Q -13.87 31.74 -14.01644 31.71053 L -14.34984 31.83086" />
    <path d="M -14.01644 31.71053 Q -14.17 31.68 -14.08266 31.71322 L -14.41606 31.83355" />
    <path d="M -14.27342 31.78207 L -14.58195 31.36206 Q -14.58 31.08 -14.54359 31.11179" />
    <path d="M -14.58195 31.36206 L -14.91535 31.48239" />
    <path d="M -9.42749 37.9576 Q -9.58 37.93 -9.49371 37.96028 L -9.82711 38.08061" />
    <path d="M -9.68448 38.02913 L -9.99301 37.60913 Q -9.99 37.33 -9.95465 37.35885" />
    <path d="M -9.99301 37.60913 L -10.32641 37.72945" />
    <path d="M -8.45596 42.42487 L -8.47975 42.39249 Q -8.52 42.23 -8.53787 41.91637 Q -8.83 41.99 -9.22632 41.44581 L -9.55972 41.56614" />
    <path d="M -8.47975 42.39249 L -8.81315 42.51282" />
    <path d="M -8.53787 41.91637 L -8.87127 42.0367" />
    <path d="M -9.22632 41.44581 Q -9.58 40.96 -9.35103 41.26581" />
    <path d="M -9.96172 39.8447 Q -10.04 39.7 -10.04218 39.22075 L -10.37558 39.34108" />
    <path d="M -10.04218 39.22075 Q -10.04 38.63 -9.99558 38.85272" />
    <path d="M -8.54457 40.01972 L -8.87797 40.14005" />
    <path d="M -8.54457 40.01972 L -8.54457 39.7237 L -8.87797 39.84403" />
    <path d="M -8.54457 39.7237 Q -8.54 39.39 -8.54468 39.70437" />
    <path d="M -9.28835 38.03105 Q -9.28 37.99 -9.42749 37.9576 L -9.76089 38.07792" />
    <path d="M -11.31403 37.59034 L -11.64743 37.71067" />
    <path d="M -11.31403 37.59034 L -10.86527 35.95113" />
    <path d="M -11.68353 39.4354 Q -11.51 39.79 -11.99802 39.12483 L -12.07625 39.00788 L -12.21111 38.7847" />
    <path d="M -11.99802 39.12483 L -12.33142 39.24516" />
    <path d="M -12.07625 39.00788 L -12.40965 39.12821" />
    <path d="M -12.24406 38.75755 L -12.56388 38.87298" />
    <path d="M -11.73729 38.70707 Q -11.67 38.74 -11.59791 38.48894 L -11.50626 38.23062 L -11.60077 37.69382" />
    <path d="M -11.59791 38.48894 L -11.93131 38.60927" />
    <path d="M -11.50626 38.23062 L -11.83966 38.35095" />
    <path d="M -16.87531 30.03006 L -17.20871 30.15039" />
    <path d="M -16.87531 30.03006 L -15.959 27.71443" />
    <path d="M -15.58816 32.71561 L -15.68392 32.58524 L -15.68392 30.61066 L -15.64369 28.53413 L -15.97709 28.65446" />
    <path d="M -15.68392 32.58524 L -16.01732 32.70557" />
    <path d="M -15.68392 30.61066 L -16.01732 30.73099" />
    <path d="M -16.89612 30.93505 L -17.04071 30.7382 L -17.15727 30.13183" />
    <path d="M -17.04071 30.7382 L -17.37411 30.85853" />
    <path d="M -18.15035 25.20698 L -18.44032 25.31164" />
    <path d="M -18.39785 28.89069 L -18.49362 28.76032 L -18.49362 24.26398" />
    <path d="M -18.49362 28.76032 L -18.82702 28.88065" />
    <path d="M -13.22264 35.08599 Q -13.21 35.15 -13.13352 35.00198 L -13.46692 35.12231 C -13.47 35.13 -13.48 35.14 -13.4809 35.14519 C -13.49 35.15 -13.49 35.16 -13.49629 35.16485 C -13.5 35.17 -13.51 35.17 -13.50987 35.17848 C -13.51 35.18 -13.52 35.19 -13.52437 35.18993 C -13.53 35.19 -13.53 35.2 -13.53976 35.19921 C -13.55 35.2 -13.55 35.2 -13.55604 35.20632 C -13.56 35.21 -13.57 35.21 -13.57357 35.21136 C -13.58 35.21 -13.59 35.21 -13.59197 35.21417 C -13.6 35.21 -13.6 35.21 -13.61124 35.21477 C -13.62 35.21 -13.62 35.21 -13.63133 35.2132 C -13.64 35.21 -13.65 35.21 -13.65224 35.20949 C -13.66 35.21 -13.67 35.21 -13.67392 35.20367 C -13.68 35.2 -13.69 35.2 -13.69635 35.1958 C -13.7 35.19 -13.71 35.19 -13.7195 35.18592 C -13.73 35.18 -13.74 35.18 -13.74665 35.17231 C -13.76 35.17 -13.76 35.16 -13.77418 35.1564 C -13.78 35.15 -13.79 35.14 -13.80208 35.13818 C -13.81 35.13 -13.82 35.12 -13.83032 35.11763 C -13.84 35.11 -13.85 35.1 -13.85889 35.09474 C -13.87 35.09 -13.88 35.08 -13.88778 35.0695 C -13.9 35.06 -13.91 35.05 -13.91696 35.04193 C -13.93 35.03 -13.94 35.02 -13.94641 35.01204 C -13.96 35 -13.97 34.99 -13.98146 34.97384 C -13.99 34.96 -14 34.95 -14.01681 34.93249 C -14.03 34.92 -14.04 34.9 -14.05244 34.88804 C -14.06 34.87 -14.08 34.86 -14.08831 34.84055 C -14.1 34.82 -14.12 34.8 -14.12953 34.78263 C -14.14 34.77 -14.14 34.76 -14.14977 34.75276 C -14.16 34.74 -14.16 34.73 -14.16976 34.72229 C -14.18 34.71 -14.18 34.7 -14.18947 34.69121 C -14.2 34.68 -14.2 34.67 -14.20889 34.65954 C -14.22 34.65 -14.22 34.64 -14.22801 34.62728 C -14.23 34.62 -14.24 34.61 -14.24679 34.59444 C -14.25 34.58 -14.26 34.57 -14.26524 34.56103 C -14.27 34.55 -14.28 34.54 -14.28333 34.52706 C -14.29 34.52 -14.3 34.5 -14.30106 34.49254 C -14.31 34.48 -14.31 34.47 -14.31839 34.45749 C -14.32 34.45 -14.33 34.43 -14.33533 34.42192 C -14.34 34.41 -14.35 34.4 -14.35186 34.38586 C -14.36 34.37 -14.36 34.36 -14.36796 34.34932 C -14.37 34.34 -14.38 34.32 -14.38362 34.31234 C -14.39 34.3 -14.4 34.28 -14.40286 34.26475 C -14.41 34.25 -14.42 34.23 -14.42136 34.21652 C -14.43 34.2 -14.43 34.18 -14.44068 34.16298 C -14.45 34.15 -14.45 34.13 -14.45853 34.10968 C -14.46 34.09 -14.47 34.07 -14.47487 34.05672 C -14.48 34.04 -14.48 34.02 -14.48964 34.00421 C -14.49 33.99 -14.49 33.98 -14.49724 33.97495 C -14.5 33.97 -14.5 33.96 -14.50433 33.94589 C -14.51 33.94 -14.51 33.93 -14.51092 33.91702 C -14.51 33.91 -14.52 33.9 -14.51699 33.88838 C -14.52 33.88 -14.52 33.87 -14.52255 33.85998 C -14.52 33.85 -14.53 33.84 -14.52761 33.83182 C -14.53 33.82 -14.53 33.81 -14.53215 33.80393 C -14.53 33.79 -14.53 33.79 -14.53619 33.77631 C -14.54 33.76 -14.54 33.74 -14.54277 33.72195 C -14.54 33.7 -14.55 33.69 -14.54739 33.66881 C -14.55 33.65 -14.55 33.63 -14.55012 33.61694 C -14.55 33.6 -14.55 33.58 -14.55101 33.56641 C -14.55 33.56 -14.55 33.55 -14.55066 33.53742 C -14.55 33.53 -14.55 33.52 -14.54958 33.5096 C -14.55 33.5 -14.55 33.49 -14.54775 33.48303 C -14.55 33.47 -14.55 33.47 -14.54512 33.45782 C -14.54 33.45 -14.54 33.44 -14.54209 33.43657 C -14.54 33.43 -14.54 33.42 -14.5384 33.41654 C -14.54 33.41 -14.54 33.4 -14.53402 33.39779 C -14.53 33.39 -14.53 33.39 -14.52894 33.38039 C -14.53 33.37 -14.53 33.37 -14.52316 33.36439 C -14.52 33.36 -14.52 33.35 -14.51667 33.34985 C -14.51 33.35 -14.51 33.34 -14.50948 33.33681 C -14.51 33.33 -14.5 33.33 -14.50159 33.32531 C -14.5 33.32 -14.5 33.32 -14.49231 33.31464 C -14.49 33.31 -14.49 33.31 -14.48226 33.30581 C -14.48 33.3 -14.48 33.3 -14.47145 33.29881 C -14.47 33.3 -14.46 33.3 -14.45993 33.29363 C -14.46 33.29 -14.45 33.29 -14.44685 33.29006 C -14.44 33.29 -14.44 33.29 -14.43303 33.2885 C -14.43 33.29 -14.43 33.29 -14.42247 33.28858 C -14.42 33.29 -14.42 33.29 -14.41157 33.28969 C -14.41 33.29 -14.4 33.29 -14.40033 33.29177 C -14.4 33.29 -14.39 33.29 -14.38879 33.29481 C -14.38 33.3 -14.37 33.3 -14.36562 33.30327 C -14.36 33.31 -14.35 33.31 -14.34151 33.31492 C -14.33 33.32 -14.33 33.32 -14.31657 33.32952 C -14.31 33.33 -14.31 33.33 -14.30383 33.33784 C -14.3 33.34 -14.3 33.34 -14.29092 33.34681 C -14.28 33.35 -14.27 33.36 -14.26506 33.36624 C -14.26 33.37 -14.25 33.38 -14.2387 33.38784 C -14.23 33.4 -14.22 33.4 -14.21189 33.41143 C -14.2 33.42 -14.19 33.43 -14.1847 33.43684 C -14.18 33.45 -14.17 33.45 -14.15717 33.46391 C -14.15 33.47 -14.14 33.48 -14.12936 33.49251 C -14.12 33.5 -14.11 33.51 -14.10129 33.5225 C -14.09 33.53 -14.08 33.54 -14.07301 33.55378 C -14.06 33.56 -14.05 33.58 -14.04454 33.58623 C -14.04 33.6 -14.03 33.61 -14.01592 33.61976 C -14.01 33.63 -14 33.64 -13.98716 33.65429 C -13.98 33.67 -13.97 33.68 -13.95829 33.68974 C -13.95 33.7 -13.94 33.71 -13.92931 33.72605 C -13.92 33.74 -13.91 33.75 -13.90024 33.76316 C -13.89 33.78 -13.88 33.79 -13.87107 33.80103 C -13.86 33.81 -13.85 33.83 -13.84183 33.83962 C -13.83 33.85 -13.82 33.86 -13.81645 33.87357 C -13.81 33.88 -13.8 33.9 -13.79103 33.90797 L -13.46692 34.34919 L -13.46692 35.12231" />
    <path d="M -13.13352 35.00198 L -13.13352 34.22886 L -13.46692 34.34919" />
    <path d="M -13.13352 34.22886 L -13.39841 33.86826" />
    <path d="M -13.95932 33.2252 Q -14.22 32.75 -14.12653 33.1733 L -14.45993 33.29363" />
    <path d="M -8.6337 41.33306 Q -8.62 41.39 -8.54457 41.24904 L -8.87797 41.36937 C -8.88 41.38 -8.89 41.39 -8.89196 41.39226 C -8.9 41.4 -8.9 41.41 -8.90735 41.41191 C -8.91 41.42 -8.92 41.42 -8.92093 41.42554 C -8.93 41.43 -8.93 41.43 -8.93542 41.43699 C -8.94 41.44 -8.95 41.44 -8.95082 41.44627 C -8.96 41.45 -8.96 41.45 -8.9671 41.45338 C -8.97 41.46 -8.98 41.46 -8.98462 41.45842 C -8.99 41.46 -9 41.46 -9.00303 41.46123 C -9.01 41.46 -9.02 41.46 -9.02229 41.46184 C -9.03 41.46 -9.04 41.46 -9.04239 41.46026 C -9.05 41.46 -9.06 41.46 -9.06329 41.45655 C -9.07 41.45 -9.08 41.45 -9.08497 41.45073 C -9.09 41.45 -9.1 41.45 -9.1074 41.44286 C -9.12 41.44 -9.12 41.44 -9.13055 41.43298 C -9.14 41.43 -9.15 41.42 -9.15771 41.41937 C -9.17 41.41 -9.18 41.41 -9.18524 41.40347 C -9.19 41.4 -9.2 41.39 -9.21313 41.38524 C -9.22 41.38 -9.23 41.37 -9.24137 41.36469 C -9.25 41.36 -9.26 41.35 -9.26995 41.3418 C -9.28 41.33 -9.29 41.33 -9.29883 41.31656 C -9.31 41.31 -9.32 41.3 -9.32801 41.28899 C -9.34 41.28 -9.35 41.27 -9.35747 41.2591 C -9.37 41.25 -9.38 41.23 -9.39251 41.2209 C -9.4 41.21 -9.42 41.19 -9.42787 41.17955 C -9.44 41.17 -9.45 41.15 -9.4635 41.1351 C -9.48 41.12 -9.49 41.1 -9.49937 41.08761 C -9.51 41.07 -9.53 41.05 -9.54058 41.02969 C -9.55 41.02 -9.55 41.01 -9.56083 40.99982 C -9.57 40.99 -9.57 40.98 -9.58082 40.96935 C -9.59 40.96 -9.59 40.95 -9.60053 40.93827 C -9.61 40.93 -9.61 40.92 -9.61995 40.9066 C -9.63 40.9 -9.63 40.89 -9.63906 40.87435 C -9.65 40.86 -9.65 40.85 -9.65785 40.84151 C -9.66 40.83 -9.67 40.82 -9.6763 40.80809 C -9.68 40.8 -9.69 40.79 -9.69439 40.77412 C -9.7 40.76 -9.71 40.75 -9.71211 40.7396 C -9.72 40.73 -9.72 40.72 -9.72945 40.70455 C -9.74 40.69 -9.74 40.68 -9.74639 40.66898 C -9.75 40.66 -9.76 40.65 -9.76291 40.63292 C -9.77 40.62 -9.77 40.61 -9.77901 40.59639 C -9.78 40.58 -9.79 40.57 -9.79467 40.5594 C -9.8 40.54 -9.81 40.53 -9.81392 40.51181 C -9.82 40.5 -9.83 40.48 -9.83242 40.46358 C -9.84 40.45 -9.85 40.43 -9.85173 40.41004 C -9.86 40.39 -9.86 40.37 -9.86959 40.35674 C -9.88 40.34 -9.88 40.32 -9.88592 40.30378 C -9.89 40.29 -9.9 40.27 -9.9007 40.25127 C -9.9 40.24 -9.91 40.23 -9.90829 40.22201 C -9.91 40.21 -9.91 40.2 -9.91539 40.19295 C -9.92 40.18 -9.92 40.17 -9.92197 40.16409 C -9.92 40.15 -9.93 40.14 -9.92805 40.13544 C -9.93 40.13 -9.93 40.12 -9.93361 40.10704 C -9.94 40.1 -9.94 40.09 -9.93866 40.07888 C -9.94 40.07 -9.94 40.06 -9.94321 40.05099 C -9.94 40.04 -9.95 40.03 -9.94724 40.02338 C -9.95 40.01 -9.95 39.99 -9.95383 39.96901 C -9.96 39.95 -9.96 39.93 -9.95845 39.91587 C -9.96 39.9 -9.96 39.88 -9.96117 39.864 C -9.96 39.85 -9.96 39.83 -9.96206 39.81347 C -9.96 39.8 -9.96 39.79 -9.96171 39.78449 C -9.96 39.78 -9.96 39.77 -9.96064 39.75666 C -9.96 39.75 -9.96 39.74 -9.9588 39.7301 C -9.96 39.72 -9.96 39.71 -9.95618 39.70488 C -9.96 39.7 -9.95 39.69 -9.95315 39.68363 C -9.95 39.68 -9.95 39.67 -9.94945 39.6636 C -9.95 39.66 -9.95 39.65 -9.94507 39.64485 C -9.94 39.64 -9.94 39.63 -9.93999 39.62745 C -9.94 39.62 -9.94 39.62 -9.93421 39.61145 C -9.93 39.61 -9.93 39.6 -9.92773 39.59691 C -9.93 39.59 -9.92 39.59 -9.92053 39.58387 C -9.92 39.58 -9.92 39.58 -9.91264 39.57237 C -9.91 39.57 -9.91 39.56 -9.90337 39.56171 C -9.9 39.56 -9.9 39.56 -9.89331 39.55287 C -9.89 39.55 -9.89 39.55 -9.88251 39.54587 C -9.88 39.54 -9.87 39.54 -9.87098 39.54069 C -9.87 39.54 -9.86 39.54 -9.8579 39.53712 C -9.85 39.54 -9.85 39.54 -9.84409 39.53556 C -9.84 39.54 -9.84 39.54 -9.83353 39.53565 C -9.83 39.54 -9.83 39.54 -9.82262 39.53675 C -9.82 39.54 -9.82 39.54 -9.81139 39.53883 C -9.81 39.54 -9.8 39.54 -9.79985 39.54187 C -9.79 39.54 -9.78 39.55 -9.77668 39.55033 C -9.77 39.55 -9.76 39.56 -9.75256 39.56199 C -9.74 39.57 -9.74 39.57 -9.72763 39.57658 C -9.72 39.58 -9.72 39.58 -9.71488 39.5849 C -9.71 39.59 -9.71 39.59 -9.70198 39.59387 C -9.69 39.6 -9.68 39.61 -9.67611 39.6133 C -9.67 39.62 -9.66 39.63 -9.64975 39.6349 C -9.64 39.64 -9.63 39.65 -9.62295 39.65849 C -9.61 39.67 -9.6 39.68 -9.59575 39.6839 C -9.59 39.69 -9.58 39.7 -9.56823 39.71097 C -9.56 39.72 -9.55 39.73 -9.54041 39.73957 C -9.53 39.75 -9.52 39.76 -9.51234 39.76956 C -9.5 39.78 -9.49 39.79 -9.48406 39.80084 C -9.47 39.81 -9.47 39.82 -9.4556 39.83329 C -9.45 39.84 -9.44 39.86 -9.42697 39.86683 C -9.42 39.88 -9.41 39.89 -9.39822 39.90135 C -9.39 39.91 -9.38 39.92 -9.36934 39.93681 C -9.36 39.95 -9.35 39.96 -9.34036 39.97311 C -9.33 39.99 -9.32 40 -9.31129 40.01023 C -9.3 40.02 -9.29 40.04 -9.28213 40.04809 C -9.27 40.06 -9.26 40.07 -9.25288 40.08668 C -9.24 40.1 -9.24 40.11 -9.2275 40.12063 C -9.22 40.13 -9.21 40.14 -9.20208 40.15504 L -8.87797 40.59626 L -8.87797 41.36937" />
    <path d="M -8.54457 41.24904 L -8.54457 40.47593 L -8.87797 40.59626" />
    <path d="M -8.54457 40.47593 L -8.80946 40.11532" />
    <path d="M -9.37037 39.47226 Q -9.63 39 -9.53758 39.42036 L -9.87098 39.54069" />
    <path d="M -0.55915 28.24304 L -0.34777 28.10927" />
    <path d="M -14.45981 34.10568 L -14.73541 34.20515" />
    <path d="M -13.33875 32.78939 L -13.59656 32.88244" />
    <path d="M -13.69808 32.06055 L -13.97879 32.16186" />
    <path d="M -14.69808 31.08032 L -14.78683 31.11235" />
    <path d="M -10.10913 37.32738 L -10.19788 37.35941" />
    <path d="M -9.87087 40.35275 L -10.14647 40.45221" />
    <path d="M -8.7498 39.03645 L -9.00761 39.1295" />
    <path d="M -9.10913 38.30761 L -9.38984 38.40892" />
    <path d="M -13.52613 33.81237 L -13.79103 33.90797" />
    <path d="M -8.93719 40.05943 L -9.20208 40.15504" />
    <path d="M 47.30753 11.9479 L 47.09615 12.08166" />
    <path d="M -23.08037 -32.58795 L -23.08399 -32.58566" />
    <path d="M -1.46977 80.09032 L -1.46583 80.08889" />
    <path d="M -11.73729 38.70707 L -12.07069 38.8274" />
    <path d="M -13.22264 35.08599 L -13.55604 35.20632" />
    <path d="M -8.6337 41.33306 L -8.9671 41.45338" />
</svg>