<svg version="1.1" xmlns="http://www.w3.org/2000/svg" viewBox="-75.45169707288733 -1.6090116557934921 126.379703307547 3.364134514883254" fill="none" stroke="black" stroke-width="0.6%" vector-effect="non-scaling-stroke">
    <path d="M -74.09706 0.44208 L -0.76474 0.75393 A 1 0.00503 180 0 0 0.60247 0.75357 L 0.6445 0.75334 L 49.69188 0.46111 L 49.76675 0.46061 A 1 0.00503 180 0 0 49.92801 0.45787" />
    <path d="M -74.4517 0.43824 A 1 0.00503 180 0 0 -74.09706 0.44208 L -74.09706 -0.30791 L -0.76474 0.00394 A 1 0.00503 180 0 0 0.60247 0.00358 L 0.6445 0.00335 L 49.69188 -0.28888 L 49.76675 -0.28938 A 1 0.00503 180 0 0 49.92801 -0.29212 L 49.92801 0.45787" />
    <path d="M 0.60247 0.75357 L 0.60247 0.00358" />
    <path d="M 0.6445 0.75334 L 0.6445 0.00335" />
    <path d="M 49.69188 0.46111 L 49.69188 -0.28888" />
    <path d="M 49.76675 0.46061 L 49.76675 -0.28938" />
    <path d="M 49.92801 -0.29212 A 1 0.00503 180 0 0 49.90716 -0.29315 L 37.76971 -0.59505 A 1 0.00503 180 0 0 36.79588 -0.5992 L -24.36633 -0.60901 A 1 0.00503 180 0 0 -25.12616 -0.60746 L -25.16819 -0.60723 L -74.21557 -0.315 L -74.29044 -0.3145 A 1 0.00503 180 0 0 -74.4517 -0.31175 L -74.4517 0.43824" />
    <path d="M -74.4517 -0.31175 A 1 0.00503 180 0 0 -74.09706 -0.30791" />
    <path d="M -0.76474 0.75393 L -0.76474 0.00394" />
</svg>