<svg version="1.1" xmlns="http://www.w3.org/2000/svg" viewBox="-23.70814135130563 -26.915804171326737 47.862965811398574 65.7954199294729" fill="none" stroke="black" stroke-width="0.6%" vector-effect="non-scaling-stroke">
    <path d="M -10.97264 25.84381 L -11.41933 26.0075 L -10.78928 24.59449 A 1 0.30778 69.87527 0 0 -10.88393 23.70099 L -11.8371 23.77336 L -11.8371 25.83516 A 1 0.30778 69.87527 0 0 -11.49304 26.08912 A 1 0.30778 69.87527 0 0 -11.41933 26.0075" />
    <path d="M -11.04635 25.92544 A 1 0.30778 69.87527 0 0 -10.97264 25.84381 L -10.64115 25.10038" />
    <path d="M -11.61376 23.69152 L -11.8371 23.77336" />
    <path d="M -10.56594 24.51265 L -10.75468 24.93593 L -2.17785 37.35978 A 2 0.61557 69.87527 0 0 -1.48972 37.86771 A 2 0.61557 69.87527 0 0 -1.28096 37.37501 L -1.27919 37.29156 L -1.27919 14.00213 L -1.28627 13.82016 A 2 0.61557 69.87527 0 0 -1.5456 12.64265 L -11.30617 -16.09129 A 1 0.30778 69.87527 0 0 -11.92135 -16.98239 L -21.68432 -16.52539 A 2 0.61557 69.87527 0 0 -21.73781 -16.51404 A 2 0.61557 69.87527 0 0 -21.94656 -16.02134 L -21.94833 -15.93789 L -21.94833 7.35154 L -21.94125 7.53351 A 2 0.61557 69.87527 0 0 -21.04968 10.02325 L -11.61376 23.69152" />
    <path d="M -10.56594 24.51265 L -10.78928 24.59449" />
    <path d="M -1.26637 37.78587 A 2 0.61557 69.87527 0 0 -1.05762 37.29317 L -1.05585 37.20972 L -1.05585 13.92029 L -1.06293 13.73832 A 2 0.61557 69.87527 0 0 -1.1202 13.31797 A 2 0.61557 69.87527 0 0 -1.32226 12.56081 L -6.69551 -3.25739 L -11.08283 -16.17313 A 1 0.30778 69.87527 0 0 -11.69801 -17.06423 L -16.08605 -16.85883 L -21.46098 -16.60723 A 2 0.61557 69.87527 0 0 -21.51446 -16.59588" />
    <path d="M -6.4478 2.68493 A 1 0.30778 69.87527 0 0 -6.24213 2.90688" />
    <path d="M -16.33304 -11.6342 L -6.4478 2.68493 L -6.67114 2.76677 L -16.55638 -11.55236 A 1 0.30778 249.87527 0 1 -16.90045 -13.17629 A 1 0.30778 249.87527 0 1 -16.88393 -13.18071 L -11.92135 -13.55747 A 1 0.30778 249.87527 0 1 -11.30617 -12.66637 L -6.34359 2.08735 A 1 0.30778 249.87527 0 1 -6.32707 3.02074 A 1 0.30778 249.87527 0 1 -6.67114 2.76677" />
    <path d="M -16.74406 -13.19133 A 1 0.30778 69.87527 0 0 -16.33304 -11.6342 L -16.55638 -11.55236" />
    <path d="M -19.02902 0.21519 L -12.73841 9.32737 A 1 0.30778 69.87527 0 0 -12.53274 9.54932" />
    <path d="M -19.4748 -1.02968 A 1 0.30778 69.87527 0 0 -19.02902 0.21519 L -19.25236 0.29703 L -12.96175 9.40921 A 1 0.30778 69.87527 0 0 -12.61768 9.66317 A 1 0.30778 69.87527 0 0 -12.51331 9.41682 L -12.51242 9.3751 L -12.51242 -0.21467 L -12.51596 -0.30565 A 1 0.30778 69.87527 0 0 -12.96175 -1.55052 L -19.25236 -10.6627 A 1 0.30778 69.87527 0 0 -19.59642 -10.91666 A 1 0.30778 69.87527 0 0 -19.7008 -10.67031 L -19.70169 -10.62859 L -19.70169 -1.03882 L -19.69814 -0.94784 A 1 0.30778 69.87527 0 0 -19.25236 0.29703" />
    <path d="M -19.47835 -1.12066 L -19.4748 -1.02968 L -19.69814 -0.94784" />
    <path d="M -19.47835 -10.71043 L -19.47835 -1.12066 L -19.70169 -1.03882" />
    <path d="M -19.47746 -10.75215 L -19.47835 -10.71043 L -19.70169 -10.62859" />
    <path d="M -19.45803 -10.88465 A 1 0.30778 69.87527 0 0 -19.47746 -10.75215 L -19.7008 -10.67031" />
    <path d="M -10.66059 23.61915 L -11.61376 23.69152" />
    <path d="M -10.66059 23.61915 L -10.88393 23.70099" />
    <path d="M -10.66059 23.61915 A 1 0.30778 249.87527 0 1 -10.56594 24.51265" />
    <path d="M -1.05762 37.29317 L -1.28096 37.37501" />
    <path d="M -1.05585 37.20972 L -1.27919 37.29156" />
    <path d="M -1.05585 13.92029 L -1.27919 14.00213" />
    <path d="M -1.06293 13.73832 L -1.28627 13.82016" />
    <path d="M -1.32226 12.56081 L -1.5456 12.64265" />
    <path d="M -11.08283 -16.17313 L -11.30617 -16.09129" />
    <path d="M -11.69801 -17.06423 L -11.92135 -16.98239" />
    <path d="M -21.46098 -16.60723 L -21.68432 -16.52539" />
    <path d="M -14.81934 6.31306 L -12.51242 5.46772" />
    <path d="M 1.61486 -21.95315 L 1.61486 -21.98336" />
    <path d="M -22.51908 -16.37043 L -21.84815 -16.42137" />
    <path d="M -16.08605 -16.85883 L -12.03419 -17.16645 L -12.11362 -17.40259 A 2 0.16492 161.40905 0 0 -9.80489 -18.06436 L -9.69144 -18.10556 L 9.96262 -25.30755 L 10.18154 -25.38922 A 2 0.16492 161.40905 0 0 11.22281 -25.89692 L 11.30224 -25.66077" />
    <path d="M -12.03419 -17.16645 A 2 0.16492 161.40905 0 0 -9.72545 -17.82821 L -9.80489 -18.06436" />
    <path d="M -9.72545 -17.82821 L -9.61201 -17.86942 L -9.69144 -18.10556" />
    <path d="M -9.61201 -17.86942 L 10.04205 -25.0714 L 9.96262 -25.30755" />
    <path d="M 10.04205 -25.0714 L 10.26097 -25.15308 L 10.18154 -25.38922" />
    <path d="M 10.26097 -25.15308 A 2 0.16492 161.40905 0 0 11.30224 -25.66077" />
    <path d="M -22.62798 -16.38754 A 2 0.16492 161.40905 0 0 -22.51908 -16.37043 L -22.59851 -16.60658 L -12.11362 -17.40259" />
    <path d="M -10.74665 -15.30139 L -6.69551 -3.25739" />
    <path d="M -1.1202 13.31797 L -0.26176 15.8701 L -0.18233 15.86407 A 2 1.89575 265.65841 0 0 1.75581 17.20361 L 1.67637 17.20964" />
    <path d="M -0.26176 15.8701 A 2 1.89575 265.65841 0 0 1.67637 17.20964" />
    <path d="M 10.54274 -25.15236 A 2 1.89575 265.65841 0 0 10.17214 -25.08467 L 10.25157 -25.0907 L 10.13812 -25.05331 L -9.51593 -17.85133 L -9.73486 -17.75438 A 2 1.89575 265.65841 0 0 -10.66722 -15.30742 L -0.18233 15.86407" />
    <path d="M 10.17214 -25.08467 L 10.05869 -25.04728 L 10.13812 -25.05331" />
    <path d="M 10.05869 -25.04728 L -9.59536 -17.8453 L -9.51593 -17.85133" />
    <path d="M -9.59536 -17.8453 L -9.81429 -17.74835 L -9.73486 -17.75438" />
    <path d="M -9.81429 -17.74835 A 2 1.89575 265.65841 0 0 -10.74665 -15.30139 L -10.66722 -15.30742" />
    <path d="M -1.04992 13.52692 A 2 1.22388 325.38067 0 0 -1.07992 13.57046" />
    <path d="M 0.50622 37.59952 L 20.16028 30.39754 A 2 1.22388 325.38067 0 0 21.94349 28.46016 L 21.94701 28.37285 L 21.94701 9.87302" />
    <path d="M -0.97621 13.74607 A 2 1.22388 325.38067 0 0 -1.0575 13.87783" />
    <path d="M -1.0727 37.44937 A 2 1.22388 325.38067 0 0 0.50622 37.59952" />
    <path d="M 11.22281 -25.89692 A 2 0.16492 161.40905 0 0 11.1139 -25.91403 L 0.62902 -25.11801 A 2 0.16492 161.40905 0 0 -1.67972 -24.45625 L -1.79316 -24.41504 L -21.44722 -17.21306 L -21.66615 -17.13138 A 2 0.16492 161.40905 0 0 -22.70741 -16.62368 L -22.62798 -16.38754" />
    <path d="M -22.70741 -16.62368 A 2 0.16492 161.40905 0 0 -22.59851 -16.60658" />
    <path d="M 1.75581 17.20361 A 2 1.89575 265.65841 0 0 2.1264 17.13591 L 2.23985 17.09853 L 21.8939 9.89654 L 22.11283 9.79959 A 2 1.89575 265.65841 0 0 23.04519 7.35264 L 12.5603 -23.81886 A 2 1.89575 265.65841 0 0 10.62217 -25.15839 L 10.54274 -25.15236" />
    <path d="M 10.62217 -25.15839 A 2 1.89575 265.65841 0 0 10.25157 -25.0907" />
    <path d="M -12.73841 9.32737 L -12.96175 9.40921" />
    <path d="M -11.49304 26.08912 L -11.04635 25.92544" />
    <path d="M -1.48972 37.86771 L -1.26637 37.78587" />
    <path d="M -21.73781 -16.51404 L -21.51446 -16.59588" />
</svg>