<svg version="1.1" xmlns="http://www.w3.org/2000/svg" viewBox="-23.75532406255238 -26.18275896984245 47.734413813573454 66.20493271614842" fill="none" stroke="black" stroke-width="0.6%" vector-effect="non-scaling-stroke">
    <path d="M -13.16598 -16.53679 L -13.16598 -16.44606" />
    <path d="M 1.60256 -21.40432 L 1.60256 -21.4338" />
    <path d="M -14.58756 8.04857 L -12.63958 7.35737" />
    <path d="M -12.12979 -16.56483 L -12.07411 -16.69748" />
    <path d="M -12.52991 -16.51897 L -12.48082 -16.63591" />
    <path d="M -11.8292 -16.59928 L -16.18415 -16.10013 L -12.16285 -16.68192 A 2 0.11863 161.58584 0 0 -9.85572 -17.36829 L -9.74207 -17.40835 L 9.94931 -24.3955 L 10.1687 -24.47439 A 2 0.11863 161.58584 0 0 11.21625 -24.93603" />
    <path d="M -11.21867 -15.72654 A 1 0.31304 70.46364 0 0 -11.8292 -16.59928 L -12.05297 -16.51988 L -21.7423 -15.40932 A 2 0.62608 70.46364 0 0 -21.78125 -15.39981 A 2 0.62608 70.46364 0 0 -22.00256 -14.87551 L -22.00432 -14.78988 L -22.00432 9.0774 L -21.99729 9.26342 A 2 0.62608 70.46364 0 0 -21.11244 11.75629 L -2.38295 38.52968 A 2 0.62608 70.46364 0 0 -1.71414 39.01058 L -1.49038 38.93118 A 2 0.62608 70.46364 0 0 -1.26907 38.40689 L -1.26731 38.32125 L -1.26731 14.45397 L -1.27434 14.26795 A 2 0.62608 70.46364 0 0 -1.33118 13.84094 L -0.47922 16.39992 L -0.40038 16.38852 A 2 1.89577 261.76777 0 0 1.67611 17.73271 L 1.59728 17.74412" />
    <path d="M -6.86443 -2.77893 L -11.21867 -15.72654 L -11.44243 -15.64714 A 1 0.31304 70.46364 0 0 -12.05297 -16.51988" />
    <path d="M -19.10492 1.59111 L -12.86175 10.51558 A 1 0.31304 70.46364 0 0 -12.66421 10.72533" />
    <path d="M -19.54734 0.34468 A 1 0.31304 70.46364 0 0 -19.10492 1.59111 L -19.32868 1.67051 L -13.08552 10.59498 A 1 0.31304 70.46364 0 0 -12.75111 10.83543 A 1 0.31304 70.46364 0 0 -12.64046 10.57328 L -12.63958 10.53046 L -12.63958 0.70276 L -12.6431 0.60975 A 1 0.31304 70.46364 0 0 -13.08552 -0.63668 L -19.32868 -9.56115 A 1 0.31304 70.46364 0 0 -19.66309 -9.8016 A 1 0.31304 70.46364 0 0 -19.77374 -9.53945 L -19.77462 -9.49663 L -19.77462 0.33107 L -19.77111 0.42408 A 1 0.31304 70.46364 0 0 -19.32868 1.67051" />
    <path d="M -19.55086 0.25167 L -19.54734 0.34468 L -19.77111 0.42408" />
    <path d="M -19.55086 -9.57603 L -19.55086 0.25167 L -19.77462 0.33107" />
    <path d="M -19.54998 -9.61885 L -19.55086 -9.57603 L -19.77462 -9.49663" />
    <path d="M -19.52622 -9.7709 A 1 0.31304 70.46364 0 0 -19.54998 -9.61885 L -19.77374 -9.53945" />
    <path d="M -16.42928 -10.72963 L -6.61859 3.29453 A 1 0.31304 70.46364 0 0 -6.42105 3.50428" />
    <path d="M -16.8259 -12.31946 A 1 0.31304 70.46364 0 0 -16.42928 -10.72963 L -16.65304 -10.65023 A 1 0.31304 250.46364 0 1 -16.98745 -12.29464 A 1 0.31304 250.46364 0 1 -16.97812 -12.29743 L -12.05297 -13.00999 A 1 0.31304 250.46364 0 1 -11.44243 -12.13724 L -6.51728 2.6561 A 1 0.31304 250.46364 0 1 -6.50795 3.61438 A 1 0.31304 250.46364 0 1 -6.84236 3.37393 L -16.65304 -10.65023" />
    <path d="M -21.51854 -15.48872 L -21.7423 -15.40932" />
    <path d="M -21.51854 -15.48872 A 2 0.62608 70.46364 0 0 -21.55749 -15.47921" />
    <path d="M -22.56865 -15.17644 L -21.91712 -15.2707" />
    <path d="M -22.67612 -15.17987 A 2 0.11863 161.58584 0 0 -22.56865 -15.17644 L -22.64748 -15.41323 L -12.24168 -16.9187 A 2 0.11863 161.58584 0 0 -9.93455 -17.60507 L -9.8209 -17.64514 L 9.87048 -24.63228 L 10.08987 -24.71118 A 2 0.11863 161.58584 0 0 11.13742 -25.17281 L 11.21625 -24.93603" />
    <path d="M -16.18415 -16.10013 L -21.51854 -15.48872" />
    <path d="M -1.53171 13.07828 L -1.75548 13.15768 L -11.44243 -15.64714" />
    <path d="M -1.53171 13.07828 L -6.86443 -2.77893" />
    <path d="M -10.88502 -14.85529 L -6.86443 -2.77893" />
    <path d="M -0.47922 16.39992 A 2 1.89577 261.76777 0 0 1.59728 17.74412" />
    <path d="M 10.31012 -24.45702 A 2 1.89577 261.76777 0 0 10.07948 -24.40803 L 10.15831 -24.41944 L 10.04467 -24.38329 L -9.64671 -17.39614 L -9.8661 -17.30159 A 2 1.89577 261.76777 0 0 -10.80619 -14.86669 L -0.40038 16.38852" />
    <path d="M 10.07948 -24.40803 L 9.96583 -24.37188 L 10.04467 -24.38329" />
    <path d="M 9.96583 -24.37188 L -9.72555 -17.38474 L -9.64671 -17.39614" />
    <path d="M -9.72555 -17.38474 L -9.94494 -17.29019 L -9.8661 -17.30159" />
    <path d="M -9.94494 -17.29019 A 2 1.89577 261.76777 0 0 -10.88502 -14.85529 L -10.80619 -14.86669" />
    <path d="M -1.27434 14.26795 L -1.49811 14.34735 A 2 0.62608 70.46364 0 0 -1.75548 13.15768" />
    <path d="M -1.33118 13.84094 A 2 0.62608 70.46364 0 0 -1.53171 13.07828" />
    <path d="M -1.26731 14.45397 L -1.49107 14.53337 L -1.49811 14.34735" />
    <path d="M -1.26731 38.32125 L -1.49107 38.40065 L -1.49107 14.53337" />
    <path d="M -1.26907 38.40689 L -1.49283 38.48628 L -1.49107 38.40065" />
    <path d="M -1.71414 39.01058 A 2 0.62608 70.46364 0 0 -1.49283 38.48628" />
    <path d="M -1.25374 14.07353 A 2 1.25663 325.02506 0 0 -1.28802 14.12355" />
    <path d="M 0.29985 38.77128 L 19.99123 31.78413 A 2 1.25663 325.02506 0 0 21.77782 29.83438 L 21.78135 29.74498 L 21.78135 10.63044" />
    <path d="M -1.18153 14.29043 A 2 1.25663 325.02506 0 0 -1.26814 14.432" />
    <path d="M -1.28612 38.58119 A 2 1.25663 325.02506 0 0 0.29985 38.77128" />
    <path d="M -6.61859 3.29453 L -6.84236 3.37393" />
    <path d="M -9.85572 -17.36829 L -9.93455 -17.60507" />
    <path d="M -9.74207 -17.40835 L -9.8209 -17.64514" />
    <path d="M 9.94931 -24.3955 L 9.87048 -24.63228" />
    <path d="M 10.1687 -24.47439 L 10.08987 -24.71118" />
    <path d="M 11.13742 -25.17281 A 2 0.11863 161.58584 0 0 11.02995 -25.17624 L 0.62415 -23.67076 A 2 0.11863 161.58584 0 0 -1.68298 -22.98439 L -1.79663 -22.94433 L -21.48801 -15.95718 L -21.7074 -15.87829 A 2 0.11863 161.58584 0 0 -22.75495 -15.41665 L -22.67612 -15.17987" />
    <path d="M -22.75495 -15.41665 A 2 0.11863 161.58584 0 0 -22.64748 -15.41323" />
    <path d="M 1.67611 17.73271 A 2 1.89577 261.76777 0 0 1.90675 17.68372 L 2.0204 17.64758 L 21.71178 10.66043 L 21.93117 10.56588 A 2 1.89577 261.76777 0 0 22.87125 8.13098 L 12.46545 -23.12423 A 2 1.89577 261.76777 0 0 10.38895 -24.46843 L 10.31012 -24.45702" />
    <path d="M 10.38895 -24.46843 A 2 1.89577 261.76777 0 0 10.15831 -24.41944" />
    <path d="M -12.86175 10.51558 L -13.08552 10.59498" />
    <path d="M -12.16285 -16.68192 L -12.24168 -16.9187" />
    <path d="M -21.78125 -15.39981 L -21.55749 -15.47921" />
</svg>