<svg version="1.1" xmlns="http://www.w3.org/2000/svg" viewBox="-23.710924050249048 -26.393250769136046 48.091862553653385 66.34371195861424" fill="none" stroke="black" stroke-width="0.6%" vector-effect="non-scaling-stroke">
    <path d="M -22.36297 -14.56089 L -22.28379 -14.57512" />
    <path d="M -22.16732 -15.349 L -22.60127 -15.27105" />
    <path d="M -22.47235 -14.55759 A 2 0.09914 161.44988 0 0 -22.36297 -14.56089 L -22.60127 -15.27105" />
    <path d="M -11.12257 -16.6443 A 2 0.09914 161.44988 0 0 -10.08956 -16.97316 L -10.06358 -16.99248 L -10.03747 -17.01139 L -10.01122 -17.0299 L -9.98486 -17.04799 L -9.95837 -17.06567 L -9.93178 -17.08293 L -9.90508 -17.09977 L -9.87828 -17.11617 L -9.85139 -17.13215 L -9.82442 -17.14769 L -9.79737 -17.16279 L -9.77024 -17.17745 L -9.74305 -17.19166 L -9.7158 -17.20542 L -9.5091 -17.24255 A 2 1.89292 259.81677 0 0 -10.4414 -14.81009 L -10.46967 -14.80501 L -10.97097 -16.28378 A 1 0.319 70.49268 0 0 -11.58618 -17.1452 L -12.08748 -17.07027 L -12.11576 -17.15453 L -15.04876 -16.62768 L -21.34975 -15.68595 L -22.01976 -15.44859 A 2 0.638 70.49268 0 0 -22.05293 -15.43988 A 2 0.638 70.49268 0 0 -22.28201 -14.89973 L -22.28379 -14.81306 L -22.28379 9.32366 L -22.2767 9.51153 A 2 0.638 70.49268 0 0 -21.38507 12.00184 L -2.51211 38.42771 A 2 0.638 70.49268 0 0 -1.84425 38.8931 A 2 0.638 70.49268 0 0 -1.61517 38.35294 L -1.6134 38.26628 L -1.6134 14.12956 L -1.62048 13.94168 A 2 0.638 70.49268 0 0 -1.87982 12.74751 L -11.64099 -16.04642 A 1 0.319 70.49268 0 0 -12.2562 -16.90783 L -22.01976 -15.44859" />
    <path d="M 10.86535 -24.39974 A 2 0.09914 161.44988 0 0 11.4591 -24.67618" />
    <path d="M -21.34975 -15.68595 A 2 0.638 70.49268 0 0 -21.38291 -15.67724" />
    <path d="M -12.11576 -17.15453 A 2 0.09914 161.44988 0 0 -9.80701 -17.86167 L -9.69357 -17.90164 L 9.96019 -24.86423 L 10.17911 -24.94266 A 2 0.09914 161.44988 0 0 11.2208 -25.38634 A 2 0.09914 161.44988 0 0 11.11141 -25.38304 L 0.62589 -23.49956 A 2 0.09914 161.44988 0 0 -1.68286 -22.79242 L -1.7963 -22.75245 L -21.45006 -15.78987 L -21.66898 -15.71143 A 2 0.09914 161.44988 0 0 -22.71066 -15.26775 A 2 0.09914 161.44988 0 0 -22.60127 -15.27105" />
    <path d="M -0.94338 15.312 L -0.94338 14.24715 L -0.19419 16.47976 A 2 1.89292 259.81677 0 0 1.94611 17.81529" />
    <path d="M -0.94515 38.11558 L -0.94338 38.02892 L -1.6134 38.26628" />
    <path d="M -1.17424 38.65574 A 2 0.638 70.49268 0 0 -0.94515 38.11558 L -1.61517 38.35294" />
    <path d="M -19.14231 1.54333 L -16.66683 5.00948" />
    <path d="M -19.58813 0.29817 A 1 0.319 70.49268 0 0 -19.14231 1.54333 L -19.81233 1.78069 L -17.11619 5.55581 A 1 0.319 70.49268 0 0 -16.78226 5.78851 A 1 0.319 70.49268 0 0 -16.66772 5.51843 L -16.66683 5.47509 L -16.66683 1.21567 L -16.67038 1.12174 A 1 0.319 70.49268 0 0 -17.11619 -0.12342 L -19.81233 -3.89854 A 1 0.319 70.49268 0 0 -20.14625 -4.13124 A 1 0.319 70.49268 0 0 -20.2608 -3.86116 L -20.26168 -3.81783 L -20.26168 0.4416 L -20.25814 0.53553 A 1 0.319 70.49268 0 0 -19.81233 1.78069" />
    <path d="M -19.59167 0.20423 L -19.58813 0.29817 L -20.25814 0.53553" />
    <path d="M -19.59167 -3.58958 L -19.59167 0.20423 L -20.26168 0.4416" />
    <path d="M -19.14231 -4.84581 L -16.66683 -1.37965" />
    <path d="M -19.58813 -6.09096 A 1 0.319 70.49268 0 0 -19.14231 -4.84581 L -19.81233 -4.60845 L -17.11619 -0.83332 A 1 0.319 70.49268 0 0 -16.78226 -0.60063 A 1 0.319 70.49268 0 0 -16.66772 -0.8707 L -16.66683 -0.91404 L -16.66683 -5.17346 L -16.67038 -5.26739 A 1 0.319 70.49268 0 0 -17.11619 -6.51255 L -19.81233 -10.28767 A 1 0.319 70.49268 0 0 -20.14625 -10.52037 A 1 0.319 70.49268 0 0 -20.2608 -10.25029 L -20.26168 -10.20696 L -20.26168 -5.94754 L -20.25814 -5.8536 A 1 0.319 70.49268 0 0 -19.81233 -4.60845" />
    <path d="M -19.59167 -6.1849 L -19.58813 -6.09096 L -20.25814 -5.8536" />
    <path d="M -19.59167 -9.97871 L -19.59167 -6.1849 L -20.26168 -5.94754" />
    <path d="M -15.09811 7.20601 L -12.62263 10.67217" />
    <path d="M -15.54392 5.96086 A 1 0.319 70.49268 0 0 -15.09811 7.20601 L -15.76812 7.44337 L -13.07198 11.2185 A 1 0.319 70.49268 0 0 -12.73805 11.45119 A 1 0.319 70.49268 0 0 -12.62351 11.18111 L -12.62263 11.13778 L -12.62263 6.87836 L -12.62617 6.78442 A 1 0.319 70.49268 0 0 -13.07198 5.53927 L -15.76812 1.76414 A 1 0.319 70.49268 0 0 -16.10205 1.53145 A 1 0.319 70.49268 0 0 -16.21659 1.80153 L -16.21748 1.84486 L -16.21748 6.10428 L -16.21393 6.19822 A 1 0.319 70.49268 0 0 -15.76812 7.44337" />
    <path d="M -15.54746 5.86692 L -15.54392 5.96086 L -16.21393 6.19822" />
    <path d="M -15.54746 2.07311 L -15.54746 5.86692 L -16.21748 6.10428" />
    <path d="M -15.54746 -4.31602 L -15.54746 -0.52221 L -15.54392 -0.42828 A 1 0.319 70.49268 0 0 -15.09811 0.81688 L -12.62263 4.28304" />
    <path d="M -9.6028 -17.25313 L -9.61081 -17.24973 L -9.61883 -17.24633 L -9.62686 -17.24292 L -9.6349 -17.23952 L -9.64295 -17.23611 L -9.651 -17.23271 L -9.65907 -17.2293 L -9.66715 -17.22589 L -9.67524 -17.22248 L -9.68333 -17.21907 L -9.69144 -17.21566 L -9.69955 -17.21224 L -9.70767 -17.20883 L -9.7158 -17.20542" />
    <path d="M -9.6028 -17.25313 L -9.80701 -17.86167" />
    <path d="M -10.08956 -16.97316 A 2 1.89292 259.81677 0 0 -10.773 -15.69979" />
    <path d="M 10.38582 -24.32667 L 10.38943 -24.32743 L 10.39303 -24.32818 L 10.39664 -24.32893 L 10.40025 -24.32966 L 10.40385 -24.33039 L 10.40745 -24.33111 L 10.41106 -24.33182 L 10.41466 -24.33252 L 10.41826 -24.33321 L 10.42186 -24.3339 L 10.42545 -24.33457 L 10.42905 -24.33524 L 10.43265 -24.3359 L 10.43624 -24.33655" />
    <path d="M 10.38582 -24.32667 L 10.17911 -24.94266" />
    <path d="M -15.76812 1.05424 L -13.07198 4.82936 A 1 0.319 70.49268 0 0 -12.73805 5.06206 A 1 0.319 70.49268 0 0 -12.62351 4.79198 L -12.62263 4.74865 L -12.62263 0.48923 L -12.62617 0.39529 A 1 0.319 70.49268 0 0 -13.07198 -0.84986 L -15.76812 -4.62499 A 1 0.319 70.49268 0 0 -16.10205 -4.85768 A 1 0.319 70.49268 0 0 -16.21659 -4.58761 L -16.21748 -4.54427 L -16.21748 -0.28485 L -16.21393 -0.19091 A 1 0.319 70.49268 0 0 -15.76812 1.05424 Z" />
    <path d="M -11.58618 -17.1452 L -12.2562 -16.90783" />
    <path d="M -12.08748 -17.07027 L -15.04876 -16.62768" />
    <path d="M -9.6028 -17.25313 L -9.49187 -17.30058 L -9.29018 -17.33681 L -9.5091 -17.24255" />
    <path d="M -9.49187 -17.30058 L -9.69357 -17.90164" />
    <path d="M -9.49187 -17.30058 L 10.16189 -24.26317 L 10.36358 -24.2994 L -9.29018 -17.33681" />
    <path d="M 10.16189 -24.26317 L 9.96019 -24.86423" />
    <path d="M 10.16189 -24.26317 L 10.27282 -24.29873 L 10.47702 -24.33541 L 10.36358 -24.2994" />
    <path d="M 10.27282 -24.29873 L 10.28083 -24.30098 L 10.28884 -24.30319 L 10.29687 -24.30536 L 10.30491 -24.30749 L 10.31296 -24.30959 L 10.32102 -24.31164 L 10.32909 -24.31366 L 10.33716 -24.31563 L 10.34525 -24.31757 L 10.35335 -24.31947 L 10.36145 -24.32133 L 10.36957 -24.32315 L 10.37769 -24.32493 L 10.38582 -24.32667" />
    <path d="M -10.97097 -16.28378 L -11.64099 -16.04642" />
    <path d="M -1.20981 12.51015 L -1.87982 12.74751" />
    <path d="M -1.20981 12.51015 L -7.50897 -6.0714 L -10.4414 -14.81009" />
    <path d="M -7.50897 -6.0714 L -10.46967 -14.80501" />
    <path d="M -0.94338 13.8922 L -1.6134 14.12956" />
    <path d="M -0.94338 14.24715 L -0.94338 13.8922 L -0.95047 13.70432 L -1.62048 13.94168" />
    <path d="M -0.93986 15.2216 L -0.94338 15.312" />
    <path d="M -0.7943 14.69141 A 2 1.26839 324.46613 0 0 -0.93986 15.2216" />
    <path d="M 22.28379 29.8004 L 22.28379 10.66467" />
    <path d="M 22.28026 29.8908 L 22.28379 29.8004" />
    <path d="M 20.49708 31.85317 A 2 1.26839 324.46613 0 0 22.28026 29.8908" />
    <path d="M 0.84332 38.81576 L 20.49708 31.85317" />
    <path d="M -0.92929 38.20187 A 2 1.26839 324.46613 0 0 -0.78422 38.55832 L -0.96458 38.30578" />
    <path d="M -0.78422 38.55832 A 2 1.26839 324.46613 0 0 0.84332 38.81576" />
    <path d="M -0.94338 38.02892 L -0.92929 38.20187" />
    <path d="M -0.94338 15.21667 L -0.93986 15.2216" />
    <path d="M -0.94863 38.1748 L -0.92929 38.20187" />
    <path d="M -13.97108 8.78406 L -12.62263 8.30635" />
    <path d="M -19.85927 -3.96039 L -20.26168 -3.81783" />
    <path d="M -19.88724 -3.9935 L -20.2608 -3.86116" />
    <path d="M -19.85927 -10.34952 L -20.26168 -10.20696" />
    <path d="M -19.88724 -10.38263 L -20.2608 -10.25029" />
    <path d="M -15.81506 1.7023 L -16.21748 1.84486" />
    <path d="M -15.84303 1.66919 L -16.21659 1.80153" />
    <path d="M -15.84303 -4.71994 L -16.21659 -4.58761" />
    <path d="M -15.81506 -4.68683 L -16.21748 -4.54427" />
    <path d="M -15.54746 -0.52221 L -16.21748 -0.28485" />
    <path d="M -15.54392 -0.42828 L -16.21393 -0.19091" />
    <path d="M 0.04412 16.43696 L -0.99687 13.33477 A 2 0.638 70.49268 0 0 -1.20981 12.51015" />
    <path d="M -0.95047 13.70432 A 2 0.638 70.49268 0 0 -0.99687 13.33477" />
    <path d="M 12.78577 -23.0386 A 2 1.89292 259.81677 0 0 10.64547 -24.37413 L 10.43624 -24.33655" />
    <path d="M 10.64547 -24.37413 A 2 1.89292 259.81677 0 0 10.47702 -24.33541" />
    <path d="M 0.04412 16.43696 A 2 1.89292 259.81677 0 0 2.18442 17.77249 L 1.94611 17.81529" />
    <path d="M 2.18442 17.77249 A 2 1.89292 259.81677 0 0 2.35287 17.73376 L 2.46631 17.69775 L 22.12007 10.73517 L 22.33899 10.6409 A 2 1.89292 259.81677 0 0 23.27129 8.20844 L 12.78577 -23.0386" />
    <path d="M -16.66683 5.39662 L -17.11619 5.55581" />
    <path d="M -16.66683 -0.99251 L -17.11619 -0.83332" />
    <path d="M -12.62263 11.05931 L -13.07198 11.2185" />
    <path d="M -12.62263 4.67017 L -13.07198 4.82936" />
    <path d="M -15.09811 0.81688 L -15.76812 1.05424" />
    <path d="M -0.19419 16.47976 L 0.04412 16.43696" />
    <path d="M -22.05293 -15.43988 L -21.38291 -15.67724" />
    <path d="M -22.71066 -15.26775 L -22.47235 -14.55759" />
    <path d="M 11.2208 -25.38634 L 11.4591 -24.67618" />
    <path d="M -1.84425 38.8931 L -1.17424 38.65574" />
</svg>