<svg version="1.1" xmlns="http://www.w3.org/2000/svg" viewBox="-23.740762773214158 -25.77157524428193 47.70509332262468 65.54173031984799" fill="none" stroke="black" stroke-width="0.6%" vector-effect="non-scaling-stroke">
    <path d="M -1.22065 14.42735 L -0.47451 16.66028 A 2 1.89451 260.89458 0 0 1.63054 18.00075" />
    <path d="M -0.3954 16.6476 L -1.22065 14.17792 L -1.22065 14.0746 L -1.22771 13.88776 L -1.45128 13.96705 A 2 0.63146 70.47229 0 0 -1.70956 12.77538 L -11.43096 -16.02446 A 1 0.31573 70.47229 0 0 -12.04366 -16.89216 L -21.76745 -15.62644 A 2 0.63146 70.47229 0 0 -21.80387 -15.61725 L -21.5803 -15.69654" />
    <path d="M -1.22065 14.42735 L -1.22065 14.17792" />
    <path d="M -10.3235 -16.7982 A 2 1.89451 260.89458 0 0 -11.00989 -15.51865" />
    <path d="M -0.3954 16.6476 A 2 1.89451 260.89458 0 0 1.70965 17.98807 A 2 1.89451 260.89458 0 0 1.91249 17.94339 L 2.02604 17.9073 L 21.70001 10.92967 L 21.91918 10.83523 A 2 1.89451 260.89458 0 0 22.85565 8.40131 L 12.41285 -22.85012 A 2 1.89451 260.89458 0 0 10.30781 -24.19059 A 2 1.89451 260.89458 0 0 10.10497 -24.14591 L 9.99142 -24.10982 L -9.68255 -17.13219 L -9.90172 -17.03776 A 2 1.89451 260.89458 0 0 -10.94608 -15.32963" />
    <path d="M -1.22065 38.06168 L -1.44422 38.14097 L -1.44422 14.15389 L -1.45128 13.96705" />
    <path d="M -1.22065 14.0746 L -1.44422 14.15389" />
    <path d="M -1.22065 38.06168 L -1.22065 14.42735" />
    <path d="M -10.3235 -16.7982 L -10.2975 -16.81747 L -10.27136 -16.83634 L -10.24508 -16.85481 L -10.21869 -16.87287 L -10.19218 -16.89052 L -10.16556 -16.90775 L -10.13883 -16.92456 L -10.11201 -16.94095 L -10.08509 -16.9569 L -10.05809 -16.97243 L -10.03101 -16.98751 L -10.00386 -17.00216 L -9.97664 -17.01636 L -9.94936 -17.03012 L -9.90172 -17.03776" />
    <path d="M -22.66133 -14.60727 A 2 0.11002 161.52274 0 0 -22.55297 -14.6068 L -22.0304 -14.69055" />
    <path d="M -11.36165 -16.47144 A 2 0.11002 161.52274 0 0 -10.3235 -16.7982" />
    <path d="M 10.58085 -24.21319 A 2 0.11002 161.52274 0 0 11.24923 -24.52629" />
    <path d="M -21.54388 -15.70573 A 2 0.63146 70.47229 0 0 -21.5803 -15.69654" />
    <path d="M -11.82009 -16.97145 L -21.54388 -15.70573 L -21.76745 -15.62644" />
    <path d="M -11.20739 -16.10375 A 1 0.31573 70.47229 0 0 -11.82009 -16.97145 L -12.04366 -16.89216" />
    <path d="M -1.48599 12.69609 L -11.20739 -16.10375 L -11.43096 -16.02446" />
    <path d="M -1.22771 13.88776 A 2 0.63146 70.47229 0 0 -1.48599 12.69609 L -1.70956 12.77538" />
    <path d="M -1.22242 38.14777 L -1.22065 38.06168" />
    <path d="M -1.44718 38.67908 A 2 0.63146 70.47229 0 0 -1.22242 38.14777 L -1.44598 38.22706 L -1.44422 38.14097" />
    <path d="M -19.12168 1.42257 L -12.85632 10.29544 A 1 0.31573 70.47229 0 0 -12.65832 10.50304" />
    <path d="M -19.56567 0.17671 A 1 0.31573 70.47229 0 0 -19.12168 1.42257 L -19.34524 1.50186 L -13.07989 10.37473 A 1 0.31573 70.47229 0 0 -12.74562 10.61171 A 1 0.31573 70.47229 0 0 -12.63324 10.34606 L -12.63236 10.30301 L -12.63236 0.42598 L -12.63589 0.33256 A 1 0.31573 70.47229 0 0 -13.07989 -0.9133 L -19.34524 -9.78618 A 1 0.31573 70.47229 0 0 -19.67951 -10.02315 A 1 0.31573 70.47229 0 0 -19.79189 -9.7575 L -19.79277 -9.71445 L -19.79277 0.16258 L -19.78924 0.256 A 1 0.31573 70.47229 0 0 -19.34524 1.50186" />
    <path d="M -19.5692 0.08329 L -19.56567 0.17671 L -19.78924 0.256" />
    <path d="M -19.5692 -9.79374 L -19.5692 0.08329 L -19.79277 0.16258" />
    <path d="M -19.56832 -9.83679 L -19.5692 -9.79374 L -19.79277 -9.71445" />
    <path d="M -19.54324 -9.99377 A 1 0.31573 70.47229 0 0 -19.56832 -9.83679 L -19.79189 -9.7575" />
    <path d="M -16.43652 -11.00132 L -6.59096 2.94177 L -6.81453 3.02106 L -16.66009 -10.92203 A 1 0.31573 250.47229 0 1 -16.99435 -12.57001 A 1 0.31573 250.47229 0 1 -16.98632 -12.57249 L -12.04366 -13.36465 A 1 0.31573 250.47229 0 1 -11.43096 -12.49695 L -6.48829 2.29461 A 1 0.31573 250.47229 0 1 -6.48026 3.25804 A 1 0.31573 250.47229 0 1 -6.81453 3.02106" />
    <path d="M -16.83192 -12.59723 A 1 0.31573 70.47229 0 0 -16.43652 -11.00132 L -16.66009 -10.92203" />
    <path d="M -6.59096 2.94177 A 1 0.31573 70.47229 0 0 -6.39296 3.14936" />
    <path d="M 10.17293 -24.16675 L 10.17887 -24.16801 L 10.1848 -24.16924 L 10.19073 -24.17046 L 10.19666 -24.17164 L 10.20258 -24.17281 L 10.2085 -24.17395 L 10.21442 -24.17507 L 10.22034 -24.17616 L 10.22625 -24.17724 L 10.23216 -24.17829 L 10.23807 -24.17931 L 10.24397 -24.18032 L 10.24987 -24.18129 L 10.25577 -24.18225" />
    <path d="M 10.05982 -24.13868 L 10.06783 -24.14094 L 10.07586 -24.14316 L 10.0839 -24.14534 L 10.09195 -24.14748 L 10.1 -24.14959 L 10.10807 -24.15165 L 10.11614 -24.15367 L 10.12423 -24.15566 L 10.13232 -24.15761 L 10.14043 -24.15952 L 10.14854 -24.16138 L 10.15666 -24.16321 L 10.16479 -24.165 L 10.17293 -24.16675 L 10.12529 -24.30932 A 2 0.11002 161.52274 0 0 11.17012 -24.76304 L 11.24923 -24.52629" />
    <path d="M 10.05982 -24.13868 L 10.10497 -24.14591" />
    <path d="M 9.94877 -24.10299 L 10.05982 -24.13868" />
    <path d="M 9.94877 -24.10299 L 9.99142 -24.10982" />
    <path d="M -9.7252 -17.12536 L 9.94877 -24.10299 L 9.90612 -24.23062 L 10.12529 -24.30932" />
    <path d="M -9.7252 -17.12536 L -9.68255 -17.13219" />
    <path d="M -9.83625 -17.07785 L -9.7252 -17.12536 L -9.76785 -17.25299 L 9.90612 -24.23062" />
    <path d="M -9.83625 -17.07785 L -9.84427 -17.07444 L -9.85229 -17.07104 L -9.86033 -17.06763 L -9.86838 -17.06422 L -9.87643 -17.06082 L -9.8845 -17.05741 L -9.89258 -17.054 L -9.90066 -17.05059 L -9.90876 -17.04718 L -9.91686 -17.04377 L -9.92497 -17.04036 L -9.93309 -17.03694 L -9.94122 -17.03353 L -9.94936 -17.03012" />
    <path d="M -21.13535 11.66579 L -2.33927 38.28442 A 2 0.63146 70.47229 0 0 -1.67074 38.75837 L -1.44718 38.67908" />
    <path d="M -1.67074 38.75837 A 2 0.63146 70.47229 0 0 -1.44598 38.22706" />
    <path d="M -21.80387 -15.61725 A 2 0.63146 70.47229 0 0 -22.02863 -15.08594 L -22.0304 -14.99984 L -22.0304 8.98723 L -22.02334 9.17407 A 2 0.63146 70.47229 0 0 -21.13535 11.66579" />
    <path d="M -9.83625 -17.07785 L -9.8814 -17.21296 L -9.76785 -17.25299" />
    <path d="M -11.4898 -16.6939 A 2 0.11002 161.52274 0 0 -9.8814 -17.21296" />
    <path d="M -22.02246 -15.17614 A 2 0.11002 161.52274 0 0 -22.74044 -14.84402 L -22.66133 -14.60727" />
    <path d="M -22.74044 -14.84402 A 2 0.11002 161.52274 0 0 -22.63208 -14.84355" />
    <path d="M -22.0304 -14.93998 L -22.63208 -14.84355" />
    <path d="M -1.80247 -22.35407 L -19.97055 -15.91053" />
    <path d="M -1.68892 -22.3941 L -1.80247 -22.35407" />
    <path d="M 0.61896 -23.08984 A 2 0.11002 161.52274 0 0 -1.68892 -22.3941" />
    <path d="M 11.06176 -24.76352 L 0.61896 -23.08984" />
    <path d="M 11.17012 -24.76304 A 2 0.11002 161.52274 0 0 11.06176 -24.76352" />
    <path d="M -14.3 8.25093 L -12.63236 7.65947" />
    <path d="M 0.34413 38.52146 L 20.01809 31.54383 A 2 1.26182 324.77313 0 0 21.80311 29.58835 L 21.80663 29.4985 L 21.80663 10.88373" />
    <path d="M -1.24018 38.32713 A 2 1.26182 324.77313 0 0 0.34413 38.52146" />
    <path d="M -0.47451 16.66028 L -0.3954 16.6476" />
    <path d="M -22.55297 -14.6068 L -22.63208 -14.84355" />
    <path d="M -12.85632 10.29544 L -13.07989 10.37473" />
    <path d="M 1.70965 17.98807 L 1.63054 18.00075" />
    <path d="M 10.30781 -24.19059 L 10.25577 -24.18225" />
</svg>