<svg version="1.1" xmlns="http://www.w3.org/2000/svg" viewBox="-1.7571642356874504 -50.92886054018024 3.5143284713748963 126.38184717717992" fill="none" stroke="black" stroke-width="0.6%" vector-effect="non-scaling-stroke">
    <path d="M 0.75532 74.44852 A 1 0.00503 89.65864 0 0 0.75715 74.2514 L 0.75716 74.21238 L 0.75716 25.16413 L 0.7571 25.07722 A 1 0.00503 89.65864 0 0 0.75418 24.36353 L 0.37996 -36.7988 A 1 0.00503 89.65864 0 0 0.37002 -37.77258 L -0.00419 -49.90776 A 1 0.00503 89.65864 0 0 -0.00534 -49.92886" />
    <path d="M -0.74936 0.76921 L -0.00061 74.09838 A 1 0.00503 89.65864 0 0 0.00534 74.45299 A 1 0.00503 89.65864 0 0 0.00717 74.25586 L 0.00719 74.21685 L 0.00719 25.1686 L 0.00712 25.08169 A 1 0.00503 89.65864 0 0 0.0042 24.368 L -0.37002 -36.79433 A 1 0.00503 89.65864 0 0 -0.37996 -37.76812 L -0.75417 -49.9033 A 1 0.00503 89.65864 0 0 -0.75532 -49.92439 L -0.00534 -49.92886" />
    <path d="M 0.75715 74.2514 L 0.00717 74.25586" />
    <path d="M 0.75716 74.21238 L 0.00719 74.21685" />
    <path d="M 0.75716 25.16413 L 0.00719 25.1686" />
    <path d="M 0.7571 25.07722 L 0.00712 25.08169" />
    <path d="M 0.75418 24.36353 L 0.0042 24.368" />
    <path d="M 0.37996 -36.7988 L -0.37002 -36.79433" />
    <path d="M 0.37002 -37.77258 L -0.37996 -37.76812" />
    <path d="M -0.00419 -49.90776 L -0.75417 -49.9033" />
    <path d="M -0.75532 -49.92439 A 1 0.00503 89.65864 0 0 -0.75715 -49.72727 L -0.75716 -49.68825 L -0.75716 -0.64 L -0.7571 -0.55309 A 1 0.00503 89.65864 0 0 -0.74936 0.76921" />
    <path d="M 0.00534 74.45299 L 0.75532 74.44852" />
</svg>