<svg version="1.1" xmlns="http://www.w3.org/2000/svg" viewBox="-23.742275301746943 -26.167441095392604 47.708108381886504 66.15186651471322" fill="none" stroke="black" stroke-width="0.6%" vector-effect="non-scaling-stroke">
    <path d="M -1.2183 14.79704 L -0.47202 17.02874 A 2 1.89525 262.30693 0 0 1.58417 18.371" />
    <path d="M -0.3929 17.01806 L -1.2183 14.54972 L -1.2183 14.44728 L -1.22536 14.26186 L -1.44892 14.34183 A 2 0.62621 70.31761 0 0 -1.70725 13.15414 L -11.43038 -15.6323 A 1 0.3131 70.31761 0 0 -12.04319 -16.50721 L -21.76871 -15.48369 A 2 0.62621 70.31761 0 0 -21.81011 -15.47374 L -21.58655 -15.55371" />
    <path d="M -1.2183 14.79704 L -1.2183 14.54972" />
    <path d="M -9.98039 -16.64325 A 2 1.89525 262.30693 0 0 -11.00984 -15.12908" />
    <path d="M -9.76123 -16.73836 L -9.98039 -16.64325 L -9.90127 -16.65394 A 2 1.89525 262.30693 0 0 -10.94558 -14.93883" />
    <path d="M 9.91185 -23.77552 L -9.76123 -16.73836 L -9.68211 -16.74904 L -9.90127 -16.65394" />
    <path d="M 10.0254 -23.81195 L 9.91185 -23.77552 L 9.99098 -23.78621 L -9.68211 -16.74904" />
    <path d="M 10.27713 -23.86453 A 2 1.89525 262.30693 0 0 10.0254 -23.81195 L 10.10453 -23.82264 L 9.99098 -23.78621" />
    <path d="M -0.3929 17.01806 A 2 1.89525 262.30693 0 0 1.6633 18.36031 A 2 1.89525 262.30693 0 0 1.91503 18.30774 L 2.02858 18.27131 L 21.70166 11.23414 L 21.92082 11.13903 A 2 1.89525 262.30693 0 0 22.85711 8.70141 L 12.41245 -22.53296 A 2 1.89525 262.30693 0 0 10.35626 -23.87522 A 2 1.89525 262.30693 0 0 10.10453 -23.82264" />
    <path d="M -1.2183 38.23047 L -1.44186 38.31044 L -1.44186 14.52725 L -1.44892 14.34183" />
    <path d="M -1.2183 14.44728 L -1.44186 14.52725" />
    <path d="M -1.2183 38.23047 L -1.2183 14.79704" />
    <path d="M -11.81963 -16.58717 L -13.84683 -16.37383 L -12.10977 -16.60848 L -12.18889 -16.8451 A 2 0.12602 161.51025 0 0 -9.88097 -17.53001 L -9.76742 -17.57035 L 9.90566 -24.60752 L 10.12483 -24.68702 A 2 0.12602 161.51025 0 0 11.16941 -25.15628 L 11.24854 -24.91965" />
    <path d="M -11.20682 -15.71226 A 1 0.3131 70.31761 0 0 -11.81963 -16.58717 L -12.04319 -16.50721" />
    <path d="M -1.48369 13.07418 L -11.20682 -15.71226 L -11.43038 -15.6323" />
    <path d="M -1.22536 14.26186 A 2 0.62621 70.31761 0 0 -1.48369 13.07418 L -1.70725 13.15414" />
    <path d="M -1.22006 38.31579 L -1.2183 38.23047" />
    <path d="M -1.4399 38.83553 A 2 0.62621 70.31761 0 0 -1.22006 38.31579 L -1.44362 38.39576 L -1.44186 38.31044" />
    <path d="M -19.12252 1.4767 L -12.85604 10.42329 A 1 0.3131 70.31761 0 0 -12.65616 10.63504" />
    <path d="M -19.5666 0.23087 A 1 0.3131 70.31761 0 0 -19.12252 1.4767 L -19.34608 1.55667 L -13.0796 10.50326 A 1 0.3131 70.31761 0 0 -12.74279 10.74533 A 1 0.3131 70.31761 0 0 -12.63288 10.48546 L -12.63199 10.44279 L -12.63199 0.64972 L -12.63552 0.55701 A 1 0.3131 70.31761 0 0 -13.0796 -0.68883 L -19.34608 -9.63542 A 1 0.3131 70.31761 0 0 -19.68288 -9.87749 A 1 0.3131 70.31761 0 0 -19.7928 -9.61761 L -19.79368 -9.57495 L -19.79368 0.21812 L -19.79015 0.31083 A 1 0.3131 70.31761 0 0 -19.34608 1.55667" />
    <path d="M -19.57013 0.13816 L -19.5666 0.23087 L -19.79015 0.31083" />
    <path d="M -19.57013 -9.65492 L -19.57013 0.13816 L -19.79368 0.21812" />
    <path d="M -19.56924 -9.69758 L -19.57013 -9.65492 L -19.79368 -9.57495" />
    <path d="M -19.54596 -9.84716 A 1 0.3131 70.31761 0 0 -19.56924 -9.69758 L -19.7928 -9.61761" />
    <path d="M -16.43689 -10.77767 L -6.58956 3.28125 L -6.81312 3.36122 L -16.66044 -10.6977 A 1 0.3131 250.31761 0 1 -16.99725 -12.33878 A 1 0.3131 250.31761 0 1 -16.98673 -12.34189 L -12.04319 -13.00968 A 1 0.3131 250.31761 0 1 -11.43038 -12.13477 L -6.48683 2.64871 A 1 0.3131 250.31761 0 1 -6.47632 3.60329 A 1 0.3131 250.31761 0 1 -6.81312 3.36122" />
    <path d="M -16.83691 -12.36213 A 1 0.3131 70.31761 0 0 -16.43689 -10.77767 L -16.66044 -10.6977" />
    <path d="M -6.58956 3.28125 A 1 0.3131 70.31761 0 0 -6.38969 3.493" />
    <path d="M -1.2695 38.62371 A 2 1.25104 324.99137 0 0 0.34636 38.84509 L 20.01945 31.80793 A 2 1.25104 324.99137 0 0 21.80438 29.85828 L 21.80791 29.76917 L 21.80791 11.18803" />
    <path d="M -21.1365 11.5916 L -2.33707 38.43136 A 2 0.62621 70.31761 0 0 -1.66346 38.9155 L -1.4399 38.83553" />
    <path d="M -1.66346 38.9155 A 2 0.62621 70.31761 0 0 -1.44362 38.39576" />
    <path d="M -21.81011 -15.47374 A 2 0.62621 70.31761 0 0 -22.02994 -14.954 L -22.03171 -14.86868 L -22.03171 8.91451 L -22.02465 9.09993 A 2 0.62621 70.31761 0 0 -21.1365 11.5916" />
    <path d="M -14.54603 8.01051 L -12.63199 7.32585" />
    <path d="M 1.55376 -20.78579 L 1.55376 -21.35507" />
    <path d="M -21.54516 -15.56366 L -21.76871 -15.48369" />
    <path d="M -21.54516 -15.56366 A 2 0.62621 70.31761 0 0 -21.58655 -15.55371" />
    <path d="M -22.55443 -15.19759 L -21.97571 -15.27577" />
    <path d="M -12.10977 -16.60848 A 2 0.12602 161.51025 0 0 -9.80184 -17.29339 L -9.88097 -17.53001" />
    <path d="M -9.80184 -17.29339 L -9.68829 -17.33373 L -9.76742 -17.57035" />
    <path d="M -9.68829 -17.33373 L 9.98479 -24.37089 L 9.90566 -24.60752" />
    <path d="M 9.98479 -24.37089 L 10.20395 -24.4504 L 10.12483 -24.68702" />
    <path d="M 10.20395 -24.4504 A 2 0.12602 161.51025 0 0 11.24854 -24.91965" />
    <path d="M -22.66273 -15.20306 A 2 0.12602 161.51025 0 0 -22.55443 -15.19759 L -22.63355 -15.43422 L -12.18889 -16.8451" />
    <path d="M -13.84683 -16.37383 L -21.54516 -15.56366" />
    <path d="M 11.16941 -25.15628 A 2 0.12602 161.51025 0 0 11.06112 -25.16175 L 0.61645 -23.75086 A 2 0.12602 161.51025 0 0 -1.69147 -23.06595 L -1.80502 -23.02561 L -21.4781 -15.98845 L -21.69726 -15.90894 A 2 0.12602 161.51025 0 0 -22.74185 -15.43969 L -22.66273 -15.20306" />
    <path d="M -22.74185 -15.43969 A 2 0.12602 161.51025 0 0 -22.63355 -15.43422" />
    <path d="M -0.47202 17.02874 L -0.3929 17.01806" />
    <path d="M -12.85604 10.42329 L -13.0796 10.50326" />
    <path d="M 1.6633 18.36031 L 1.58417 18.371" />
    <path d="M 10.35626 -23.87522 L 10.27713 -23.86453" />
</svg>