<svg version="1.1" xmlns="http://www.w3.org/2000/svg" viewBox="-18.945231701595667 -21.8465457677598 37.89046340319133 43.69309153551959" fill="none" stroke="black" stroke-width="0.6%" vector-effect="non-scaling-stroke">
    <path d="M -17.63829 -8.96461 L -1.35654 19.73913 A 2 1.64711 240.43661 0 0 0.971 20.71368 L 1.06291 20.66609 L 1.43295 20.45619 L 17.19238 11.5169 L 17.36416 11.40133 A 2 1.64711 240.43661 0 0 17.63829 8.96461 L 1.35654 -19.73913 A 2 1.64711 240.43661 0 0 -0.971 -20.71368 L -1.06291 -20.66609 L -16.82234 -11.7268 L -16.99412 -11.61122 A 2 1.64711 240.43661 0 0 -17.26825 -9.17451 L -0.9865 19.52923 A 2 1.64711 240.43661 0 0 1.34104 20.50378 L 1.43295 20.45619" />
    <path d="M 0.971 20.71368 L 1.34104 20.50378" />
    <path d="M -17.19238 -11.5169 L -16.82234 -11.7268" />
    <path d="M -17.36416 -11.40133 L -16.99412 -11.61122" />
    <path d="M -17.19238 -11.5169 L -17.36416 -11.40133 A 2 1.64711 240.43661 0 0 -17.63829 -8.96461 L -17.26825 -9.17451" />
    <path d="M -1.35654 19.73913 L -0.9865 19.52923" />
</svg>