<svg version="1.1" xmlns="http://www.w3.org/2000/svg" viewBox="-18.82266304190923 -21.753948573437246 37.64532608381846 43.5078971468745" fill="none" stroke="black" stroke-width="0.6%" vector-effect="non-scaling-stroke">
    <path d="M -17.51022 -8.98938 L -1.11755 19.65116 A 2 1.64001 240.21494 0 0 1.20797 20.62001 L 1.2993 20.57228 L 1.42349 20.5012 L 17.08037 11.53984 L 17.25093 11.42404 A 2 1.64001 240.21494 0 0 17.51022 8.98938 L 1.11755 -19.65116 A 2 1.64001 240.21494 0 0 -1.20797 -20.62001 L -1.2993 -20.57228 L -16.95618 -11.61092 L -17.12674 -11.49512 A 2 1.64001 240.21494 0 0 -17.38604 -9.06046 L -0.99336 19.58008 A 2 1.64001 240.21494 0 0 1.33215 20.54893 L 1.42349 20.5012" />
    <path d="M 1.20797 20.62001 L 1.33215 20.54893" />
    <path d="M -17.08037 -11.53984 L -16.95618 -11.61092" />
    <path d="M -17.25093 -11.42404 L -17.12674 -11.49512" />
    <path d="M -17.08037 -11.53984 L -17.25093 -11.42404 A 2 1.64001 240.21494 0 0 -17.51022 -8.98938 L -17.38604 -9.06046" />
    <path d="M -1.11755 19.65116 L -0.99336 19.58008" />
</svg>